<svg xmlns="http://www.w3.org/2000/svg" viewBox="0 0 251 253"><path d="M17 244h228V12H17v232z" fill="#e94142" fill-opacity=".364"/><path d="M225.2 7v229H239V7h-13.8z" fill="#06bfad"/><path d="M11 236h215V7H11v229z" fill="#05d1c4"/><path d="M238.5 4.2H9.5C7.5 4.2 6 5.8 6 7.7v229.1c0 1.9 1.5 3.5 3.5 3.5h229c1.9 0 3.5-1.5 3.5-3.5V7.7c-.1-1.9-1.6-3.5-3.5-3.5zM235 233.3H12.9V11.2H235v222.1z"/><path d="M211.3 22v201H225V22h-13.7z" fill="#ddd"/><path d="M26 223h187V22H26v201z" fill="#fff"/><path d="M23.3 226.4h201.4c1.9 0 3.5-1.5 3.5-3.5V21.5c0-1.9-1.5-3.5-3.5-3.5H23.3c-1.9 0-3.5 1.5-3.5 3.5v20.7c0 1.9 1.5 3.5 3.5 3.5 1.9 0 3.5-1.5 3.5-3.5V25h194.4v194.5H26.7V56.1c0-1.9-1.5-3.5-3.5-3.5-1.9 0-3.5 1.5-3.5 3.5v166.8c.1 2 1.7 3.5 3.6 3.5"/><path d="M124 109.6h-7.1l6-27.9h24c7 0 12.7-5.7 12.7-12.7 0-7-5.7-12.7-12.7-12.7h-34.2c-5.9 0-11.1 4.2-12.4 10l-11.4 53.2c-.8 3.8.1 7.6 2.5 10.6s6 4.7 9.9 4.7H124c5.6 0 10.1 4.5 10.1 10.1v7.6c0 5.6-4.5 10.1-10.1 10.1s-10.1-4.5-10.1-10.1c0-7-5.7-12.7-12.7-12.7-7 0-12.7 5.7-12.7 12.7 0 19.6 15.9 35.5 35.5 35.5s35.5-15.9 35.5-35.5v-7.6c-.1-19.4-16-35.3-35.5-35.3z" fill="#e94142"/></svg>