<?xml version="1.0" encoding="utf-8"?>
<!-- Generator: Adobe Illustrator 21.0.0, SVG Export Plug-In . SVG Version: 6.00 Build 0)  -->
<svg version="1.1" id="Слой_1" xmlns="http://www.w3.org/2000/svg" xmlns:xlink="http://www.w3.org/1999/xlink" x="0px" y="0px"
	 viewBox="0 0 551 377" style="enable-background:new 0 0 551 377;" xml:space="preserve">
<style type="text/css">
	.st0{fill:#05D1C4;}
	.st1{fill:#E94142;}
	.st2{fill:#E86B7B;}
	.st3{fill:#FFFFFF;}
	.st4{fill:#E94142;stroke:#231F20;stroke-width:5;stroke-miterlimit:10;}
	.st5{opacity:0.537;}
	.st6{fill:#FFAA00;}

	.st5,
	.number {
		animation-name: zoomDots;
		animation-duration: 0.8s;
		animation-timing-function: cubic-bezier(0.49, 0.52, 0.25, 1.26);
		transform-origin: center;
		animation-delay: 0.5s;
		transform: scale(0);
		animation-fill-mode: both;
	}

	.st5 {
		animation-delay: 1s;
	}

	@keyframes zoomDots {
		0%, 50% {transform: scale(0)}
		100% {transform: scale(1)}
	}

</style>
<g id="Group-1478">

	<g class="number">
		<path d="M338.3,76.3l7.3-10c0.5-0.7,0.8-1.4,0.8-2.3c0-1-0.4-1.9-1.2-2.6c-0.7-0.6-1.6-0.9-2.6-0.9c-0.8,0-2,0.3-3,1.8l-5.6,8.1
			l-5.7-8.3c-0.9-1.3-2.2-1.6-3-1.6c-1,0-1.9,0.3-2.6,1c-0.8,0.7-1.2,1.5-1.2,2.5c0,0.8,0.3,1.6,0.8,2.3l7.3,10.2l-7.4,10.3
			c-0.5,0.7-0.7,1.4-0.7,2.2c0,1,0.4,1.9,1.1,2.5c0.7,0.6,1.6,1,2.6,1c1.2,0,2.3-0.5,3-1.6l5.8-8.5l5.7,8.4c0.7,1,1.7,1.6,3,1.6
			c1,0,1.9-0.3,2.6-1c0.7-0.7,1.1-1.6,1.1-2.6c0-0.7-0.2-1.5-0.8-2.3L338.3,76.3L338.3,76.3z"/>
		<path class="st4" d="M268.5,116c-1.6,0-3-0.4-4-1.2c-1-0.8-1.5-1.9-1.5-3.3c0-1.1,0.4-2.3,1.1-3.6l40.4-71.7V36h-46.7
			c-1.6,0-3-0.5-4.1-1.4s-1.6-2.1-1.6-3.6s0.5-2.7,1.6-3.6s2.4-1.4,4.1-1.4h51.7c2.4,0,4.3,0.6,5.6,1.8c1.3,1.2,2,2.8,2,5
			c0,1.6-0.9,3.9-2.6,7.1L274,112.8C272.7,115,270.9,116,268.5,116z"/>
	</g>
	<g class="st5">
		<path id="Fill-1_1_" class="st1" d="M6.8,256.7c-1.7,0-3.4-0.7-4.7-2c-2.7-2.7-2.8-7.2-0.1-9.9l8.5-9c2.6-2.8,6.9-2.9,9.6-0.1
			c2.7,2.7,2.8,7.2,0.1,9.9l-8.5,9C10.3,256,8.6,256.7,6.8,256.7"/>
		<path id="Fill-4" class="st2" d="M481.1,23.1c-1.7,0-3.4-0.7-4.7-2c-2.7-2.7-2.8-7.2-0.1-9.9l8.5-9c2.6-2.8,6.9-2.9,9.6-0.1
			c2.7,2.7,2.8,7.2,0.1,9.9l-8.5,9C484.7,22.4,482.9,23.1,481.1,23.1"/>
		<path id="Fill-6" class="st2" d="M535.4,216.2c-1.7,0-3.4-0.7-4.7-2c-2.7-2.7-2.8-7.2-0.1-9.9l8.5-9c2.6-2.8,6.9-2.9,9.6-0.1
			c2.7,2.7,2.8,7.2,0.1,9.9l-8.5,9C538.9,215.4,537.1,216.2,535.4,216.2"/>
		<path id="Fill-9_1_" class="st1" d="M104.7,35c-1.7,0-3.4-0.7-4.7-2c-2.7-2.7-2.8-7.2-0.1-9.9l8.5-9c2.6-2.8,6.9-2.9,9.6-0.1
			c2.7,2.7,2.8,7.2,0.1,9.9l-8.5,9C108.3,34.3,106.5,35,104.7,35"/>
		<path id="Fill-11_1_" class="st2" d="M11,158.2c-1.7,0-3.4-0.7-4.7-2c-2.7-2.7-2.8-7.2-0.1-9.9l8.5-9c2.6-2.8,6.9-2.9,9.6-0.1
			c2.7,2.7,2.8,7.2,0.1,9.9l-8.5,9C14.6,157.4,12.8,158.2,11,158.2"/>
		<path id="Fill-13_1_" class="st0" d="M516.2,287.1c-3.9,0-6.9-3.2-6.9-7c0-3.9,3-7,6.8-7h0.1c3.8,0,6.8,3.1,6.8,7
			C523,283.9,520,287.1,516.2,287.1"/>
		<path id="Fill-15_1_" class="st6" d="M532.5,261.9c-3.9,0-6.9-3.2-6.9-7.1s3.1-7,6.8-7h0.1c3.8,0,6.8,3.2,6.8,7.1
			C539.3,258.8,536.3,261.9,532.5,261.9"/>
		<path id="Fill-17_1_" class="st0" d="M156.7,147.3c-1.8,0-3.5-0.7-4.9-2.1l-73-77.8c-2.6-2.8-2.6-7.2,0.1-9.9s7-2.6,9.6,0.1
			l73,77.8c2.6,2.8,2.6,7.2-0.1,9.9C160.1,146.6,158.4,147.3,156.7,147.3"/>
		<path id="Fill-19_1_" class="st6" d="M104.5,138.8c-1.7,0-3.4-0.7-4.8-2c-2.7-2.7-2.7-7.2-0.1-9.9l0.1-0.1
			c2.6-2.8,6.9-2.8,9.6-0.1s2.7,7.2,0.1,9.9l-0.1,0.1C108.1,138.1,106.3,138.8,104.5,138.8"/>
		<path id="Fill-21_1_" class="st0" d="M120.6,155.9c-1.7,0-3.4-0.7-4.7-2c-2.7-2.7-2.8-7.2-0.1-9.9l0.1-0.1
			c2.6-2.8,6.9-2.9,9.6-0.1c2.7,2.7,2.8,7.2,0.1,9.9l-0.1,0.1C124.1,155.2,122.4,155.9,120.6,155.9"/>
		<path id="Fill-23_1_" class="st2" d="M425.4,144.5c-1.7,0-3.4-0.7-4.7-2c-2.7-2.7-2.8-7.2-0.1-9.9l73-77.8
			c2.6-2.8,6.9-2.9,9.6-0.1c2.7,2.7,2.8,7.2,0.1,9.9l-73,77.8C428.9,143.8,427.2,144.5,425.4,144.5"/>
		<path id="Fill-25_1_" class="st0" d="M476.6,152.7c-1.8,0-3.5-0.7-4.8-2.1l-0.1-0.1c-2.6-2.8-2.6-7.2,0.1-9.9s7-2.7,9.6,0.1
			l0.1,0.1c2.6,2.8,2.6,7.2-0.1,9.9C480,152.1,478.3,152.7,476.6,152.7"/>
		<path id="Fill-27_1_" class="st6" d="M460.5,169.9c-1.8,0-3.5-0.7-4.9-2.1l-0.1-0.1c-2.6-2.8-2.6-7.2,0.1-9.9s7-2.6,9.6,0.1
			l0.1,0.1c2.6,2.8,2.6,7.2-0.1,9.9C463.9,169.2,462.2,169.9,460.5,169.9"/>
		<path id="Fill-29_1_" class="st6" d="M345.9,42.1c-1.2,0-2.4-0.3-3.5-1l-0.1-0.1c-3.2-2-4.3-6.3-2.3-9.6c1.9-3.3,6.1-4.4,9.3-2.4
			l0.1,0.1c3.2,2,4.3,6.3,2.3,9.6C350.5,40.9,348.2,42.1,345.9,42.1"/>
		<path id="Fill-31_1_" class="st6" d="M352.9,139.2c-1.2,0-2.4-0.3-3.5-1l-0.1-0.1c-3.2-2-4.3-6.3-2.3-9.7c1.9-3.3,6.1-4.4,9.3-2.4
			l0.1,0.1c3.2,2,4.3,6.3,2.3,9.7C357.4,138,355.2,139.2,352.9,139.2"/>
		<path id="Fill-33_1_" class="st0" d="M174.8,90.4c-2.3,0-4.6-1.2-5.8-3.4c-1.9-3.3-0.9-7.7,2.3-9.7l0.1-0.1c3.2-2,7.4-0.9,9.3,2.4
			c1.9,3.3,0.9,7.7-2.3,9.7l-0.1,0.1C177.2,90.1,176,90.4,174.8,90.4"/>
		<path id="Fill-35_1_" class="st6" d="M186.4,111.3c-2.3,0-4.5-1.2-5.8-3.4c-1.9-3.3-0.9-7.6,2.3-9.7l0.1-0.1c3.2-2,7.4-1,9.3,2.4
			c1.9,3.3,0.9,7.6-2.3,9.7l-0.1,0.1C188.8,111,187.6,111.3,186.4,111.3"/>
		<path id="Fill-37_1_" class="st6" d="M503.6,223.2c0-10.7-8.2-19.4-18.2-19.4c-10.1,0-18.2,8.7-18.2,19.4s8.2,19.4,18.2,19.4
			C495.4,242.7,503.6,234,503.6,223.2"/>
		<path id="Fill-39_1_" class="st6" d="M62.2,295.4c0-8.6-6.6-15.6-14.6-15.6c-8.1,0-14.6,7-14.6,15.6S39.6,311,47.6,311
			S62.2,304,62.2,295.4"/>
		<path id="Fill-41_1_" class="st0" d="M81.8,169.2c0-8.6-6.6-15.6-14.6-15.6c-8.1,0-14.6,7-14.6,15.6s6.6,15.6,14.6,15.6
			C75.3,184.8,81.8,177.8,81.8,169.2"/>
		<path id="Fill-43_1_" class="st0" d="M439.5,63.5c0-8.6-6.6-15.6-14.6-15.6c-8.1,0-14.6,7-14.6,15.6s6.6,15.6,14.6,15.6
			C433,79.1,439.5,72.1,439.5,63.5"/>
	</g>

		<g class="user" transform="translate(92 12)">
		<path class="st0" d="M378,287.7c0-13.7-9.4-25.7-22.8-28.9l-20.5-4.9v-12.6h-25.1v12.5l-8.8,2.1l-11.1-2.7V238h-30.3v15.1
			l-24.8,5.9c-6.9,1.6-12.9,5.2-17.5,10l-2.4-0.6l-42.2-0.1l-2.3,0.6c-4.6-4.8-10.6-8.3-17.4-10L128,253v-15.1H97.8v15.2l-10.4,2.5
			L72.5,252v-12.4H47.8V252l-20.3,4.8c-13.2,3.2-22.6,15-22.6,28.6v33.1h40.6v15.7h54.2v24.1h187.9v-24.1H342v-13.3h36V287.7z"/>
		<path id="Fill-7" class="st1" d="M294.2,203.7V197c0-15.4,12.5-27.9,28-27.9c15.4,0,28,12.5,28,27.9v6.7h-19.3
			c-12.1,0-23.9-3.3-34.3-9.5"/>
		<path id="Fill-9" class="st2" d="M337.6,202.5l10.7-0.6c0,0-10-40.9-22.2-31.5C316.8,177.7,343.5,191.8,337.6,202.5"/>
		<path id="Fill-35" class="st1" d="M146.7,192.7v-8.1c0-18.6-15.1-33.7-33.7-33.7S79.3,166,79.3,184.6v8.1h23.3
			c14.6,0,28.9-3.9,41.4-11.4"/>
		<path id="Fill-31" class="st3" d="M128.7,238.1v15.5L113,291.2l-15.7-37.5v-15.6H128.7z"/>
		<path id="Fill-41" class="st3" d="M290.2,238.1v15.6l-15.7,37.5l-15.7-37.6v-15.5H290.2L290.2,238.1z"/>
		<path id="Fill-43" class="st3" d="M193.8,316.9l22.5-50.9c-1.7-2.8-2.6-6.1-2.6-9.5v-4.9H174v4.9c0,3.4-0.9,6.7-2.6,9.5
			L193.8,316.9L193.8,316.9z"/>
		<path class="st3" d="M308.3,198.2v-12.1h-64.9l-2.7-14.3h-94v14.3L80,188.7l-0.9,8.5H32.6v17.1c0,15.2,12.4,27.6,27.6,27.6
			c11,0,20.6-6.5,25-15.8c6.1,8.8,16.3,14.6,27.8,14.6c13.2,0,29-8,37.1-19.2c6.9,17.4,23.9,29.6,43.7,29.6
			c20.4,0,41.5-13,49.6-31.2c5.1,12.2,17.1,20.8,31.2,20.8c9.4,0,18-3.9,24.1-10.1c5,7.7,13.6,12.9,23.5,12.9
			c15.4,0,28-12.5,28-27.9l-0.6-15L308.3,198.2L308.3,198.2z"/>
		<path id="Fill-47" class="st1" d="M193.7,126.1c-26,0-47,21-47,46.9v11.3h23c15.3,0,29.8-6.8,39.6-18.4l31.4,18.4V173
			C240.8,147.1,219.7,126.1,193.7,126.1"/>
		<path id="Fill-51" class="st1" d="M241.8,182.9c0,0,10.4-27.8,29-27.8s37.4,10.8,37.4,29.4v8.1L241.8,182.9L241.8,182.9z"/>
		<path id="Fill-53" d="M193.6,352.5c-1.6,0-3.1,0.6-4.3,1.8c-1.1,1.1-1.8,2.7-1.8,4.3c0,1.6,0.6,3.1,1.8,4.3
			c1.1,1.1,2.7,1.8,4.3,1.8s3.1-0.6,4.3-1.8c1.1-1.1,1.8-2.7,1.8-4.3c0-1.6-0.6-3.1-1.8-4.3C196.7,353.2,195.2,352.5,193.6,352.5"/>
		<path id="Fill-19" class="st1" d="M60.2,169.2c-15.3,0-27.6,12.4-27.6,27.6v6.6h19.1c11.9,0,23.6-3.2,33.9-9.4
			C85.5,194.1,75.5,169.2,60.2,169.2L60.2,169.2z"/>
		<path class="st3" d="M322.1,248.4c-2.6,0-5.1-0.3-7.5-0.9v5.4l1.1,0.3c4.4,1.1,8.5,2.8,12.2,5l1.7-4.1v-6.6
			C327.3,248.1,324.7,248.4,322.1,248.4L322.1,248.4z M66.8,254.7l0.9-2.1v-0.5V246c-2.4,0.6-4.9,0.9-7.4,0.9
			c-2.6,0-5.1-0.3-7.5-0.9v6.7l3.3,8C59.3,258.2,62.9,256.2,66.8,254.7L66.8,254.7z"/>
		<path id="Fill-21" class="st2" d="M75.8,196.1l11.6-0.5c0,0-10.8-33.8-24-26.1C53.3,175.5,82.1,187.2,75.8,196.1"/>
		<path id="Fill-56" class="st2" d="M293.2,191.3l12.9-0.7c0,0-12.1-49.4-26.8-38C268,161.2,300.3,178.4,293.2,191.3"/>
		<path id="Fill-58" class="st2" d="M132.1,184.7l14.1-0.6c0,0-13.2-41.3-29.2-31.8C104.6,159.6,139.8,173.9,132.1,184.7"/>
		<path id="Fill-60" class="st2" d="M225.7,174.7l9.3,5.3c0,0,13.2-29.7-15.2-46.2l-19.2-5.3C188.1,123.6,234.7,147.2,225.7,174.7"
			/>
		<path d="M356.3,253.9l-16.6-4v-6.6c9.2-5.8,15.4-16.1,15.4-27.8V197c0-18.1-14.8-32.9-32.9-32.9c-4.3,0-8.5,0.8-12.2,2.4l0.3,0.6
			c-6.5-13.2-20.1-22.3-35.7-22.3c-11.8,0-22.5,5.2-29.8,13.4c-6.4-22.1-26.8-38.3-51-38.3s-44.6,16.2-51,38.4
			c-7.3-8.3-18-13.5-29.8-13.5c-16,0-29.9,9.5-36.2,23.2c-4.9-2.9-10.5-4.6-16.6-4.6c-18,0-32.6,14.6-32.6,32.5v18.4
			c0,11.6,6.1,21.7,15.2,27.5v6.5l-16.5,3.9C10.8,256,0,269.7,0,285.6v33.1c0,2.7,2.2,4.9,4.9,4.9h34.5v10.7c0,3.3,2.7,6,6,6h48.2
			v18c0,3.3,2.7,6,6,6h66.1c3.3,0,6-2.7,6-6s-2.7-6-6-6h-26.9V326c0-3.3-2.7-6-6-6s-6,2.7-6,6v26.5h-21.1v-27.1
			c0-20.4,13.9-38,33.8-42.7l29.6-7.1l19.1,43.3c1,2.2,3.1,3.6,5.5,3.6s4.6-1.4,5.5-3.6l19-43.2l29.6,7
			c19.9,4.7,33.8,22.3,33.8,42.7v6.7c-0.3,0.7-0.5,1.5-0.5,2.4c0,0.8,0.2,1.6,0.5,2.4v15.7h-21V326c0-3.3-2.7-6-6-6s-6,2.7-6,6v26.5
			H219c-3.3,0-6,2.7-6,6s2.7,6,6,6h68.6c3.3,0,6-2.7,6-6v-18h48.3c3.3,0,6-2.7,6-6V294c0-11.3-4.4-21.6-11.9-29.2l2.1-4.9l15.9,3.8
			c11.2,2.7,19,12.6,19,24v28.5h-10V294c0-2.8-2.2-5-5-5s-5,2.2-5,5v22.1h-5v10h30c2.8,0,5-2.2,5-5v-33.5
			C383,271.5,372,257.7,356.3,253.9L356.3,253.9z M274.5,156.9c15.3,0,27.7,12.4,27.7,27.7v2.1H285c-13,0-25.8-3.4-37.1-9.9
			C251.2,165.3,261.9,156.9,274.5,156.9L274.5,156.9z M246.7,206v-16.2c11.8,5.8,24.9,8.9,38.2,8.9h17.2v8.3
			c0,15.3-12.4,27.7-27.7,27.7s-27.7-12.4-27.7-27.7V206z M152.8,172.9c0-22.6,18.4-40.9,41-40.9s41,18.3,41,40.9v0.8l-22.4-13.1
			c-2.5-1.5-5.8-0.9-7.7,1.3c-8.7,10.3-21.4,16.3-35,16.3h-17L152.8,172.9L152.8,172.9z M85.2,186v-1.5c0-15.3,12.4-27.7,27.7-27.7
			c12.6,0,23.2,8.4,26.6,19.9c-11.3,6.5-24.1,9.9-37.1,9.9H85.2V186L85.2,186z M85.2,198.7h17.2c13.3,0,26.3-3.1,38.2-8.9V207
			c0,15.3-12.4,27.7-27.7,27.7S85.2,222.3,85.2,207V198.7z M85.2,235.4c2,1.9,4.2,3.7,6.5,5.2v8l-6.8,1.6l-7.4-1.8v-6.5
			C80,240.3,83.1,237.7,85.2,235.4z M37.5,196c0-12.5,10.2-22.7,22.7-22.7c5.1,0,9.7,1.7,13.5,4.5c-0.4,2.2-0.6,4.4-0.6,6.7v9.2
			c-6.9,2.6-14.2,3.9-21.5,3.9H37.5V196z M37.5,214.3v-6.8h14.1c7.3,0,14.6-1.1,21.5-3.4v2.8c0,7.4,2.1,14.4,5.6,20.3
			c-4.2,5.6-11.1,9.7-18.6,9.7C47.7,237,37.5,226.8,37.5,214.3z M67.7,252.7l-0.9,2.1c-3.9,1.4-7.5,3.4-10.8,5.9l-3.3-8V246
			c2.4,0.6,4.9,0.9,7.5,0.9s5.1-0.3,7.4-0.9v6.2C67.6,252.4,67.6,252.5,67.7,252.7L67.7,252.7z M39.4,294v19.8h-9.8v-21.9
			c0-2.7-2.2-4.9-4.9-4.9s-4.9,2.2-4.9,4.9v21.9H9.9v-28.2c0-11.4,7.7-21.1,18.8-23.8l15.6-3.7l4.1,9.9
			C42.7,275.2,39.4,284.2,39.4,294L39.4,294z M93.6,325.3v3.1h-18v-26.7c0-3.3-2.7-6-6-6s-6,2.7-6,6v26.7H51.5V294
			c0-13.9,9.4-25.8,23-29l19.1-4.6l12.5,29.8C98.2,299.9,93.6,312.1,93.6,325.3z M112.9,275.5l-9.2-21.9v-8c2.9,0.7,6,1.1,9.1,1.1
			s6.2-0.4,9.1-1.1v8.2L112.9,275.5z M136.6,270.9c-3.6,0.9-7,2-10.2,3.5l5.9-14l19.1,4.6c1.5,0.4,2.9,0.8,4.3,1.4L136.6,270.9z
			 M166.5,258.4c-3.8-2.3-7.9-4.1-12.3-5.1l-20.2-4.8v-7.9c5-3.2,9.3-7.4,12.5-12.4c4.5,8.9,11.5,16.3,20,21.4V258.4z M208.7,267.3
			l-15,34.2l-15.1-34.2v-12.4c4.8,1.4,9.9,2.2,15.2,2.2c5.2,0,10.2-0.8,15-2.1L208.7,267.3L208.7,267.3z M193.7,245
			c-22.6,0-41-18.3-41-40.9v-13.9h17c15.4,0,30-6.1,40.7-16.8l24.2,14.2v17.9C233.9,227.4,215.9,245,193.7,245L193.7,245z
			 M220.8,249.6c8.6-5.1,15.6-12.5,20.2-21.4c3.2,5,7.4,9.2,12.4,12.3v7.9l-20.2,4.8c-4.4,1.1-8.6,2.8-12.4,5.2V249.6z M250.6,270.9
			l-19.1-4.5c1.4-0.6,2.9-1.1,4.4-1.4l19.1-4.6l5.9,14.1C257.6,273,254.2,271.8,250.6,270.9L250.6,270.9z M265.3,253.8v-0.7v-7.6
			c2.9,0.7,6,1.1,9.1,1.1s6.2-0.4,9.1-1.1v7.9l-9.2,22L265.3,253.8z M335.9,328.4h-12.1v-26.7c0-3.3-2.7-6-6-6s-6,2.7-6,6v26.7
			h-18.2v-3c0-13.2-4.5-25.4-12.3-35.1l12.5-29.9l19.1,4.6c13.5,3.2,23,15.2,23,29V328.4z M329.7,254.2l-1.7,4.1
			c-3.7-2.3-7.8-4-12.2-5l-1.1-0.3v-5.4c2.4,0.6,4.9,0.9,7.5,0.9s5.1-0.3,7.6-0.9v6.3C329.7,254,329.7,254.1,329.7,254.2
			L329.7,254.2z M322.1,238.5c-6.4,0-12.2-2.7-16.4-6.9c-2.1,2.6-4.5,5-7.1,7c1.8,1.8,3.8,3.5,6,4.8v6.5l-1.4,0.3l-7.5-1.8v-8
			c11.2-7,18.6-19.5,18.6-33.6v-22.4c0-6-1.4-11.7-3.8-16.8c1.2,2.6,2.2,5.3,2.8,8.2c2.7-1.1,5.7-1.8,8.8-1.8
			c12.7,0,23,10.3,23,22.9v1.7h-14.3c-5.6,0-11.2-0.8-16.5-2.3v10.3c5.4,1.3,10.9,1.9,16.5,1.9h14.3v6.9
			C345.1,228.2,334.8,238.5,322.1,238.5z"/>
	</g>
</g>
</svg>
