<svg xmlns="http://www.w3.org/2000/svg" viewBox="0 0 121 172"><path d="M26.2 124h69.6c12.8 0 23.2 10.1 23.2 22.5V169H3v-22.5C3 134.1 13.4 124 26.2 124" fill="#20b69f"/><path d="M104 48h-7c-.6-20-17.2-36-37.5-36S22.7 28 22 48h-5c-3.3 0-6 2.7-6 6v9c0 3.3 2.7 6 6 6h5v8.8c0 15.6 9.7 29 23.5 34.5l-.5 8.4v1c0 9 7.2 16.3 16 16.3h.9c8.8-.5 15.6-8.2 15-17.2l-.6-9.7C88.6 104.9 97 92.3 97 77.8V69h7c3.3 0 6-2.7 6-6v-9c0-3.3-2.7-6-6-6z" fill="#fff"/><path d="M57.4 34.7h26.1L89.3 52H98v-8.6c0-10.3-4.2-25.5-11-32.3-4.2-4.1-9.3-1.6-15-3.4C68.3 6.5 64.4 3 60.3 3 54 3 48.1 7.4 42.9 10.1c-5.9 3-16.7-4-20.3 1.5-3.7 5.8 0 24.3 0 31.7V52h8.7l5.8-17.3h20.3z" fill="#e94142"/><path d="M70.7 76.7L96 86.5c-5.9 19.6-26.7 30.7-46.3 24.8-11.8-3.7-21.1-13-24.7-24.8l25.3-9.7c6.5-2.6 13.9-2.6 20.4-.1" fill="#e86b7b"/><path d="M115.2 166.3H5.8v-20.1c0-11.1 9-20.1 20.2-20.1h16c2.7 10.2 13.1 16.3 23.4 13.7 6.8-1.7 12-7 13.8-13.7h16c11.1 0 20.2 9 20.2 20.1v20.1zm-41.3-45.7c.4 7.4-5.2 13.7-12.6 14.1-7.4.4-13.7-5.2-14.2-12.5v-1.6l.3-5.3c8.5 2.9 17.7 2.9 26.2 0l.3 5.3zM27.4 87.4l23.8-9.1c6-2.3 12.6-2.3 18.6 0l23.8 9.1c-5.6 18.2-24.9 28.4-43.1 22.9-11.1-3.3-19.7-11.9-23.1-22.9zm-1.5-10V54.5h5.8c1.2 0 2.3-.8 2.7-1.9l5.1-15.3h41.9l5.1 15.3c.4 1.2 1.5 1.9 2.7 1.9H95v22.9c0 1.4-.1 2.9-.3 4.3L71.9 73c-7.3-2.8-15.4-2.8-22.8 0l-22.9 8.7c-.2-1.4-.3-2.9-.3-4.3zM25.5 13c.8-1.3 3.6-.9 7.5-.2 3.8.7 8.1 1.5 11.6-.3 1.2-.6 2.4-1.3 3.6-2 3.7-2.6 7.9-4.2 12.3-4.7 2.1.2 4.1 1 5.9 2.2 1.5.9 3.1 1.6 4.8 2.2 2.4.7 4.8 1 7.3.9 3.2.1 4.9.1 6.5 1.7 6.1 6 10.1 20.4 10.1 30v5.7h-3.7l-5.1-15.3c-.4-1.2-1.5-1.9-2.7-1.9H37.5c-1.2 0-2.3.8-2.7 1.9l-5.1 15.3H26V43c0-2.3-.3-5.5-.7-9.1-.8-7-1.9-17.6.2-20.9zm-5.3 52.9h-2.9c-1.6 0-2.9-1.3-2.9-2.9v-8.6c0-1.6 1.3-2.9 2.9-2.9h2.9v14.4zm80.6-14.3h2.9c1.6 0 2.9 1.3 2.9 2.9v8.6c0 1.6-1.3 2.9-2.9 2.9h-2.9V51.6zm-5.7 68.8H79.7v-.1l-.4-7.3c13.3-6.9 21.6-20.6 21.6-35.5v-5.7h2.9c4.8 0 8.6-3.9 8.6-8.6v-8.6c0-4.7-3.9-8.6-8.6-8.6h-2.9v-3c0-11-4.4-26.7-11.8-34.1-2.8-2.6-6.6-3.8-10.5-3.4-1.9.1-3.8-.2-5.6-.7-1.3-.5-2.6-1.1-3.7-1.8-2.6-1.7-5.6-2.8-8.7-3-5.6.5-10.8 2.4-15.3 5.5-1.2.7-2.3 1.3-3.4 1.9-2.6.6-5.4.5-7.9-.2-4.6-.8-10.4-1.9-13.3 2.8-3.2 4.9-2.1 15.3-1.1 24.5.3 3.4.7 6.5.7 8.5v2.9h-2.9c-4.8 0-8.6 3.9-8.6 8.6v8.6c0 4.7 3.9 8.6 8.6 8.6h2.9v5.7c0 14.9 8.3 28.6 21.6 35.5l-.4 7.3v.1H25.9C11.6 120.4 0 132 0 146.2v22.9c0 1.6 1.3 2.9 2.9 2.9h115.2c1.6 0 2.9-1.3 2.9-2.9v-22.9c0-14.2-11.6-25.8-25.9-25.8z"/><path d="M46.5 54c-1.4 0-2.5 1.3-2.5 3v6c0 1.7 1.1 3 2.5 3s2.5-1.3 2.5-3v-6c0-1.7-1.1-3-2.5-3M74.5 66c1.4 0 2.5-1.3 2.5-3v-6c0-1.7-1.1-3-2.5-3S72 55.3 72 57v6c0 1.7 1.1 3 2.5 3"/></svg>