<?xml version="1.0" encoding="utf-8"?>
<!-- Generator: Adobe Illustrator 21.0.0, SVG Export Plug-In . SVG Version: 6.00 Build 0)  -->
<svg version="1.1" id="Слой_1" xmlns="http://www.w3.org/2000/svg" xmlns:xlink="http://www.w3.org/1999/xlink" x="0px" y="0px"
	 viewBox="0 0 50 50" style="enable-background:new 0 0 50 50;" xml:space="preserve">
<style type="text/css">
	.st0{fill:#F9D073;}
	.st1{fill:#05D1C4;}
	.st2{fill:#05AF9F;}
	.st3{fill:#FFFFFF;}
	.st4{fill:#D9DBDB;}
	.st5{fill:#E94142;}
	.st6{fill:#E86B7B;}
	.st7{fill:#20B69F;}
	.st8{fill:#17998C;}
</style>
<circle class="st0" cx="25" cy="25" r="25"/>
<g>
	<path class="st1" d="M34.3,8.1c-6.5,0-11.8,5-11.8,11.3V27c0,2.8,2.4,5.1,5.4,5.1h12.8c3,0,5.4-2.3,5.4-5.1v-7.6
		C46,13.2,40.8,8.1,34.3,8.1z"/>
	<path class="st2" d="M42.6,11.4c-2.1-2-5-3.3-8.2-3.3c-0.6,0-1.1,0-1.7,0.1c2.6,0.3,4.8,1.5,6.6,3.2c1.2,1.2,2.1,2.6,2.7,4.2
		c-0.2-0.2-0.4-0.4-0.6-0.6c0.7,1.4,1,2.9,1,4.5v1.1h0.3V27c0,2.8-2.4,5.1-5.3,5.1h3.3c2.9,0,5.3-2.3,5.3-5.1v-7.6
		C46,16.3,44.7,13.5,42.6,11.4z"/>
	<path class="st3" d="M43.8,21.8h-1.5c0-0.1,0-0.2-0.1-0.3h-2.9c-3.7,0-6.8-2.8-6.9-6.4c-3.5,0.7-6,3.4-6.4,6.7h-1.4
		c-1.4,0-2.5,1.1-2.5,2.3c0,1.3,1.1,2.3,2.5,2.3H26c0.3,3.9,4,7.2,8.2,7.2s7.9-3.3,8.2-7.2h1.5c1.4,0,2.5-1.1,2.5-2.3
		S45.2,21.8,43.8,21.8z"/>
	<path class="st4" d="M39.3,21.5c-2.3,0-4.4-1.1-5.6-2.8c0.7,2.4,3,4.1,5.8,4.1h2.9v0c0-0.4,0-0.9-0.1-1.3H39.3z"/>
	<path id="Fill-42" d="M30.6,25.3c0.5,0,0.9-0.4,0.9-0.9v-0.7c0-0.5-0.4-0.9-0.9-0.9s-0.9,0.4-0.9,0.9v0.7
		C29.7,24.9,30.1,25.3,30.6,25.3"/>
	<path id="Fill-43" d="M37.7,25.3c0.5,0,0.9-0.4,0.9-0.9v-0.7c0-0.5-0.4-0.9-0.9-0.9c-0.5,0-0.9,0.4-0.9,0.9v0.7
		C36.8,24.9,37.2,25.3,37.7,25.3"/>
	<path class="st3" d="M37.8,38.4v-6.7h-6.9v6.7l-3,0.1c0.2,3.1,2.9,5.5,6.1,5.5c3.2,0,5.9-2.4,6.1-5.5L37.8,38.4z"/>
	<path id="Fill-16" class="st4" d="M37.4,33.9l0.2,1.7c-1.1,0.4-2.2,0.6-3.5,0.6s-2.4-0.2-3.5-0.6l0.2-1.7L37.4,33.9z"/>
	<path class="st3" d="M18.8,37.8v-6.5h-7.2v6.4l-2.9,0.9c0.2,3.2,3,5.7,6.4,5.7s6.1-2.5,6.4-5.7L18.8,37.8z"/>
	<path id="Fill-30" class="st4" d="M18.8,31.6v5.2c-1.1,0.4-2.3,0.7-3.6,0.7s-2.5-0.2-3.6-0.7v-5.2H18.8z"/>
	<path class="st3" d="M25.6,21.4h-0.9c-0.2-4.8-4.4-8.7-9.4-8.7S6,16.6,5.8,21.4H4.9c-1.4,0-2.6,1.1-2.6,2.4s1.1,2.4,2.6,2.4h0.9
		c0.3,4.4,4.4,8.4,9.4,8.4s9.1-4,9.4-8.4h0.9c1.4,0,2.6-1.1,2.6-2.4S27,21.4,25.6,21.4z"/>
	<path id="Fill-32" class="st4" d="M24.7,21.9c-0.2,0-0.3,0-0.5-0.1c-2.3-0.4-5.9-0.6-9-0.6s-6.7,0.3-9,0.6c-0.2,0-0.3,0.1-0.5,0.1
		c0-5.1,4.2-9.2,9.4-9.2S24.7,16.8,24.7,21.9"/>
	<path class="st5" d="M25.9,16c0-0.5-0.4-0.9-0.9-1c-0.8-4.5-4.9-7.8-9.8-7.8s-9,3.4-9.8,7.8c-0.5,0.1-0.8,0.5-0.9,1l-0.1,2.3
		c0,0.7,0.6,1.2,1.4,1.1c2.5-0.4,6.3-0.7,9.4-0.7c3.1,0,6.9,0.3,9.4,0.7c0.7,0.1,1.4-0.4,1.4-1.1L25.9,16z"/>
	<path id="Fill-34" class="st6" d="M25.7,19l-3.5-0.4c0-4.6-4-10.6-8.6-11.4c0.6-0.1,1.2-0.2,1.8-0.2c5.5,0,10.2,4.3,10.2,9.4
		L25.7,19z"/>
	<path id="Fill-44" d="M12.4,24v-0.7c0-0.5-0.4-0.9-0.9-0.9c-0.5,0-0.9,0.4-0.9,0.9V24c0,0.5,0.4,0.9,0.9,0.9
		C12,25,12.4,24.6,12.4,24"/>
	<path class="st5" d="M43.4,40.3l-2.3-0.7c-0.8,3-3.6,5.2-6.9,5.2c-0.6,0-1.2-0.1-1.8-0.2c0.1,0.4,0.3,0.8,0.3,1.2l0.6,2.7
		c4.3-1.5,8-4.1,10.9-7.6C43.9,40.8,43.7,40.6,43.4,40.3z"/>
	<path class="st6" d="M44.2,41c0.1-0.1,0.2-0.2,0.3-0.4l-1.1-0.3C43.7,40.6,43.9,40.8,44.2,41z"/>
	<path class="st7" d="M27.8,45.2c-0.3-1.7-1.2-3.2-2.4-4.3L25,40.7l-1.2-0.4L22.6,40c-0.1,0-0.1,0.1-0.2,0.1
		c-0.1,0.3-0.2,0.6-0.3,0.9c-0.3,0.6-0.6,1.1-1.1,1.6c-0.4,0.5-0.8,0.9-1.3,1.2c-0.3,0.2-0.7,0.4-1,0.6c-0.4,0.2-0.9,0.4-1.3,0.5
		c-0.7,0.2-1.4,0.3-2.1,0.3c-5.1,0-7.4-5.2-7.4-5.2S6.9,40.5,5.8,41c2.8,3.4,6.6,6.1,10.9,7.6c0.3,0.1,0.6,0.2,1,0.3
		c0.3,0.1,0.6,0.2,0.8,0.2c2.1,0.6,4.3,0.9,6.6,0.9c1.3,0,2.5-0.1,3.7-0.3L27.8,45.2z"/>
	<path class="st8" d="M26.1,41l-0.7-0.2c1.2,1.2,2.1,2.7,2.4,4.3l0.9,4.6c0.9-0.1,1.8-0.3,2.7-0.6l-0.6-2.9
		C30.4,43.8,28.5,41.8,26.1,41z"/>
	<path d="M46.8,22.1v-2.6c0-2.3-0.7-4.6-2-6.5c-0.3-0.4-0.8-0.5-1.3-0.3s-0.6,0.8-0.3,1.2c1.1,1.7,1.7,3.6,1.7,5.6V21
		c-0.3,0-0.5-0.1-0.8-0.1h0c0-0.1,0.1-0.2,0.1-0.3c0-0.5-0.4-0.9-0.9-0.9h-3.9c-2.8,0-5-2.2-5-4.8v-1.3c0-0.5-0.4-0.9-0.9-0.9
		c-0.4,0-0.7,0.2-0.9,0.6c-2.3,0.3-4.2,1.4-5.7,2.9l0-0.3c0-0.7-0.4-1.3-1-1.6c-0.1-0.3-0.2-0.6-0.3-1c2-2.5,5.1-4.2,8.6-4.2
		c2.3,0,4.5,0.7,6.3,1.9c0.4,0.3,1,0.2,1.3-0.2c0.3-0.4,0.2-1-0.2-1.2c-2.1-1.5-4.7-2.3-7.4-2.3c-3.8,0-7.2,1.6-9.5,4.2
		c-0.7-1.1-1.5-2.1-2.6-2.8c-1.9-1.5-4.4-2.3-6.9-2.3s-4.9,0.8-6.9,2.3c-1.9,1.4-3.2,3.4-3.7,5.6c-0.6,0.4-1,1-1,1.6l-0.1,2.3
		c0,0.6,0.2,1.2,0.7,1.6c0.2,0.2,0.4,0.3,0.7,0.4c0,0.1,0,0.1,0,0.1H4.8c-1.9,0-3.5,1.5-3.5,3.3s1.6,3.3,3.5,3.3h0.1
		c0.1,0.9,0.4,1.8,0.9,2.6c0.2,0.3,0.5,0.5,0.9,0.5c0.1,0,0.3,0,0.4-0.1c0.5-0.2,0.7-0.8,0.5-1.2c-0.5-1-0.8-2.1-0.8-3.2v-3.9
		c0-0.5,0.1-1,0.2-1.6c2.4-0.3,5.6-0.5,8.4-0.5c2,0,4.3,0.1,6.3,0.3c0.6,0.1,1.3,0.1,1.8,0.2c0.1,0,0.2,0,0.3,0
		c0,0.2,0.1,0.5,0.1,0.7c0,0.3,0.1,0.6,0.1,0.9v0.9v2.8v0.2c0,0.5-0.1,1-0.2,1.5c0,0.2-0.1,0.3-0.1,0.5c-0.2,0.8-0.6,1.5-1.1,2.2
		c-1.5,2.2-4.2,3.8-7.1,3.8c-1.9,0-3.6-0.6-5.2-1.7c-0.4-0.3-1-0.2-1.4,0.2c-0.3,0.4-0.2,1,0.2,1.3c0.6,0.4,1.2,0.8,1.8,1.1v2.6
		c0,0-3,1.1-6,2.4c0.1,0.1,0.2,0.2,0.2,0.3c0.3,0.4,0.6,0.7,0.9,1.1c1.2-0.5,2.1-0.8,2.1-0.8s2.3,5.2,7.4,5.2c0.7,0,1.5-0.1,2.1-0.3
		c0.5-0.1,0.9-0.3,1.3-0.5c0.4-0.2,0.7-0.4,1-0.6c0.5-0.4,0.9-0.8,1.3-1.2c0.4-0.5,0.8-1,1.1-1.6c0.1-0.3,0.2-0.6,0.3-0.9
		c0,0,0-0.1,0-0.1l0.2,0l1.2,0.4l1.2,0.4l0.4,0.1l0.7,0.2c2.5,0.8,4.3,2.7,4.8,5.2l0.6,2.9c0.3-0.1,0.6-0.2,0.9-0.3
		c0.1,0,0.2-0.1,0.3-0.1c0.2-0.1,0.5-0.2,0.7-0.2l-0.6-2.7c-0.1-0.4-0.2-0.8-0.3-1.2c0.5,0.1,1.1,0.2,1.8,0.2c3.3,0,6.2-2.2,6.9-5.2
		l2.3,0.7l1.1,0.3c0.1-0.1,0.2-0.2,0.3-0.3c0,0,0-0.1,0.1-0.1c0.3-0.3,0.5-0.7,0.8-1c-1.8-0.6-5.8-1.9-7-2.2v-2.5
		c0.8-0.4,1.6-0.9,2.3-1.5c3.3-0.1,6-2.8,6-6v-0.9c0.5-0.5,0.7-1.2,0.7-2S47.3,22.7,46.8,22.1z M4.7,25.3c-0.9,0-1.5-0.7-1.5-1.5
		c0-0.8,0.7-1.5,1.5-1.5V25.3z M21.9,16.5c-0.1,0.2-0.1,0.5-0.2,0.8c-0.1,0.3-0.1,0.6-0.2,0.9c-0.5,0-1.1-0.1-1.6-0.1v-1.5
		c0-0.5-0.4-0.9-1-0.9s-1,0.4-1,0.9v1.4c-0.6,0-1.2-0.1-1.8-0.1v-1.4c0-0.5-0.4-0.9-1-0.9s-1,0.4-1,0.9v1.4c-0.6,0-1.2,0-1.8,0.1
		v-1.4c0-0.5-0.4-0.9-1-0.9s-1,0.4-1,0.9V18c-0.6,0.1-1.2,0.1-1.8,0.2V17c0-0.5-0.4-0.9-1-0.9s-1,0.4-1,0.9v1.4
		c-0.4,0.1-0.8,0.1-1.1,0.2c-0.1,0-0.1,0-0.2-0.1s-0.1-0.1-0.1-0.2L5.6,16c0-0.1,0.1-0.2,0.2-0.2c2.8-0.6,5.9-0.9,9.5-0.9
		c2.6,0,4.8,0.2,6.9,0.5C22.1,15.8,22,16.1,21.9,16.5z M23.1,13.7c-2.4-0.4-4.9-0.6-7.9-0.6c-3.2,0-5.9,0.2-8.4,0.7
		c1.3-3.3,4.7-5.5,8.4-5.5c3.6,0,6.7,2,8.2,5C23.3,13.4,23.2,13.5,23.1,13.7z M26,22.8c0-0.2,0-0.3,0-0.4c0.7,0.2,1.1,0.8,1.1,1.4
		c0,0.7-0.5,1.3-1.2,1.4V22.8z M23.6,18.4v-1.3c0.1-0.5,0.3-1,0.5-1.4c0.2,0,0.5,0.1,0.7,0.1c0.1,0,0.2,0.1,0.2,0.2l0.1,2.3
		c0,0.1,0,0.1-0.1,0.2c0,0-0.1,0.1-0.2,0.1C24.4,18.5,24,18.4,23.6,18.4z M25.5,30.6c-0.3-0.2-0.6-0.4-0.9-0.7
		c0.1-0.2,0.2-0.4,0.3-0.5C25,29.8,25.2,30.2,25.5,30.6z M19.4,41.6c-0.3,0.3-0.6,0.6-1,0.9c-0.9,0.6-2,1-3.1,1c-2,0-3.9-1-4.8-2.7
		c-0.5-0.9-0.6-1.4-0.6-1.4l0.9-0.2v0.2c0,0.5,0.4,0.9,1,0.9s1-0.4,1-0.9v-1.8v-2.2c0.9,0.2,1.7,0.3,2.6,0.3c0.9,0,1.8-0.1,2.6-0.3
		v2.1v1.9c0,0.5,0.4,0.9,1,0.9s1-0.4,1-0.9v-0.2l0.8,0.3C20.4,40.2,19.9,41,19.4,41.6z M25.1,38.8c-2.4-0.8-5.4-1.7-5.4-1.7v-2.6
		c1-0.5,2-1.1,2.8-2c0.4-0.4,0.7-0.7,1-1.1c1.1,0.9,2.4,1.5,4,1.6c0.7,0.6,1.5,1.1,2.3,1.5V37C29.8,37,27.6,37.8,25.1,38.8z
		 M39.3,39.1c-0.5,2.3-2.7,4-5.1,4c-1.2,0-2.3-0.4-3.2-1c-0.3-0.2-0.6-0.5-0.9-0.8c-0.2-0.2-0.4-0.5-0.5-0.8
		c-0.5-0.8-0.6-1.3-0.6-1.3l0.2-0.1l0.6-0.2v0.1v0V39c0,0.5,0.4,0.9,0.9,0.9s0.9-0.4,0.9-0.9v-0.6v-3.2c0.8,0.2,1.7,0.3,2.5,0.3
		c0.8,0,1.7-0.1,2.5-0.3v3.2V39c0,0.5,0.4,0.9,0.9,0.9s0.9-0.4,0.9-0.9v-0.1L39.3,39.1z M42.4,26c0,4.1-3.8,7.7-8.2,7.7
		c-4,0-7.5-3-8.1-6.7c1-0.2,2.7-1.1,2.7-3.3c0-1.7-1.4-2.8-2.5-3.2c0.8-2.7,3.2-4.9,6.2-5.5c0.1,3.5,3.1,6.4,6.9,6.4h2.9
		c0.1,0.4,0.1,0.9,0.1,1.3V26z M42.9,30.6c0.6-1,1-2.1,1.2-3.3h0.1c0.3,0,0.5,0,0.8-0.1C44.9,28.6,44.1,29.9,42.9,30.6z M44.2,25.6
		v-2.8c0,0,0,0,0-0.1c0.8,0,1.5,0.7,1.5,1.4S45,25.5,44.2,25.6z"/>
	<path id="Fill-45" d="M19.9,24v-0.7c0-0.5-0.4-0.9-0.9-0.9c-0.5,0-0.9,0.4-0.9,0.9V24c0,0.5,0.4,0.9,0.9,0.9
		C19.5,25,19.9,24.6,19.9,24"/>
</g>
</svg>
