<svg version="1.1" id="Слой_1" xmlns="http://www.w3.org/2000/svg" x="0" y="0" viewBox="0 0 330 330" xml:space="preserve"><style>.st2{fill:#fff}</style><g id="Group-1481"><g id="Group-3" opacity=".25"><path id="Fill-1" d="M272.2 149.7c-5.7 0-10.6 3.1-13.3 7.7H245c-1.6-16.4-8.1-31.4-18.1-43.5l9.9-9.9c5.1 1.4 10.8 0 14.8-4 6-6 6-15.7 0-21.7s-15.7-6-21.7 0c-4 4-5.3 9.7-4 14.8L216 103c-12.1-10-27.1-16.5-43.5-18.1V71.1c4.6-2.7 7.7-7.6 7.7-13.3 0-8.4-6.9-15.3-15.3-15.3s-15.3 6.9-15.3 15.3c0 5.7 3.1 10.6 7.7 13.3V85c-16.4 1.5-31.4 8.1-43.4 18l-9.9-9.9c1.4-5.1 0-10.8-4-14.8-6-6-15.7-6-21.7 0s-6 15.7 0 21.7c4 4 9.7 5.3 14.8 4l9.9 9.9C93 126 86.5 141 84.9 157.4H71.1c-2.7-4.6-7.6-7.7-13.3-7.7-8.4 0-15.3 6.9-15.3 15.3s6.9 15.3 15.3 15.3c5.7 0 10.6-3.1 13.3-7.7H85c1.6 16.4 8.1 31.4 18.1 43.5l-9.9 9.9c-5.1-1.4-10.8 0-14.8 4-6 6-6 15.7 0 21.7s15.7 6 21.7 0c4-4 5.3-9.7 4-14.8l9.9-9.9c12.1 10 27.1 16.5 43.5 18.1V259c-4.6 2.7-7.7 7.6-7.7 13.3 0 8.4 6.9 15.3 15.3 15.3s15.3-6.9 15.3-15.3c0-5.7-3.1-10.6-7.7-13.3v-13.9c16.4-1.6 31.4-8.1 43.5-18.1l9.9 9.9c-1.4 5.1 0 10.8 4 14.8 6 6 15.7 6 21.7 0s6-15.7 0-21.7c-4-4-9.7-5.3-14.8-4l-9.9-9.9c10-12.1 16.5-27.1 18.1-43.5h13.9c2.7 4.6 7.6 7.7 13.3 7.7 8.4 0 15.3-6.9 15.3-15.3s-7.1-15.3-15.5-15.3"/></g><g id="Group-226" transform="translate(46 46)"><path id="Fill-224" d="M119 197c-42.7 0-77.5-34.8-77.5-77.5S76.3 42 119 42s77.5 34.8 77.5 77.5S161.7 197 119 197z" fill="#e84242"/><path class="st2" d="M119 47.3c-39.8 0-72.2 32.4-72.2 72.2s32.4 72.2 72.2 72.2 72.2-32.4 72.2-72.2-32.4-72.2-72.2-72.2zm67.8 85.7c-.4 2.2-1 4.4-1.6 6.6-.7 2.2-1.4 4.3-2.3 6.4-.9 2.1-1.8 4.1-2.9 6.1-1.1 2-2.2 3.9-3.5 5.8-1.3 1.9-2.6 3.7-4 5.5-1.4 1.8-3 3.4-4.6 5-1.6 1.6-3.3 3.1-5 4.6-1.8 1.4-3.6 2.8-5.5 4-1.9 1.3-3.8 2.4-5.8 3.5s-4 2-6.1 2.9-4.2 1.6-6.4 2.3c-2.2.7-4.4 1.2-6.6 1.6-2.2.4-4.5.8-6.7 1a77.33 77.33 0 01-13.6 0c-2.3-.2-4.5-.6-6.7-1s-4.4-1-6.6-1.6c-2.2-.7-4.3-1.4-6.4-2.3-2.1-.9-4.1-1.8-6.1-2.9-2-1.1-3.9-2.2-5.8-3.5s-3.7-2.6-5.5-4-3.4-3-5-4.6c-1.6-1.6-3.1-3.3-4.6-5-1.4-1.8-2.8-3.6-4-5.5-1.3-1.9-2.4-3.8-3.5-5.8s-2-4-2.9-6.1-1.6-4.2-2.3-6.4c-.7-2.2-1.2-4.4-1.6-6.6-.4-2.2-.8-4.5-1-6.7a77.33 77.33 0 010-13.6c.2-2.3.6-4.5 1-6.7s1-4.4 1.6-6.6c.7-2.2 1.4-4.3 2.3-6.4.9-2.1 1.8-4.1 2.9-6.1 1.1-2 2.2-3.9 3.5-5.8 1.3-1.9 2.6-3.7 4-5.5 1.4-1.8 3-3.4 4.6-5s3.3-3.1 5-4.6c1.8-1.4 3.6-2.8 5.5-4 1.9-1.3 3.8-2.4 5.8-3.5s4-2 6.1-2.9c2.1-.9 4.2-1.6 6.4-2.3 2.2-.7 4.4-1.2 6.6-1.6 2.2-.4 4.5-.8 6.7-1a77.33 77.33 0 0113.6 0c2.3.2 4.5.6 6.7 1s4.4 1 6.6 1.6c2.2.7 4.3 1.4 6.4 2.3s4.1 1.8 6.1 2.9c2 1.1 3.9 2.2 5.8 3.5 1.9 1.3 3.7 2.6 5.5 4 1.8 1.4 3.4 3 5 4.6 1.6 1.6 3.1 3.3 4.6 5 1.4 1.8 2.8 3.6 4 5.5 1.3 1.9 2.4 3.8 3.5 5.8s2 4 2.9 6.1c.9 2.1 1.6 4.2 2.3 6.4.7 2.2 1.2 4.4 1.6 6.6.4 2.2.8 4.5 1 6.7s.3 4.5.3 6.8-.1 4.5-.3 6.8c-.2 2.2-.5 4.5-1 6.7z"/><path id="Fill-225" class="st2" d="M92 84.6c1.8 0 3.7-.2 5.8-.5 2.1-.3 3.9-.9 5.6-1.8 1.7-.8 3.1-2 4.2-3.5s1.7-3.4 1.7-5.7l28.8.1-.2 61.9c0 2.8.7 4.6 2 5.4 1.3.9 3.1 1.3 5.2 1.3h4.2l-.1 23.1-56.2-.2.1-23.1h5c2.2 0 3.8-.7 4.9-2.1 1.1-1.4 1.6-2.9 1.6-4.5l.1-29.9H91.9l.1-20.5z"/></g></g></svg>