<?xml version="1.0" encoding="utf-8"?>
<!-- Generator: Adobe Illustrator 21.0.0, SVG Export Plug-In . SVG Version: 6.00 Build 0)  -->
<svg version="1.1" id="Слой_1" xmlns="http://www.w3.org/2000/svg" xmlns:xlink="http://www.w3.org/1999/xlink" x="0px" y="0px"
	 viewBox="0 0 1002.9 1003.1" style="enable-background:new 0 0 1002.9 1003.1;" xml:space="preserve">
<style type="text/css">
	.st0{opacity:9.000000e-02;}
</style>
<g id="Group-488" class="st0">
	<path d="M740.7,546.8c5.3,8.9,15,14.8,26,14.8c16.7,0,30.3-13.6,30.3-30.4c0-14.2-9.6-26-22.6-29.4c13.1-3.4,22.8-15.3,22.8-29.5
		c0-15.6-11.6-28.4-26.6-30.3c14.1-1.8,25-13.9,24.7-28.5c0-16-12.9-28.9-28.8-28.9c-11.4,0-21.2,6.7-25.9,16.3
		c-3-7.9-8.7-14.4-16.1-18.4c9.4-5.7,15.7-16,15.7-27.8c0-16.3-11.9-29.7-27.5-32.1c12.7-2.3,22.3-13.4,22.3-26.8
		c0-15.1-12.2-27.3-27.2-27.3c-13,0-23.8,9.2-26.5,21.4c-2.6-14.6-14.8-25.8-29.9-26.8c13.4-1.2,24-12.4,24-26.2
		c0-14.5-11.7-26.3-26.2-26.3S623,222.4,623,236.9c0,13.8,10.6,25.1,24,26.2c-10.7,0.7-20,6.6-25.4,15.2
		c-3.8-6.8-9.7-12.2-16.9-15.3c9.2-5.1,15.4-14.9,15.4-26.1c0-16.4-13.2-29.7-29.6-29.7c-13.4,0-24.7,8.9-28.4,21.1
		c-3.8-13.3-15.9-23-30.4-23c-13.3,0-24.6,8.2-29.3,19.8c-4.7-11.7-16.1-20-29.5-20c-14.1,0-26.1,9.3-30.2,22.1
		c-4-11.9-15.3-20.5-28.5-20.5c-16.6,0-30.1,13.5-30.1,30.2c0,11.1,6.1,20.9,15.1,26.1c-6.6,3.1-12.1,8.1-15.8,14.3
		c-4.8-7.2-12.4-12.5-21.2-14.3c11.6-3,20.2-13.5,20.2-26.1c0-14.8-12.1-26.9-26.9-26.9c-14.9,0-26.9,12-26.9,26.9
		c0,12.6,8.6,23.1,20.2,26.1c-12.2,2.5-22,11.8-25.4,23.7c-3.8-11.1-14.2-19.1-26.6-19.1c-15.6,0-28.2,12.6-28.2,28.2
		c0,12.4,8,22.9,19.1,26.7c-11.9,3.4-21.1,13.2-23.6,25.5c-2.9-11.7-13.5-20.3-26-20.3c-14.9,0-26.9,12.1-26.9,26.9
		s12.1,26.9,26.9,26.9c12.5,0,23-8.6,26-20.3c1.8,8.9,7,16.5,14.3,21.3c-6.2,3.7-11.1,9.3-14.2,15.9c-5.2-9-15-15.1-26.1-15.1
		c-16.6,0-30.1,13.5-30.1,30.2c0,13.3,8.5,24.5,20.4,28.6c-12.7,4.1-22,16.1-22,30.3c0,13.4,8.2,24.8,19.9,29.5
		c-11.6,4.8-19.8,16.1-19.8,29.4c0,14.4,9.7,26.6,23,30.4c-12.1,3.7-21,15-21,28.4c0,16.4,13.2,29.7,29.6,29.7
		c11.2,0,21-6.3,26-15.5c3.1,7.2,8.4,13.1,15.2,16.9c-8.6,5.5-14.5,14.8-15.2,25.5c-1.1-13.4-12.4-24-26.1-24
		c-14.5,0-26.2,11.8-26.2,26.3s11.7,26.3,26.2,26.3c13.7,0,25-10.5,26.1-24c1.1,15.1,12.2,27.4,26.8,30
		c-12.2,2.7-21.3,13.6-21.3,26.6c0,15.1,12.2,27.3,27.2,27.3c13.3,0,24.4-9.6,26.7-22.3c2.4,15.6,15.8,27.6,32,27.6
		c11.8,0,22.1-6.4,27.8-15.8c4,7.4,10.5,13.2,18.4,16.2c-9.7,4.7-16.3,14.6-16.3,26c0,16,12.9,28.9,28.8,28.9
		c14.6,0,26.6-11,28.5-25.1c1.9,15.1,14.7,26.7,30.2,26.7c14.2,0,26.1-9.8,29.5-22.9c3.4,13,15.2,22.7,29.3,22.7
		c16.7,0,30.3-13.6,30.3-30.4c0-11-5.9-20.7-14.7-26c6-2.8,11.1-7.2,14.7-12.7c4.1,5.9,10,10.4,16.9,12.8
		c-9.9,4.4-16.8,14.3-16.8,25.9c0,15.7,12.6,28.4,28.3,28.4c15.6,0,28.3-12.7,28.3-28.4c0-11.5-6.9-21.5-16.8-25.9
		c8.6-3.1,15.6-9.3,19.6-17.3c5.4,9.6,15.8,16.1,27.6,16.1c17.6,0,31.8-14.2,31.8-31.8c0-11.1-5.7-20.9-14.3-26.6
		c6.3-3.4,11.4-8.6,14.8-14.8c5.7,8.6,15.4,14.3,26.5,14.3c17.6,0,31.8-14.2,31.8-31.8c0-11.9-6.5-22.2-16.1-27.7
		c8-4,14.2-11,17.2-19.6c4.4,9.9,14.4,16.8,25.9,16.8c15.6,0,28.3-12.7,28.3-28.4s-12.6-28.4-28.3-28.4c-11.6,0-21.5,6.9-25.9,16.8
		c-2.4-6.9-6.9-12.8-12.8-17C733.5,557.9,737.9,552.8,740.7,546.8z M264.2,428.5c2.5,5.4,6.2,10,10.8,13.5
		c-4.4,3.2-8.1,7.3-10.8,12.1c-3.9-5.7-9.7-10-16.4-12.2C254.8,439.6,260.6,434.8,264.2,428.5z M274.1,501.8c-4,3.1-7.4,7-9.8,11.5
		c-3.5-5.1-8.5-9.1-14.3-11.5c5.8-2.3,10.8-6.3,14.3-11.4C266.7,494.8,270.1,498.7,274.1,501.8z M264.2,575.8
		c-3.7-6.8-9.9-11.9-17.4-14.2c7.2-2,13.4-6.6,17.5-12.6c2.8,5,6.6,9.2,11.2,12.5C270.6,565.2,266.7,570.1,264.2,575.8z
		 M323.5,304.9c2.1,7.2,6.5,13.4,12.3,17.7c-4.9,3-9,7.2-12.1,12.2c-4.3-5.9-10.5-10.3-17.7-12.3
		C314.2,319.6,320.7,313.1,323.5,304.9z M324.4,447c-1.7-1.9-3.6-3.5-5.6-5c1.9-1.5,3.6-3.1,5.2-4.9c1.4,1.9,3,3.7,4.7,5.3
		C327.1,443.8,325.6,445.4,324.4,447z M328.2,501.8c-1.4,1.3-2.8,2.8-4,4.3c-1.4-1.5-2.9-2.9-4.5-4.2c1.7-1.4,3.2-2.8,4.6-4.3
		C325.5,499.1,326.8,500.5,328.2,501.8z M324.2,556.3c1.4,1.8,3,3.4,4.6,4.9c-1.8,1.7-3.4,3.6-4.9,5.6c-1.6-2-3.5-3.7-5.6-5.3
		C320.5,560,322.4,558.2,324.2,556.3z M323.9,389.6c-2.5-2.8-5.4-5.3-8.7-7.2c3.4-2.1,6.2-4.8,8.5-8c1.9,3.1,4.2,5.8,6.9,8.2
		C328.1,384.7,325.9,387,323.9,389.6z M324,613.2c2.1,2.8,4.5,5.4,7.3,7.6c-3,2.7-5.6,5.8-7.6,9.2c-2.5-3.5-5.6-6.5-9.3-8.9
		C318.1,619,321.3,616.3,324,613.2z M323.6,702.8c-2-10.8-10.2-19.3-20.9-21.7c8.6-1.6,16-6.5,20.9-13.4c3.3,5.5,7.9,10.2,13.5,13.4
		C330,686.1,325,693.9,323.6,702.8z M383.5,314.1c1.9,3.3,4.4,6.2,7.2,8.7c-2.6,2-5,4.2-7,6.6c-2.4-2.6-5.1-5-8.2-6.9
		C378.6,320.2,381.3,317.4,383.5,314.1z M384.3,444c-0.6-0.6-1.2-1.1-1.8-1.7c0.6-0.4,1.1-0.9,1.6-1.4c0.5,0.6,1,1.2,1.6,1.7
		L384.3,444z M385.5,501.7c-0.4,0.4-0.8,0.8-1.1,1.2c-0.5-0.4-0.9-0.8-1.3-1.2c0.4-0.4,0.9-0.8,1.3-1.2
		C384.8,500.9,385.1,501.3,385.5,501.7z M384.3,559.4l1.5,1.5c-0.6,0.7-1.2,1.3-1.8,2c-0.6-0.5-1.1-1.1-1.7-1.6
		C383,560.7,383.7,560.1,384.3,559.4z M384.1,385.9c-1.1-1.1-2.3-2.2-3.5-3.2c1.1-1,2.1-2,3.1-3.1c1,1.2,2.1,2.4,3.2,3.5
		C385.9,384,385,385,384.1,385.9z M384,617.1c1.1,1.2,2.2,2.3,3.4,3.4c-1.3,1.3-2.5,2.6-3.7,4c-1.1-1.2-2.4-2.5-3.7-3.7
		C381.4,619.7,382.8,618.4,384,617.1z M383.3,691c-2.3-3.9-5.5-7.3-9.2-9.9c3.7-2.1,6.9-4.8,9.5-8c2.3,2.9,5,5.4,8,7.6
		C388.3,683.6,385.4,687.1,383.3,691z M442.9,246.6c2.2,6.7,6.5,12.5,12.2,16.4c-4.8,2.7-8.9,6.4-12.1,10.8
		c-3.5-4.6-8.2-8.4-13.5-10.8C435.7,259.3,440.5,253.5,442.9,246.6z M443.5,560.4l0.5,0.5l-0.6,0.6l-0.5-0.5L443.5,560.4z
		 M443.2,501.7c0.1-0.1,0.2-0.2,0.3-0.2c0.1,0.1,0.1,0.2,0.2,0.2c-0.1,0.1-0.1,0.2-0.2,0.2C443.4,501.9,443.3,501.8,443.2,501.7z
		 M443.5,443.1l-0.5-0.5l0.5-0.5l0.5,0.5L443.5,443.1z M443.5,384.7c-0.5-0.6-1.1-1.1-1.7-1.6l1.5-1.5c0.5,0.6,1.1,1.2,1.6,1.7
		C444.4,383.8,443.9,384.2,443.5,384.7z M443.4,618.7c0.6,0.6,1.2,1.2,1.8,1.7c-0.7,0.7-1.4,1.4-2,2.1c-0.6-0.7-1.2-1.3-1.9-1.9
		C442,620,442.7,619.3,443.4,618.7z M443.3,327.6c-1.6-1.7-3.4-3.3-5.3-4.7c1.8-1.6,3.5-3.4,4.9-5.3c1.5,2,3.1,3.9,5,5.6
		C446.2,324.5,444.7,326,443.3,327.6z M443.2,675.2c1.7,2,3.6,3.7,5.6,5.3c-2.2,2-4.2,4.2-5.9,6.7c-1.7-2.4-3.7-4.5-5.9-6.4
		C439.3,679.2,441.3,677.3,443.2,675.2z M442.9,762.8c-1.3-9.8-7.5-18-16-22.1c6.5-2.5,12-6.8,16-12.4c3.6,5.3,8.5,9.5,14.3,12.3
		C449.5,745.4,444.1,753.4,442.9,762.8z M502.6,248.7c2.3,5.8,6.4,10.8,11.5,14.3c-4.5,2.5-8.4,5.8-11.5,9.8c-3.1-4-7-7.3-11.4-9.8
		C496.3,259.5,500.3,254.5,502.6,248.7z M502.5,442.8c-0.1-0.1-0.2-0.1-0.2-0.2c0.1-0.1,0.2-0.2,0.2-0.3c0,0.2,0.1,0.3,0.2,0.3
		C502.6,442.7,502.5,442.7,502.5,442.8z M502.6,560.8c-0.1,0.1-0.2,0.2-0.2,0.3c0-0.1-0.1-0.2-0.2-0.3c0.1-0.1,0.2-0.1,0.2-0.2
		C502.5,560.7,502.6,560.7,502.6,560.8z M502.5,384.5c-0.4-0.4-0.8-0.8-1.2-1.1c0.4-0.4,0.8-0.9,1.2-1.3c0.4,0.5,0.8,0.9,1.2,1.3
		C503.3,383.7,502.9,384.1,502.5,384.5z M502.5,619c0.4,0.5,0.9,0.9,1.6,1.4c-0.6,0.4-1,1-1.5,1.5l-1.5-1.5
		C501.5,619.9,502,619.5,502.5,619z M502.4,327.1c-1.3-1.4-2.6-2.7-4.1-3.9c1.5-1.4,2.9-2.9,4.2-4.6c1.3,1.6,2.7,3.1,4.2,4.5
		C505.2,324.3,503.8,325.6,502.4,327.1z M502.5,675.9c1.6,1.7,3.3,3.3,5.2,4.8c-1.9,1.6-3.6,3.5-5.1,5.6c-1.5-2.1-3.2-4-5.2-5.7
		C499.2,679.2,500.9,677.6,502.5,675.9z M502.5,758.9c-2-7.7-6.9-14.2-13.5-18.3c5.4-2.6,10.1-6.5,13.5-11.4
		c3.5,4.9,8.2,8.8,13.7,11.4C509.5,744.6,504.5,751.1,502.5,758.9z M562.1,687.7c-1.7-2.6-3.8-4.9-6.1-7c2.1-1.7,4.1-3.5,5.8-5.5
		c2,2.1,4.1,4,6.5,5.7C566,682.9,563.9,685.2,562.1,687.7z M561.4,443.1l-0.5-0.5l0.6-0.6l0.5,0.5L561.4,443.1z M561.7,501.7
		c-0.1,0-0.2,0.1-0.3,0.2c-0.1,0-0.1-0.1-0.2-0.2c0.1,0,0.1-0.1,0.2-0.2C561.5,501.5,561.6,501.6,561.7,501.7z M561.5,560.4
		c0.2,0.3,0.5,0.5,0.7,0.7c-0.2,0.1-0.3,0.3-0.5,0.5c-0.2-0.3-0.5-0.6-0.7-0.8C561.1,560.7,561.3,560.5,561.5,560.4z M561.5,384.8
		l-1.5-1.5c0.7-0.6,1.3-1.3,1.9-2c0.5,0.6,1,1.2,1.6,1.7C562.8,383.6,562.2,384.2,561.5,384.8z M561.7,618.5
		c0.7,0.7,1.5,1.4,2.2,2.1c-0.7,0.6-1.4,1.3-2,2c-0.7-0.8-1.4-1.5-2.1-2.3C560.4,619.7,561.1,619.1,561.7,618.5z M561.9,327.8
		c-1.5-1.7-3.2-3.3-4.9-4.7c1.9-1.8,3.6-3.8,5.1-5.9c1.6,2.1,3.3,4,5.3,5.7C565.4,324.4,563.5,326,561.9,327.8z M562.1,274.2
		c-3.3-4.6-7.5-8.5-12.5-11.2c6-4.1,10.6-10.3,12.6-17.5c2.3,7.5,7.4,13.7,14.2,17.4C570.7,265.4,565.8,269.3,562.1,274.2z
		 M621.7,313.2c2.3,3.6,5.3,6.8,8.8,9.3c-3.5,2.1-6.6,4.6-9.1,7.6c-2.2-2.8-4.8-5.2-7.6-7.3C616.9,320.1,619.6,316.9,621.7,313.2z
		 M620.8,444.3c-0.6-0.6-1.1-1.2-1.7-1.8c0.6-0.7,1.3-1.4,1.9-2.1c0.6,0.7,1.2,1.3,1.9,1.9C622.2,442.9,621.5,443.6,620.8,444.3z
		 M622.3,501.7l-1.5,1.5c-0.5-0.5-0.9-1-1.4-1.5c0.5-0.5,0.9-1,1.4-1.5L622.3,501.7z M620.8,559.1c0.8,0.7,1.5,1.4,2.3,2.1
		c-0.7,0.6-1.3,1.3-2,2c-0.7-0.7-1.4-1.5-2.1-2.2C619.6,560.4,620.2,559.8,620.8,559.1z M621.1,386.4c-1.1-1.2-2.2-2.3-3.4-3.4
		c1.3-1.3,2.5-2.6,3.7-4c1.1,1.3,2.3,2.6,3.7,3.7C623.7,383.8,622.3,385.1,621.1,386.4z M621.1,616.7c1.4,1.5,2.9,2.9,4.5,4.1
		c-1.5,1.4-2.9,2.8-4.2,4.3c-1.3-1.6-2.6-3.2-4.1-4.6C618.6,619.3,619.9,618.1,621.1,616.7z M621.7,692.1c-2.2-4.3-5.2-8.1-8.9-11.2
		c3.3-2.3,6.1-5.1,8.6-8.2c2.9,3.4,6.5,6.4,10.4,8.5C627.6,684,624.2,687.7,621.7,692.1z M681.5,631.4c-2.2-4-5.1-7.6-8.5-10.5
		c3.1-2.4,5.9-5.3,8.2-8.6c3.1,3.7,6.9,6.7,11.2,8.9C688,623.7,684.3,627.2,681.5,631.4z M680.9,447.9c-1.6-2-3.3-3.9-5.2-5.6
		c2-1.9,3.9-3.9,5.5-6.2c1.9,2.2,4,4.2,6.4,5.9C685.1,443.7,682.9,445.7,680.9,447.9z M686.6,501.8c-2,1.5-3.9,3.2-5.6,5.1
		c-1.4-1.9-3-3.6-4.7-5.2c1.6-1.5,3.2-3.2,4.6-5.1C682.6,498.6,684.5,500.3,686.6,501.8z M681,555.5c2.1,2.3,4.4,4.4,7,6.1
		c-2.6,1.7-4.8,3.8-6.8,6.2c-1.7-2.4-3.6-4.6-5.7-6.5C677.5,559.5,679.4,557.5,681,555.5z M681.2,390.7c-2.1-3-4.7-5.7-7.6-8
		c3.1-2.7,5.8-6,7.9-9.6c2.6,3.8,6,6.9,9.9,9.3C687.4,384.5,684,387.4,681.2,390.7z M681.4,336c-3.2-5.6-7.8-10.2-13.3-13.5
		c6.9-4.8,11.8-12.3,13.4-20.9c2.3,10.6,10.9,18.9,21.6,20.9C694.1,323.9,686.4,328.9,681.4,336z M740.9,426
		c4.1,8.5,12.3,14.7,22.1,16c-9.4,1.2-17.4,6.6-22.1,14.3c-2.8-5.8-7-10.7-12.3-14.3C734.1,438.1,738.4,432.5,740.9,426z
		 M729.5,501.9c4.8-3.5,8.7-8.2,11.4-13.6c4.1,6.6,10.6,11.6,18.3,13.6c-7.8,1.9-14.4,7-18.4,13.7
		C738.2,510.1,734.3,505.4,729.5,501.9z"/>
	<path id="Fill-33" d="M296,3.3c0.5,0,1-0.4,1-1c0-0.5-0.4-1-1-1c-0.5,0-1,0.4-1,1S295.4,3.3,296,3.3"/>
	<path id="Fill-35" d="M354.7,3.8c0.8,0,1.5-0.7,1.5-1.5s-0.7-1.5-1.5-1.5s-1.5,0.7-1.5,1.5C353.3,3.1,353.9,3.8,354.7,3.8"/>
	<path id="Fill-37" d="M413.5,4.3c1.1,0,2-0.9,2-2s-0.9-2-2-2s-2,0.9-2,2S412.4,4.3,413.5,4.3"/>
	<path id="Fill-39" d="M472.2,4.6c1.3,0,2.3-1,2.3-2.3s-1-2.3-2.3-2.3s-2.3,1-2.3,2.3S471,4.6,472.2,4.6"/>
	<path id="Fill-41" d="M531,4.6c1.3,0,2.3-1,2.3-2.3S532.3,0,531,0s-2.3,1-2.3,2.3S529.7,4.6,531,4.6"/>
	<path id="Fill-43" d="M589.7,4.3c1.1,0,2-0.9,2-2s-0.9-2-2-2s-2,0.9-2,2S588.6,4.3,589.7,4.3"/>
	<path id="Fill-45" d="M648.4,3.8c0.8,0,1.5-0.7,1.5-1.5s-0.7-1.5-1.5-1.5s-1.5,0.7-1.5,1.5C647,3.1,647.6,3.8,648.4,3.8"/>
	<path id="Fill-47" d="M707.2,3.1c0.5,0,0.8-0.4,0.8-0.8s-0.4-0.8-0.8-0.8s-0.8,0.4-0.8,0.8C706.4,2.8,706.7,3.1,707.2,3.1"/>
	<path id="Fill-55" d="M178.5,61.9c0.4,0,0.8-0.4,0.8-0.8s-0.4-0.8-0.8-0.8c-0.5,0-0.8,0.4-0.8,0.8S178.1,61.9,178.5,61.9"/>
	<path id="Fill-57" d="M237.2,62.9c1,0,1.8-0.8,1.8-1.8s-0.8-1.8-1.8-1.8s-1.8,0.8-1.8,1.8C235.5,62.1,236.3,62.9,237.2,62.9"/>
	<path id="Fill-59" d="M296,64.2c1.7,0,3.1-1.4,3.1-3.1S297.7,58,296,58s-3.1,1.4-3.1,3.1S294.3,64.2,296,64.2"/>
	<path id="Fill-61" d="M354.7,65.6c2.5,0,4.6-2,4.6-4.6c0-2.5-2-4.6-4.6-4.6c-2.5,0-4.6,2-4.6,4.6C350.2,63.6,352.2,65.6,354.7,65.6
		"/>
	<path id="Fill-63" d="M413.5,66.8c3.2,0,5.7-2.6,5.7-5.7c0-3.1-2.6-5.7-5.7-5.7s-5.7,2.6-5.7,5.7C407.8,64.2,410.3,66.8,413.5,66.8
		"/>
	<path id="Fill-65" d="M472.2,67.6c3.6,0,6.5-2.9,6.5-6.5s-2.9-6.5-6.5-6.5s-6.5,2.9-6.5,6.5S468.6,67.6,472.2,67.6"/>
	<path id="Fill-67" d="M531,67.4c3.5,0,6.4-2.8,6.4-6.4s-2.8-6.4-6.4-6.4c-3.5,0-6.3,2.8-6.3,6.4C524.7,64.6,527.4,67.4,531,67.4"/>
	<path id="Fill-69" d="M589.7,66.6c3.1,0,5.5-2.5,5.5-5.5c0-3.1-2.5-5.5-5.5-5.5c-3.1,0-5.5,2.5-5.5,5.5S586.6,66.6,589.7,66.6"/>
	<path id="Fill-71" d="M648.4,65.5c2.4,0,4.4-2,4.4-4.4s-2-4.4-4.4-4.4s-4.4,2-4.4,4.4S646,65.5,648.4,65.5"/>
	<path id="Fill-73" d="M707.2,63.9c1.5,0,2.8-1.2,2.8-2.8c0-1.5-1.2-2.8-2.8-2.8s-2.8,1.2-2.8,2.8C704.4,62.6,705.7,63.9,707.2,63.9
		"/>
	<path id="Fill-75" d="M765.9,62.7c0.9,0,1.6-0.7,1.6-1.6s-0.7-1.6-1.6-1.6c-0.9,0-1.6,0.7-1.6,1.6S765,62.7,765.9,62.7"/>
	<path id="Fill-77" d="M824.7,61.7c0.4,0,0.6-0.3,0.6-0.7s-0.3-0.7-0.6-0.7c-0.4,0-0.7,0.3-0.7,0.7S824.3,61.7,824.7,61.7"/>
	<path id="Fill-83" d="M119.8,120.8c0.5,0,1-0.4,1-1c0-0.5-0.4-1-1-1s-1,0.4-1,1S119.2,120.8,119.8,120.8"/>
	<path id="Fill-85" d="M178.5,122.3c1.3,0,2.4-1.1,2.4-2.4c0-1.4-1.1-2.4-2.4-2.4c-1.4,0-2.4,1.1-2.4,2.4
		C176.1,121.2,177.2,122.3,178.5,122.3"/>
	<path id="Fill-87" d="M237.2,124.7c2.7,0,4.9-2.2,4.9-4.9s-2.2-4.9-4.9-4.9s-4.9,2.2-4.9,4.9C232.4,122.5,234.6,124.7,237.2,124.7"
		/>
	<path id="Fill-89" d="M296,127.5c4.2,0,7.7-3.4,7.7-7.7c0-4.2-3.4-7.7-7.7-7.7c-4.2,0-7.7,3.4-7.7,7.7S291.8,127.5,296,127.5"/>
	<path id="Fill-91" d="M354.7,130.4c5.8,0,10.6-4.7,10.6-10.6s-4.7-10.6-10.6-10.6c-5.8,0-10.6,4.7-10.6,10.6
		S348.9,130.4,354.7,130.4"/>
	<path id="Fill-93" d="M413.5,132.7c7.1,0,12.9-5.8,12.9-12.9s-5.8-12.9-12.9-12.9s-12.9,5.8-12.9,12.9
		C400.6,126.9,406.4,132.7,413.5,132.7"/>
	<path id="Fill-95" d="M472.2,134c7.8,0,14.2-6.3,14.2-14.2c0-7.8-6.3-14.2-14.2-14.2c-7.8,0-14.2,6.3-14.2,14.2
		S464.4,134,472.2,134"/>
	<path id="Fill-97" d="M531,133.8c7.7,0,14-6.3,14-14s-6.3-14-14-14s-14,6.3-14,14C516.9,127.6,523.2,133.8,531,133.8"/>
	<path id="Fill-99" d="M589.7,132.4c6.9,0,12.5-5.6,12.5-12.5s-5.6-12.5-12.5-12.5s-12.5,5.6-12.5,12.5S582.8,132.4,589.7,132.4"/>
	<path id="Fill-101" d="M648.4,129.9c5.6,0,10.1-4.5,10.1-10.1s-4.5-10.1-10.1-10.1s-10.1,4.5-10.1,10.1S642.9,129.9,648.4,129.9"/>
	<path id="Fill-103" d="M707.2,127c4,0,7.2-3.2,7.2-7.2s-3.2-7.2-7.2-7.2s-7.2,3.2-7.2,7.2S703.2,127,707.2,127"/>
	<path id="Fill-105" d="M765.9,124.2c2.4,0,4.4-2,4.4-4.4s-2-4.4-4.4-4.4s-4.4,2-4.4,4.4C761.5,122.3,763.5,124.2,765.9,124.2"/>
	<path id="Fill-107" d="M824.7,121.9c1.2,0,2.1-1,2.1-2.1c0-1.2-0.9-2.1-2.1-2.1c-1.2,0-2.1,0.9-2.1,2.1
		C822.5,121,823.5,121.9,824.7,121.9"/>
	<path id="Fill-109" d="M883.4,120.6c0.4,0,0.8-0.4,0.8-0.8s-0.4-0.8-0.8-0.8s-0.8,0.4-0.8,0.8C882.6,120.3,883,120.6,883.4,120.6"
		/>
	<path id="Fill-117" d="M61,179.4c0.5,0,0.8-0.4,0.8-0.8s-0.4-0.8-0.8-0.8s-0.8,0.4-0.8,0.8S60.6,179.4,61,179.4"/>
	<path id="Fill-119" d="M119.8,181c1.4,0,2.4-1.1,2.4-2.4c0-1.3-1.1-2.4-2.4-2.4c-1.3,0-2.4,1.1-2.4,2.4
		C117.3,179.9,118.4,181,119.8,181"/>
	<path id="Fill-121" d="M178.5,183.8c2.9,0,5.2-2.3,5.2-5.2s-2.3-5.2-5.2-5.2s-5.2,2.3-5.2,5.2S175.6,183.8,178.5,183.8"/>
	<path id="Fill-123" d="M237.2,188c5.2,0,9.4-4.2,9.4-9.4s-4.2-9.5-9.4-9.5s-9.4,4.2-9.4,9.5C227.8,183.8,232,188,237.2,188"/>
	<path id="Fill-125" d="M296,192.4c7.6,0,13.8-6.2,13.8-13.8s-6.2-13.8-13.8-13.8c-7.7,0-13.8,6.2-13.8,13.8
		C282.1,186.2,288.3,192.4,296,192.4"/>
	<path id="Fill-127" d="M354.7,196.8c10.1,0,18.2-8.2,18.2-18.2c0-10.1-8.2-18.2-18.2-18.2c-10.1,0-18.2,8.2-18.2,18.2
		C336.5,188.7,344.7,196.8,354.7,196.8"/>
	<path id="Fill-129" d="M413.5,199.9c11.8,0,21.3-9.6,21.3-21.3s-9.6-21.3-21.3-21.3c-11.8,0-21.3,9.6-21.3,21.3
		S401.7,199.9,413.5,199.9"/>
	<path id="Fill-131" d="M472.2,201.5c12.7,0,23-10.3,23-23s-10.3-23-23-23s-23,10.3-23,23S459.5,201.5,472.2,201.5"/>
	<path id="Fill-133" d="M531,201.4c12.6,0,22.8-10.2,22.8-22.8s-10.2-22.8-22.8-22.8s-22.8,10.2-22.8,22.8S518.4,201.4,531,201.4"/>
	<path id="Fill-135" d="M589.7,199.4c11.5,0,20.8-9.3,20.8-20.8s-9.3-20.9-20.8-20.9s-20.8,9.3-20.8,20.9
		C568.9,190.1,578.2,199.4,589.7,199.4"/>
	<path id="Fill-137" d="M648.4,196.2c9.7,0,17.6-7.9,17.6-17.6c0-9.7-7.9-17.6-17.6-17.6c-9.7,0-17.6,7.9-17.6,17.6
		C630.8,188.3,638.7,196.2,648.4,196.2"/>
	<path id="Fill-139" d="M707.2,191.6c7.2,0,13-5.8,13-13s-5.8-13-13-13s-13,5.8-13,13C694.1,185.8,700,191.6,707.2,191.6"/>
	<path id="Fill-141" d="M765.9,187.2c4.8,0,8.6-3.9,8.6-8.6c0-4.8-3.9-8.6-8.6-8.6c-4.8,0-8.6,3.9-8.6,8.6
		C757.3,183.3,761.2,187.2,765.9,187.2"/>
	<path id="Fill-143" d="M824.7,183.1c2.5,0,4.6-2,4.6-4.6c0-2.5-2-4.6-4.6-4.6c-2.5,0-4.6,2-4.6,4.6S822.1,183.1,824.7,183.1"/>
	<path id="Fill-145" d="M883.4,180.7c1.2,0,2.1-1,2.1-2.1c0-1.2-0.9-2.1-2.1-2.1c-1.2,0-2.1,0.9-2.1,2.1
		C881.3,179.7,882.2,180.7,883.4,180.7"/>
	<path id="Fill-147" d="M942.1,179.2c0.4,0,0.7-0.3,0.7-0.7s-0.3-0.7-0.7-0.7s-0.7,0.3-0.7,0.7C941.5,178.9,941.8,179.2,942.1,179.2
		"/>
	<path id="Fill-153" d="M2.3,237.8c0.3,0,0.5-0.2,0.5-0.5s-0.2-0.5-0.5-0.5s-0.5,0.2-0.5,0.5S2,237.8,2.3,237.8"/>
	<path id="Fill-155" d="M61,239.1c1,0,1.8-0.8,1.8-1.8s-0.8-1.8-1.8-1.8s-1.8,0.8-1.8,1.8S60,239.1,61,239.1"/>
	<path id="Fill-157" d="M119.8,242.2c2.7,0,4.9-2.2,4.9-4.9s-2.2-4.9-4.9-4.9s-4.9,2.2-4.9,4.9S117.1,242.2,119.8,242.2"/>
	<path id="Fill-159" d="M178.5,246.8c5.2,0,9.4-4.2,9.4-9.5c0-5.2-4.2-9.4-9.4-9.4s-9.5,4.2-9.5,9.4
		C169.1,242.5,173.3,246.8,178.5,246.8"/>
	<path id="Fill-161" d="M237.2,253.1c8.7,0,15.8-7.1,15.8-15.8s-7.1-15.8-15.8-15.8c-8.7,0-15.8,7.1-15.8,15.8
		C221.5,246.1,228.5,253.1,237.2,253.1"/>
	<path id="Fill-163" d="M296,259c12,0,21.7-9.7,21.7-21.7s-9.7-21.7-21.7-21.7s-21.7,9.7-21.7,21.7S284,259,296,259"/>
	<path id="Fill-165" d="M707.2,258c11.4,0,20.7-9.3,20.7-20.7s-9.3-20.7-20.7-20.7s-20.7,9.3-20.7,20.7
		C686.5,248.8,695.8,258,707.2,258"/>
	<path id="Fill-167" d="M765.9,252c8.1,0,14.7-6.6,14.7-14.7s-6.6-14.7-14.7-14.7s-14.7,6.6-14.7,14.7
		C751.3,245.4,757.8,252,765.9,252"/>
	<path id="Fill-169" d="M824.7,245.8c4.7,0,8.5-3.8,8.5-8.5s-3.8-8.5-8.5-8.5s-8.5,3.8-8.5,8.5S820,245.8,824.7,245.8"/>
	<path id="Fill-171" d="M883.4,241.6c2.3,0,4.2-1.9,4.2-4.2s-1.9-4.2-4.2-4.2s-4.2,1.9-4.2,4.2C879.2,239.7,881.1,241.6,883.4,241.6
		"/>
	<path id="Fill-173" d="M942.1,238.8c0.8,0,1.5-0.7,1.5-1.5s-0.7-1.5-1.5-1.5s-1.5,0.7-1.5,1.5C940.7,238.1,941.3,238.8,942.1,238.8
		"/>
	<path id="Fill-179" d="M2.3,297.1c0.5,0,1-0.4,1-1c0-0.5-0.4-1-1-1c-0.5,0-1,0.4-1,1C1.3,296.6,1.7,297.1,2.3,297.1"/>
	<path id="Fill-181" d="M61,299.2c1.7,0,3.1-1.4,3.1-3.1S62.7,293,61,293s-3.1,1.4-3.1,3.1S59.3,299.2,61,299.2"/>
	<path id="Fill-183" d="M119.8,303.7c4.2,0,7.7-3.4,7.7-7.7c0-4.2-3.4-7.7-7.7-7.7c-4.2,0-7.7,3.4-7.7,7.7
		C112.1,300.3,115.5,303.7,119.8,303.7"/>
	<path id="Fill-185" d="M178.5,309.9c7.6,0,13.8-6.2,13.8-13.8c0-7.6-6.2-13.8-13.8-13.8c-7.7,0-13.8,6.2-13.8,13.8
		C164.7,303.7,170.9,309.9,178.5,309.9"/>
	<path id="Fill-187" d="M237.2,317.7c12,0,21.7-9.7,21.7-21.7s-9.7-21.7-21.7-21.7s-21.7,9.7-21.7,21.7
		C215.6,308,225.3,317.7,237.2,317.7"/>
	<path id="Fill-189" d="M765.9,316.4c11.2,0,20.4-9.1,20.4-20.4c0-11.2-9.1-20.4-20.4-20.4c-11.2,0-20.4,9.1-20.4,20.4
		C745.6,307.3,754.7,316.4,765.9,316.4"/>
	<path id="Fill-191" d="M824.7,308.8c7,0,12.7-5.7,12.7-12.7s-5.7-12.7-12.7-12.7s-12.7,5.7-12.7,12.7S817.6,308.8,824.7,308.8"/>
	<path id="Fill-195" d="M942.1,298.7c1.4,0,2.6-1.2,2.6-2.6s-1.2-2.6-2.6-2.6c-1.4,0-2.6,1.2-2.6,2.6S940.7,298.7,942.1,298.7"/>
	<path id="Fill-197" d="M1000.9,296.9c0.5,0,0.8-0.4,0.8-0.8s-0.4-0.8-0.8-0.8s-0.8,0.4-0.8,0.8S1000.4,296.9,1000.9,296.9"/>
	<path id="Fill-201" d="M2.3,356.3c0.8,0,1.5-0.7,1.5-1.5s-0.7-1.5-1.5-1.5s-1.5,0.7-1.5,1.5S1.5,356.3,2.3,356.3"/>
	<path id="Fill-203" d="M61,359.4c2.5,0,4.6-2,4.6-4.6c0-2.5-2-4.6-4.6-4.6c-2.5,0-4.6,2-4.6,4.6C56.5,357.3,58.5,359.4,61,359.4"/>
	<path id="Fill-205" d="M119.8,365.4c5.8,0,10.6-4.7,10.6-10.6s-4.7-10.6-10.6-10.6c-5.8,0-10.6,4.7-10.6,10.6
		S113.9,365.4,119.8,365.4"/>
	<path id="Fill-207" d="M178.5,373.1c10.1,0,18.2-8.2,18.2-18.2c0-10.1-8.2-18.2-18.2-18.2c-10.1,0-18.2,8.2-18.2,18.2
		S168.4,373.1,178.5,373.1"/>
	<path id="Fill-209" d="M765.9,380.4c14.1,0,25.6-11.4,25.6-25.6c0-14.1-11.4-25.6-25.6-25.6c-14.1,0-25.6,11.4-25.6,25.6
		S751.8,380.4,765.9,380.4"/>
	<path id="Fill-211" d="M824.7,371.8c9.4,0,16.9-7.6,16.9-16.9c0-9.4-7.6-16.9-16.9-16.9c-9.4,0-16.9,7.6-16.9,16.9
		C807.7,364.2,815.3,371.8,824.7,371.8"/>
	<path id="Fill-213" d="M883.4,364.3c5.2,0,9.4-4.2,9.4-9.4s-4.2-9.5-9.4-9.5s-9.4,4.2-9.4,9.5C874,360,878.2,364.3,883.4,364.3"/>
	<path id="Fill-215" d="M942.1,358.7c2.2,0,3.9-1.8,3.9-3.9c0-2.2-1.7-3.9-3.9-3.9s-3.9,1.8-3.9,3.9
		C938.2,357,940,358.7,942.1,358.7"/>
	<path id="Fill-217" d="M1000.9,356c0.6,0,1.1-0.5,1.1-1.1s-0.5-1.1-1.1-1.1s-1.1,0.5-1.1,1.1S1000.3,356,1000.9,356"/>
	<path id="Fill-221" d="M2.3,415.5c1.1,0,2-0.9,2-2s-0.9-2-2-2s-2,0.9-2,2C0.3,414.7,1.2,415.5,2.3,415.5"/>
	<path id="Fill-223" d="M61,419.3c3.2,0,5.7-2.6,5.7-5.7s-2.6-5.7-5.7-5.7s-5.7,2.6-5.7,5.7S57.9,419.3,61,419.3"/>
	<path id="Fill-225" d="M119.8,426.4c7.1,0,12.9-5.8,12.9-12.9s-5.8-12.9-12.9-12.9c-7.1,0-12.9,5.8-12.9,12.9
		S112.7,426.4,119.8,426.4"/>
	<path id="Fill-227" d="M178.5,434.9c11.8,0,21.3-9.6,21.3-21.3c0-11.8-9.6-21.3-21.3-21.3c-11.8,0-21.3,9.6-21.3,21.3
		C157.2,425.4,166.7,434.9,178.5,434.9"/>
	<path id="Fill-229" d="M824.7,433.4c11,0,19.9-8.9,19.9-19.9s-8.9-19.9-19.9-19.9s-19.9,8.9-19.9,19.9
		C804.8,424.6,813.7,433.4,824.7,433.4"/>
	<path id="Fill-231" d="M883.4,425.1c6.4,0,11.6-5.2,11.6-11.6s-5.2-11.6-11.6-11.6c-6.4,0-11.6,5.2-11.6,11.6
		C871.8,420,877,425.1,883.4,425.1"/>
	<path id="Fill-233" d="M942.1,418.5c2.7,0,4.9-2.2,4.9-4.9s-2.2-4.9-4.9-4.9s-4.9,2.2-4.9,4.9C937.3,416.3,939.5,418.5,942.1,418.5
		"/>
	<path id="Fill-235" d="M1000.9,415.2c0.9,0,1.6-0.7,1.6-1.6s-0.7-1.6-1.6-1.6s-1.6,0.7-1.6,1.6S1000,415.2,1000.9,415.2"/>
	<path id="Fill-239" d="M2.3,470C1,470,0,471,0,472.3s1,2.3,2.3,2.3s2.3-1,2.3-2.3S3.5,470,2.3,470"/>
	<path id="Fill-241" d="M61,465.8c-3.6,0-6.5,2.9-6.5,6.5s2.9,6.5,6.5,6.5s6.5-2.9,6.5-6.5S64.6,465.8,61,465.8"/>
	<path id="Fill-243" d="M119.8,458.1c-7.8,0-14.2,6.3-14.2,14.2c0,7.8,6.3,14.2,14.2,14.2c7.8,0,14.2-6.3,14.2-14.2
		C133.9,464.5,127.6,458.1,119.8,458.1"/>
	<path id="Fill-245" d="M178.5,449.4c-12.7,0-23,10.3-23,23s10.3,23,23,23s23-10.3,23-23C201.5,459.6,191.2,449.4,178.5,449.4"/>
	<path id="Fill-247" d="M824.7,451c-11.8,0-21.3,9.6-21.3,21.3c0,11.8,9.6,21.3,21.3,21.3c11.8,0,21.3-9.6,21.3-21.3
		C846,460.5,836.4,451,824.7,451"/>
	<path id="Fill-249" d="M883.4,459.6c-7,0-12.7,5.7-12.7,12.7s5.7,12.7,12.7,12.7s12.7-5.7,12.7-12.7S890.4,459.6,883.4,459.6"/>
	<path id="Fill-251" d="M942.1,466.8c-3.1,0-5.5,2.5-5.5,5.5c0,3.1,2.5,5.5,5.5,5.5c3.1,0,5.5-2.5,5.5-5.5
		C947.7,469.3,945.2,466.8,942.1,466.8"/>
	<path id="Fill-253" d="M1000.9,474.3c1.1,0,2-0.9,2-2c0-1.1-0.9-2-2-2c-1.1,0-2,0.9-2,2C998.9,473.4,999.8,474.3,1000.9,474.3"/>
	<path id="Fill-258" d="M2.3,528.8c-1.3,0-2.3,1-2.3,2.3s1,2.3,2.3,2.3s2.3-1,2.3-2.3S3.5,528.8,2.3,528.8"/>
	<path id="Fill-260" d="M61,524.7c-3.5,0-6.3,2.8-6.3,6.4c0,3.5,2.8,6.4,6.3,6.4s6.4-2.8,6.4-6.4C67.4,527.6,64.5,524.7,61,524.7"/>
	<path id="Fill-262" d="M119.8,517.1c-7.7,0-14,6.3-14,14s6.3,14,14,14s14-6.3,14-14C133.8,523.3,127.5,517.1,119.8,517.1"/>
	<path id="Fill-264" d="M178.5,508.3c-12.6,0-22.8,10.2-22.8,22.8s10.2,22.8,22.8,22.8s22.8-10.2,22.8-22.8S191.1,508.3,178.5,508.3
		"/>
	<path id="Fill-266" d="M824.7,509.7c-11.8,0-21.3,9.6-21.3,21.3c0,11.8,9.6,21.3,21.3,21.3c11.8,0,21.3-9.6,21.3-21.3
		S836.4,509.7,824.7,509.7"/>
	<path id="Fill-268" d="M883.4,518.4c-7,0-12.7,5.7-12.7,12.7s5.7,12.7,12.7,12.7s12.7-5.7,12.7-12.7S890.4,518.4,883.4,518.4"/>
	<path id="Fill-270" d="M942.1,525.5c-3.1,0-5.5,2.5-5.5,5.5c0,3.1,2.5,5.5,5.5,5.5c3.1,0,5.5-2.5,5.5-5.5
		C947.7,528,945.2,525.5,942.1,525.5"/>
	<path id="Fill-272" d="M1000.9,529.3c-1,0-1.8,0.8-1.8,1.8s0.8,1.8,1.8,1.8s1.8-0.8,1.8-1.8S1001.9,529.3,1000.9,529.3"/>
	<path id="Fill-276" d="M2.3,587.9c-1.1,0-2,0.9-2,2s0.9,2,2,2s2-0.9,2-2C4.2,588.7,3.4,587.9,2.3,587.9"/>
	<path id="Fill-278" d="M61,584.3c-3.1,0-5.5,2.5-5.5,5.5c0,3.1,2.5,5.5,5.5,5.5c3.1,0,5.5-2.5,5.5-5.5
		C66.6,586.8,64.1,584.3,61,584.3"/>
	<path id="Fill-280" d="M119.8,577.3c-6.9,0-12.5,5.6-12.5,12.5s5.6,12.5,12.5,12.5s12.5-5.6,12.5-12.5S126.7,577.3,119.8,577.3"/>
	<path id="Fill-282" d="M178.5,569c-11.5,0-20.9,9.3-20.9,20.8s9.3,20.9,20.9,20.9c11.5,0,20.8-9.3,20.8-20.9
		C199.4,578.3,190,569,178.5,569"/>
	<path id="Fill-284" d="M824.7,570.4c-10.7,0-19.4,8.7-19.4,19.4s8.7,19.4,19.4,19.4s19.4-8.7,19.4-19.4S835.4,570.4,824.7,570.4"/>
	<path id="Fill-286" d="M883.4,578.6c-6.2,0-11.2,5-11.2,11.2s5,11.2,11.2,11.2s11.2-5,11.2-11.2S889.6,578.6,883.4,578.6"/>
	<path id="Fill-288" d="M942.1,585.1c-2.6,0-4.7,2.1-4.7,4.7s2.1,4.7,4.7,4.7s4.7-2.1,4.7-4.7C946.9,587.2,944.8,585.1,942.1,585.1"
		/>
	<path id="Fill-290" d="M1000.9,588.2c-0.9,0-1.6,0.7-1.6,1.6c0,0.9,0.7,1.6,1.6,1.6s1.6-0.7,1.6-1.6S1001.8,588.2,1000.9,588.2"/>
	<path id="Fill-294" d="M2.3,647.1c-0.8,0-1.5,0.7-1.5,1.5s0.7,1.5,1.5,1.5s1.5-0.7,1.5-1.5S3.1,647.1,2.3,647.1"/>
	<path id="Fill-296" d="M61,644.2c-2.4,0-4.4,2-4.4,4.4s2,4.4,4.4,4.4s4.4-2,4.4-4.4C65.4,646.1,63.5,644.2,61,644.2"/>
	<path id="Fill-298" d="M119.8,638.5c-5.6,0-10.1,4.5-10.1,10.1s4.5,10.1,10.1,10.1s10.1-4.5,10.1-10.1S125.3,638.5,119.8,638.5"/>
	<path id="Fill-300" d="M178.5,631c-9.7,0-17.6,7.9-17.6,17.6c0,9.7,7.9,17.6,17.6,17.6c9.7,0,17.6-7.9,17.6-17.6
		S188.2,631,178.5,631"/>
	<path id="Fill-302" d="M765.9,623.6c-13.8,0-24.9,11.2-24.9,24.9c0,13.8,11.2,24.9,24.9,24.9c13.8,0,24.9-11.2,24.9-24.9
		S779.7,623.6,765.9,623.6"/>
	<path id="Fill-304" d="M824.7,632.3c-9,0-16.3,7.3-16.3,16.3s7.3,16.3,16.3,16.3s16.3-7.3,16.3-16.3S833.7,632.3,824.7,632.3"/>
	<path id="Fill-306" d="M883.4,639.6c-4.9,0-9,4-9,9s4,9,9,9s9-4,9-9S888.4,639.6,883.4,639.6"/>
	<path id="Fill-308" d="M942.1,645c-2,0-3.6,1.6-3.6,3.6s1.6,3.6,3.6,3.6s3.6-1.6,3.6-3.6S944.1,645,942.1,645"/>
	<path id="Fill-310" d="M1000.9,647.4c-0.6,0-1.1,0.5-1.1,1.1s0.5,1.1,1.1,1.1s1.1-0.5,1.1-1.1S1001.5,647.4,1000.9,647.4"/>
	<path id="Fill-316" d="M61,704.5c-1.5,0-2.8,1.2-2.8,2.8c0,1.5,1.2,2.8,2.8,2.8c1.5,0,2.8-1.2,2.8-2.8
		C63.8,705.8,62.6,704.5,61,704.5"/>
	<path id="Fill-318" d="M119.8,700.1c-4,0-7.2,3.2-7.2,7.2s3.2,7.2,7.2,7.2s7.2-3.2,7.2-7.2C126.9,703.4,123.7,700.1,119.8,700.1"/>
	<path id="Fill-320" d="M178.5,694.3c-7.2,0-13,5.8-13,13s5.8,13,13,13s13-5.8,13-13S185.7,694.3,178.5,694.3"/>
	<path id="Fill-322" d="M237.2,686.6c-11.4,0-20.7,9.3-20.7,20.7s9.3,20.7,20.7,20.7c11.4,0,20.7-9.3,20.7-20.7
		S248.7,686.6,237.2,686.6"/>
	<path id="Fill-324" d="M707.2,681.2c-14.4,0-26.1,11.7-26.1,26.1c0,14.4,11.7,26.1,26.1,26.1c14.4,0,26.1-11.7,26.1-26.1
		C733.2,692.9,721.6,681.2,707.2,681.2"/>
	<path id="Fill-326" d="M765.9,687.9c-10.7,0-19.4,8.7-19.4,19.4s8.7,19.4,19.4,19.4s19.4-8.7,19.4-19.4S776.6,687.9,765.9,687.9"/>
	<path id="Fill-328" d="M824.7,695.4c-6.6,0-11.9,5.3-11.9,11.9s5.3,11.9,11.9,11.9c6.6,0,11.9-5.3,11.9-11.9
		S831.2,695.4,824.7,695.4"/>
	<path id="Fill-330" d="M883.4,701.1c-3.4,0-6.2,2.8-6.2,6.2s2.8,6.2,6.2,6.2s6.2-2.8,6.2-6.2S886.8,701.1,883.4,701.1"/>
	<path id="Fill-332" d="M942.1,705c-1.3,0-2.3,1-2.3,2.3s1,2.3,2.3,2.3s2.3-1,2.3-2.3C944.4,706.1,943.4,705,942.1,705"/>
	<path id="Fill-340" d="M61,764.4c-0.9,0-1.6,0.7-1.6,1.6c0,0.9,0.7,1.6,1.6,1.6s1.6-0.7,1.6-1.6C62.7,765.2,61.9,764.4,61,764.4"/>
	<path id="Fill-342" d="M119.8,761.7c-2.4,0-4.4,2-4.4,4.4s2,4.4,4.4,4.4s4.4-2,4.4-4.4C124.2,763.6,122.2,761.7,119.8,761.7"/>
	<path id="Fill-344" d="M178.5,757.4c-4.8,0-8.6,3.9-8.6,8.6c0,4.8,3.9,8.6,8.6,8.6c4.8,0,8.6-3.9,8.6-8.6
		C187.1,761.3,183.3,757.4,178.5,757.4"/>
	<path id="Fill-346" d="M237.2,751.4c-8.1,0-14.7,6.6-14.7,14.7s6.6,14.7,14.7,14.7s14.7-6.6,14.7-14.7S245.3,751.4,237.2,751.4"/>
	<path id="Fill-348" d="M296,745.7c-11.2,0-20.4,9.1-20.4,20.4c0,11.2,9.1,20.4,20.4,20.4c11.2,0,20.4-9.1,20.4-20.4
		C316.3,754.8,307.2,745.7,296,745.7"/>
	<path id="Fill-350" d="M354.7,740.5c-14.1,0-25.6,11.4-25.6,25.6c0,14.1,11.5,25.6,25.6,25.6s25.6-11.5,25.6-25.6
		C380.3,751.9,368.9,740.5,354.7,740.5"/>
	<path id="Fill-352" d="M648.4,741.1c-13.8,0-24.9,11.2-24.9,24.9c0,13.8,11.2,24.9,24.9,24.9c13.8,0,24.9-11.2,24.9-24.9
		C673.4,752.3,662.2,741.1,648.4,741.1"/>
	<path id="Fill-354" d="M707.2,746.7c-10.7,0-19.4,8.7-19.4,19.4s8.7,19.4,19.4,19.4s19.4-8.7,19.4-19.4S717.9,746.7,707.2,746.7"/>
	<path id="Fill-356" d="M765.9,752.4c-7.6,0-13.7,6.1-13.7,13.7s6.1,13.7,13.7,13.7s13.7-6.1,13.7-13.7S773.5,752.4,765.9,752.4"/>
	<path id="Fill-358" d="M824.7,758.2c-4.3,0-7.8,3.5-7.8,7.8s3.5,7.8,7.8,7.8s7.8-3.5,7.8-7.8S829,758.2,824.7,758.2"/>
	<path id="Fill-360" d="M883.4,762.3c-2.1,0-3.7,1.7-3.7,3.7c0,2.1,1.7,3.7,3.7,3.7c2.1,0,3.8-1.7,3.8-3.7S885.5,762.3,883.4,762.3"
		/>
	<path id="Fill-362" d="M942.1,764.8c-0.7,0-1.3,0.6-1.3,1.3s0.6,1.3,1.3,1.3s1.3-0.6,1.3-1.3C943.5,765.3,942.9,764.8,942.1,764.8"
		/>
	<path id="Fill-372" d="M119.8,822.7c-1.2,0-2.1,0.9-2.1,2.1c0,1.2,0.9,2.1,2.1,2.1c1.2,0,2.1-0.9,2.1-2.1
		C121.9,823.6,120.9,822.7,119.8,822.7"/>
	<path id="Fill-374" d="M178.5,820.3c-2.5,0-4.6,2-4.6,4.6c0,2.5,2,4.6,4.6,4.6c2.5,0,4.6-2,4.6-4.6S181,820.3,178.5,820.3"/>
	<path id="Fill-376" d="M237.2,816.3c-4.7,0-8.5,3.8-8.5,8.5s3.8,8.5,8.5,8.5s8.5-3.8,8.5-8.5S241.9,816.3,237.2,816.3"/>
	<path id="Fill-378" d="M296,812.1c-7,0-12.7,5.7-12.7,12.7s5.7,12.7,12.7,12.7s12.7-5.7,12.7-12.7S303,812.1,296,812.1"/>
	<path id="Fill-380" d="M354.7,807.9c-9.4,0-16.9,7.6-16.9,16.9c0,9.4,7.6,16.9,16.9,16.9c9.4,0,16.9-7.6,16.9-16.9
		C371.7,815.5,364.1,807.9,354.7,807.9"/>
	<path id="Fill-382" d="M413.5,804.9c-11,0-19.9,8.9-19.9,19.9s8.9,19.9,19.9,19.9s19.9-8.9,19.9-19.9
		C433.3,813.8,424.4,804.9,413.5,804.9"/>
	<path id="Fill-384" d="M472.2,803.5c-11.8,0-21.3,9.6-21.3,21.3c0,11.8,9.6,21.3,21.3,21.3c11.8,0,21.3-9.6,21.3-21.3
		C493.6,813,484,803.5,472.2,803.5"/>
	<path id="Fill-386" d="M531,803.5c-11.8,0-21.3,9.6-21.3,21.3c0,11.8,9.6,21.3,21.3,21.3c11.8,0,21.3-9.6,21.3-21.3
		C552.3,813,542.7,803.5,531,803.5"/>
	<path id="Fill-388" d="M589.7,805.4c-10.7,0-19.4,8.7-19.4,19.4s8.7,19.4,19.4,19.4s19.4-8.7,19.4-19.4S600.4,805.4,589.7,805.4"/>
	<path id="Fill-390" d="M648.4,808.5c-9,0-16.3,7.3-16.3,16.3s7.3,16.3,16.3,16.3s16.3-7.3,16.3-16.3S657.4,808.5,648.4,808.5"/>
	<path id="Fill-392" d="M707.2,812.9c-6.6,0-11.9,5.3-11.9,11.9c0,6.6,5.3,11.9,11.9,11.9c6.6,0,11.9-5.3,11.9-11.9
		C719.1,818.2,713.8,812.9,707.2,812.9"/>
	<path id="Fill-394" d="M765.9,817c-4.3,0-7.8,3.5-7.8,7.8s3.5,7.8,7.8,7.8s7.8-3.5,7.8-7.8S770.2,817,765.9,817"/>
	<path id="Fill-396" d="M824.7,820.7c-2.3,0-4.1,1.8-4.1,4.1c0,2.2,1.8,4.1,4.1,4.1c2.2,0,4.1-1.8,4.1-4.1
		C828.7,822.6,826.9,820.7,824.7,820.7"/>
	<path id="Fill-398" d="M883.4,823c-1,0-1.8,0.8-1.8,1.8s0.8,1.8,1.8,1.8s1.8-0.8,1.8-1.8S884.4,823,883.4,823"/>
	<path id="Fill-408" d="M178.5,881.4c-1.2,0-2.1,0.9-2.1,2.1c0,1.2,0.9,2.1,2.1,2.1c1.2,0,2.1-1,2.1-2.1S179.7,881.4,178.5,881.4"/>
	<path id="Fill-410" d="M237.2,879.3c-2.3,0-4.2,1.9-4.2,4.2s1.9,4.2,4.2,4.2c2.3,0,4.2-1.9,4.2-4.2
		C241.5,881.2,239.6,879.3,237.2,879.3"/>
	<path id="Fill-414" d="M354.7,874.1c-5.2,0-9.4,4.2-9.4,9.5c0,5.2,4.2,9.4,9.4,9.4s9.4-4.2,9.4-9.4
		C364.2,878.3,360,874.1,354.7,874.1"/>
	<path id="Fill-416" d="M413.5,872c-6.4,0-11.6,5.2-11.6,11.6c0,6.4,5.2,11.6,11.6,11.6s11.6-5.2,11.6-11.6
		C425,877.2,419.9,872,413.5,872"/>
	<path id="Fill-418" d="M472.2,870.9c-7,0-12.7,5.7-12.7,12.7s5.7,12.7,12.7,12.7s12.7-5.7,12.7-12.7
		C484.9,876.5,479.2,870.9,472.2,870.9"/>
	<path id="Fill-420" d="M531,870.9c-7,0-12.7,5.7-12.7,12.7s5.7,12.7,12.7,12.7s12.7-5.7,12.7-12.7C543.7,876.5,538,870.9,531,870.9
		"/>
	<path id="Fill-422" d="M589.7,872.3c-6.2,0-11.2,5-11.2,11.2s5,11.2,11.2,11.2s11.2-5,11.2-11.2
		C600.9,877.4,595.9,872.3,589.7,872.3"/>
	<path id="Fill-424" d="M648.4,874.6c-4.9,0-9,4-9,9c0,4.9,4,9,9,9s9-4,9-9S653.4,874.6,648.4,874.6"/>
	<path id="Fill-426" d="M707.2,877.4c-3.4,0-6.2,2.8-6.2,6.2s2.8,6.2,6.2,6.2s6.2-2.8,6.2-6.2S710.6,877.4,707.2,877.4"/>
	<path id="Fill-428" d="M765.9,879.8c-2.1,0-3.7,1.7-3.7,3.7s1.7,3.7,3.7,3.7s3.7-1.7,3.7-3.7S768,879.8,765.9,879.8"/>
	<path id="Fill-430" d="M824.7,881.8c-1,0-1.8,0.8-1.8,1.8s0.8,1.8,1.8,1.8s1.8-0.8,1.8-1.8S825.7,881.8,824.7,881.8"/>
	<path id="Fill-440" d="M237.2,940.8c-0.8,0-1.5,0.7-1.5,1.5s0.7,1.5,1.5,1.5s1.5-0.7,1.5-1.5S238.1,940.8,237.2,940.8"/>
	<path id="Fill-442" d="M296,939.7c-1.4,0-2.6,1.2-2.6,2.6c0,1.4,1.2,2.6,2.6,2.6s2.6-1.2,2.6-2.6S297.4,939.7,296,939.7"/>
	<path id="Fill-444" d="M354.7,938.4c-2.2,0-3.9,1.8-3.9,3.9c0,2.2,1.8,3.9,3.9,3.9c2.2,0,3.9-1.8,3.9-3.9S356.9,938.4,354.7,938.4"
		/>
	<path id="Fill-446" d="M413.5,937.4c-2.7,0-4.9,2.2-4.9,4.9s2.2,4.9,4.9,4.9s4.9-2.2,4.9-4.9S416.2,937.4,413.5,937.4"/>
	<path id="Fill-448" d="M472.2,936.8c-3.1,0-5.5,2.5-5.5,5.5c0,3.1,2.5,5.5,5.5,5.5c3.1,0,5.5-2.5,5.5-5.5
		C477.8,939.3,475.3,936.8,472.2,936.8"/>
	<path id="Fill-450" d="M531,936.8c-3.1,0-5.5,2.5-5.5,5.5c0,3.1,2.5,5.5,5.5,5.5c3.1,0,5.5-2.5,5.5-5.5S534,936.8,531,936.8"/>
	<path id="Fill-452" d="M589.7,937.6c-2.6,0-4.7,2.1-4.7,4.7s2.1,4.7,4.7,4.7s4.7-2.1,4.7-4.7S592.3,937.6,589.7,937.6"/>
	<path id="Fill-454" d="M648.4,938.7c-2,0-3.6,1.6-3.6,3.6s1.6,3.6,3.6,3.6s3.6-1.6,3.6-3.6S650.4,938.7,648.4,938.7"/>
	<path id="Fill-456" d="M707.2,940c-1.3,0-2.3,1-2.3,2.3s1,2.3,2.3,2.3s2.3-1,2.3-2.3C709.5,941.1,708.4,940,707.2,940"/>
	<path id="Fill-458" d="M765.9,941c-0.7,0-1.3,0.6-1.3,1.3s0.6,1.3,1.3,1.3s1.3-0.6,1.3-1.3S766.6,941,765.9,941"/>
	<path id="Fill-468" d="M296,1000.2c-0.4,0-0.8,0.4-0.8,0.8s0.4,0.8,0.8,0.8s0.8-0.4,0.8-0.8S296.4,1000.2,296,1000.2"/>
	<path id="Fill-470" d="M354.7,999.9c-0.6,0-1.1,0.5-1.1,1.1s0.5,1.1,1.1,1.1s1.1-0.5,1.1-1.1C355.9,1000.4,355.4,999.9,354.7,999.9
		"/>
	<path id="Fill-472" d="M413.5,999.4c-0.9,0-1.6,0.7-1.6,1.6s0.7,1.6,1.6,1.6s1.6-0.7,1.6-1.6C415.1,1000.2,414.4,999.4,413.5,999.4
		"/>
	<path id="Fill-474" d="M472.2,999.1c-1.1,0-2,0.9-2,2s0.9,2,2,2s2-0.9,2-2S473.3,999.1,472.2,999.1"/>
	<path id="Fill-476" d="M531,999.3c-1,0-1.8,0.8-1.8,1.8s0.8,1.8,1.8,1.8s1.8-0.8,1.8-1.8C532.7,1000.1,531.9,999.3,531,999.3"/>
	<path id="Fill-478" d="M589.7,999.4c-0.9,0-1.6,0.7-1.6,1.6s0.7,1.6,1.6,1.6c0.9,0,1.6-0.7,1.6-1.6
		C591.3,1000.2,590.6,999.4,589.7,999.4"/>
	<path id="Fill-480" d="M648.4,999.9c-0.6,0-1.1,0.5-1.1,1.1s0.5,1.1,1.1,1.1s1.1-0.5,1.1-1.1C649.6,1000.4,649.1,999.9,648.4,999.9
		"/>
	<path id="Fill-426_1_" d="M296.8,879.4c-3.4,0-6.2,2.8-6.2,6.2s2.8,6.2,6.2,6.2s6.2-2.8,6.2-6.2S300.2,879.4,296.8,879.4"/>
</g>
</svg>
