<svg version="1.1" id="Слой_1" xmlns="http://www.w3.org/2000/svg" x="0" y="0" viewBox="0 0 301.2 244.2" xml:space="preserve"><style>.st0{opacity:.25;fill:#e94142}.st2{fill:#fff}.st3{fill:#dad8db}.st5{fill:#c1c5c6}.st6{fill:#e94142}.st8{fill:#e86b7b}</style><g id="Group-49" transform="translate(0 .248)"><path class="st0" d="M75 230.7v-4.4c0-2.6 2.1-4.6 4.6-4.6h4.2V213h-4.2c-7.4 0-13.3 6-13.3 13.4v4.4H75zM178.2 212.9h-4.6l-5.6-17.2h-9.2l5.6 17.2h-25.1c-2.4 0-4.4 2-4.4 4.4s2 4.4 4.4 4.4h38.9c2.5 0 4.6 2.1 4.6 4.6V239.6h2.1c3.7 0 6.6-3 6.6-6.6v-6.7c0-7.4-6-13.4-13.3-13.4zM293.9 27.1c-3.6-6.3-8.4-11.7-14-16-5.6-4.3-12-7.5-19.1-9.4-21.7-5.9-44 2.3-57.1 19h-22.9c-.9-7-3.4-13.5-7.1-18.1-1.1-1.4-3.1-2-4.8-1.4-13.1 4.4-22 3.4-29.8 2.5-10.1-1.2-18.9-2.2-29.2 9.7-7.5.5-13.1 3-16.9 7.4H10.3c-3.9 0-7.1 3.2-7.1 7.1v1.6h94.6c2.2-4.7 6.4-7.2 14.3-7.4 1.3 0 2.5-.6 3.3-1.6 7.9-9.7 12.8-9.2 22.7-8.1 7.7.9 17.2 2 30.4-1.9 2.8 4.9 4.4 11.9 3.9 19h35.8c2.1-3.2 4.6-6.1 7.3-8.7 11.2-10.3 27.2-14.8 43-10.6 11.8 3.2 21.7 10.8 27.7 21.4 6.1 10.6 7.7 22.9 4.5 34.7-3.2 11.8-10.8 21.7-21.4 27.8-4.7 2.7-9.8 4.5-15 5.4-2.9.5-5.8.7-8.7.7v95.5h1.7c3.9 0 7-3.2 7-7.1V108.3c6.7-1 13.3-3.2 19.3-6.7 12.6-7.3 21.7-19 25.4-33 4.1-14.2 2.2-28.9-5.1-41.5z"/><path id="Fill-2" d="M199.8 29.4H7.1c-1.5 0-2.7 1.2-2.7 2.8v140.1H247V32.2c0-1.5-1.2-2.8-2.7-2.8h-44.5z" fill="#05d1c4"/><path class="st2" d="M204.7 172.3H190v-26.5c0-23.1-23.2-26.8-39.1-31.1-.1 0-.2-.1-.4-.1-5.6-1.5-7.1-8.7-8.2-11.1 12.1-7.5 21-21.3 21-32.7v-14c-9.2-18-18-22.4-30.9-22.6-32.1-.4-40.4 13.6-44.6 23v13.7c0 11.4 9 25.2 21 32.7-1.1 2.3-2.6 9.6-8.2 11.1-.1 0-.2.1-.4.1-15.9 4.3-39.1 8-39.1 31.1v26.5H4.4V193c0 1.5 1.2 2.8 2.7 2.8h85.6l-8.4 25.9h-7.8c-4.9 0-9 4.1-9 9v6.7c0 1.3 1 2.3 2.3 2.3h112c1.3 0 2.3-1 2.3-2.3v-6.7c0-4.9-4-9-9-9h-7.8l-8.4-25.9h85.6c1.5 0 2.7-1.2 2.7-2.8v-20.6h-42.5z"/><path id="Fill-12" class="st3" d="M225.9 172.3v20.6c0 1.5-1.2 2.8-2.7 2.8h21.1c1.5 0 2.7-1.2 2.7-2.8v-20.6h-21.1z"/><path class="st3" d="M175 221.6h-7.8l-8.4-25.9H92.6l-3.1 9.5H149l5.3 16.5c4.9 0 9 4.1 9 9v6.7c0 1.3-1 2.3-2.3 2.3h20.7c1.3 0 2.3-1 2.3-2.3v-6.7c-.1-5-4.1-9.1-9-9.1z"/><path id="Fill-18" d="M247 172.3V32.2c0-1.5-1.2-2.8-2.7-2.8h-21.1c1.5 0 2.7 1.2 2.7 2.8v140.1H247z" fill="#05af9f"/><path class="st5" d="M150.6 114.6c-5.6-1.5-7.1-8.7-8.2-11.1-2.3 1.5-4.7 2.7-7.2 3.6-6.8 2.5-12.1 2.5-18.9 0-2.5-.9-4.9-2.1-7.2-3.6-.7 1.5-1.6 4.9-3.6 7.6-2.4 3.3 16.2 8.3 25.4 4.9 6.1-2.3 6.3-2.4 7.4 0 1 2.4 3 5.7 5.6 7.2.1-.1 32.2 9.4 32.2 29v20H190v-26.5c0-23-39.4-31.1-39.4-31.1z"/><path id="Fill-26" class="st6" d="M167.2 9.6c-31.7 10.6-41.5-8.5-58.3 12.3-8.8.2-13.9 3-16.8 7.5-4.5 6.7-4.1 17-4.1 27.8 4-4.2 15.6-13 28.5-9.7 12.5 3.2 12.6 16.1 46.9 9.3 7.9-7.3 10.7-17.7 10.3-27.4-.3-7.8-2.8-15.1-6.5-19.8"/><path id="Fill-28" d="M142.4 103.5c12.1-7.5 21-21.3 21-32.7v-14c-4.2.8-7.9 1.4-11.2 1.7v6.9c0 11.4-9 25.2-21.1 32.7-2.3 1.5-4.7 2.7-7.2 3.6-6 2.2-10.9 2.5-16.6.8.6.4 1.1.8 1.7 1.1 2.3 1.4 4.7 2.7 7.2 3.6 6.8 2.5 12.1 2.5 18.9 0 2.5-1 5-2.2 7.3-3.7" fill="#eaeeef"/><path id="Fill-30" class="st8" d="M173.7 29.4c-.3-7.8-2.8-15.1-6.5-19.8-3.8 1.3-7.3 2.1-10.5 2.7 3 4.4 5.1 10.5 5.7 17.1 0 .5.1 1.1.1 1.7.4 9.7-2.4 20.1-10.3 27.4 3.3-.3 7-.8 11.2-1.7 7.9-7.3 10.7-17.8 10.3-27.4"/><path id="Fill-32" class="st2" d="M291.9 71.6c-7.2 26.7-34.7 42.6-61.4 35.4-3-.8-5.9-1.9-8.6-3.2-6.8 8.2-22.8 4.8-26 1.6 5.1-5.3 8.4-12.5 6.1-18.7-7.9-11.7-10.8-26.5-6.9-41.1 7.2-26.7 34.7-42.5 61.4-35.3 26.8 7.1 42.6 34.6 35.4 61.3zm-27.2-29.3c-5.3-5.5-13.9-4.1-19.5 1-1 .9-1.4 1.4-1.7 1.4-.3 0-.6-.5-1.7-1.4-5.7-5.1-14.2-6.5-19.5-1-5.8 6-5.8 15.9 0 22l2.4 2.3L242 83.8c.8.6 1.1.9 1.5.9.4 0 .7-.3 1.5-.9l17.4-17.2 2.4-2.3c5.8-6.1 5.8-15.9-.1-22z"/><path id="Fill-34" class="st6" d="M245 83.8l17.4-17.2 2.4-2.3c5.8-6 5.8-15.9 0-22-5.3-5.5-13.9-4.1-19.5 1-1 .9-1.4 1.4-1.7 1.4-.3 0-.6-.5-1.7-1.4-5.7-5.1-14.2-6.5-19.5-1-5.8 6-5.8 15.9 0 22l2.4 2.3L242 83.8c.8.6 1.1.9 1.5.9.4.1.7-.3 1.5-.9"/><path id="Fill-36" class="st8" d="M264.7 64.3c5.8-6 5.8-15.9 0-22-3.8-3.9-9.1-4.3-14-2.5l.6.6c5.8 6 5.8 15.9 0 22l-2.4 2.3-13.1 13 6.1 6c.8.6 1.1.9 1.5.9.4 0 .7-.3 1.5-.9l17.4-17.2 2.4-2.2z"/><path id="Fill-38" class="st5" d="M291.9 71.6c7.2-26.7-8.6-54.2-35.3-61.4-5.5-1.5-11.1-2-16.5-1.6 26.7 7.2 42.5 34.7 35.3 61.4-5.7 21.2-24.2 35.5-44.9 37 26.7 7.2 54.2-8.6 61.4-35.4"/><path id="Fill-40" d="M111 78.4c2.4 0 4.4-2 4.4-4.4v-2.1c0-2.4-2-4.4-4.4-4.4-2.4 0-4.4 2-4.4 4.4V74c0 2.4 2 4.4 4.4 4.4"/><path id="Fill-42" d="M140.4 78.4c2.4 0 4.4-2 4.4-4.4v-2.1c0-2.4-2-4.4-4.4-4.4-2.4 0-4.4 2-4.4 4.4V74c0 2.4 2 4.4 4.4 4.4"/><path d="M290.7 31.4c-3.6-6.3-8.4-11.7-14-16-5.6-4.3-12-7.5-19.1-9.4-21.7-5.9-44 2.3-57.1 19h-22.9c-.9-7-3.4-13.5-7.1-18.1-1.1-1.4-3.1-2-4.8-1.4-13.1 4.4-22 3.4-29.8 2.5-10.1-1.2-18.9-2.2-29.2 9.7-7.5.5-13.1 3-16.9 7.4H7.1C3.2 25 0 28.2 0 32.2V193c0 3.9 3.2 7.1 7.1 7.1h79.5L81 217.2h-4.6c-7.4 0-13.3 6-13.3 13.4v6.7c0 3.7 3 6.6 6.6 6.6h112c3.7 0 6.6-3 6.6-6.6v-6.7c0-7.4-6-13.4-13.3-13.4h-4.6l-5.6-17.2h79.6c3.9 0 7-3.2 7-7.1V112.6c6.7-1 13.3-3.2 19.3-6.7 12.6-7.3 21.7-19 25.4-33 3.8-14.2 1.9-28.9-5.4-41.5zM109 26.3c1.3 0 2.5-.6 3.3-1.6 7.9-9.7 12.8-9.2 22.7-8.1 7.7.9 17.2 2 30.4-1.9 5.4 9.5 6.4 27.3-4.1 38-21.3 4-27.3-.2-33.2-4.2-3-2-6-4.1-10.5-5.3-2.3-.6-4.6-.8-6.8-.8-7 0-13.4 2.6-18.4 5.7C92.7 34 95 26.7 109 26.3zM92.3 59c4.5-4.1 13.7-9.7 23.1-7.3 3 .8 5.2 2.3 7.7 4 4.9 3.4 10.7 7.3 23.3 7.3 3.6 0 7.8-.3 12.6-1.1v8.9C159 83 147.2 98 133.6 103c-5.9 2.2-10 2.2-15.9 0-13.5-5-25.4-20-25.4-32.2V59zm52.1 57.1c-4.8 5.2-11.5 8.2-18.8 8.2-7.2 0-14-3-18.7-8.2 2-1.9 3.4-4.2 4.3-6.3 1.1.5 2.3 1.1 3.5 1.5 3.9 1.4 7.4 2.2 11 2.2 3.5 0 7.1-.7 11-2.2 1.2-.4 2.3-.9 3.5-1.5.9 2 2.2 4.4 4.2 6.3zM8.7 33.8h76.6c-1.8 6.1-1.8 13.3-1.7 20.8v16.2c0 12.1 8.5 25.8 20.1 34.4-.9 2.2-2.1 4.7-4 5.2-1.5.4-3.1.8-4.7 1.2-8 2-17.1 4.4-24.4 9.1-9 5.8-13.5 14.2-13.5 25.1v22.1H8.7V33.8zM175 226c2.5 0 4.6 2.1 4.6 4.6v4.6H71.8v-4.6c0-2.6 2.1-4.6 4.6-4.6h39.4c2.4 0 4.4-2 4.4-4.4 0-2.4-2-4.4-4.4-4.4H90.2l5.6-17.2h59.8l5.6 17.2h-25.1c-2.4 0-4.4 2-4.4 4.4s2 4.4 4.4 4.4H175zm67.6-34.7H8.7v-14.6h109.2c2.4 0 4.4-2 4.4-4.4 0-2.4-2-4.4-4.4-4.4H93.7v-8.6c0-2.4-2-4.4-4.4-4.4-2.4 0-4.4 2-4.4 4.4v8.6H65.7v-22.1c0-16.4 13-21 31.4-25.7.5-.1 1-.3 1.5-.4 6.5 8.4 16.4 13.3 27.1 13.3 10.7 0 20.6-4.9 27.1-13.3.5.1 1 .3 1.5.4 18.4 4.7 31.4 9.3 31.4 25.7v22.1h-19.3v-8.6c0-2.4-2-4.4-4.4-4.4-2.4 0-4.4 2-4.4 4.4v8.6H138c-2.4 0-4.4 2-4.4 4.4s2 4.4 4.4 4.4h104.6v14.6zm0-23.4h-48.2v-22.1c0-10.8-4.6-19.2-13.5-25.1-7.3-4.7-16.4-7.1-24.4-9.1-1.7-.4-3.2-.8-4.7-1.2-1.9-.5-3.2-3-4-5.2 11.6-8.5 20.1-22.3 20.1-34.4V58.6c6.1-6.4 9.7-15.1 10.3-24.8h17c-1.7 3.3-3.1 6.9-4.1 10.7-4.1 15.1-1.4 31.2 7.2 44.2 1.4 4.6-1.9 10.2-5.3 13.7-1.7 1.7-1.7 4.4 0 6.1 2.8 2.8 9.5 4.8 16 4.8h1.3c5.1-.2 9.5-1.7 12.8-4.3 2.1.9 4.3 1.6 6.6 2.2 4.4 1.2 8.9 1.8 13.3 1.9v54.8zm45.1-97.4c-3.2 11.8-10.8 21.7-21.4 27.8-4.7 2.7-9.8 4.5-15 5.4-2.9.5-5.8.7-8.7.7-3.7-.1-7.4-.6-11-1.6-2.8-.8-5.4-1.7-7.9-2.9-1.8-.9-4-.4-5.2 1.1-2.1 2.5-5.5 3.2-8 3.5-2.8.2-5.6-.1-7.7-.7 4.1-6.2 5.4-13 3.3-18.6-.1-.3-.3-.6-.5-.9-7.5-11-9.7-24.7-6.3-37.6 1.3-4.7 3.2-9 5.8-12.9 2.1-3.2 4.6-6.2 7.4-8.7 11.2-10.3 27.2-14.8 43-10.6 11.8 3.2 21.7 10.8 27.7 21.4 6 10.5 7.6 22.8 4.5 34.6z"/><path id="Fill-47" d="M219.1 39.3c6.2-6.5 16.5-6.5 24.4-.3 7.9-6.2 18.1-6.2 24.4.3 7.5 7.7 7.5 20.3 0 28.1l-.1.1-2.4 2.3L248.1 87c-1.2 1.2-2.8 2.2-4.6 2.2-1.7 0-3.4-1-4.6-2.2l-19.7-19.5-.1-.1c-7.4-7.8-7.4-20.4 0-28.1zm24.4 39.9l18.1-18c4.2-4.4 4.2-11.5 0-15.9-3.7-3.8-9.7-2.2-13.5 1.2l-.7.7c-.8.7-2 1.8-3.9 1.8s-3.1-1.1-3.9-1.8l-.7-.7c-3.8-3.4-9.8-5-13.5-1.2-4.2 4.4-4.2 11.5 0 15.9l2.3 2.3 15.8 15.7z"/></g></svg>