<?xml version="1.0" encoding="utf-8"?>
<!-- Generator: Adobe Illustrator 21.0.0, SVG Export Plug-In . SVG Version: 6.00 Build 0)  -->
<svg version="1.1" id="Слой_1" xmlns="http://www.w3.org/2000/svg" xmlns:xlink="http://www.w3.org/1999/xlink" x="0px" y="0px"
	 viewBox="0 0 1002.9 1003.1" style="enable-background:new 0 0 1002.9 1003.1;" xml:space="preserve">
<style type="text/css">
	.st0{opacity:0.176;}
	.st1{fill:#FFFFFF;}
	.st2{fill:#FFFFFF;fill-opacity:0.2;}
</style>
<g id="Group-489" transform="translate(-41)" class="st0">
	<g id="Group-488">
		<path class="st1" d="M781.7,546.8c5.3,8.9,15,14.8,26,14.8c16.7,0,30.3-13.6,30.3-30.4c0-14.2-9.6-26-22.6-29.4
			c13.1-3.4,22.8-15.3,22.8-29.5c0-15.6-11.6-28.4-26.6-30.3c14.1-1.8,25-13.9,24.7-28.5c0-16-12.9-28.9-28.8-28.9
			c-11.4,0-21.2,6.7-25.9,16.3c-3-7.9-8.7-14.4-16.1-18.4c9.4-5.7,15.7-16,15.7-27.8c0-16.3-11.9-29.7-27.5-32.1
			c12.7-2.3,22.3-13.4,22.3-26.8c0-15.1-12.2-27.3-27.2-27.3c-13,0-23.8,9.2-26.5,21.4c-2.6-14.6-14.8-25.8-29.9-26.8
			c13.4-1.2,24-12.4,24-26.2c0-14.5-11.7-26.3-26.2-26.3S664,222.4,664,236.9c0,13.8,10.6,25.1,24,26.2c-10.7,0.7-20,6.6-25.4,15.2
			c-3.8-6.8-9.7-12.2-16.9-15.3c9.2-5.1,15.4-14.9,15.4-26.1c0-16.4-13.2-29.7-29.6-29.7c-13.4,0-24.7,8.9-28.4,21.1
			c-3.8-13.3-15.9-23-30.4-23c-13.3,0-24.6,8.2-29.3,19.8c-4.7-11.7-16.1-20-29.5-20c-14.1,0-26.1,9.3-30.2,22.1
			c-4-11.9-15.3-20.5-28.5-20.5c-16.6,0-30.1,13.5-30.1,30.2c0,11.1,6.1,20.9,15.1,26.1c-6.6,3.1-12.1,8.1-15.8,14.3
			c-4.8-7.2-12.4-12.5-21.2-14.3c11.6-3,20.2-13.5,20.2-26.1c0-14.8-12.1-26.9-26.9-26.9c-14.9,0-26.9,12-26.9,26.9
			c0,12.6,8.6,23.1,20.2,26.1c-12.2,2.5-22,11.8-25.4,23.7c-3.8-11.1-14.2-19.1-26.6-19.1c-15.6,0-28.2,12.6-28.2,28.2
			c0,12.4,8,22.9,19.1,26.7c-11.9,3.4-21.1,13.2-23.6,25.5c-2.9-11.7-13.5-20.3-26-20.3c-14.9,0-26.9,12.1-26.9,26.9
			s12.1,26.9,26.9,26.9c12.5,0,23-8.6,26-20.3c1.8,8.9,7,16.5,14.3,21.3c-6.2,3.7-11.1,9.3-14.2,15.9c-5.2-9-15-15.1-26.1-15.1
			c-16.6,0-30.1,13.5-30.1,30.2c0,13.3,8.5,24.5,20.4,28.6c-12.7,4.1-22,16.1-22,30.3c0,13.4,8.2,24.8,19.9,29.5
			c-11.6,4.8-19.8,16.1-19.8,29.4c0,14.4,9.7,26.6,23,30.4c-12.1,3.7-21,15-21,28.4c0,16.4,13.2,29.7,29.6,29.7
			c11.2,0,21-6.3,26-15.5c3.1,7.2,8.4,13.1,15.2,16.9c-8.6,5.5-14.5,14.8-15.2,25.5c-1.1-13.4-12.4-24-26.1-24
			c-14.5,0-26.2,11.8-26.2,26.3s11.7,26.3,26.2,26.3c13.7,0,25-10.5,26.1-24c1.1,15.1,12.2,27.4,26.8,30
			c-12.2,2.7-21.3,13.6-21.3,26.6c0,15.1,12.2,27.3,27.2,27.3c13.3,0,24.4-9.6,26.7-22.3c2.4,15.6,15.8,27.6,32,27.6
			c11.8,0,22.1-6.4,27.8-15.8c4,7.4,10.5,13.2,18.4,16.2c-9.7,4.7-16.3,14.6-16.3,26c0,16,12.9,28.9,28.8,28.9
			c14.6,0,26.6-11,28.5-25.1c1.9,15.1,14.7,26.7,30.2,26.7c14.2,0,26.1-9.8,29.5-22.9c3.4,13,15.2,22.7,29.3,22.7
			c16.7,0,30.3-13.6,30.3-30.4c0-11-5.9-20.7-14.7-26c6-2.8,11.1-7.2,14.7-12.7c4.1,5.9,10,10.4,16.9,12.8
			c-9.9,4.4-16.8,14.3-16.8,25.9c0,15.7,12.6,28.4,28.3,28.4c15.6,0,28.3-12.7,28.3-28.4c0-11.5-6.9-21.5-16.8-25.9
			c8.6-3.1,15.6-9.3,19.6-17.3c5.4,9.6,15.8,16.1,27.6,16.1c17.6,0,31.8-14.2,31.8-31.8c0-11.1-5.7-20.9-14.3-26.6
			c6.3-3.4,11.4-8.6,14.8-14.8c5.7,8.6,15.4,14.3,26.5,14.3c17.6,0,31.8-14.2,31.8-31.8c0-11.9-6.5-22.2-16.1-27.7
			c8-4,14.2-11,17.2-19.6c4.4,9.9,14.4,16.8,25.9,16.8c15.6,0,28.3-12.7,28.3-28.4s-12.6-28.4-28.3-28.4c-11.6,0-21.5,6.9-25.9,16.8
			c-2.4-6.9-6.9-12.8-12.8-17C774.5,557.9,778.9,552.8,781.7,546.8z M305.2,428.5c2.5,5.4,6.2,10,10.8,13.5
			c-4.4,3.2-8.1,7.3-10.8,12.1c-3.9-5.7-9.7-10-16.4-12.2C295.8,439.6,301.6,434.8,305.2,428.5z M315.1,501.8c-4,3.1-7.4,7-9.8,11.5
			c-3.5-5.1-8.5-9.1-14.3-11.5c5.8-2.3,10.8-6.3,14.3-11.4C307.7,494.8,311.1,498.7,315.1,501.8z M305.2,575.8
			c-3.7-6.8-9.9-11.9-17.4-14.2c7.2-2,13.4-6.6,17.5-12.6c2.8,5,6.6,9.2,11.2,12.5C311.6,565.2,307.7,570.1,305.2,575.8z
			 M364.5,304.9c2.1,7.2,6.5,13.4,12.3,17.7c-4.9,3-9,7.2-12.1,12.2c-4.3-5.9-10.5-10.3-17.7-12.3
			C355.2,319.6,361.7,313.1,364.5,304.9z M365.4,447c-1.7-1.9-3.6-3.5-5.6-5c1.9-1.5,3.6-3.1,5.2-4.9c1.4,1.9,3,3.7,4.7,5.3
			C368.1,443.8,366.6,445.4,365.4,447z M369.2,501.8c-1.4,1.3-2.8,2.8-4,4.3c-1.4-1.5-2.9-2.9-4.5-4.2c1.7-1.4,3.2-2.8,4.6-4.3
			C366.5,499.1,367.8,500.5,369.2,501.8z M365.2,556.3c1.4,1.8,3,3.4,4.6,4.9c-1.8,1.7-3.4,3.6-4.9,5.6c-1.6-2-3.5-3.7-5.6-5.3
			C361.5,560,363.4,558.2,365.2,556.3z M364.9,389.6c-2.5-2.8-5.4-5.3-8.7-7.2c3.4-2.1,6.2-4.8,8.5-8c1.9,3.1,4.2,5.8,6.9,8.2
			C369.1,384.7,366.9,387,364.9,389.6z M365,613.2c2.1,2.8,4.5,5.4,7.3,7.6c-3,2.7-5.6,5.8-7.6,9.2c-2.5-3.5-5.6-6.5-9.3-8.9
			C359.1,619,362.3,616.3,365,613.2z M364.6,702.8c-2-10.8-10.2-19.3-20.9-21.7c8.6-1.6,16-6.5,20.9-13.4
			c3.3,5.5,7.9,10.2,13.5,13.4C371,686.1,366,693.9,364.6,702.8z M424.5,314.1c1.9,3.3,4.4,6.2,7.2,8.7c-2.6,2-5,4.2-7,6.6
			c-2.4-2.6-5.1-5-8.2-6.9C419.6,320.2,422.3,317.4,424.5,314.1z M425.3,444c-0.6-0.6-1.2-1.1-1.8-1.7c0.6-0.4,1.1-0.9,1.6-1.4
			c0.5,0.6,1,1.2,1.6,1.7L425.3,444z M426.5,501.7c-0.4,0.4-0.8,0.8-1.1,1.2c-0.5-0.4-0.9-0.8-1.3-1.2c0.4-0.4,0.9-0.8,1.3-1.2
			C425.8,500.9,426.1,501.3,426.5,501.7z M425.3,559.4l1.5,1.5c-0.6,0.7-1.2,1.3-1.8,2c-0.6-0.5-1.1-1.1-1.7-1.6
			C424,560.7,424.7,560.1,425.3,559.4z M425.1,385.9c-1.1-1.1-2.3-2.2-3.5-3.2c1.1-1,2.1-2,3.1-3.1c1,1.2,2.1,2.4,3.2,3.5
			C426.9,384,426,385,425.1,385.9z M425,617.1c1.1,1.2,2.2,2.3,3.4,3.4c-1.3,1.3-2.5,2.6-3.7,4c-1.1-1.2-2.4-2.5-3.7-3.7
			C422.4,619.7,423.8,618.4,425,617.1z M424.3,691c-2.3-3.9-5.5-7.3-9.2-9.9c3.7-2.1,6.9-4.8,9.5-8c2.3,2.9,5,5.4,8,7.6
			C429.3,683.6,426.4,687.1,424.3,691z M483.9,246.6c2.2,6.7,6.5,12.5,12.2,16.4c-4.8,2.7-8.9,6.4-12.1,10.8
			c-3.5-4.6-8.2-8.4-13.5-10.8C476.7,259.3,481.5,253.5,483.9,246.6z M484.5,560.4l0.5,0.5l-0.6,0.6l-0.5-0.5L484.5,560.4z
			 M484.2,501.7c0.1-0.1,0.2-0.2,0.3-0.2c0.1,0.1,0.1,0.2,0.2,0.2c-0.1,0.1-0.1,0.2-0.2,0.2C484.4,501.9,484.3,501.8,484.2,501.7z
			 M484.5,443.1l-0.5-0.5l0.5-0.5l0.5,0.5L484.5,443.1z M484.5,384.7c-0.5-0.6-1.1-1.1-1.7-1.6l1.5-1.5c0.5,0.6,1.1,1.2,1.6,1.7
			C485.4,383.8,484.9,384.2,484.5,384.7z M484.4,618.7c0.6,0.6,1.2,1.2,1.8,1.7c-0.7,0.7-1.4,1.4-2,2.1c-0.6-0.7-1.2-1.3-1.9-1.9
			C483,620,483.7,619.3,484.4,618.7z M484.3,327.6c-1.6-1.7-3.4-3.3-5.3-4.7c1.8-1.6,3.5-3.4,4.9-5.3c1.5,2,3.1,3.9,5,5.6
			C487.2,324.5,485.7,326,484.3,327.6z M484.2,675.2c1.7,2,3.6,3.7,5.6,5.3c-2.2,2-4.2,4.2-5.9,6.7c-1.7-2.4-3.7-4.5-5.9-6.4
			C480.3,679.2,482.3,677.3,484.2,675.2z M483.9,762.8c-1.3-9.8-7.5-18-16-22.1c6.5-2.5,12-6.8,16-12.4c3.6,5.3,8.5,9.5,14.3,12.3
			C490.5,745.4,485.1,753.4,483.9,762.8z M543.6,248.7c2.3,5.8,6.4,10.8,11.5,14.3c-4.5,2.5-8.4,5.8-11.5,9.8c-3.1-4-7-7.3-11.4-9.8
			C537.3,259.5,541.3,254.5,543.6,248.7z M543.5,442.8c-0.1-0.1-0.2-0.1-0.2-0.2c0.1-0.1,0.2-0.2,0.2-0.3c0,0.2,0.1,0.3,0.2,0.3
			C543.6,442.7,543.5,442.7,543.5,442.8z M543.6,560.8c-0.1,0.1-0.2,0.2-0.2,0.3c0-0.1-0.1-0.2-0.2-0.3c0.1-0.1,0.2-0.1,0.2-0.2
			C543.5,560.7,543.6,560.7,543.6,560.8z M543.5,384.5c-0.4-0.4-0.8-0.8-1.2-1.1c0.4-0.4,0.8-0.9,1.2-1.3c0.4,0.5,0.8,0.9,1.2,1.3
			C544.3,383.7,543.9,384.1,543.5,384.5z M543.5,619c0.4,0.5,0.9,0.9,1.6,1.4c-0.6,0.4-1,1-1.5,1.5l-1.5-1.5
			C542.5,619.9,543,619.5,543.5,619z M543.4,327.1c-1.3-1.4-2.6-2.7-4.1-3.9c1.5-1.4,2.9-2.9,4.2-4.6c1.3,1.6,2.7,3.1,4.2,4.5
			C546.2,324.3,544.8,325.6,543.4,327.1z M543.5,675.9c1.6,1.7,3.3,3.3,5.2,4.8c-1.9,1.6-3.6,3.5-5.1,5.6c-1.5-2.1-3.2-4-5.2-5.7
			C540.2,679.2,541.9,677.6,543.5,675.9z M543.5,758.9c-2-7.7-6.9-14.2-13.5-18.3c5.4-2.6,10.1-6.5,13.5-11.4
			c3.5,4.9,8.2,8.8,13.7,11.4C550.5,744.6,545.5,751.1,543.5,758.9z M603.1,687.7c-1.7-2.6-3.8-4.9-6.1-7c2.1-1.7,4.1-3.5,5.8-5.5
			c2,2.1,4.1,4,6.5,5.7C607,682.9,604.9,685.2,603.1,687.7z M602.4,443.1l-0.5-0.5l0.6-0.6l0.5,0.5L602.4,443.1z M602.7,501.7
			c-0.1,0-0.2,0.1-0.3,0.2c-0.1,0-0.1-0.1-0.2-0.2c0.1,0,0.1-0.1,0.2-0.2C602.5,501.5,602.6,501.6,602.7,501.7z M602.5,560.4
			c0.2,0.3,0.5,0.5,0.7,0.7c-0.2,0.1-0.3,0.3-0.5,0.5c-0.2-0.3-0.5-0.6-0.7-0.8C602.1,560.7,602.3,560.5,602.5,560.4z M602.5,384.8
			l-1.5-1.5c0.7-0.6,1.3-1.3,1.9-2c0.5,0.6,1,1.2,1.6,1.7C603.8,383.6,603.2,384.2,602.5,384.8z M602.7,618.5
			c0.7,0.7,1.5,1.4,2.2,2.1c-0.7,0.6-1.4,1.3-2,2c-0.7-0.8-1.4-1.5-2.1-2.3C601.4,619.7,602.1,619.1,602.7,618.5z M602.9,327.8
			c-1.5-1.7-3.2-3.3-4.9-4.7c1.9-1.8,3.6-3.8,5.1-5.9c1.6,2.1,3.3,4,5.3,5.7C606.4,324.4,604.5,326,602.9,327.8z M603.1,274.2
			c-3.3-4.6-7.5-8.5-12.5-11.2c6-4.1,10.6-10.3,12.6-17.5c2.3,7.5,7.4,13.7,14.2,17.4C611.7,265.4,606.8,269.3,603.1,274.2z
			 M662.7,313.2c2.3,3.6,5.3,6.8,8.8,9.3c-3.5,2.1-6.6,4.6-9.1,7.6c-2.2-2.8-4.8-5.2-7.6-7.3C657.9,320.1,660.6,316.9,662.7,313.2z
			 M661.8,444.3c-0.6-0.6-1.1-1.2-1.7-1.8c0.6-0.7,1.3-1.4,1.9-2.1c0.6,0.7,1.2,1.3,1.9,1.9C663.2,442.9,662.5,443.6,661.8,444.3z
			 M663.3,501.7l-1.5,1.5c-0.5-0.5-0.9-1-1.4-1.5c0.5-0.5,0.9-1,1.4-1.5L663.3,501.7z M661.8,559.1c0.8,0.7,1.5,1.4,2.3,2.1
			c-0.7,0.6-1.3,1.3-2,2c-0.7-0.7-1.4-1.5-2.1-2.2C660.6,560.4,661.2,559.8,661.8,559.1z M662.1,386.4c-1.1-1.2-2.2-2.3-3.4-3.4
			c1.3-1.3,2.5-2.6,3.7-4c1.1,1.3,2.3,2.6,3.7,3.7C664.7,383.8,663.3,385.1,662.1,386.4z M662.1,616.7c1.4,1.5,2.9,2.9,4.5,4.1
			c-1.5,1.4-2.9,2.8-4.2,4.3c-1.3-1.6-2.6-3.2-4.1-4.6C659.6,619.3,660.9,618.1,662.1,616.7z M662.7,692.1
			c-2.2-4.3-5.2-8.1-8.9-11.2c3.3-2.3,6.1-5.1,8.6-8.2c2.9,3.4,6.5,6.4,10.4,8.5C668.6,684,665.2,687.7,662.7,692.1z M722.5,631.4
			c-2.2-4-5.1-7.6-8.5-10.5c3.1-2.4,5.9-5.3,8.2-8.6c3.1,3.7,6.9,6.7,11.2,8.9C729,623.7,725.3,627.2,722.5,631.4z M721.9,447.9
			c-1.6-2-3.3-3.9-5.2-5.6c2-1.9,3.9-3.9,5.5-6.2c1.9,2.2,4,4.2,6.4,5.9C726.1,443.7,723.9,445.7,721.9,447.9z M727.6,501.8
			c-2,1.5-3.9,3.2-5.6,5.1c-1.4-1.9-3-3.6-4.7-5.2c1.6-1.5,3.2-3.2,4.6-5.1C723.6,498.6,725.5,500.3,727.6,501.8z M722,555.5
			c2.1,2.3,4.4,4.4,7,6.1c-2.6,1.7-4.8,3.8-6.8,6.2c-1.7-2.4-3.6-4.6-5.7-6.5C718.5,559.5,720.4,557.5,722,555.5z M722.2,390.7
			c-2.1-3-4.7-5.7-7.6-8c3.1-2.7,5.8-6,7.9-9.6c2.6,3.8,6,6.9,9.9,9.3C728.4,384.5,725,387.4,722.2,390.7z M722.4,336
			c-3.2-5.6-7.8-10.2-13.3-13.5c6.9-4.8,11.8-12.3,13.4-20.9c2.3,10.6,10.9,18.9,21.6,20.9C735.1,323.9,727.4,328.9,722.4,336z
			 M781.9,426c4.1,8.5,12.3,14.7,22.1,16c-9.4,1.2-17.4,6.6-22.1,14.3c-2.8-5.8-7-10.7-12.3-14.3C775.1,438.1,779.4,432.5,781.9,426
			z M770.5,501.9c4.8-3.5,8.7-8.2,11.4-13.6c4.1,6.6,10.6,11.6,18.3,13.6c-7.8,1.9-14.4,7-18.4,13.7
			C779.2,510.1,775.3,505.4,770.5,501.9z"/>
		<path id="Fill-33" class="st1" d="M337,3.3c0.5,0,1-0.4,1-1c0-0.5-0.4-1-1-1c-0.5,0-1,0.4-1,1S336.4,3.3,337,3.3"/>
		<path id="Fill-35" class="st1" d="M395.7,3.8c0.8,0,1.5-0.7,1.5-1.5s-0.7-1.5-1.5-1.5s-1.5,0.7-1.5,1.5
			C394.3,3.1,394.9,3.8,395.7,3.8"/>
		<path id="Fill-37" class="st1" d="M454.5,4.3c1.1,0,2-0.9,2-2s-0.9-2-2-2s-2,0.9-2,2S453.4,4.3,454.5,4.3"/>
		<path id="Fill-39" class="st1" d="M513.2,4.6c1.3,0,2.3-1,2.3-2.3s-1-2.3-2.3-2.3s-2.3,1-2.3,2.3S512,4.6,513.2,4.6"/>
		<path id="Fill-41" class="st1" d="M572,4.6c1.3,0,2.3-1,2.3-2.3S573.3,0,572,0s-2.3,1-2.3,2.3S570.7,4.6,572,4.6"/>
		<path id="Fill-43" class="st1" d="M630.7,4.3c1.1,0,2-0.9,2-2s-0.9-2-2-2s-2,0.9-2,2S629.6,4.3,630.7,4.3"/>
		<path id="Fill-45" class="st1" d="M689.4,3.8c0.8,0,1.5-0.7,1.5-1.5s-0.7-1.5-1.5-1.5s-1.5,0.7-1.5,1.5
			C688,3.1,688.6,3.8,689.4,3.8"/>
		<path id="Fill-47" class="st1" d="M748.2,3.1c0.5,0,0.8-0.4,0.8-0.8s-0.4-0.8-0.8-0.8s-0.8,0.4-0.8,0.8
			C747.4,2.8,747.7,3.1,748.2,3.1"/>
		<path id="Fill-55" class="st1" d="M219.5,61.9c0.4,0,0.8-0.4,0.8-0.8s-0.4-0.8-0.8-0.8c-0.5,0-0.8,0.4-0.8,0.8
			S219.1,61.9,219.5,61.9"/>
		<path id="Fill-57" class="st1" d="M278.2,62.9c1,0,1.8-0.8,1.8-1.8s-0.8-1.8-1.8-1.8s-1.8,0.8-1.8,1.8
			C276.5,62.1,277.3,62.9,278.2,62.9"/>
		<path id="Fill-59" class="st1" d="M337,64.2c1.7,0,3.1-1.4,3.1-3.1S338.7,58,337,58s-3.1,1.4-3.1,3.1S335.3,64.2,337,64.2"/>
		<path id="Fill-61" class="st1" d="M395.7,65.6c2.5,0,4.6-2,4.6-4.6c0-2.5-2-4.6-4.6-4.6c-2.5,0-4.6,2-4.6,4.6
			C391.2,63.6,393.2,65.6,395.7,65.6"/>
		<path id="Fill-63" class="st1" d="M454.5,66.8c3.2,0,5.7-2.6,5.7-5.7c0-3.1-2.6-5.7-5.7-5.7s-5.7,2.6-5.7,5.7
			C448.8,64.2,451.3,66.8,454.5,66.8"/>
		<path id="Fill-65" class="st1" d="M513.2,67.6c3.6,0,6.5-2.9,6.5-6.5s-2.9-6.5-6.5-6.5s-6.5,2.9-6.5,6.5S509.6,67.6,513.2,67.6"/>
		<path id="Fill-67" class="st1" d="M572,67.4c3.5,0,6.4-2.8,6.4-6.4s-2.8-6.4-6.4-6.4c-3.5,0-6.3,2.8-6.3,6.4
			C565.7,64.6,568.4,67.4,572,67.4"/>
		<path id="Fill-69" class="st1" d="M630.7,66.6c3.1,0,5.5-2.5,5.5-5.5c0-3.1-2.5-5.5-5.5-5.5c-3.1,0-5.5,2.5-5.5,5.5
			S627.6,66.6,630.7,66.6"/>
		<path id="Fill-71" class="st1" d="M689.4,65.5c2.4,0,4.4-2,4.4-4.4s-2-4.4-4.4-4.4s-4.4,2-4.4,4.4S687,65.5,689.4,65.5"/>
		<path id="Fill-73" class="st1" d="M748.2,63.9c1.5,0,2.8-1.2,2.8-2.8c0-1.5-1.2-2.8-2.8-2.8s-2.8,1.2-2.8,2.8
			C745.4,62.6,746.7,63.9,748.2,63.9"/>
		<path id="Fill-75" class="st1" d="M806.9,62.7c0.9,0,1.6-0.7,1.6-1.6s-0.7-1.6-1.6-1.6c-0.9,0-1.6,0.7-1.6,1.6
			S806,62.7,806.9,62.7"/>
		<path id="Fill-77" class="st1" d="M865.7,61.7c0.4,0,0.6-0.3,0.6-0.7s-0.3-0.7-0.6-0.7c-0.4,0-0.7,0.3-0.7,0.7
			S865.3,61.7,865.7,61.7"/>
		<path id="Fill-83" class="st1" d="M160.8,120.8c0.5,0,1-0.4,1-1c0-0.5-0.4-1-1-1s-1,0.4-1,1S160.2,120.8,160.8,120.8"/>
		<path id="Fill-85" class="st1" d="M219.5,122.3c1.3,0,2.4-1.1,2.4-2.4c0-1.4-1.1-2.4-2.4-2.4c-1.4,0-2.4,1.1-2.4,2.4
			C217.1,121.2,218.2,122.3,219.5,122.3"/>
		<path id="Fill-87" class="st1" d="M278.2,124.7c2.7,0,4.9-2.2,4.9-4.9s-2.2-4.9-4.9-4.9s-4.9,2.2-4.9,4.9
			C273.4,122.5,275.6,124.7,278.2,124.7"/>
		<path id="Fill-89" class="st1" d="M337,127.5c4.2,0,7.7-3.4,7.7-7.7c0-4.2-3.4-7.7-7.7-7.7c-4.2,0-7.7,3.4-7.7,7.7
			S332.8,127.5,337,127.5"/>
		<path id="Fill-91" class="st1" d="M395.7,130.4c5.8,0,10.6-4.7,10.6-10.6s-4.7-10.6-10.6-10.6c-5.8,0-10.6,4.7-10.6,10.6
			S389.9,130.4,395.7,130.4"/>
		<path id="Fill-93" class="st1" d="M454.5,132.7c7.1,0,12.9-5.8,12.9-12.9s-5.8-12.9-12.9-12.9s-12.9,5.8-12.9,12.9
			C441.6,126.9,447.4,132.7,454.5,132.7"/>
		<path id="Fill-95" class="st1" d="M513.2,134c7.8,0,14.2-6.3,14.2-14.2c0-7.8-6.3-14.2-14.2-14.2c-7.8,0-14.2,6.3-14.2,14.2
			S505.4,134,513.2,134"/>
		<path id="Fill-97" class="st1" d="M572,133.8c7.7,0,14-6.3,14-14s-6.3-14-14-14s-14,6.3-14,14C557.9,127.6,564.2,133.8,572,133.8"
			/>
		<path id="Fill-99" class="st1" d="M630.7,132.4c6.9,0,12.5-5.6,12.5-12.5s-5.6-12.5-12.5-12.5s-12.5,5.6-12.5,12.5
			S623.8,132.4,630.7,132.4"/>
		<path id="Fill-101" class="st1" d="M689.4,129.9c5.6,0,10.1-4.5,10.1-10.1s-4.5-10.1-10.1-10.1s-10.1,4.5-10.1,10.1
			S683.9,129.9,689.4,129.9"/>
		<path id="Fill-103" class="st1" d="M748.2,127c4,0,7.2-3.2,7.2-7.2s-3.2-7.2-7.2-7.2s-7.2,3.2-7.2,7.2S744.2,127,748.2,127"/>
		<path id="Fill-105" class="st1" d="M806.9,124.2c2.4,0,4.4-2,4.4-4.4s-2-4.4-4.4-4.4s-4.4,2-4.4,4.4
			C802.5,122.3,804.5,124.2,806.9,124.2"/>
		<path id="Fill-107" class="st1" d="M865.7,121.9c1.2,0,2.1-1,2.1-2.1c0-1.2-0.9-2.1-2.1-2.1c-1.2,0-2.1,0.9-2.1,2.1
			C863.5,121,864.5,121.9,865.7,121.9"/>
		<path id="Fill-109" class="st1" d="M924.4,120.6c0.4,0,0.8-0.4,0.8-0.8s-0.4-0.8-0.8-0.8s-0.8,0.4-0.8,0.8
			C923.6,120.3,924,120.6,924.4,120.6"/>
		<path id="Fill-117" class="st1" d="M102,179.4c0.5,0,0.8-0.4,0.8-0.8s-0.4-0.8-0.8-0.8s-0.8,0.4-0.8,0.8S101.6,179.4,102,179.4"/>
		<path id="Fill-119" class="st1" d="M160.8,181c1.4,0,2.4-1.1,2.4-2.4c0-1.3-1.1-2.4-2.4-2.4c-1.3,0-2.4,1.1-2.4,2.4
			C158.3,179.9,159.4,181,160.8,181"/>
		<path id="Fill-121" class="st1" d="M219.5,183.8c2.9,0,5.2-2.3,5.2-5.2s-2.3-5.2-5.2-5.2s-5.2,2.3-5.2,5.2
			S216.6,183.8,219.5,183.8"/>
		<path id="Fill-123" class="st1" d="M278.2,188c5.2,0,9.4-4.2,9.4-9.4s-4.2-9.5-9.4-9.5s-9.4,4.2-9.4,9.5
			C268.8,183.8,273,188,278.2,188"/>
		<path id="Fill-125" class="st1" d="M337,192.4c7.6,0,13.8-6.2,13.8-13.8s-6.2-13.8-13.8-13.8c-7.7,0-13.8,6.2-13.8,13.8
			C323.1,186.2,329.3,192.4,337,192.4"/>
		<path id="Fill-127" class="st1" d="M395.7,196.8c10.1,0,18.2-8.2,18.2-18.2c0-10.1-8.2-18.2-18.2-18.2c-10.1,0-18.2,8.2-18.2,18.2
			C377.5,188.7,385.7,196.8,395.7,196.8"/>
		<path id="Fill-129" class="st1" d="M454.5,199.9c11.8,0,21.3-9.6,21.3-21.3s-9.6-21.3-21.3-21.3c-11.8,0-21.3,9.6-21.3,21.3
			S442.7,199.9,454.5,199.9"/>
		<path id="Fill-131" class="st1" d="M513.2,201.5c12.7,0,23-10.3,23-23s-10.3-23-23-23s-23,10.3-23,23S500.5,201.5,513.2,201.5"/>
		<path id="Fill-133" class="st1" d="M572,201.4c12.6,0,22.8-10.2,22.8-22.8s-10.2-22.8-22.8-22.8s-22.8,10.2-22.8,22.8
			S559.4,201.4,572,201.4"/>
		<path id="Fill-135" class="st1" d="M630.7,199.4c11.5,0,20.8-9.3,20.8-20.8s-9.3-20.9-20.8-20.9s-20.8,9.3-20.8,20.9
			C609.9,190.1,619.2,199.4,630.7,199.4"/>
		<path id="Fill-137" class="st1" d="M689.4,196.2c9.7,0,17.6-7.9,17.6-17.6c0-9.7-7.9-17.6-17.6-17.6c-9.7,0-17.6,7.9-17.6,17.6
			C671.8,188.3,679.7,196.2,689.4,196.2"/>
		<path id="Fill-139" class="st1" d="M748.2,191.6c7.2,0,13-5.8,13-13s-5.8-13-13-13s-13,5.8-13,13
			C735.1,185.8,741,191.6,748.2,191.6"/>
		<path id="Fill-141" class="st1" d="M806.9,187.2c4.8,0,8.6-3.9,8.6-8.6c0-4.8-3.9-8.6-8.6-8.6c-4.8,0-8.6,3.9-8.6,8.6
			C798.3,183.3,802.2,187.2,806.9,187.2"/>
		<path id="Fill-143" class="st1" d="M865.7,183.1c2.5,0,4.6-2,4.6-4.6c0-2.5-2-4.6-4.6-4.6c-2.5,0-4.6,2-4.6,4.6
			S863.1,183.1,865.7,183.1"/>
		<path id="Fill-145" class="st1" d="M924.4,180.7c1.2,0,2.1-1,2.1-2.1c0-1.2-0.9-2.1-2.1-2.1c-1.2,0-2.1,0.9-2.1,2.1
			C922.3,179.7,923.2,180.7,924.4,180.7"/>
		<path id="Fill-147" class="st1" d="M983.1,179.2c0.4,0,0.7-0.3,0.7-0.7s-0.3-0.7-0.7-0.7s-0.7,0.3-0.7,0.7
			C982.5,178.9,982.8,179.2,983.1,179.2"/>
		<path id="Fill-153" class="st1" d="M43.3,237.8c0.3,0,0.5-0.2,0.5-0.5s-0.2-0.5-0.5-0.5s-0.5,0.2-0.5,0.5S43,237.8,43.3,237.8"/>
		<path id="Fill-155" class="st1" d="M102,239.1c1,0,1.8-0.8,1.8-1.8s-0.8-1.8-1.8-1.8s-1.8,0.8-1.8,1.8S101,239.1,102,239.1"/>
		<path id="Fill-157" class="st1" d="M160.8,242.2c2.7,0,4.9-2.2,4.9-4.9s-2.2-4.9-4.9-4.9s-4.9,2.2-4.9,4.9
			S158.1,242.2,160.8,242.2"/>
		<path id="Fill-159" class="st1" d="M219.5,246.8c5.2,0,9.4-4.2,9.4-9.5c0-5.2-4.2-9.4-9.4-9.4s-9.5,4.2-9.5,9.4
			C210.1,242.5,214.3,246.8,219.5,246.8"/>
		<path id="Fill-161" class="st1" d="M278.2,253.1c8.7,0,15.8-7.1,15.8-15.8s-7.1-15.8-15.8-15.8c-8.7,0-15.8,7.1-15.8,15.8
			C262.5,246.1,269.5,253.1,278.2,253.1"/>
		<path id="Fill-163" class="st1" d="M337,259c12,0,21.7-9.7,21.7-21.7s-9.7-21.7-21.7-21.7s-21.7,9.7-21.7,21.7S325,259,337,259"/>
		<path id="Fill-165" class="st1" d="M748.2,258c11.4,0,20.7-9.3,20.7-20.7s-9.3-20.7-20.7-20.7s-20.7,9.3-20.7,20.7
			C727.5,248.8,736.8,258,748.2,258"/>
		<path id="Fill-167" class="st1" d="M806.9,252c8.1,0,14.7-6.6,14.7-14.7s-6.6-14.7-14.7-14.7s-14.7,6.6-14.7,14.7
			C792.3,245.4,798.8,252,806.9,252"/>
		<path id="Fill-169" class="st1" d="M865.7,245.8c4.7,0,8.5-3.8,8.5-8.5s-3.8-8.5-8.5-8.5s-8.5,3.8-8.5,8.5S861,245.8,865.7,245.8"
			/>
		<path id="Fill-171" class="st1" d="M924.4,241.6c2.3,0,4.2-1.9,4.2-4.2s-1.9-4.2-4.2-4.2s-4.2,1.9-4.2,4.2
			C920.2,239.7,922.1,241.6,924.4,241.6"/>
		<path id="Fill-173" class="st1" d="M983.1,238.8c0.8,0,1.5-0.7,1.5-1.5s-0.7-1.5-1.5-1.5s-1.5,0.7-1.5,1.5
			C981.7,238.1,982.3,238.8,983.1,238.8"/>
		<path id="Fill-179" class="st1" d="M43.3,297.1c0.5,0,1-0.4,1-1c0-0.5-0.4-1-1-1c-0.5,0-1,0.4-1,1
			C42.3,296.6,42.7,297.1,43.3,297.1"/>
		<path id="Fill-181" class="st1" d="M102,299.2c1.7,0,3.1-1.4,3.1-3.1s-1.4-3.1-3.1-3.1s-3.1,1.4-3.1,3.1S100.3,299.2,102,299.2"/>
		<path id="Fill-183" class="st1" d="M160.8,303.7c4.2,0,7.7-3.4,7.7-7.7c0-4.2-3.4-7.7-7.7-7.7c-4.2,0-7.7,3.4-7.7,7.7
			C153.1,300.3,156.5,303.7,160.8,303.7"/>
		<path id="Fill-185" class="st1" d="M219.5,309.9c7.6,0,13.8-6.2,13.8-13.8c0-7.6-6.2-13.8-13.8-13.8c-7.7,0-13.8,6.2-13.8,13.8
			C205.7,303.7,211.9,309.9,219.5,309.9"/>
		<path id="Fill-187" class="st1" d="M278.2,317.7c12,0,21.7-9.7,21.7-21.7s-9.7-21.7-21.7-21.7s-21.7,9.7-21.7,21.7
			C256.6,308,266.3,317.7,278.2,317.7"/>
		<path id="Fill-189" class="st1" d="M806.9,316.4c11.2,0,20.4-9.1,20.4-20.4c0-11.2-9.1-20.4-20.4-20.4c-11.2,0-20.4,9.1-20.4,20.4
			C786.6,307.3,795.7,316.4,806.9,316.4"/>
		<path id="Fill-191" class="st1" d="M865.7,308.8c7,0,12.7-5.7,12.7-12.7s-5.7-12.7-12.7-12.7s-12.7,5.7-12.7,12.7
			S858.6,308.8,865.7,308.8"/>
		<path id="Fill-195" class="st1" d="M983.1,298.7c1.4,0,2.6-1.2,2.6-2.6s-1.2-2.6-2.6-2.6c-1.4,0-2.6,1.2-2.6,2.6
			S981.7,298.7,983.1,298.7"/>
		<path id="Fill-197" class="st1" d="M1041.9,296.9c0.5,0,0.8-0.4,0.8-0.8s-0.4-0.8-0.8-0.8s-0.8,0.4-0.8,0.8
			S1041.4,296.9,1041.9,296.9"/>
		<path id="Fill-201" class="st1" d="M43.3,356.3c0.8,0,1.5-0.7,1.5-1.5s-0.7-1.5-1.5-1.5s-1.5,0.7-1.5,1.5S42.5,356.3,43.3,356.3"
			/>
		<path id="Fill-203" class="st1" d="M102,359.4c2.5,0,4.6-2,4.6-4.6c0-2.5-2-4.6-4.6-4.6c-2.5,0-4.6,2-4.6,4.6
			C97.5,357.3,99.5,359.4,102,359.4"/>
		<path id="Fill-205" class="st1" d="M160.8,365.4c5.8,0,10.6-4.7,10.6-10.6s-4.7-10.6-10.6-10.6c-5.8,0-10.6,4.7-10.6,10.6
			S154.9,365.4,160.8,365.4"/>
		<path id="Fill-207" class="st1" d="M219.5,373.1c10.1,0,18.2-8.2,18.2-18.2c0-10.1-8.2-18.2-18.2-18.2c-10.1,0-18.2,8.2-18.2,18.2
			S209.4,373.1,219.5,373.1"/>
		<path id="Fill-209" class="st1" d="M806.9,380.4c14.1,0,25.6-11.4,25.6-25.6c0-14.1-11.4-25.6-25.6-25.6
			c-14.1,0-25.6,11.4-25.6,25.6S792.8,380.4,806.9,380.4"/>
		<path id="Fill-211" class="st1" d="M865.7,371.8c9.4,0,16.9-7.6,16.9-16.9c0-9.4-7.6-16.9-16.9-16.9c-9.4,0-16.9,7.6-16.9,16.9
			C848.7,364.2,856.3,371.8,865.7,371.8"/>
		<path id="Fill-213" class="st1" d="M924.4,364.3c5.2,0,9.4-4.2,9.4-9.4s-4.2-9.5-9.4-9.5s-9.4,4.2-9.4,9.5
			C915,360,919.2,364.3,924.4,364.3"/>
		<path id="Fill-215" class="st1" d="M983.1,358.7c2.2,0,3.9-1.8,3.9-3.9c0-2.2-1.7-3.9-3.9-3.9s-3.9,1.8-3.9,3.9
			C979.2,357,981,358.7,983.1,358.7"/>
		<path id="Fill-217" class="st1" d="M1041.9,356c0.6,0,1.1-0.5,1.1-1.1s-0.5-1.1-1.1-1.1s-1.1,0.5-1.1,1.1S1041.3,356,1041.9,356"
			/>
		<path id="Fill-221" class="st1" d="M43.3,415.5c1.1,0,2-0.9,2-2s-0.9-2-2-2s-2,0.9-2,2C41.3,414.7,42.2,415.5,43.3,415.5"/>
		<path id="Fill-223" class="st1" d="M102,419.3c3.2,0,5.7-2.6,5.7-5.7s-2.6-5.7-5.7-5.7s-5.7,2.6-5.7,5.7S98.9,419.3,102,419.3"/>
		<path id="Fill-225" class="st1" d="M160.8,426.4c7.1,0,12.9-5.8,12.9-12.9s-5.8-12.9-12.9-12.9c-7.1,0-12.9,5.8-12.9,12.9
			S153.7,426.4,160.8,426.4"/>
		<path id="Fill-227" class="st1" d="M219.5,434.9c11.8,0,21.3-9.6,21.3-21.3c0-11.8-9.6-21.3-21.3-21.3c-11.8,0-21.3,9.6-21.3,21.3
			C198.2,425.4,207.7,434.9,219.5,434.9"/>
		<path id="Fill-229" class="st1" d="M865.7,433.4c11,0,19.9-8.9,19.9-19.9s-8.9-19.9-19.9-19.9s-19.9,8.9-19.9,19.9
			C845.8,424.6,854.7,433.4,865.7,433.4"/>
		<path id="Fill-231" class="st1" d="M924.4,425.1c6.4,0,11.6-5.2,11.6-11.6s-5.2-11.6-11.6-11.6c-6.4,0-11.6,5.2-11.6,11.6
			C912.8,420,918,425.1,924.4,425.1"/>
		<path id="Fill-233" class="st1" d="M983.1,418.5c2.7,0,4.9-2.2,4.9-4.9s-2.2-4.9-4.9-4.9s-4.9,2.2-4.9,4.9
			C978.3,416.3,980.5,418.5,983.1,418.5"/>
		<path id="Fill-235" class="st1" d="M1041.9,415.2c0.9,0,1.6-0.7,1.6-1.6s-0.7-1.6-1.6-1.6s-1.6,0.7-1.6,1.6
			S1041,415.2,1041.9,415.2"/>
		<path id="Fill-239" class="st1" d="M43.3,470c-1.3,0-2.3,1-2.3,2.3s1,2.3,2.3,2.3s2.3-1,2.3-2.3S44.5,470,43.3,470"/>
		<path id="Fill-241" class="st1" d="M102,465.8c-3.6,0-6.5,2.9-6.5,6.5s2.9,6.5,6.5,6.5s6.5-2.9,6.5-6.5S105.6,465.8,102,465.8"/>
		<path id="Fill-243" class="st1" d="M160.8,458.1c-7.8,0-14.2,6.3-14.2,14.2c0,7.8,6.3,14.2,14.2,14.2c7.8,0,14.2-6.3,14.2-14.2
			C174.9,464.5,168.6,458.1,160.8,458.1"/>
		<path id="Fill-245" class="st1" d="M219.5,449.4c-12.7,0-23,10.3-23,23s10.3,23,23,23s23-10.3,23-23
			C242.5,459.6,232.2,449.4,219.5,449.4"/>
		<path id="Fill-247" class="st1" d="M865.7,451c-11.8,0-21.3,9.6-21.3,21.3c0,11.8,9.6,21.3,21.3,21.3c11.8,0,21.3-9.6,21.3-21.3
			C887,460.5,877.4,451,865.7,451"/>
		<path id="Fill-249" class="st1" d="M924.4,459.6c-7,0-12.7,5.7-12.7,12.7s5.7,12.7,12.7,12.7s12.7-5.7,12.7-12.7
			S931.4,459.6,924.4,459.6"/>
		<path id="Fill-251" class="st1" d="M983.1,466.8c-3.1,0-5.5,2.5-5.5,5.5c0,3.1,2.5,5.5,5.5,5.5c3.1,0,5.5-2.5,5.5-5.5
			C988.7,469.3,986.2,466.8,983.1,466.8"/>
		<path id="Fill-253" class="st1" d="M1041.9,474.3c1.1,0,2-0.9,2-2c0-1.1-0.9-2-2-2c-1.1,0-2,0.9-2,2
			C1039.9,473.4,1040.8,474.3,1041.9,474.3"/>
		<path id="Fill-258" class="st1" d="M43.3,528.8c-1.3,0-2.3,1-2.3,2.3s1,2.3,2.3,2.3s2.3-1,2.3-2.3S44.5,528.8,43.3,528.8"/>
		<path id="Fill-260" class="st1" d="M102,524.7c-3.5,0-6.3,2.8-6.3,6.4c0,3.5,2.8,6.4,6.3,6.4s6.4-2.8,6.4-6.4
			C108.4,527.6,105.5,524.7,102,524.7"/>
		<path id="Fill-262" class="st1" d="M160.8,517.1c-7.7,0-14,6.3-14,14s6.3,14,14,14s14-6.3,14-14
			C174.8,523.3,168.5,517.1,160.8,517.1"/>
		<path id="Fill-264" class="st1" d="M219.5,508.3c-12.6,0-22.8,10.2-22.8,22.8s10.2,22.8,22.8,22.8s22.8-10.2,22.8-22.8
			S232.1,508.3,219.5,508.3"/>
		<path id="Fill-266" class="st1" d="M865.7,509.7c-11.8,0-21.3,9.6-21.3,21.3c0,11.8,9.6,21.3,21.3,21.3c11.8,0,21.3-9.6,21.3-21.3
			S877.4,509.7,865.7,509.7"/>
		<path id="Fill-268" class="st1" d="M924.4,518.4c-7,0-12.7,5.7-12.7,12.7s5.7,12.7,12.7,12.7s12.7-5.7,12.7-12.7
			S931.4,518.4,924.4,518.4"/>
		<path id="Fill-270" class="st1" d="M983.1,525.5c-3.1,0-5.5,2.5-5.5,5.5c0,3.1,2.5,5.5,5.5,5.5c3.1,0,5.5-2.5,5.5-5.5
			C988.7,528,986.2,525.5,983.1,525.5"/>
		<path id="Fill-272" class="st1" d="M1041.9,529.3c-1,0-1.8,0.8-1.8,1.8s0.8,1.8,1.8,1.8s1.8-0.8,1.8-1.8
			S1042.9,529.3,1041.9,529.3"/>
		<path id="Fill-276" class="st1" d="M43.3,587.9c-1.1,0-2,0.9-2,2s0.9,2,2,2s2-0.9,2-2C45.2,588.7,44.4,587.9,43.3,587.9"/>
		<path id="Fill-278" class="st1" d="M102,584.3c-3.1,0-5.5,2.5-5.5,5.5c0,3.1,2.5,5.5,5.5,5.5c3.1,0,5.5-2.5,5.5-5.5
			C107.6,586.8,105.1,584.3,102,584.3"/>
		<path id="Fill-280" class="st1" d="M160.8,577.3c-6.9,0-12.5,5.6-12.5,12.5s5.6,12.5,12.5,12.5s12.5-5.6,12.5-12.5
			S167.7,577.3,160.8,577.3"/>
		<path id="Fill-282" class="st1" d="M219.5,569c-11.5,0-20.9,9.3-20.9,20.8s9.3,20.9,20.9,20.9c11.5,0,20.8-9.3,20.8-20.9
			C240.4,578.3,231,569,219.5,569"/>
		<path id="Fill-284" class="st1" d="M865.7,570.4c-10.7,0-19.4,8.7-19.4,19.4s8.7,19.4,19.4,19.4s19.4-8.7,19.4-19.4
			S876.4,570.4,865.7,570.4"/>
		<path id="Fill-286" class="st1" d="M924.4,578.6c-6.2,0-11.2,5-11.2,11.2s5,11.2,11.2,11.2s11.2-5,11.2-11.2
			S930.6,578.6,924.4,578.6"/>
		<path id="Fill-288" class="st1" d="M983.1,585.1c-2.6,0-4.7,2.1-4.7,4.7s2.1,4.7,4.7,4.7s4.7-2.1,4.7-4.7
			C987.9,587.2,985.8,585.1,983.1,585.1"/>
		<path id="Fill-290" class="st1" d="M1041.9,588.2c-0.9,0-1.6,0.7-1.6,1.6c0,0.9,0.7,1.6,1.6,1.6s1.6-0.7,1.6-1.6
			S1042.8,588.2,1041.9,588.2"/>
		<path id="Fill-294" class="st1" d="M43.3,647.1c-0.8,0-1.5,0.7-1.5,1.5s0.7,1.5,1.5,1.5s1.5-0.7,1.5-1.5S44.1,647.1,43.3,647.1"/>
		<path id="Fill-296" class="st1" d="M102,644.2c-2.4,0-4.4,2-4.4,4.4s2,4.4,4.4,4.4s4.4-2,4.4-4.4
			C106.4,646.1,104.5,644.2,102,644.2"/>
		<path id="Fill-298" class="st1" d="M160.8,638.5c-5.6,0-10.1,4.5-10.1,10.1s4.5,10.1,10.1,10.1s10.1-4.5,10.1-10.1
			S166.3,638.5,160.8,638.5"/>
		<path id="Fill-300" class="st1" d="M219.5,631c-9.7,0-17.6,7.9-17.6,17.6c0,9.7,7.9,17.6,17.6,17.6c9.7,0,17.6-7.9,17.6-17.6
			S229.2,631,219.5,631"/>
		<path id="Fill-302" class="st1" d="M806.9,623.6c-13.8,0-24.9,11.2-24.9,24.9c0,13.8,11.2,24.9,24.9,24.9
			c13.8,0,24.9-11.2,24.9-24.9S820.7,623.6,806.9,623.6"/>
		<path id="Fill-304" class="st1" d="M865.7,632.3c-9,0-16.3,7.3-16.3,16.3s7.3,16.3,16.3,16.3s16.3-7.3,16.3-16.3
			S874.7,632.3,865.7,632.3"/>
		<path id="Fill-306" class="st1" d="M924.4,639.6c-4.9,0-9,4-9,9s4,9,9,9s9-4,9-9S929.4,639.6,924.4,639.6"/>
		<path id="Fill-308" class="st1" d="M983.1,645c-2,0-3.6,1.6-3.6,3.6s1.6,3.6,3.6,3.6s3.6-1.6,3.6-3.6S985.1,645,983.1,645"/>
		<path id="Fill-310" class="st1" d="M1041.9,647.4c-0.6,0-1.1,0.5-1.1,1.1s0.5,1.1,1.1,1.1s1.1-0.5,1.1-1.1
			S1042.5,647.4,1041.9,647.4"/>
		<path id="Fill-316" class="st1" d="M102,704.5c-1.5,0-2.8,1.2-2.8,2.8c0,1.5,1.2,2.8,2.8,2.8c1.5,0,2.8-1.2,2.8-2.8
			C104.8,705.8,103.6,704.5,102,704.5"/>
		<path id="Fill-318" class="st1" d="M160.8,700.1c-4,0-7.2,3.2-7.2,7.2s3.2,7.2,7.2,7.2s7.2-3.2,7.2-7.2
			C167.9,703.4,164.7,700.1,160.8,700.1"/>
		<path id="Fill-320" class="st1" d="M219.5,694.3c-7.2,0-13,5.8-13,13s5.8,13,13,13s13-5.8,13-13S226.7,694.3,219.5,694.3"/>
		<path id="Fill-322" class="st1" d="M278.2,686.6c-11.4,0-20.7,9.3-20.7,20.7s9.3,20.7,20.7,20.7c11.4,0,20.7-9.3,20.7-20.7
			S289.7,686.6,278.2,686.6"/>
		<path id="Fill-324" class="st1" d="M748.2,681.2c-14.4,0-26.1,11.7-26.1,26.1c0,14.4,11.7,26.1,26.1,26.1
			c14.4,0,26.1-11.7,26.1-26.1C774.2,692.9,762.6,681.2,748.2,681.2"/>
		<path id="Fill-326" class="st1" d="M806.9,687.9c-10.7,0-19.4,8.7-19.4,19.4s8.7,19.4,19.4,19.4s19.4-8.7,19.4-19.4
			S817.6,687.9,806.9,687.9"/>
		<path id="Fill-328" class="st1" d="M865.7,695.4c-6.6,0-11.9,5.3-11.9,11.9s5.3,11.9,11.9,11.9c6.6,0,11.9-5.3,11.9-11.9
			S872.2,695.4,865.7,695.4"/>
		<path id="Fill-330" class="st1" d="M924.4,701.1c-3.4,0-6.2,2.8-6.2,6.2s2.8,6.2,6.2,6.2s6.2-2.8,6.2-6.2S927.8,701.1,924.4,701.1
			"/>
		<path id="Fill-332" class="st1" d="M983.1,705c-1.3,0-2.3,1-2.3,2.3s1,2.3,2.3,2.3s2.3-1,2.3-2.3C985.4,706.1,984.4,705,983.1,705
			"/>
		<path id="Fill-340" class="st1" d="M102,764.4c-0.9,0-1.6,0.7-1.6,1.6c0,0.9,0.7,1.6,1.6,1.6s1.6-0.7,1.6-1.6
			C103.7,765.2,102.9,764.4,102,764.4"/>
		<path id="Fill-342" class="st1" d="M160.8,761.7c-2.4,0-4.4,2-4.4,4.4s2,4.4,4.4,4.4s4.4-2,4.4-4.4
			C165.2,763.6,163.2,761.7,160.8,761.7"/>
		<path id="Fill-344" class="st1" d="M219.5,757.4c-4.8,0-8.6,3.9-8.6,8.6c0,4.8,3.9,8.6,8.6,8.6c4.8,0,8.6-3.9,8.6-8.6
			C228.1,761.3,224.3,757.4,219.5,757.4"/>
		<path id="Fill-346" class="st1" d="M278.2,751.4c-8.1,0-14.7,6.6-14.7,14.7s6.6,14.7,14.7,14.7s14.7-6.6,14.7-14.7
			S286.3,751.4,278.2,751.4"/>
		<path id="Fill-348" class="st1" d="M337,745.7c-11.2,0-20.4,9.1-20.4,20.4c0,11.2,9.1,20.4,20.4,20.4c11.2,0,20.4-9.1,20.4-20.4
			C357.3,754.8,348.2,745.7,337,745.7"/>
		<path id="Fill-350" class="st1" d="M395.7,740.5c-14.1,0-25.6,11.4-25.6,25.6c0,14.1,11.5,25.6,25.6,25.6s25.6-11.5,25.6-25.6
			C421.3,751.9,409.9,740.5,395.7,740.5"/>
		<path id="Fill-352" class="st1" d="M689.4,741.1c-13.8,0-24.9,11.2-24.9,24.9c0,13.8,11.2,24.9,24.9,24.9
			c13.8,0,24.9-11.2,24.9-24.9C714.4,752.3,703.2,741.1,689.4,741.1"/>
		<path id="Fill-354" class="st1" d="M748.2,746.7c-10.7,0-19.4,8.7-19.4,19.4s8.7,19.4,19.4,19.4s19.4-8.7,19.4-19.4
			S758.9,746.7,748.2,746.7"/>
		<path id="Fill-356" class="st1" d="M806.9,752.4c-7.6,0-13.7,6.1-13.7,13.7s6.1,13.7,13.7,13.7s13.7-6.1,13.7-13.7
			S814.5,752.4,806.9,752.4"/>
		<path id="Fill-358" class="st1" d="M865.7,758.2c-4.3,0-7.8,3.5-7.8,7.8s3.5,7.8,7.8,7.8s7.8-3.5,7.8-7.8S870,758.2,865.7,758.2"
			/>
		<path id="Fill-360" class="st1" d="M924.4,762.3c-2.1,0-3.7,1.7-3.7,3.7c0,2.1,1.7,3.7,3.7,3.7c2.1,0,3.8-1.7,3.8-3.7
			S926.5,762.3,924.4,762.3"/>
		<path id="Fill-362" class="st1" d="M983.1,764.8c-0.7,0-1.3,0.6-1.3,1.3s0.6,1.3,1.3,1.3s1.3-0.6,1.3-1.3
			C984.5,765.3,983.9,764.8,983.1,764.8"/>
		<path id="Fill-372" class="st1" d="M160.8,822.7c-1.2,0-2.1,0.9-2.1,2.1c0,1.2,0.9,2.1,2.1,2.1c1.2,0,2.1-0.9,2.1-2.1
			C162.9,823.6,161.9,822.7,160.8,822.7"/>
		<path id="Fill-374" class="st1" d="M219.5,820.3c-2.5,0-4.6,2-4.6,4.6c0,2.5,2,4.6,4.6,4.6c2.5,0,4.6-2,4.6-4.6
			S222,820.3,219.5,820.3"/>
		<path id="Fill-376" class="st1" d="M278.2,816.3c-4.7,0-8.5,3.8-8.5,8.5s3.8,8.5,8.5,8.5s8.5-3.8,8.5-8.5S282.9,816.3,278.2,816.3
			"/>
		<path id="Fill-378" class="st1" d="M337,812.1c-7,0-12.7,5.7-12.7,12.7s5.7,12.7,12.7,12.7s12.7-5.7,12.7-12.7
			S344,812.1,337,812.1"/>
		<path id="Fill-380" class="st1" d="M395.7,807.9c-9.4,0-16.9,7.6-16.9,16.9c0,9.4,7.6,16.9,16.9,16.9c9.4,0,16.9-7.6,16.9-16.9
			C412.7,815.5,405.1,807.9,395.7,807.9"/>
		<path id="Fill-382" class="st1" d="M454.5,804.9c-11,0-19.9,8.9-19.9,19.9s8.9,19.9,19.9,19.9s19.9-8.9,19.9-19.9
			C474.3,813.8,465.4,804.9,454.5,804.9"/>
		<path id="Fill-384" class="st1" d="M513.2,803.5c-11.8,0-21.3,9.6-21.3,21.3c0,11.8,9.6,21.3,21.3,21.3c11.8,0,21.3-9.6,21.3-21.3
			C534.6,813,525,803.5,513.2,803.5"/>
		<path id="Fill-386" class="st1" d="M572,803.5c-11.8,0-21.3,9.6-21.3,21.3c0,11.8,9.6,21.3,21.3,21.3c11.8,0,21.3-9.6,21.3-21.3
			C593.3,813,583.7,803.5,572,803.5"/>
		<path id="Fill-388" class="st1" d="M630.7,805.4c-10.7,0-19.4,8.7-19.4,19.4s8.7,19.4,19.4,19.4s19.4-8.7,19.4-19.4
			S641.4,805.4,630.7,805.4"/>
		<path id="Fill-390" class="st1" d="M689.4,808.5c-9,0-16.3,7.3-16.3,16.3s7.3,16.3,16.3,16.3s16.3-7.3,16.3-16.3
			S698.4,808.5,689.4,808.5"/>
		<path id="Fill-392" class="st1" d="M748.2,812.9c-6.6,0-11.9,5.3-11.9,11.9c0,6.6,5.3,11.9,11.9,11.9c6.6,0,11.9-5.3,11.9-11.9
			C760.1,818.2,754.8,812.9,748.2,812.9"/>
		<path id="Fill-394" class="st1" d="M806.9,817c-4.3,0-7.8,3.5-7.8,7.8s3.5,7.8,7.8,7.8s7.8-3.5,7.8-7.8S811.2,817,806.9,817"/>
		<path id="Fill-396" class="st1" d="M865.7,820.7c-2.3,0-4.1,1.8-4.1,4.1c0,2.2,1.8,4.1,4.1,4.1c2.2,0,4.1-1.8,4.1-4.1
			C869.7,822.6,867.9,820.7,865.7,820.7"/>
		<path id="Fill-398" class="st1" d="M924.4,823c-1,0-1.8,0.8-1.8,1.8s0.8,1.8,1.8,1.8s1.8-0.8,1.8-1.8S925.4,823,924.4,823"/>
		<path id="Fill-408" class="st1" d="M219.5,881.4c-1.2,0-2.1,0.9-2.1,2.1c0,1.2,0.9,2.1,2.1,2.1c1.2,0,2.1-1,2.1-2.1
			S220.7,881.4,219.5,881.4"/>
		<path id="Fill-410" class="st1" d="M278.2,879.3c-2.3,0-4.2,1.9-4.2,4.2s1.9,4.2,4.2,4.2c2.3,0,4.2-1.9,4.2-4.2
			C282.5,881.2,280.6,879.3,278.2,879.3"/>
		<path id="Fill-414" class="st1" d="M395.7,874.1c-5.2,0-9.4,4.2-9.4,9.5c0,5.2,4.2,9.4,9.4,9.4s9.4-4.2,9.4-9.4
			C405.2,878.3,401,874.1,395.7,874.1"/>
		<path id="Fill-416" class="st1" d="M454.5,872c-6.4,0-11.6,5.2-11.6,11.6c0,6.4,5.2,11.6,11.6,11.6s11.6-5.2,11.6-11.6
			C466,877.2,460.9,872,454.5,872"/>
		<path id="Fill-418" class="st1" d="M513.2,870.9c-7,0-12.7,5.7-12.7,12.7s5.7,12.7,12.7,12.7s12.7-5.7,12.7-12.7
			C525.9,876.5,520.2,870.9,513.2,870.9"/>
		<path id="Fill-420" class="st1" d="M572,870.9c-7,0-12.7,5.7-12.7,12.7s5.7,12.7,12.7,12.7s12.7-5.7,12.7-12.7
			C584.7,876.5,579,870.9,572,870.9"/>
		<path id="Fill-422" class="st1" d="M630.7,872.3c-6.2,0-11.2,5-11.2,11.2s5,11.2,11.2,11.2s11.2-5,11.2-11.2
			C641.9,877.4,636.9,872.3,630.7,872.3"/>
		<path id="Fill-424" class="st1" d="M689.4,874.6c-4.9,0-9,4-9,9c0,4.9,4,9,9,9s9-4,9-9S694.4,874.6,689.4,874.6"/>
		<path id="Fill-426" class="st1" d="M748.2,877.4c-3.4,0-6.2,2.8-6.2,6.2s2.8,6.2,6.2,6.2s6.2-2.8,6.2-6.2S751.6,877.4,748.2,877.4
			"/>
		<path id="Fill-428" class="st1" d="M806.9,879.8c-2.1,0-3.7,1.7-3.7,3.7s1.7,3.7,3.7,3.7s3.7-1.7,3.7-3.7S809,879.8,806.9,879.8"
			/>
		<path id="Fill-430" class="st1" d="M865.7,881.8c-1,0-1.8,0.8-1.8,1.8s0.8,1.8,1.8,1.8s1.8-0.8,1.8-1.8S866.7,881.8,865.7,881.8"
			/>
		<path id="Fill-440" class="st1" d="M278.2,940.8c-0.8,0-1.5,0.7-1.5,1.5s0.7,1.5,1.5,1.5s1.5-0.7,1.5-1.5S279.1,940.8,278.2,940.8
			"/>
		<path id="Fill-442" class="st1" d="M337,939.7c-1.4,0-2.6,1.2-2.6,2.6c0,1.4,1.2,2.6,2.6,2.6s2.6-1.2,2.6-2.6
			S338.4,939.7,337,939.7"/>
		<path id="Fill-444" class="st1" d="M395.7,938.4c-2.2,0-3.9,1.8-3.9,3.9c0,2.2,1.8,3.9,3.9,3.9c2.2,0,3.9-1.8,3.9-3.9
			S397.9,938.4,395.7,938.4"/>
		<path id="Fill-446" class="st1" d="M454.5,937.4c-2.7,0-4.9,2.2-4.9,4.9s2.2,4.9,4.9,4.9s4.9-2.2,4.9-4.9S457.2,937.4,454.5,937.4
			"/>
		<path id="Fill-448" class="st1" d="M513.2,936.8c-3.1,0-5.5,2.5-5.5,5.5c0,3.1,2.5,5.5,5.5,5.5c3.1,0,5.5-2.5,5.5-5.5
			C518.8,939.3,516.3,936.8,513.2,936.8"/>
		<path id="Fill-450" class="st1" d="M572,936.8c-3.1,0-5.5,2.5-5.5,5.5c0,3.1,2.5,5.5,5.5,5.5c3.1,0,5.5-2.5,5.5-5.5
			S575,936.8,572,936.8"/>
		<path id="Fill-452" class="st1" d="M630.7,937.6c-2.6,0-4.7,2.1-4.7,4.7s2.1,4.7,4.7,4.7s4.7-2.1,4.7-4.7S633.3,937.6,630.7,937.6
			"/>
		<path id="Fill-454" class="st1" d="M689.4,938.7c-2,0-3.6,1.6-3.6,3.6s1.6,3.6,3.6,3.6s3.6-1.6,3.6-3.6S691.4,938.7,689.4,938.7"
			/>
		<path id="Fill-456" class="st1" d="M748.2,940c-1.3,0-2.3,1-2.3,2.3s1,2.3,2.3,2.3s2.3-1,2.3-2.3C750.5,941.1,749.4,940,748.2,940
			"/>
		<path id="Fill-458" class="st1" d="M806.9,941c-0.7,0-1.3,0.6-1.3,1.3s0.6,1.3,1.3,1.3s1.3-0.6,1.3-1.3S807.6,941,806.9,941"/>
		<path id="Fill-468" class="st1" d="M337,1000.2c-0.4,0-0.8,0.4-0.8,0.8s0.4,0.8,0.8,0.8s0.8-0.4,0.8-0.8S337.4,1000.2,337,1000.2"
			/>
		<path id="Fill-470" class="st1" d="M395.7,999.9c-0.6,0-1.1,0.5-1.1,1.1s0.5,1.1,1.1,1.1s1.1-0.5,1.1-1.1
			C396.9,1000.4,396.4,999.9,395.7,999.9"/>
		<path id="Fill-472" class="st1" d="M454.5,999.4c-0.9,0-1.6,0.7-1.6,1.6s0.7,1.6,1.6,1.6s1.6-0.7,1.6-1.6
			C456.1,1000.2,455.4,999.4,454.5,999.4"/>
		<path id="Fill-474" class="st1" d="M513.2,999.1c-1.1,0-2,0.9-2,2s0.9,2,2,2s2-0.9,2-2S514.3,999.1,513.2,999.1"/>
		<path id="Fill-476" class="st1" d="M572,999.3c-1,0-1.8,0.8-1.8,1.8s0.8,1.8,1.8,1.8s1.8-0.8,1.8-1.8
			C573.7,1000.1,572.9,999.3,572,999.3"/>
		<path id="Fill-478" class="st1" d="M630.7,999.4c-0.9,0-1.6,0.7-1.6,1.6s0.7,1.6,1.6,1.6c0.9,0,1.6-0.7,1.6-1.6
			C632.3,1000.2,631.6,999.4,630.7,999.4"/>
		<path id="Fill-480" class="st1" d="M689.4,999.9c-0.6,0-1.1,0.5-1.1,1.1s0.5,1.1,1.1,1.1s1.1-0.5,1.1-1.1
			C690.6,1000.4,690.1,999.9,689.4,999.9"/>
		<path id="Fill-426_1_" class="st2" d="M337.8,879.4c-3.4,0-6.2,2.8-6.2,6.2s2.8,6.2,6.2,6.2s6.2-2.8,6.2-6.2
			S341.2,879.4,337.8,879.4"/>
	</g>
</g>
</svg>
