<svg xmlns="http://www.w3.org/2000/svg" viewBox="0 0 1002.9 1003.1"><path d="M740.7 546.8c5.3 8.9 15 14.8 26 14.8 16.7 0 30.3-13.6 30.3-30.4 0-14.2-9.6-26-22.6-29.4 13.1-3.4 22.8-15.3 22.8-29.5 0-15.6-11.6-28.4-26.6-30.3 14.1-1.8 25-13.9 24.7-28.5 0-16-12.9-28.9-28.8-28.9-11.4 0-21.2 6.7-25.9 16.3-3-7.9-8.7-14.4-16.1-18.4 9.4-5.7 15.7-16 15.7-27.8 0-16.3-11.9-29.7-27.5-32.1 12.7-2.3 22.3-13.4 22.3-26.8 0-15.1-12.2-27.3-27.2-27.3-13 0-23.8 9.2-26.5 21.4-2.6-14.6-14.8-25.8-29.9-26.8 13.4-1.2 24-12.4 24-26.2 0-14.5-11.7-26.3-26.2-26.3S623 222.4 623 236.9c0 13.8 10.6 25.1 24 26.2-10.7.7-20 6.6-25.4 15.2-3.8-6.8-9.7-12.2-16.9-15.3 9.2-5.1 15.4-14.9 15.4-26.1 0-16.4-13.2-29.7-29.6-29.7-13.4 0-24.7 8.9-28.4 21.1-3.8-13.3-15.9-23-30.4-23-13.3 0-24.6 8.2-29.3 19.8-4.7-11.7-16.1-20-29.5-20-14.1 0-26.1 9.3-30.2 22.1-4-11.9-15.3-20.5-28.5-20.5-16.6 0-30.1 13.5-30.1 30.2 0 11.1 6.1 20.9 15.1 26.1-6.6 3.1-12.1 8.1-15.8 14.3-4.8-7.2-12.4-12.5-21.2-14.3 11.6-3 20.2-13.5 20.2-26.1 0-14.8-12.1-26.9-26.9-26.9-14.9 0-26.9 12-26.9 26.9 0 12.6 8.6 23.1 20.2 26.1-12.2 2.5-22 11.8-25.4 23.7-3.8-11.1-14.2-19.1-26.6-19.1-15.6 0-28.2 12.6-28.2 28.2 0 12.4 8 22.9 19.1 26.7-11.9 3.4-21.1 13.2-23.6 25.5-2.9-11.7-13.5-20.3-26-20.3-14.9 0-26.9 12.1-26.9 26.9s12.1 26.9 26.9 26.9c12.5 0 23-8.6 26-20.3 1.8 8.9 7 16.5 14.3 21.3-6.2 3.7-11.1 9.3-14.2 15.9-5.2-9-15-15.1-26.1-15.1-16.6 0-30.1 13.5-30.1 30.2 0 13.3 8.5 24.5 20.4 28.6-12.7 4.1-22 16.1-22 30.3 0 13.4 8.2 24.8 19.9 29.5-11.6 4.8-19.8 16.1-19.8 29.4 0 14.4 9.7 26.6 23 30.4-12.1 3.7-21 15-21 28.4 0 16.4 13.2 29.7 29.6 29.7 11.2 0 21-6.3 26-15.5 3.1 7.2 8.4 13.1 15.2 16.9-8.6 5.5-14.5 14.8-15.2 25.5-1.1-13.4-12.4-24-26.1-24-14.5 0-26.2 11.8-26.2 26.3s11.7 26.3 26.2 26.3c13.7 0 25-10.5 26.1-24 1.1 15.1 12.2 27.4 26.8 30-12.2 2.7-21.3 13.6-21.3 26.6 0 15.1 12.2 27.3 27.2 27.3 13.3 0 24.4-9.6 26.7-22.3 2.4 15.6 15.8 27.6 32 27.6 11.8 0 22.1-6.4 27.8-15.8 4 7.4 10.5 13.2 18.4 16.2-9.7 4.7-16.3 14.6-16.3 26 0 16 12.9 28.9 28.8 28.9 14.6 0 26.6-11 28.5-25.1 1.9 15.1 14.7 26.7 30.2 26.7 14.2 0 26.1-9.8 29.5-22.9 3.4 13 15.2 22.7 29.3 22.7 16.7 0 30.3-13.6 30.3-30.4 0-11-5.9-20.7-14.7-26 6-2.8 11.1-7.2 14.7-12.7 4.1 5.9 10 10.4 16.9 12.8-9.9 4.4-16.8 14.3-16.8 25.9 0 15.7 12.6 28.4 28.3 28.4 15.6 0 28.3-12.7 28.3-28.4 0-11.5-6.9-21.5-16.8-25.9 8.6-3.1 15.6-9.3 19.6-17.3 5.4 9.6 15.8 16.1 27.6 16.1 17.6 0 31.8-14.2 31.8-31.8 0-11.1-5.7-20.9-14.3-26.6 6.3-3.4 11.4-8.6 14.8-14.8 5.7 8.6 15.4 14.3 26.5 14.3 17.6 0 31.8-14.2 31.8-31.8 0-11.9-6.5-22.2-16.1-27.7 8-4 14.2-11 17.2-19.6 4.4 9.9 14.4 16.8 25.9 16.8 15.6 0 28.3-12.7 28.3-28.4s-12.6-28.4-28.3-28.4c-11.6 0-21.5 6.9-25.9 16.8-2.4-6.9-6.9-12.8-12.8-17 5.5-3.6 9.9-8.7 12.7-14.7zM264.2 428.5c2.5 5.4 6.2 10 10.8 13.5-4.4 3.2-8.1 7.3-10.8 12.1-3.9-5.7-9.7-10-16.4-12.2 7-2.3 12.8-7.1 16.4-13.4zm9.9 73.3c-4 3.1-7.4 7-9.8 11.5-3.5-5.1-8.5-9.1-14.3-11.5 5.8-2.3 10.8-6.3 14.3-11.4 2.4 4.4 5.8 8.3 9.8 11.4zm-9.9 74c-3.7-6.8-9.9-11.9-17.4-14.2 7.2-2 13.4-6.6 17.5-12.6 2.8 5 6.6 9.2 11.2 12.5-4.9 3.7-8.8 8.6-11.3 14.3zm59.3-270.9c2.1 7.2 6.5 13.4 12.3 17.7-4.9 3-9 7.2-12.1 12.2-4.3-5.9-10.5-10.3-17.7-12.3 8.2-2.9 14.7-9.4 17.5-17.6zm.9 142.1c-1.7-1.9-3.6-3.5-5.6-5 1.9-1.5 3.6-3.1 5.2-4.9 1.4 1.9 3 3.7 4.7 5.3-1.6 1.4-3.1 3-4.3 4.6zm3.8 54.8c-1.4 1.3-2.8 2.8-4 4.3-1.4-1.5-2.9-2.9-4.5-4.2 1.7-1.4 3.2-2.8 4.6-4.3 1.2 1.5 2.5 2.9 3.9 4.2zm-4 54.5c1.4 1.8 3 3.4 4.6 4.9-1.8 1.7-3.4 3.6-4.9 5.6-1.6-2-3.5-3.7-5.6-5.3 2.2-1.5 4.1-3.3 5.9-5.2zm-.3-166.7c-2.5-2.8-5.4-5.3-8.7-7.2 3.4-2.1 6.2-4.8 8.5-8 1.9 3.1 4.2 5.8 6.9 8.2-2.5 2.1-4.7 4.4-6.7 7zm.1 223.6c2.1 2.8 4.5 5.4 7.3 7.6-3 2.7-5.6 5.8-7.6 9.2-2.5-3.5-5.6-6.5-9.3-8.9 3.7-2.1 6.9-4.8 9.6-7.9zm-.4 89.6c-2-10.8-10.2-19.3-20.9-21.7 8.6-1.6 16-6.5 20.9-13.4 3.3 5.5 7.9 10.2 13.5 13.4-7.1 5-12.1 12.8-13.5 21.7zm59.9-388.7c1.9 3.3 4.4 6.2 7.2 8.7-2.6 2-5 4.2-7 6.6-2.4-2.6-5.1-5-8.2-6.9 3.1-2.3 5.8-5.1 8-8.4zm.8 129.9c-.6-.6-1.2-1.1-1.8-1.7.6-.4 1.1-.9 1.6-1.4.5.6 1 1.2 1.6 1.7l-1.4 1.4zm1.2 57.7c-.4.4-.8.8-1.1 1.2-.5-.4-.9-.8-1.3-1.2.4-.4.9-.8 1.3-1.2.4.4.7.8 1.1 1.2zm-1.2 57.7l1.5 1.5c-.6.7-1.2 1.3-1.8 2-.6-.5-1.1-1.1-1.7-1.6.7-.6 1.4-1.2 2-1.9zm-.2-173.5c-1.1-1.1-2.3-2.2-3.5-3.2 1.1-1 2.1-2 3.1-3.1 1 1.2 2.1 2.4 3.2 3.5-1 .9-1.9 1.9-2.8 2.8zm-.1 231.2c1.1 1.2 2.2 2.3 3.4 3.4-1.3 1.3-2.5 2.6-3.7 4-1.1-1.2-2.4-2.5-3.7-3.7 1.4-1.1 2.8-2.4 4-3.7zm-.7 73.9c-2.3-3.9-5.5-7.3-9.2-9.9 3.7-2.1 6.9-4.8 9.5-8 2.3 2.9 5 5.4 8 7.6-3.3 2.9-6.2 6.4-8.3 10.3zm59.6-444.4c2.2 6.7 6.5 12.5 12.2 16.4-4.8 2.7-8.9 6.4-12.1 10.8-3.5-4.6-8.2-8.4-13.5-10.8 6.2-3.7 11-9.5 13.4-16.4zm.6 313.8l.5.5-.6.6-.5-.5.6-.6zm-.3-58.7c.1-.1.2-.2.3-.2.1.1.1.2.2.2-.1.1-.1.2-.2.2s-.2-.1-.3-.2zm.3-58.6l-.5-.5.5-.5.5.5-.5.5zm0-58.4c-.5-.6-1.1-1.1-1.7-1.6l1.5-1.5c.5.6 1.1 1.2 1.6 1.7-.5.5-1 .9-1.4 1.4zm-.1 234c.6.6 1.2 1.2 1.8 1.7-.7.7-1.4 1.4-2 2.1-.6-.7-1.2-1.3-1.9-1.9.7-.6 1.4-1.3 2.1-1.9zm-.1-291.1c-1.6-1.7-3.4-3.3-5.3-4.7 1.8-1.6 3.5-3.4 4.9-5.3 1.5 2 3.1 3.9 5 5.6-1.7 1.3-3.2 2.8-4.6 4.4zm-.1 347.6c1.7 2 3.6 3.7 5.6 5.3-2.2 2-4.2 4.2-5.9 6.7-1.7-2.4-3.7-4.5-5.9-6.4 2.3-1.6 4.3-3.5 6.2-5.6zm-.3 87.6c-1.3-9.8-7.5-18-16-22.1 6.5-2.5 12-6.8 16-12.4 3.6 5.3 8.5 9.5 14.3 12.3-7.7 4.8-13.1 12.8-14.3 22.2zm59.7-514.1c2.3 5.8 6.4 10.8 11.5 14.3-4.5 2.5-8.4 5.8-11.5 9.8-3.1-4-7-7.3-11.4-9.8 5.1-3.5 9.1-8.5 11.4-14.3zm-.1 194.1c-.1-.1-.2-.1-.2-.2.1-.1.2-.2.2-.3 0 .2.1.3.2.3-.1.1-.2.1-.2.2zm.1 118c-.1.1-.2.2-.2.3 0-.1-.1-.2-.2-.3.1-.1.2-.1.2-.2.1.1.2.1.2.2zm-.1-176.3c-.4-.4-.8-.8-1.2-1.1.4-.4.8-.9 1.2-1.3.4.5.8.9 1.2 1.3-.4.3-.8.7-1.2 1.1zm0 234.5c.4.5.9.9 1.6 1.4-.6.4-1 1-1.5 1.5l-1.5-1.5c.4-.5.9-.9 1.4-1.4zm-.1-291.9c-1.3-1.4-2.6-2.7-4.1-3.9 1.5-1.4 2.9-2.9 4.2-4.6 1.3 1.6 2.7 3.1 4.2 4.5-1.5 1.2-2.9 2.5-4.3 4zm.1 348.8c1.6 1.7 3.3 3.3 5.2 4.8-1.9 1.6-3.6 3.5-5.1 5.6-1.5-2.1-3.2-4-5.2-5.7 1.8-1.4 3.5-3 5.1-4.7zm0 83c-2-7.7-6.9-14.2-13.5-18.3 5.4-2.6 10.1-6.5 13.5-11.4 3.5 4.9 8.2 8.8 13.7 11.4-6.7 4-11.7 10.5-13.7 18.3zm59.6-71.2c-1.7-2.6-3.8-4.9-6.1-7 2.1-1.7 4.1-3.5 5.8-5.5 2 2.1 4.1 4 6.5 5.7-2.3 2-4.4 4.3-6.2 6.8zm-.7-244.6l-.5-.5.6-.6.5.5-.6.6zm.3 58.6c-.1 0-.2.1-.3.2-.1 0-.1-.1-.2-.2.1 0 .1-.1.2-.2.1 0 .2.1.3.2zm-.2 58.7c.2.3.5.5.7.7-.2.1-.3.3-.5.5-.2-.3-.5-.6-.7-.8.1-.1.3-.3.5-.4zm0-175.6l-1.5-1.5c.7-.6 1.3-1.3 1.9-2 .5.6 1 1.2 1.6 1.7-.7.6-1.3 1.2-2 1.8zm.2 233.7c.7.7 1.5 1.4 2.2 2.1-.7.6-1.4 1.3-2 2-.7-.8-1.4-1.5-2.1-2.3.6-.6 1.3-1.2 1.9-1.8zm.2-290.7c-1.5-1.7-3.2-3.3-4.9-4.7 1.9-1.8 3.6-3.8 5.1-5.9 1.6 2.1 3.3 4 5.3 5.7-2 1.5-3.9 3.1-5.5 4.9zm.2-53.6c-3.3-4.6-7.5-8.5-12.5-11.2 6-4.1 10.6-10.3 12.6-17.5 2.3 7.5 7.4 13.7 14.2 17.4-5.7 2.5-10.6 6.4-14.3 11.3zm59.6 39c2.3 3.6 5.3 6.8 8.8 9.3-3.5 2.1-6.6 4.6-9.1 7.6-2.2-2.8-4.8-5.2-7.6-7.3 3.1-2.7 5.8-5.9 7.9-9.6zm-.9 131.1c-.6-.6-1.1-1.2-1.7-1.8.6-.7 1.3-1.4 1.9-2.1.6.7 1.2 1.3 1.9 1.9-.7.6-1.4 1.3-2.1 2zm1.5 57.4l-1.5 1.5c-.5-.5-.9-1-1.4-1.5.5-.5.9-1 1.4-1.5l1.5 1.5zm-1.5 57.4c.8.7 1.5 1.4 2.3 2.1-.7.6-1.3 1.3-2 2-.7-.7-1.4-1.5-2.1-2.2.6-.6 1.2-1.2 1.8-1.9zm.3-172.7c-1.1-1.2-2.2-2.3-3.4-3.4 1.3-1.3 2.5-2.6 3.7-4 1.1 1.3 2.3 2.6 3.7 3.7-1.4 1.1-2.8 2.4-4 3.7zm0 230.3c1.4 1.5 2.9 2.9 4.5 4.1-1.5 1.4-2.9 2.8-4.2 4.3-1.3-1.6-2.6-3.2-4.1-4.6 1.3-1.2 2.6-2.4 3.8-3.8zm.6 75.4c-2.2-4.3-5.2-8.1-8.9-11.2 3.3-2.3 6.1-5.1 8.6-8.2 2.9 3.4 6.5 6.4 10.4 8.5-4.2 2.8-7.6 6.5-10.1 10.9zm59.8-60.7c-2.2-4-5.1-7.6-8.5-10.5 3.1-2.4 5.9-5.3 8.2-8.6 3.1 3.7 6.9 6.7 11.2 8.9-4.4 2.5-8.1 6-10.9 10.2zm-.6-183.5c-1.6-2-3.3-3.9-5.2-5.6 2-1.9 3.9-3.9 5.5-6.2 1.9 2.2 4 4.2 6.4 5.9-2.5 1.7-4.7 3.7-6.7 5.9zm5.7 53.9c-2 1.5-3.9 3.2-5.6 5.1-1.4-1.9-3-3.6-4.7-5.2 1.6-1.5 3.2-3.2 4.6-5.1 1.7 2 3.6 3.7 5.7 5.2zm-5.6 53.7c2.1 2.3 4.4 4.4 7 6.1-2.6 1.7-4.8 3.8-6.8 6.2-1.7-2.4-3.6-4.6-5.7-6.5 2-1.8 3.9-3.8 5.5-5.8zm.2-164.8c-2.1-3-4.7-5.7-7.6-8 3.1-2.7 5.8-6 7.9-9.6 2.6 3.8 6 6.9 9.9 9.3-4 2.1-7.4 5-10.2 8.3zm.2-54.7c-3.2-5.6-7.8-10.2-13.3-13.5 6.9-4.8 11.8-12.3 13.4-20.9 2.3 10.6 10.9 18.9 21.6 20.9-9 1.4-16.7 6.4-21.7 13.5zm59.5 90c4.1 8.5 12.3 14.7 22.1 16-9.4 1.2-17.4 6.6-22.1 14.3-2.8-5.8-7-10.7-12.3-14.3 5.5-3.9 9.8-9.5 12.3-16zm-11.4 75.9c4.8-3.5 8.7-8.2 11.4-13.6 4.1 6.6 10.6 11.6 18.3 13.6-7.8 1.9-14.4 7-18.4 13.7-2.6-5.5-6.5-10.2-11.3-13.7zM296 3.3c.5 0 1-.4 1-1 0-.5-.4-1-1-1-.5 0-1 .4-1 1s.4 1 1 1M354.7 3.8c.8 0 1.5-.7 1.5-1.5s-.7-1.5-1.5-1.5-1.5.7-1.5 1.5c.1.8.7 1.5 1.5 1.5M413.5 4.3c1.1 0 2-.9 2-2s-.9-2-2-2-2 .9-2 2 .9 2 2 2M472.2 4.6c1.3 0 2.3-1 2.3-2.3s-1-2.3-2.3-2.3-2.3 1-2.3 2.3 1.1 2.3 2.3 2.3M531 4.6c1.3 0 2.3-1 2.3-2.3S532.3 0 531 0s-2.3 1-2.3 2.3 1 2.3 2.3 2.3M589.7 4.3c1.1 0 2-.9 2-2s-.9-2-2-2-2 .9-2 2 .9 2 2 2M648.4 3.8c.8 0 1.5-.7 1.5-1.5s-.7-1.5-1.5-1.5-1.5.7-1.5 1.5c.1.8.7 1.5 1.5 1.5M707.2 3.1c.5 0 .8-.4.8-.8s-.4-.8-.8-.8-.8.4-.8.8c0 .5.3.8.8.8M178.5 61.9c.4 0 .8-.4.8-.8s-.4-.8-.8-.8c-.5 0-.8.4-.8.8s.4.8.8.8M237.2 62.9c1 0 1.8-.8 1.8-1.8s-.8-1.8-1.8-1.8-1.8.8-1.8 1.8c.1 1 .9 1.8 1.8 1.8M296 64.2c1.7 0 3.1-1.4 3.1-3.1S297.7 58 296 58s-3.1 1.4-3.1 3.1 1.4 3.1 3.1 3.1M354.7 65.6c2.5 0 4.6-2 4.6-4.6 0-2.5-2-4.6-4.6-4.6-2.5 0-4.6 2-4.6 4.6.1 2.6 2.1 4.6 4.6 4.6M413.5 66.8c3.2 0 5.7-2.6 5.7-5.7s-2.6-5.7-5.7-5.7-5.7 2.6-5.7 5.7 2.5 5.7 5.7 5.7M472.2 67.6c3.6 0 6.5-2.9 6.5-6.5s-2.9-6.5-6.5-6.5-6.5 2.9-6.5 6.5 2.9 6.5 6.5 6.5M531 67.4c3.5 0 6.4-2.8 6.4-6.4s-2.8-6.4-6.4-6.4c-3.5 0-6.3 2.8-6.3 6.4 0 3.6 2.7 6.4 6.3 6.4M589.7 66.6c3.1 0 5.5-2.5 5.5-5.5 0-3.1-2.5-5.5-5.5-5.5-3.1 0-5.5 2.5-5.5 5.5s2.4 5.5 5.5 5.5M648.4 65.5c2.4 0 4.4-2 4.4-4.4s-2-4.4-4.4-4.4-4.4 2-4.4 4.4 2 4.4 4.4 4.4M707.2 63.9c1.5 0 2.8-1.2 2.8-2.8 0-1.5-1.2-2.8-2.8-2.8s-2.8 1.2-2.8 2.8c0 1.5 1.3 2.8 2.8 2.8M765.9 62.7c.9 0 1.6-.7 1.6-1.6s-.7-1.6-1.6-1.6c-.9 0-1.6.7-1.6 1.6s.7 1.6 1.6 1.6M824.7 61.7c.4 0 .6-.3.6-.7s-.3-.7-.6-.7c-.4 0-.7.3-.7.7s.3.7.7.7M119.8 120.8c.5 0 1-.4 1-1 0-.5-.4-1-1-1s-1 .4-1 1 .4 1 1 1M178.5 122.3c1.3 0 2.4-1.1 2.4-2.4 0-1.4-1.1-2.4-2.4-2.4-1.4 0-2.4 1.1-2.4 2.4 0 1.3 1.1 2.4 2.4 2.4M237.2 124.7c2.7 0 4.9-2.2 4.9-4.9s-2.2-4.9-4.9-4.9-4.9 2.2-4.9 4.9c.1 2.7 2.3 4.9 4.9 4.9M296 127.5c4.2 0 7.7-3.4 7.7-7.7 0-4.2-3.4-7.7-7.7-7.7-4.2 0-7.7 3.4-7.7 7.7s3.5 7.7 7.7 7.7M354.7 130.4c5.8 0 10.6-4.7 10.6-10.6s-4.7-10.6-10.6-10.6c-5.8 0-10.6 4.7-10.6 10.6s4.8 10.6 10.6 10.6M413.5 132.7c7.1 0 12.9-5.8 12.9-12.9s-5.8-12.9-12.9-12.9-12.9 5.8-12.9 12.9c0 7.1 5.8 12.9 12.9 12.9M472.2 134c7.8 0 14.2-6.3 14.2-14.2 0-7.8-6.3-14.2-14.2-14.2-7.8 0-14.2 6.3-14.2 14.2s6.4 14.2 14.2 14.2M531 133.8c7.7 0 14-6.3 14-14s-6.3-14-14-14-14 6.3-14 14c-.1 7.8 6.2 14 14 14M589.7 132.4c6.9 0 12.5-5.6 12.5-12.5s-5.6-12.5-12.5-12.5-12.5 5.6-12.5 12.5 5.6 12.5 12.5 12.5M648.4 129.9c5.6 0 10.1-4.5 10.1-10.1s-4.5-10.1-10.1-10.1-10.1 4.5-10.1 10.1 4.6 10.1 10.1 10.1M707.2 127c4 0 7.2-3.2 7.2-7.2s-3.2-7.2-7.2-7.2-7.2 3.2-7.2 7.2 3.2 7.2 7.2 7.2M765.9 124.2c2.4 0 4.4-2 4.4-4.4s-2-4.4-4.4-4.4-4.4 2-4.4 4.4c0 2.5 2 4.4 4.4 4.4M824.7 121.9c1.2 0 2.1-1 2.1-2.1 0-1.2-.9-2.1-2.1-2.1-1.2 0-2.1.9-2.1 2.1-.1 1.2.9 2.1 2.1 2.1M883.4 120.6c.4 0 .8-.4.8-.8s-.4-.8-.8-.8-.8.4-.8.8c0 .5.4.8.8.8M61 179.4c.5 0 .8-.4.8-.8s-.4-.8-.8-.8-.8.4-.8.8.4.8.8.8M119.8 181c1.4 0 2.4-1.1 2.4-2.4 0-1.3-1.1-2.4-2.4-2.4-1.3 0-2.4 1.1-2.4 2.4-.1 1.3 1 2.4 2.4 2.4M178.5 183.8c2.9 0 5.2-2.3 5.2-5.2s-2.3-5.2-5.2-5.2-5.2 2.3-5.2 5.2 2.3 5.2 5.2 5.2M237.2 188c5.2 0 9.4-4.2 9.4-9.4s-4.2-9.5-9.4-9.5-9.4 4.2-9.4 9.5c0 5.2 4.2 9.4 9.4 9.4M296 192.4c7.6 0 13.8-6.2 13.8-13.8s-6.2-13.8-13.8-13.8c-7.7 0-13.8 6.2-13.8 13.8-.1 7.6 6.1 13.8 13.8 13.8M354.7 196.8c10.1 0 18.2-8.2 18.2-18.2 0-10.1-8.2-18.2-18.2-18.2-10.1 0-18.2 8.2-18.2 18.2 0 10.1 8.2 18.2 18.2 18.2M413.5 199.9c11.8 0 21.3-9.6 21.3-21.3s-9.6-21.3-21.3-21.3c-11.8 0-21.3 9.6-21.3 21.3s9.5 21.3 21.3 21.3M472.2 201.5c12.7 0 23-10.3 23-23s-10.3-23-23-23-23 10.3-23 23 10.3 23 23 23M531 201.4c12.6 0 22.8-10.2 22.8-22.8s-10.2-22.8-22.8-22.8-22.8 10.2-22.8 22.8 10.2 22.8 22.8 22.8M589.7 199.4c11.5 0 20.8-9.3 20.8-20.8s-9.3-20.9-20.8-20.9-20.8 9.3-20.8 20.9c0 11.5 9.3 20.8 20.8 20.8M648.4 196.2c9.7 0 17.6-7.9 17.6-17.6 0-9.7-7.9-17.6-17.6-17.6-9.7 0-17.6 7.9-17.6 17.6 0 9.7 7.9 17.6 17.6 17.6M707.2 191.6c7.2 0 13-5.8 13-13s-5.8-13-13-13-13 5.8-13 13c-.1 7.2 5.8 13 13 13M765.9 187.2c4.8 0 8.6-3.9 8.6-8.6 0-4.8-3.9-8.6-8.6-8.6-4.8 0-8.6 3.9-8.6 8.6 0 4.7 3.9 8.6 8.6 8.6M824.7 183.1c2.5 0 4.6-2 4.6-4.6 0-2.5-2-4.6-4.6-4.6-2.5 0-4.6 2-4.6 4.6s2 4.6 4.6 4.6M883.4 180.7c1.2 0 2.1-1 2.1-2.1 0-1.2-.9-2.1-2.1-2.1-1.2 0-2.1.9-2.1 2.1 0 1.1.9 2.1 2.1 2.1M942.1 179.2c.4 0 .7-.3.7-.7s-.3-.7-.7-.7-.7.3-.7.7c.1.4.4.7.7.7M2.3 237.8c.3 0 .5-.2.5-.5s-.2-.5-.5-.5-.5.2-.5.5.2.5.5.5M61 239.1c1 0 1.8-.8 1.8-1.8s-.8-1.8-1.8-1.8-1.8.8-1.8 1.8.8 1.8 1.8 1.8M119.8 242.2c2.7 0 4.9-2.2 4.9-4.9s-2.2-4.9-4.9-4.9-4.9 2.2-4.9 4.9 2.2 4.9 4.9 4.9M178.5 246.8c5.2 0 9.4-4.2 9.4-9.5 0-5.2-4.2-9.4-9.4-9.4s-9.5 4.2-9.5 9.4c.1 5.2 4.3 9.5 9.5 9.5M237.2 253.1c8.7 0 15.8-7.1 15.8-15.8s-7.1-15.8-15.8-15.8c-8.7 0-15.8 7.1-15.8 15.8.1 8.8 7.1 15.8 15.8 15.8"/><path d="M296 259c12 0 21.7-9.7 21.7-21.7s-9.7-21.7-21.7-21.7-21.7 9.7-21.7 21.7S284 259 296 259M707.2 258c11.4 0 20.7-9.3 20.7-20.7s-9.3-20.7-20.7-20.7-20.7 9.3-20.7 20.7c0 11.5 9.3 20.7 20.7 20.7M765.9 252c8.1 0 14.7-6.6 14.7-14.7s-6.6-14.7-14.7-14.7-14.7 6.6-14.7 14.7c.1 8.1 6.6 14.7 14.7 14.7M824.7 245.8c4.7 0 8.5-3.8 8.5-8.5s-3.8-8.5-8.5-8.5-8.5 3.8-8.5 8.5 3.8 8.5 8.5 8.5M883.4 241.6c2.3 0 4.2-1.9 4.2-4.2s-1.9-4.2-4.2-4.2-4.2 1.9-4.2 4.2c0 2.3 1.9 4.2 4.2 4.2M942.1 238.8c.8 0 1.5-.7 1.5-1.5s-.7-1.5-1.5-1.5-1.5.7-1.5 1.5c.1.8.7 1.5 1.5 1.5M2.3 297.1c.5 0 1-.4 1-1 0-.5-.4-1-1-1-.5 0-1 .4-1 1 0 .5.4 1 1 1M61 299.2c1.7 0 3.1-1.4 3.1-3.1S62.7 293 61 293s-3.1 1.4-3.1 3.1 1.4 3.1 3.1 3.1M119.8 303.7c4.2 0 7.7-3.4 7.7-7.7 0-4.2-3.4-7.7-7.7-7.7-4.2 0-7.7 3.4-7.7 7.7 0 4.3 3.4 7.7 7.7 7.7M178.5 309.9c7.6 0 13.8-6.2 13.8-13.8 0-7.6-6.2-13.8-13.8-13.8-7.7 0-13.8 6.2-13.8 13.8 0 7.6 6.2 13.8 13.8 13.8M237.2 317.7c12 0 21.7-9.7 21.7-21.7s-9.7-21.7-21.7-21.7-21.7 9.7-21.7 21.7c.1 12 9.8 21.7 21.7 21.7M765.9 316.4c11.2 0 20.4-9.1 20.4-20.4 0-11.2-9.1-20.4-20.4-20.4-11.2 0-20.4 9.1-20.4 20.4.1 11.3 9.2 20.4 20.4 20.4M824.7 308.8c7 0 12.7-5.7 12.7-12.7s-5.7-12.7-12.7-12.7-12.7 5.7-12.7 12.7 5.6 12.7 12.7 12.7M942.1 298.7c1.4 0 2.6-1.2 2.6-2.6s-1.2-2.6-2.6-2.6c-1.4 0-2.6 1.2-2.6 2.6s1.2 2.6 2.6 2.6M1000.9 296.9c.5 0 .8-.4.8-.8s-.4-.8-.8-.8-.8.4-.8.8.3.8.8.8M2.3 356.3c.8 0 1.5-.7 1.5-1.5s-.7-1.5-1.5-1.5-1.5.7-1.5 1.5.7 1.5 1.5 1.5M61 359.4c2.5 0 4.6-2 4.6-4.6 0-2.5-2-4.6-4.6-4.6-2.5 0-4.6 2-4.6 4.6.1 2.5 2.1 4.6 4.6 4.6M119.8 365.4c5.8 0 10.6-4.7 10.6-10.6s-4.7-10.6-10.6-10.6c-5.8 0-10.6 4.7-10.6 10.6s4.7 10.6 10.6 10.6M178.5 373.1c10.1 0 18.2-8.2 18.2-18.2 0-10.1-8.2-18.2-18.2-18.2-10.1 0-18.2 8.2-18.2 18.2s8.1 18.2 18.2 18.2M765.9 380.4c14.1 0 25.6-11.4 25.6-25.6 0-14.1-11.4-25.6-25.6-25.6-14.1 0-25.6 11.4-25.6 25.6s11.5 25.6 25.6 25.6M824.7 371.8c9.4 0 16.9-7.6 16.9-16.9 0-9.4-7.6-16.9-16.9-16.9-9.4 0-16.9 7.6-16.9 16.9-.1 9.3 7.5 16.9 16.9 16.9M883.4 364.3c5.2 0 9.4-4.2 9.4-9.4s-4.2-9.5-9.4-9.5-9.4 4.2-9.4 9.5c0 5.1 4.2 9.4 9.4 9.4M942.1 358.7c2.2 0 3.9-1.8 3.9-3.9 0-2.2-1.7-3.9-3.9-3.9s-3.9 1.8-3.9 3.9c0 2.2 1.8 3.9 3.9 3.9M1000.9 356c.6 0 1.1-.5 1.1-1.1s-.5-1.1-1.1-1.1-1.1.5-1.1 1.1.5 1.1 1.1 1.1M2.3 415.5c1.1 0 2-.9 2-2s-.9-2-2-2-2 .9-2 2c0 1.2.9 2 2 2M61 419.3c3.2 0 5.7-2.6 5.7-5.7s-2.6-5.7-5.7-5.7-5.7 2.6-5.7 5.7 2.6 5.7 5.7 5.7M119.8 426.4c7.1 0 12.9-5.8 12.9-12.9s-5.8-12.9-12.9-12.9c-7.1 0-12.9 5.8-12.9 12.9s5.8 12.9 12.9 12.9M178.5 434.9c11.8 0 21.3-9.6 21.3-21.3 0-11.8-9.6-21.3-21.3-21.3-11.8 0-21.3 9.6-21.3 21.3 0 11.8 9.5 21.3 21.3 21.3M824.7 433.4c11 0 19.9-8.9 19.9-19.9s-8.9-19.9-19.9-19.9-19.9 8.9-19.9 19.9c0 11.1 8.9 19.9 19.9 19.9M883.4 425.1c6.4 0 11.6-5.2 11.6-11.6s-5.2-11.6-11.6-11.6c-6.4 0-11.6 5.2-11.6 11.6 0 6.5 5.2 11.6 11.6 11.6M942.1 418.5c2.7 0 4.9-2.2 4.9-4.9s-2.2-4.9-4.9-4.9-4.9 2.2-4.9 4.9c.1 2.7 2.3 4.9 4.9 4.9M1000.9 415.2c.9 0 1.6-.7 1.6-1.6s-.7-1.6-1.6-1.6-1.6.7-1.6 1.6.7 1.6 1.6 1.6M2.3 470C1 470 0 471 0 472.3s1 2.3 2.3 2.3 2.3-1 2.3-2.3-1.1-2.3-2.3-2.3M61 465.8c-3.6 0-6.5 2.9-6.5 6.5s2.9 6.5 6.5 6.5 6.5-2.9 6.5-6.5-2.9-6.5-6.5-6.5M119.8 458.1c-7.8 0-14.2 6.3-14.2 14.2 0 7.8 6.3 14.2 14.2 14.2 7.8 0 14.2-6.3 14.2-14.2-.1-7.8-6.4-14.2-14.2-14.2M178.5 449.4c-12.7 0-23 10.3-23 23s10.3 23 23 23 23-10.3 23-23c0-12.8-10.3-23-23-23M824.7 451c-11.8 0-21.3 9.6-21.3 21.3 0 11.8 9.6 21.3 21.3 21.3 11.8 0 21.3-9.6 21.3-21.3 0-11.8-9.6-21.3-21.3-21.3M883.4 459.6c-7 0-12.7 5.7-12.7 12.7s5.7 12.7 12.7 12.7 12.7-5.7 12.7-12.7-5.7-12.7-12.7-12.7M942.1 466.8c-3.1 0-5.5 2.5-5.5 5.5 0 3.1 2.5 5.5 5.5 5.5 3.1 0 5.5-2.5 5.5-5.5.1-3-2.4-5.5-5.5-5.5M1000.9 474.3c1.1 0 2-.9 2-2s-.9-2-2-2-2 .9-2 2 .9 2 2 2M2.3 528.8c-1.3 0-2.3 1-2.3 2.3s1 2.3 2.3 2.3 2.3-1 2.3-2.3-1.1-2.3-2.3-2.3M61 524.7c-3.5 0-6.3 2.8-6.3 6.4 0 3.5 2.8 6.4 6.3 6.4s6.4-2.8 6.4-6.4c0-3.5-2.9-6.4-6.4-6.4M119.8 517.1c-7.7 0-14 6.3-14 14s6.3 14 14 14 14-6.3 14-14c0-7.8-6.3-14-14-14M178.5 508.3c-12.6 0-22.8 10.2-22.8 22.8s10.2 22.8 22.8 22.8 22.8-10.2 22.8-22.8-10.2-22.8-22.8-22.8M824.7 509.7c-11.8 0-21.3 9.6-21.3 21.3 0 11.8 9.6 21.3 21.3 21.3 11.8 0 21.3-9.6 21.3-21.3s-9.6-21.3-21.3-21.3M883.4 518.4c-7 0-12.7 5.7-12.7 12.7s5.7 12.7 12.7 12.7 12.7-5.7 12.7-12.7-5.7-12.7-12.7-12.7M942.1 525.5c-3.1 0-5.5 2.5-5.5 5.5 0 3.1 2.5 5.5 5.5 5.5 3.1 0 5.5-2.5 5.5-5.5.1-3-2.4-5.5-5.5-5.5M1000.9 529.3c-1 0-1.8.8-1.8 1.8s.8 1.8 1.8 1.8 1.8-.8 1.8-1.8-.8-1.8-1.8-1.8M2.3 587.9c-1.1 0-2 .9-2 2s.9 2 2 2 2-.9 2-2c-.1-1.2-.9-2-2-2M61 584.3c-3.1 0-5.5 2.5-5.5 5.5 0 3.1 2.5 5.5 5.5 5.5 3.1 0 5.5-2.5 5.5-5.5.1-3-2.4-5.5-5.5-5.5M119.8 577.3c-6.9 0-12.5 5.6-12.5 12.5s5.6 12.5 12.5 12.5 12.5-5.6 12.5-12.5-5.6-12.5-12.5-12.5M178.5 569c-11.5 0-20.9 9.3-20.9 20.8s9.3 20.9 20.9 20.9c11.5 0 20.8-9.3 20.8-20.9.1-11.5-9.3-20.8-20.8-20.8M824.7 570.4c-10.7 0-19.4 8.7-19.4 19.4s8.7 19.4 19.4 19.4 19.4-8.7 19.4-19.4-8.7-19.4-19.4-19.4M883.4 578.6c-6.2 0-11.2 5-11.2 11.2s5 11.2 11.2 11.2 11.2-5 11.2-11.2-5-11.2-11.2-11.2M942.1 585.1c-2.6 0-4.7 2.1-4.7 4.7s2.1 4.7 4.7 4.7 4.7-2.1 4.7-4.7c.1-2.6-2-4.7-4.7-4.7M1000.9 588.2c-.9 0-1.6.7-1.6 1.6 0 .9.7 1.6 1.6 1.6s1.6-.7 1.6-1.6-.7-1.6-1.6-1.6M2.3 647.1c-.8 0-1.5.7-1.5 1.5s.7 1.5 1.5 1.5 1.5-.7 1.5-1.5-.7-1.5-1.5-1.5M61 644.2c-2.4 0-4.4 2-4.4 4.4s2 4.4 4.4 4.4 4.4-2 4.4-4.4c0-2.5-1.9-4.4-4.4-4.4M119.8 638.5c-5.6 0-10.1 4.5-10.1 10.1s4.5 10.1 10.1 10.1 10.1-4.5 10.1-10.1-4.6-10.1-10.1-10.1M178.5 631c-9.7 0-17.6 7.9-17.6 17.6 0 9.7 7.9 17.6 17.6 17.6 9.7 0 17.6-7.9 17.6-17.6s-7.9-17.6-17.6-17.6M765.9 623.6c-13.8 0-24.9 11.2-24.9 24.9 0 13.8 11.2 24.9 24.9 24.9 13.8 0 24.9-11.2 24.9-24.9s-11.1-24.9-24.9-24.9M824.7 632.3c-9 0-16.3 7.3-16.3 16.3s7.3 16.3 16.3 16.3 16.3-7.3 16.3-16.3-7.3-16.3-16.3-16.3M883.4 639.6c-4.9 0-9 4-9 9s4 9 9 9 9-4 9-9-4-9-9-9M942.1 645c-2 0-3.6 1.6-3.6 3.6s1.6 3.6 3.6 3.6 3.6-1.6 3.6-3.6-1.6-3.6-3.6-3.6M1000.9 647.4c-.6 0-1.1.5-1.1 1.1s.5 1.1 1.1 1.1 1.1-.5 1.1-1.1-.5-1.1-1.1-1.1M61 704.5c-1.5 0-2.8 1.2-2.8 2.8 0 1.5 1.2 2.8 2.8 2.8 1.5 0 2.8-1.2 2.8-2.8 0-1.5-1.2-2.8-2.8-2.8M119.8 700.1c-4 0-7.2 3.2-7.2 7.2s3.2 7.2 7.2 7.2 7.2-3.2 7.2-7.2c-.1-3.9-3.3-7.2-7.2-7.2M178.5 694.3c-7.2 0-13 5.8-13 13s5.8 13 13 13 13-5.8 13-13-5.8-13-13-13M237.2 686.6c-11.4 0-20.7 9.3-20.7 20.7s9.3 20.7 20.7 20.7c11.4 0 20.7-9.3 20.7-20.7s-9.2-20.7-20.7-20.7M707.2 681.2c-14.4 0-26.1 11.7-26.1 26.1 0 14.4 11.7 26.1 26.1 26.1 14.4 0 26.1-11.7 26.1-26.1-.1-14.4-11.7-26.1-26.1-26.1M765.9 687.9c-10.7 0-19.4 8.7-19.4 19.4s8.7 19.4 19.4 19.4 19.4-8.7 19.4-19.4-8.7-19.4-19.4-19.4M824.7 695.4c-6.6 0-11.9 5.3-11.9 11.9s5.3 11.9 11.9 11.9c6.6 0 11.9-5.3 11.9-11.9s-5.4-11.9-11.9-11.9M883.4 701.1c-3.4 0-6.2 2.8-6.2 6.2s2.8 6.2 6.2 6.2 6.2-2.8 6.2-6.2-2.8-6.2-6.2-6.2M942.1 705c-1.3 0-2.3 1-2.3 2.3s1 2.3 2.3 2.3 2.3-1 2.3-2.3c0-1.2-1-2.3-2.3-2.3M61 764.4c-.9 0-1.6.7-1.6 1.6 0 .9.7 1.6 1.6 1.6s1.6-.7 1.6-1.6c.1-.8-.7-1.6-1.6-1.6M119.8 761.7c-2.4 0-4.4 2-4.4 4.4s2 4.4 4.4 4.4 4.4-2 4.4-4.4c0-2.5-2-4.4-4.4-4.4M178.5 757.4c-4.8 0-8.6 3.9-8.6 8.6 0 4.8 3.9 8.6 8.6 8.6 4.8 0 8.6-3.9 8.6-8.6 0-4.7-3.8-8.6-8.6-8.6M237.2 751.4c-8.1 0-14.7 6.6-14.7 14.7s6.6 14.7 14.7 14.7 14.7-6.6 14.7-14.7-6.6-14.7-14.7-14.7M296 745.7c-11.2 0-20.4 9.1-20.4 20.4 0 11.2 9.1 20.4 20.4 20.4 11.2 0 20.4-9.1 20.4-20.4-.1-11.3-9.2-20.4-20.4-20.4M354.7 740.5c-14.1 0-25.6 11.4-25.6 25.6 0 14.1 11.5 25.6 25.6 25.6s25.6-11.5 25.6-25.6c0-14.2-11.4-25.6-25.6-25.6M648.4 741.1c-13.8 0-24.9 11.2-24.9 24.9 0 13.8 11.2 24.9 24.9 24.9 13.8 0 24.9-11.2 24.9-24.9.1-13.7-11.1-24.9-24.9-24.9M707.2 746.7c-10.7 0-19.4 8.7-19.4 19.4s8.7 19.4 19.4 19.4 19.4-8.7 19.4-19.4-8.7-19.4-19.4-19.4M765.9 752.4c-7.6 0-13.7 6.1-13.7 13.7s6.1 13.7 13.7 13.7 13.7-6.1 13.7-13.7-6.1-13.7-13.7-13.7M824.7 758.2c-4.3 0-7.8 3.5-7.8 7.8s3.5 7.8 7.8 7.8 7.8-3.5 7.8-7.8-3.5-7.8-7.8-7.8M883.4 762.3c-2.1 0-3.7 1.7-3.7 3.7 0 2.1 1.7 3.7 3.7 3.7 2.1 0 3.8-1.7 3.8-3.7s-1.7-3.7-3.8-3.7M942.1 764.8c-.7 0-1.3.6-1.3 1.3s.6 1.3 1.3 1.3 1.3-.6 1.3-1.3c.1-.8-.5-1.3-1.3-1.3M119.8 822.7c-1.2 0-2.1.9-2.1 2.1 0 1.2.9 2.1 2.1 2.1 1.2 0 2.1-.9 2.1-2.1 0-1.2-1-2.1-2.1-2.1M178.5 820.3c-2.5 0-4.6 2-4.6 4.6 0 2.5 2 4.6 4.6 4.6 2.5 0 4.6-2 4.6-4.6s-2.1-4.6-4.6-4.6M237.2 816.3c-4.7 0-8.5 3.8-8.5 8.5s3.8 8.5 8.5 8.5 8.5-3.8 8.5-8.5-3.8-8.5-8.5-8.5M296 812.1c-7 0-12.7 5.7-12.7 12.7s5.7 12.7 12.7 12.7 12.7-5.7 12.7-12.7-5.7-12.7-12.7-12.7M354.7 807.9c-9.4 0-16.9 7.6-16.9 16.9 0 9.4 7.6 16.9 16.9 16.9 9.4 0 16.9-7.6 16.9-16.9.1-9.3-7.5-16.9-16.9-16.9M413.5 804.9c-11 0-19.9 8.9-19.9 19.9s8.9 19.9 19.9 19.9 19.9-8.9 19.9-19.9c-.1-11-9-19.9-19.9-19.9M472.2 803.5c-11.8 0-21.3 9.6-21.3 21.3 0 11.8 9.6 21.3 21.3 21.3 11.8 0 21.3-9.6 21.3-21.3.1-11.8-9.5-21.3-21.3-21.3M531 803.5c-11.8 0-21.3 9.6-21.3 21.3 0 11.8 9.6 21.3 21.3 21.3 11.8 0 21.3-9.6 21.3-21.3 0-11.8-9.6-21.3-21.3-21.3M589.7 805.4c-10.7 0-19.4 8.7-19.4 19.4s8.7 19.4 19.4 19.4 19.4-8.7 19.4-19.4-8.7-19.4-19.4-19.4M648.4 808.5c-9 0-16.3 7.3-16.3 16.3s7.3 16.3 16.3 16.3 16.3-7.3 16.3-16.3-7.3-16.3-16.3-16.3M707.2 812.9c-6.6 0-11.9 5.3-11.9 11.9 0 6.6 5.3 11.9 11.9 11.9 6.6 0 11.9-5.3 11.9-11.9 0-6.6-5.3-11.9-11.9-11.9M765.9 817c-4.3 0-7.8 3.5-7.8 7.8s3.5 7.8 7.8 7.8 7.8-3.5 7.8-7.8-3.5-7.8-7.8-7.8M824.7 820.7c-2.3 0-4.1 1.8-4.1 4.1 0 2.2 1.8 4.1 4.1 4.1 2.2 0 4.1-1.8 4.1-4.1-.1-2.2-1.9-4.1-4.1-4.1M883.4 823c-1 0-1.8.8-1.8 1.8s.8 1.8 1.8 1.8 1.8-.8 1.8-1.8-.8-1.8-1.8-1.8M178.5 881.4c-1.2 0-2.1.9-2.1 2.1 0 1.2.9 2.1 2.1 2.1 1.2 0 2.1-1 2.1-2.1s-.9-2.1-2.1-2.1M237.2 879.3c-2.3 0-4.2 1.9-4.2 4.2s1.9 4.2 4.2 4.2c2.3 0 4.2-1.9 4.2-4.2.1-2.3-1.8-4.2-4.2-4.2M354.7 874.1c-5.2 0-9.4 4.2-9.4 9.5 0 5.2 4.2 9.4 9.4 9.4s9.4-4.2 9.4-9.4c.1-5.3-4.1-9.5-9.4-9.5M413.5 872c-6.4 0-11.6 5.2-11.6 11.6 0 6.4 5.2 11.6 11.6 11.6s11.6-5.2 11.6-11.6c-.1-6.4-5.2-11.6-11.6-11.6M472.2 870.9c-7 0-12.7 5.7-12.7 12.7s5.7 12.7 12.7 12.7 12.7-5.7 12.7-12.7c0-7.1-5.7-12.7-12.7-12.7M531 870.9c-7 0-12.7 5.7-12.7 12.7s5.7 12.7 12.7 12.7 12.7-5.7 12.7-12.7c0-7.1-5.7-12.7-12.7-12.7M589.7 872.3c-6.2 0-11.2 5-11.2 11.2s5 11.2 11.2 11.2 11.2-5 11.2-11.2c0-6.1-5-11.2-11.2-11.2M648.4 874.6c-4.9 0-9 4-9 9 0 4.9 4 9 9 9s9-4 9-9-4-9-9-9M707.2 877.4c-3.4 0-6.2 2.8-6.2 6.2s2.8 6.2 6.2 6.2 6.2-2.8 6.2-6.2-2.8-6.2-6.2-6.2M765.9 879.8c-2.1 0-3.7 1.7-3.7 3.7s1.7 3.7 3.7 3.7 3.7-1.7 3.7-3.7-1.6-3.7-3.7-3.7M824.7 881.8c-1 0-1.8.8-1.8 1.8s.8 1.8 1.8 1.8 1.8-.8 1.8-1.8-.8-1.8-1.8-1.8M237.2 940.8c-.8 0-1.5.7-1.5 1.5s.7 1.5 1.5 1.5 1.5-.7 1.5-1.5-.6-1.5-1.5-1.5M296 939.7c-1.4 0-2.6 1.2-2.6 2.6 0 1.4 1.2 2.6 2.6 2.6s2.6-1.2 2.6-2.6-1.2-2.6-2.6-2.6M354.7 938.4c-2.2 0-3.9 1.8-3.9 3.9 0 2.2 1.8 3.9 3.9 3.9 2.2 0 3.9-1.8 3.9-3.9s-1.7-3.9-3.9-3.9M413.5 937.4c-2.7 0-4.9 2.2-4.9 4.9s2.2 4.9 4.9 4.9 4.9-2.2 4.9-4.9-2.2-4.9-4.9-4.9M472.2 936.8c-3.1 0-5.5 2.5-5.5 5.5 0 3.1 2.5 5.5 5.5 5.5 3.1 0 5.5-2.5 5.5-5.5.1-3-2.4-5.5-5.5-5.5M531 936.8c-3.1 0-5.5 2.5-5.5 5.5 0 3.1 2.5 5.5 5.5 5.5 3.1 0 5.5-2.5 5.5-5.5s-2.5-5.5-5.5-5.5M589.7 937.6c-2.6 0-4.7 2.1-4.7 4.7s2.1 4.7 4.7 4.7 4.7-2.1 4.7-4.7-2.1-4.7-4.7-4.7M648.4 938.7c-2 0-3.6 1.6-3.6 3.6s1.6 3.6 3.6 3.6 3.6-1.6 3.6-3.6-1.6-3.6-3.6-3.6M707.2 940c-1.3 0-2.3 1-2.3 2.3s1 2.3 2.3 2.3 2.3-1 2.3-2.3c0-1.2-1.1-2.3-2.3-2.3M765.9 941c-.7 0-1.3.6-1.3 1.3s.6 1.3 1.3 1.3 1.3-.6 1.3-1.3-.6-1.3-1.3-1.3M296 1000.2c-.4 0-.8.4-.8.8s.4.8.8.8.8-.4.8-.8-.4-.8-.8-.8M354.7 999.9c-.6 0-1.1.5-1.1 1.1s.5 1.1 1.1 1.1 1.1-.5 1.1-1.1c.1-.6-.4-1.1-1.1-1.1M413.5 999.4c-.9 0-1.6.7-1.6 1.6s.7 1.6 1.6 1.6 1.6-.7 1.6-1.6c0-.8-.7-1.6-1.6-1.6M472.2 999.1c-1.1 0-2 .9-2 2s.9 2 2 2 2-.9 2-2-.9-2-2-2M531 999.3c-1 0-1.8.8-1.8 1.8s.8 1.8 1.8 1.8 1.8-.8 1.8-1.8c-.1-1-.9-1.8-1.8-1.8M589.7 999.4c-.9 0-1.6.7-1.6 1.6s.7 1.6 1.6 1.6c.9 0 1.6-.7 1.6-1.6 0-.8-.7-1.6-1.6-1.6M648.4 999.9c-.6 0-1.1.5-1.1 1.1s.5 1.1 1.1 1.1 1.1-.5 1.1-1.1c.1-.6-.4-1.1-1.1-1.1M883.4 300.7c4.2 0 7.7-3.4 7.7-7.7 0-4.2-3.4-7.7-7.7-7.7-4.2 0-7.7 3.4-7.7 7.7 0 4.3 3.4 7.7 7.7 7.7M296.8 879.4c-3.5 0-6.2 2.8-6.2 6.2s2.8 6.2 6.2 6.2 6.2-2.8 6.2-6.2-2.7-6.2-6.2-6.2"/></svg>