<?xml version="1.0" encoding="utf-8"?>
<!-- Generator: Adobe Illustrator 21.0.0, SVG Export Plug-In . SVG Version: 6.00 Build 0)  -->
<svg version="1.1" id="Слой_1" xmlns="http://www.w3.org/2000/svg" xmlns:xlink="http://www.w3.org/1999/xlink" x="0px" y="0px"
	 viewBox="0 0 400 400" style="enable-background:new 0 0 400 400;" xml:space="preserve">
<style type="text/css">
	.st0{fill:#05D1C4;}
	.st1{fill:#E94142;}
	.st2{fill:#FFFFFF;}
</style>
<g id="Group-20">
	<path id="Fill-1" class="st0" d="M306.3,211.7c10.3-30.6,16.2-62.8,15.5-94.5l-0.5-18.1c-51.2-8.1-106.8-34-156.5-84.8
		C115.3,64.8,60.1,90.7,9,99v47c0.2,0.9,0.2,1.9,0.3,3c1.9,17.2,5.5,34.4,10.3,51.1c5.2,17.5,11.9,34.7,19.7,51.1
		c2.5,5.2,5.2,10.3,7.8,15.5c23.4,43.9,56.1,87.1,99.3,113.1c6.4,3.7,12.5,5.8,18.4,5.8c6.1,0,12-1.9,18.4-5.8
		c13.7-8.3,26.4-18.1,37.9-29.4V221.4c0-5.2,4.2-9.4,9.4-9.4h75.7V211.7z M161.3,92.7c-11.1,0-20,8.9-20,20s8.9,20,20,20
		s20-8.9,20-20S172.3,92.7,161.3,92.7z M143.5,200c0-11.1,8.9-20,20-20s20,8.9,20,20s-8.9,20-20,20C152.5,220,143.5,211.1,143.5,200
		z M161.3,267.1c-11.1,0-20,9.1-20,20.1c0,11.1,8.9,20,20,20s20-9.1,20-20C181.2,276,172.3,267.1,161.3,267.1z"/>
	<path id="Fill-3" class="st1" d="M392.1,359.1V221.2c0-5.2-4.2-9.4-9.5-9.4h-76.2h-75.6c-5.2,0-9.4,4.2-9.4,9.4v128.8v9.1
		c0,5.2,4.2,9.4,9.4,9.4h151.9C387.8,368.6,392.1,364.4,392.1,359.1"/>
	<path id="Fill-5" class="st2" d="M161.3,132.8c11.1,0,20-8.9,20-20s-8.9-20-20-20s-20,8.9-20,20
		C141.3,123.8,150.2,132.8,161.3,132.8"/>
	<path id="Fill-7" class="st2" d="M183.6,200c0-11.1-8.9-20-20-20s-20,8.9-20,20s8.9,20,20,20C174.5,220,183.6,211.1,183.6,200"/>
	<path id="Fill-9" class="st2" d="M181.2,287.1c0-11.1-8.9-20.1-20-20.1s-20,9.1-20,20.1c0,11.1,8.9,20,20,20
		C172.3,307.3,181.2,298.2,181.2,287.1"/>
	<path id="Fill-11" class="st2" d="M288.2,245.9c3.3,0,6.1,2,7.3,5l27.2,69.6c1.4,3.7-0.2,8.1-3.9,9.8c-4.1,2-9.1,0-10.8-4.2
		l-5-12.6h-29.7l-5,12.6c-1.6,4.1-6.1,5.9-10.2,4.4c-4.1-1.6-5.9-6.1-4.4-10.2l27.2-69.6C282.1,247.8,285.1,245.9,288.2,245.9z
		 M288.2,275.1l-8.9,22.6H297L288.2,275.1z"/>
	<path id="Fill-13" class="st2" d="M348,331.2c4.4,0,7.8-3.4,7.8-7.8v-69.6c0-4.4-3.4-7.8-7.8-7.8s-7.8,3.4-7.8,7.8v69.6
		C340.2,327.6,343.7,331.2,348,331.2"/>
	<path d="M382.5,203.9h-65.6c9.1-29.8,13.3-59,12.6-86.8L329.1,99c-0.2-3.7-2.8-7-6.6-7.5c-38.4-6.1-96-25.3-152.1-82.5
		c-1.4-1.6-3.4-2.3-5.6-2.3c-2.2,0-4.1,0.8-5.6,2.3C103.2,66.2,45.5,85.4,7.1,91.5c-3.7,0.6-6.6,3.7-6.6,7.5l-0.5,18.1
		c-0.3,10.8,0.3,21.4,1.2,31.7v0.2c0,0.6,0,1.2,0.2,1.7c4.4,39.8,17.3,75.6,30.5,103.2c0.2,0.3,0.3,0.6,0.5,0.8
		c2.7,5.5,5.2,10.6,7.8,15.3c28.7,53.7,63.1,92.8,102.1,116c7.7,4.5,15.1,6.9,22.5,6.9s14.7-2.2,22.5-6.9
		c9.4-5.6,18.7-12.3,27.6-19.8c2.7,5.9,8.7,10.2,15.8,10.2h40.8c4.4,0,7.8-3.4,7.8-7.8c0-4.4-3.4-7.8-7.8-7.8h-40.8
		c-0.9,0-1.6-0.8-1.6-1.6V221.2c0-0.9,0.8-1.6,1.6-1.6h151.9c0.9,0,1.7,0.8,1.7,1.6v137.9c0,0.9-0.8,1.6-1.7,1.6h-40.9
		c-4.4,0-7.8,3.4-7.8,7.8c0,4.4,3.4,7.8,7.8,7.8h40.9c9.5,0,17.3-7.8,17.3-17.3V221.1C399.9,211.7,392.1,203.9,382.5,203.9z
		 M300.7,203.9h-70c-9.5,0-17.2,7.8-17.2,17.3v125.6c-10.9,10.3-22.5,19.1-34.2,26.1c-5.3,3.1-10,4.7-14.5,4.7s-9.2-1.6-14.5-4.7
		C113.8,351,81.3,314,54,262.8c-0.6-1.2-1.4-2.5-2-3.9h42.9l6.9,30.1c0,0.2,0.2,0.3,0.2,0.5c0.9,3.3,3.9,5.6,7.5,5.6h25
		c3.4,11.6,14.1,20,26.7,20c15.3,0,27.8-12.5,27.8-28s-12.5-28-27.8-28c-12.6,0-23.3,8.4-26.7,20.1h-18.7l-6.9-30.1
		c0-0.2,0-0.3-0.2-0.3c-0.9-3.3-3.9-5.6-7.5-5.6H44.3c-5-10.8-9.8-22.6-14.1-35.3h106.5c3.4,11.6,14.1,20,26.7,20
		c15.3,0,27.8-12.5,27.8-28c0-15.3-12.5-28-27.8-28c-12.6,0-23.3,8.4-26.7,20H25.4c-3.1-11.2-5.6-23.1-7.3-35.3H101
		c3,0,5.6-1.7,7-4.2c0.3-0.3,0.5-0.8,0.6-1.7l7-30.3h18.9c3.4,11.6,14.1,20,26.7,20c15.3,0,27.8-12.5,27.8-28
		c0-15.3-12.5-28-27.8-28c-12.6,0-23.3,8.4-26.7,20h-25c-3.6,0-6.7,2.5-7.5,5.9v0.2l-6.9,30.1H16.5c-0.6-7.8-0.8-15.6-0.6-23.7
		l0.3-11.7c53.7-10,104.9-37.6,148.8-80.3c43.9,42.8,95.1,70.4,148.8,80.3l0.3,11.7C314.6,145,310.2,174.1,300.7,203.9z
		 M149.1,287.1c0-6.7,5.5-12.2,12.2-12.2s12.2,5.5,12.2,12.2c0,6.7-5.5,12.2-12.2,12.2S149.1,293.8,149.1,287.1z M151.3,200
		c0-6.7,5.5-12.2,12.2-12.2s12.2,5.5,12.2,12.2s-5.5,12.2-12.2,12.2S151.3,206.7,151.3,200z M149.1,112.7c0-6.7,5.5-12.2,12.2-12.2
		s12.2,5.5,12.2,12.2s-5.5,12.2-12.2,12.2C154.5,125,149.1,119.6,149.1,112.7z"/>
	<path id="Fill-18" d="M306.6,360.8c-4.4,0-7.8,3.4-7.8,7.8s3.4,7.8,7.8,7.8l0,0c4.4,0,7.8-3.4,7.8-7.8S311,360.8,306.6,360.8"/>
</g>
</svg>
