<?xml version="1.0" encoding="utf-8"?>
<!-- Generator: Adobe Illustrator 21.0.0, SVG Export Plug-In . SVG Version: 6.00 Build 0)  -->
<svg version="1.1" id="Слой_1" xmlns="http://www.w3.org/2000/svg" xmlns:xlink="http://www.w3.org/1999/xlink" x="0px" y="0px"
	 viewBox="0 0 50 50" style="enable-background:new 0 0 50 50;" xml:space="preserve">
<circle style="fill:#FD98C7;" cx="25" cy="25" r="25"/>
<g>
	<path style="fill:#05D1C4;" d="M33.9,11.1c0.3,0.2,0.5,0.4,0.7,0.6c-0.7-1.9-1.8-3.6-3.3-5c-1-1-2.3-1.9-3.6-2.5
		C26.9,4,26,4,25.1,4C18,4,12.2,9.6,12.2,16.5v1.8c0.3-0.1,0.6-0.1,1-0.1l0.4,0c1-4.7,4.8-8.3,9.9-9.1c0.2-0.4,0.4-0.7,0.8-0.7
		c0.6,0,1.1,0.5,1.1,1.1V11c0,3.2,2.7,5.8,6,5.8H35v-0.2C35,14.6,34.7,12.8,33.9,11.1z"/>
	<path style="fill:#05D1C4;" d="M13.3,26c-0.3,0-0.8-0.1-1.2-0.1c0.1,1.7,1.3,3.6,2.8,4.2C14.1,28.8,13.6,27.4,13.3,26L13.3,26z"/>
	<path style="fill:#05AF9F;" d="M37,26c-0.3,1.4-0.7,2.9-1.5,4.1c1.4-0.9,2.5-2.1,2.6-4.3C37.8,25.9,37,26,37,26z"/>
	<path style="fill:#05AF9F;" d="M37.1,17.9c0,0.1,0,0.2-0.1,0.4l0,0c0.3,0,0.6,0.2,1.3,0.1c0.3-3.1-0.7-6.6-2.1-8.7
		c-0.3-0.5,0.2-1.3,0.3-1.4c-0.6-0.8-1.5-1.7-2.3-2.4c0,0.1-1.2,0.7-1.7,0.3c-1.4-1-3-1.6-4.7-1.9c1.2,0.6,2.4,1.5,3.4,2.4
		c1.4,1.4,2.6,3.1,3.3,5c-0.2-0.3-0.5-0.5-0.7-0.7c0.8,1.7,1.2,3.5,1.2,5.5l0,0.3l1,0C36.6,17,37.1,17.3,37.1,17.9z"/>
	<path style="fill:#FFFFFF;" d="M11.3,22.1c0,0.9,0.8,1.7,1.7,1.7v-3.4c0-0.1,0-0.1,0-0.1C12.1,20.4,11.3,21.2,11.3,22.1z"/>
	<path style="fill:#FFFFFF;" d="M38.9,22.1c0-0.9-0.8-1.7-1.7-1.7c0,0.1,0,0.1,0,0.1v3.4C38.1,23.8,38.9,23.1,38.9,22.1z"/>
	<path style="fill:#D9DBDB;" d="M24.7,15.5c0.9,2.8,3.5,5.1,6.8,5.1l3.7,0l-0.1-1.7C35.1,18.9,25.6,16.8,24.7,15.5z"/>
	<path style="fill:#E94142;" d="M36.2,41.8l-2.8-0.9c-0.9,3.6-4.4,6.3-8.3,6.3c-5.8,0-8.5-6-8.5-6s-4.7,1.8-7.3,3.3
		C13.7,48,19.1,50,25,50c5.2,0,10.1-1.6,14.1-4.3C38.5,44.1,37.5,42.8,36.2,41.8z"/>
	<path style="fill:#E86B7B;" d="M36.2,41.7c1.3,1,2.3,2.4,2.9,3.9c0.7-0.4,1.3-0.9,1.9-1.4c-0.9-0.9-2-1.6-3.3-2L36.2,41.7z"/>
	<path style="fill:#FFFFFF;" d="M31.5,20.6c-3.2,0-5.7-2.2-6.7-5c-0.5-0.8-1.3-3-1.4-4.6c-4.5,0.9-8.1,5-8.1,9.6v3.9
		c0,2.9,1.6,5.7,4,7.4c0.6,0.4,1.2,0.8,1.9,1.1c1.2,0.5,2.5,0.8,3.9,0.8c1.6,0,3.2-0.1,4.5-0.8c0.5-0.2,2.2-1.2,2.4-1.4
		c1.9-1.6,3.4-4.4,3.5-7v-4C35.3,20.6,31.5,20.6,31.5,20.6z"/>
	<path style="fill:#FFFFFF;" d="M28.1,36.4c-1,0.3-1.9,0.4-3,0.4s-2.2-0.2-3.1-0.5l-0.1,3.2l-2,0.4l-0.8,0.2l-0.4,0.2
		c0,0,0.1,0.5,0.7,1.5c1.1,2,3.3,3.4,5.7,3.4c3,0,5.7-2.2,6.3-5L28.1,36.4z"/>
	<path d="M29.3,23.6c0.6,0,1.1-0.5,1.1-1.1v-0.8c0-0.6-0.5-1.1-1.1-1.1s-1.1,0.5-1.1,1.1v0.8C28.2,23.1,28.7,23.6,29.3,23.6z"/>
	<path style="fill:#D9DBDB;" d="M28.1,36.4v-1c-1,0.3-2.1,0.4-3.1,0.4s-2-0.1-3-0.4v0.9c1,0.3,2,0.5,3,0.5
		C26.1,36.8,27.2,36.7,28.1,36.4z"/>
	<path d="M42.2,42.3c-0.5-0.4-1.7-1.2-2.3-1.5c-0.4-0.2-7.6-2.5-9.5-3.1v-3c1-0.5,1.9-1.1,2.7-1.8c4-0.2,7.2-3.3,7.2-7.3v-1.1
		c0.6-0.7,0.9-1.5,0.9-2.4s-0.3-1.7-0.9-2.4v-3.2c0-2.8-0.8-5.6-2.4-7.9c-0.3-0.4-0.8-0.6-1.3-0.4c-0.2,0.1-0.1,0-0.2,0.1
		c-0.5,0.3-0.7,1-0.3,1.5c1.3,2,2.1,4.4,2.1,6.8v1.8c-0.3-0.1-0.6-0.1-1-0.1l0,0c0-0.1,0.1-0.2,0.1-0.4c0-0.6-0.5-1.1-1.1-1.1h-1
		h-3.7c-3.3,0-6-2.6-6-5.8V9.4c0-0.6-0.5-1.1-1.1-1.1c-0.5,0-0.9,0.3-1,0.7c-5,0.8-8.9,4.5-9.9,9.2h-0.2c-0.3,0-0.6,0-1,0.1v-1.8
		C12.1,9.7,17.9,4,25.1,4c1,0,1.9,0.1,2.8,0.3c1.7,0.4,3.3,1,4.7,2c0.5,0.4,1.2,0.2,1.6-0.2l0.1-0.2c0.2-0.4,0.1-1-0.4-1.3
		c-2.6-1.8-5.6-2.8-8.8-2.8c-8.4,0-15.2,6.6-15.2,14.6v2V19l0.1,6l0,0v0.5v0.1c0,3.9,3.2,7.1,7.2,7.3c0.8,0.7,1.7,1.3,2.7,1.8v3
		c0,0-8.5,3.2-12.2,5.4c0.3,0.3,0.6,0.6,0.9,0.8c0.2,0.2,0.5,0.4,0.7,0.6c2.5-1.5,7.3-3.3,7.3-3.3s2.7,6,8.5,6c4,0,7.4-2.7,8.3-6.3
		l2.8,0.9l1.4,0.4c1.3,0.4,2.5,1.2,3.4,2.1c0.2-0.2,1.3-1.2,1.6-1.5C42.6,42.7,42.3,42.4,42.2,42.3z M37.2,20.5v-0.1
		c1,0,1.7,0.8,1.7,1.7s-0.8,1.7-1.7,1.7V20.5z M37,26L37,26c0.4,0,0.7,0,1-0.1c0,1.7-1,3.2-2.4,4.1C36.3,28.8,36.8,27.4,37,26z
		 M11.3,22.1c0-0.9,0.8-1.7,1.7-1.7v0.1v3.4C12.1,23.8,11.3,23.1,11.3,22.1z M12.2,25.9c0.3,0.1,0.6,0.1,1,0.1h0.1
		c0.2,1.4,0.7,2.7,1.5,4C13.2,29.1,12.3,27.6,12.2,25.9z M19.3,31.8L19.3,31.8c-2.3-1.7-3.9-4.5-3.9-7.4v-3.9c0-4.5,3.3-8.4,7.8-9.3
		c0,0,0,0,0.1,0c0.1,3.7,3,7.2,6.7,7.6c0.1,0,5.2,0.1,5.2,0.1l0.1,1.6v3.9c0,0.2,0,0.4,0,0.6c-0.2,2.4-1.4,4.6-3.2,6.2
		c-0.2,0.2-0.5,0.4-0.8,0.6c-0.4,0.3-0.9,0.6-1.4,0.9c-1.3,0.7-2.8,1.1-4.4,1.1l0,0l0,0c-1.3,0-2.6-0.3-3.8-0.8
		C20.5,32.6,19.9,32.3,19.3,31.8z M25.1,45.1c-2.3,0-4.4-1.2-5.6-3.2c-0.6-1-0.7-1.6-0.7-1.6l0.2-0.1l0.8-0.3V40l0,0v0.2
		c0,0.6,0.5,1.1,1.1,1.1s1.1-0.5,1.1-1.1v-0.7v-3.1v-0.9c1,0.2,2,0.4,3,0.4s2-0.1,3-0.4v0.9v3v0.7c0,0.6,0.5,1.1,1.1,1.1
		s1.1-0.5,1.1-1.1V40l1,0.3C30.7,43,28.1,45.1,25.1,45.1z"/>
	<path d="M21.9,22.5v-0.8c0-0.6-0.5-1.1-1.1-1.1s-1.1,0.5-1.1,1.1v0.8c0,0.6,0.5,1.1,1.1,1.1C21.4,23.5,21.9,23,21.9,22.5z"/>
</g>
</svg>
