<?xml version="1.0" encoding="utf-8"?>
<!-- Generator: Adobe Illustrator 21.0.0, SVG Export Plug-In . SVG Version: 6.00 Build 0)  -->
<svg version="1.1" id="Слой_1" xmlns="http://www.w3.org/2000/svg" xmlns:xlink="http://www.w3.org/1999/xlink" x="0px" y="0px"
	 viewBox="0 0 400 400" style="enable-background:new 0 0 400 400;" xml:space="preserve">
<style type="text/css">
	.st0{fill:#E5554E;}
	.st1{fill:#C62430;}
	.st2{fill:#FCFCFC;}
</style>
<g id="Group-44" transform="translate(7.5 7.5)">
	<path class="st0" d="M192.5,54.3c-76.4,0-138.3,61.9-138.3,138.3s61.9,138.2,138.4,138.2c76.4,0,138.4-61.9,138.4-138.2
		C330.9,116.3,268.9,54.3,192.5,54.3z M192.5,300.6c-59.7,0-108.1-48.3-108.1-108c0-24.3,8-46.8,21.6-64.8L257.3,279
		C239.3,292.7,216.8,300.6,192.5,300.6z M278.8,257.7L127.4,106.5c18.1-13.7,40.6-21.8,65.1-21.8c59.7,0,108.1,48.3,108.1,108
		C300.6,217.1,292.5,239.7,278.8,257.7z"/>
	<path id="Fill-3" class="st1" d="M192.5,54.3c-2.8,0-5.6,0.1-8.3,0.2c72.5,4.3,129.9,64.5,129.9,137.9s-57.4,133.6-129.9,137.9
		c2.8,0.1,5.6,0.2,8.3,0.2c76.4,0,138.3-61.9,138.3-138.2C330.9,116.3,268.9,54.3,192.5,54.3"/>
	<path id="Fill-11" d="M293.3,92.1c-26.9-26.9-62.7-41.7-100.8-41.7S118.7,65.1,91.7,92.1C64.8,118.9,50,154.6,50,192.7
		c0,36.3,13.7,70.8,38.5,97.3c24.7,26.4,58.1,42.2,94,44.8c2.3,0.1,4.3-1.6,4.5-3.9s-1.6-4.3-3.9-4.5c-33.8-2.3-65.2-17.3-88.5-42.1
		c-23.3-24.9-36.2-57.4-36.2-91.7c0-35.8,13.9-69.5,39.3-94.7c25.4-25.4,59-39.3,94.9-39.3s69.5,13.9,94.9,39.3
		c25.4,25.3,39.3,59,39.3,94.7c0,34.2-12.9,66.7-36.2,91.6c-23.3,24.8-54.7,39.7-88.5,42.1c-2.3,0.1-4,2.1-3.9,4.5
		c0.1,2.2,2,3.9,4.1,3.9c0.1,0,0.2,0,0.3,0c36-2.4,69.2-18.4,94-44.8c24.8-26.5,38.5-61,38.5-97.3C335,154.5,320.2,118.8,293.3,92.1
		"/>
	<path d="M214,114.9c-8,0-14.8,2.6-19.8,7.1c-2-4.2-6.2-7-11.4-7c-7,0-12.1,4.9-12.7,11.7l-4-5.7c-2.9-4-6.8-6.1-11.2-6.1
		c-3.8,0-7,1.3-9.2,3.7L133.8,107c14.7-10,31.6-16.1,49.3-17.7c2.3-0.2,4-2.2,3.8-4.6c-0.2-2.3-2.2-4-4.6-3.8
		c-20.8,1.8-40.7,9.5-57.6,22.2c-1,0.8-1.6,1.9-1.7,3c-0.1,1.2,0.3,2.3,1.2,3.2l17.5,17.5c0,0.3,0,0.7,0,1v35.6
		c0,7.5,5.3,12.9,12.7,12.9c7,0,12.1-4.9,12.7-11.8l4.1,5.7c3,4.1,6.7,6.1,11.4,6.1c2.7,0,5-0.7,7-1.9l11.2,11.2
		c0.8,0.8,1.9,1.2,3,1.2s2.1-0.4,3-1.2c1.7-1.7,1.7-4.2,0-5.9l-6.1-6.1c3.9,1.9,8.5,2.9,13.4,2.9c17.6,0,29.4-12.4,29.4-30.8
		C243.4,127.3,231.6,114.9,214,114.9z M214,152.3c-2.9,0-3.3-4.1-3.3-6.6c0-2,0.3-6.6,3.3-6.6s3.3,4.6,3.3,6.6
		C217.3,148.3,216.9,152.3,214,152.3z"/>
	<path d="M275.1,116.7c-18.9-20.6-44.8-33.3-72.6-35.8c-2.3-0.2-4.3,1.4-4.6,3.8c-0.2,2.3,1.4,4.3,3.8,4.6
		c25.7,2.3,49.5,14,67.1,33.2c17.7,19.1,27.4,44.1,27.4,70.2c0,21.2-6.2,41.3-18.1,58.7l-12-11.9c-0.3-3.2-1.4-6.8-4-9.9
		c1.8-2.1,2.8-4.8,2.8-7.8c0-1.7-0.2-3.2-0.8-4.7c-3.1-9-12.1-14.6-23.7-14.6c-3.6,0-6.8,0.6-9.8,1.6l-10.2-10.2
		c-1.7-1.7-4.2-1.7-5.9,0s-1.7,4.2,0,5.9l8.6,8.6c-1.2,1-2.3,2.2-3.3,3.5c-5-5.3-12.4-8.5-21.4-8.5H187l-78-78.3
		c-0.9-0.9-2-1.3-3.2-1.2s-2.3,0.7-3,1.7c-14.7,19.5-22.4,42.8-22.4,67.2c0,61.8,50.3,112.1,112.2,112.1c24.5,0,47.8-7.8,67.4-22.4
		c1-0.8,1.6-1.9,1.7-3c0.1-1.2-0.3-2.3-1.2-3.2l-13-12.9c8.6-1.6,14.9-6.5,17.7-13.4l10.9,10.9c0.8,0.8,1.9,1.2,3,1.2
		c0.1,0,0.2,0,0.3,0c1.2-0.1,2.3-0.7,3-1.7c14.8-19.6,22.7-43,22.7-67.6C304.7,164.6,294.3,137.5,275.1,116.7z M199.4,227.5
		c1.2,0.4,2.1,1.7,2.1,5.5c0,4-0.9,5.3-2.1,5.7V227.5z M250.8,278.6c-17.3,11.7-37.3,17.9-58.3,17.9c-57.3,0-103.9-46.5-103.9-103.8
		c0-21,6.2-41.1,17.9-58.3l71.7,71.6c-2.9,2.3-4.6,5.9-4.6,10.2v1.4l-1.7-4.6c-2.4-6.8-7.7-10.6-14.8-10.6c-7,0-12.1,3.8-14.6,10.6
		l-11.8,32.1v0.1c-0.7,2-1.1,3.9-1.1,5.7c0,7.2,5.6,12.6,12.9,12.6c2.9,0,9.8-1,12.6-9.9l0.3-0.9h3.6l0.3,1
		c2.7,8.9,9.7,9.8,12.7,9.8c2.9,0,5.6-0.9,7.7-2.4c2,1.2,4.2,1.9,6.9,1.9h11.9c8.7,0,15.8-2.9,20.8-8c3.6,4.5,9.4,7.5,16.4,8.3
		L250.8,278.6z"/>
	<path id="Fill-34" class="st2" d="M150.3,163.7V128c0-2.9,1.7-4.6,4.6-4.6c1.9,0,3.1,0.8,4.6,2.7l18.8,26.3h0.2V128
		c0-2.9,1.7-4.6,4.3-4.6c2.8,0,4.3,1.7,4.3,4.6v35.7c0,2.8-1.6,4.5-4.5,4.5c-2,0-3.1-0.7-4.6-2.7l-18.9-26.5H159v24.5
		c0,2.9-1.7,4.6-4.3,4.6C151.9,168.1,150.3,166.4,150.3,163.7"/>
	<path id="Fill-36" class="st2" d="M214,123.4c-12.9,0-21,8.7-21,22.5c0,13.8,8.1,22.5,21,22.5c12.9,0,21-8.7,21-22.5
		C235,131.9,226.9,123.4,214,123.4z M214,130.8c7.1,0,11.7,5.8,11.7,14.9s-4.6,14.9-11.7,14.9c-7.1,0-11.7-5.8-11.7-14.9
		S207,130.8,214,130.8z"/>
	<path id="Fill-38" class="st2" d="M138.7,248c-0.3,1.1-0.6,2.1-0.6,2.9c0,2.6,1.8,4.2,4.6,4.2c2.3,0,3.8-1.2,4.6-4.1l2.2-6.7h15.6
		l2.2,6.8c0.8,2.8,2.1,4,4.7,4c2.7,0,4.6-1.8,4.6-4.2c0-0.9-0.1-1.7-0.6-2.9L164.1,216c-1.3-3.6-3.3-5.1-6.9-5.1
		c-3.5,0-5.6,1.7-6.8,5.1L138.7,248z M157.3,219.7l5.7,17.7h-11.6l5.6-17.7H157.3z"/>
	<path id="Fill-40" class="st2" d="M182,216.2v33.7c0,3,1.7,4.7,4.6,4.7h11.9c12.9,0,20.6-8,20.6-21.7c0-13.7-7.6-21.4-20.6-21.4
		h-11.9C183.7,211.5,182,213.2,182,216.2z M209.9,232.9c0,9.4-4.3,14.3-12.5,14.3h-6.3V219h6.3C205.4,219,209.9,223.8,209.9,232.9z"
		/>
	<path id="Fill-42" class="st2" d="M224.3,246.9c-0.3-0.8-0.4-1.6-0.4-2.4c0-2.3,1.7-4,4-4c1.9,0,3.1,0.7,4.1,2.7
		c1.4,3.3,4.8,4.8,8.9,4.8c4.9,0,8.1-2.3,8.1-5.5c0-2.9-2-4.5-7.5-5.6L237,236c-8.6-1.7-12.8-5.8-12.8-12.2
		c0-7.9,6.9-13.1,16.5-13.1c7.9,0,13.8,3.3,15.8,8.9c0.2,0.6,0.3,1.2,0.3,2c0,2.1-1.6,3.6-3.9,3.6c-2,0-3.3-0.8-4.3-2.7
		c-1.4-3.2-4.2-4.6-7.9-4.6c-4.5,0-7.5,2.1-7.5,5.2c0,2.7,2.1,4.3,7.1,5.3l4.6,0.9c9.1,1.8,13.1,5.5,13.1,12
		c0,8.5-6.6,13.8-17.4,13.8C231.8,255.3,226,251.8,224.3,246.9"/>
</g>
</svg>
