<?xml version="1.0" encoding="utf-8"?>
<!-- Generator: Adobe Illustrator 21.0.0, SVG Export Plug-In . SVG Version: 6.00 Build 0)  -->
<svg version="1.1" id="Слой_1" xmlns="http://www.w3.org/2000/svg" xmlns:xlink="http://www.w3.org/1999/xlink" x="0px" y="0px"
	 viewBox="0 0 400 400" style="enable-background:new 0 0 400 400;" xml:space="preserve">
<style type="text/css">
	.st0{fill:#05AF9F;}
	.st1{fill:#05D1C4;}
	.st2{fill:#FFFFFF;}
	.st3{fill:#E2E2E2;}
</style>
<g id="Group-24_1_" transform="translate(0 0.0005)">
	<path id="Fill-1_1_" class="st0" d="M300.4,71.7H99.7c-16,0-29,12.9-29,29V157c0,16,12.9,29,29,29h200.8c16,0,29-12.9,29-29v-56.4
		C329.3,84.8,316.4,71.7,300.4,71.7"/>
	<path id="Fill-3_1_" class="st1" d="M99.7,172.4c-8.5,0-15.4-6.9-15.4-15.4v-56.4c0-8.5,6.9-15.4,15.4-15.4h200.8
		c8.5,0,15.4,6.9,15.4,15.4V157c0,8.5-6.9,15.4-15.4,15.4H99.7L99.7,172.4z"/>
	<path id="Fill-5_1_" class="st2" d="M146,237.5c7.8-4.3,17.6-1.6,21.9,6.2c5.3,9.7,6,14.5,6,14.5v-75.7c0-3.9,1.6-7.5,4.1-10
		s6.1-4.1,10-4.1c7.8,0,14.1,6.3,14.1,14.1v50c0-7.8,6.3-14.1,14.1-14.1c7.8,0,14.1,6.3,14.1,14.1v3.6c0-7.8,6.3-14.1,14.1-14.1
		c7.8,0,14.1,6.3,14.1,14.1v14.1c0-7.8,6.3-14.1,14.1-14.1s13.9,6.3,13.9,14.1v32.5c0,30.4-19.5,65.6-53.9,65.6h-42.1
		c-46.7,0-47-64.7-47-64.7s0-16.8-4.1-24.4C135.4,251.6,138.2,241.7,146,237.5"/>
	<path id="Fill-7_1_" class="st3" d="M180.7,284.2c-3.7,0.2-6.8-2.8-6.8-6.5v-95.2c0-3.9,1.6-7.5,4.1-10c2.6-2.6,6.1-4.1,10-4.1
		c2.3,0,4.6,0.6,6.6,1.6c-1.2,0.7-2.5,1.6-3.5,2.6c-2.6,2.6-4.1,6.1-4.1,10v95.2c0,3.5-2.7,6.3-6.1,6.5
		C180.8,284.2,180.7,284.2,180.7,284.2"/>
	<path id="Fill-9_1_" class="st3" d="M208.9,260.8c-3.7,0.2-6.8-2.8-6.8-6.5v-21.9c0-3.9,1.6-7.5,4.1-10c2.6-2.6,6.1-4.1,10-4.1
		c2.3,0,4.6,0.6,6.6,1.6c-1.2,0.7-2.5,1.6-3.5,2.6c-2.6,2.6-4.1,6.1-4.1,10v21.9c0,3.5-2.7,6.3-6.1,6.5
		C209,260.8,209,260.8,208.9,260.8"/>
	<path id="Fill-11_1_" class="st3" d="M237.2,255.9c-3.7,0.2-6.8-2.8-6.8-6.5V236c0-3.9,1.6-7.5,4.1-10c2.6-2.6,6.1-4.1,10-4.1
		c2.3,0,4.6,0.6,6.6,1.6c-1.2,0.7-2.5,1.6-3.5,2.6c-2.6,2.6-4.1,6.1-4.1,10v13.5c0,3.5-2.7,6.3-6.1,6.5
		C237.3,255.9,237.2,255.9,237.2,255.9"/>
	<path id="Fill-13_1_" class="st3" d="M265.4,261.5c-3.7,0.2-6.8-2.8-6.8-6.5v-4.9c0-3.9,1.6-7.5,4.1-10c2.6-2.6,6.1-4.1,10-4.1
		c2.3,0,4.6,0.6,6.6,1.6c-1.2,0.7-2.5,1.6-3.5,2.6c-2.6,2.6-4.1,6.1-4.1,10v4.9c0,3.5-2.7,6.3-6.1,6.5
		C265.5,261.5,265.5,261.5,265.4,261.5"/>
	<path id="Fill-15_1_" class="st3" d="M204,348.4h-13c-46.7,0-47-64.7-47-64.7c0-0.1,0-16.8-4.1-24.4c-4.3-7.8-1.6-17.6,6.2-21.9
		c4.6-2.6,9.9-2.6,14.4-0.7c-0.4,0.2-0.9,0.4-1.2,0.7c-7.8,4.3-10.6,14.1-6.2,21.9c4.1,7.5,4.1,24.3,4.1,24.4
		C156.9,283.7,157.2,348.4,204,348.4"/>
	<path id="Fill-17_1_" d="M272.7,231.8c-3.7,0-7,1.1-9.9,2.9c-0.7-9.5-8.7-17-18.4-17c-4.9,0-9.4,1.9-12.7,5
		c-3.2-5.2-9-8.7-15.6-8.7c-3.7,0-7,1-9.8,2.9v-34.4c0-10.1-8.2-18.4-18.4-18.4c-4.9,0-9.6,1.9-13,5.3c-3.5,3.5-5.3,8.1-5.3,13v56.2
		c-2.6-3.2-6.1-5.6-10.2-6.8c-5.2-1.4-10.7-0.9-15.5,1.8c-4.8,2.7-8.2,7-9.7,12.3s-0.9,10.7,1.8,15.5c3,5.3,3.6,17.9,3.6,22.3
		c0,0.7,0.1,17.2,6.2,33.7c8.5,22.9,23.9,35.1,45,35.1h42.1c17.6,0,33.3-8.7,44.2-24.4c1.3-1.9,0.9-4.6-1.1-5.9
		c-1.9-1.3-4.6-0.9-5.9,1.1c-6.6,9.5-18.4,20.7-37.2,20.7h-42.1c-17.4,0-29.7-9.9-37-29.4c-5.7-15.3-5.8-31-5.8-31.1
		c0-1.8-0.1-18.2-4.7-26.4c-1.6-2.8-1.9-6-1-9c0.9-3,2.9-5.6,5.7-7.1c2.8-1.6,6-1.9,9-1c3,0.9,5.6,2.9,7.1,5.7
		c4.2,7.6,5.3,11.9,5.5,12.8v25.1c0,2.3,1.9,4.2,4.2,4.2s4.2-1.9,4.2-4.2V182.4c0-2.7,1-5.1,2.9-7c1.9-1.9,4.3-2.9,7-2.9
		c5.5,0,9.8,4.5,9.8,9.8v73.7c0,2.3,1.9,4.2,4.2,4.2c2.3,0,4.2-1.9,4.2-4.2v-23.7c0-5.5,4.5-9.8,9.8-9.8s9.8,4.5,9.8,9.8v3.6v15.6
		c0,2.3,1.9,4.2,4.2,4.2s4.2-1.9,4.2-4.2v-15.6c0-5.5,4.5-9.8,9.8-9.8c5.5,0,9.8,4.5,9.8,9.8v14.3v7.4c0,2.3,1.9,4.2,4.2,4.2
		c2.3,0,4.2-1.9,4.2-4.2v-7.4c0-5.5,4.5-9.8,9.8-9.8c5.5,0,9.8,4.5,9.8,9.8v32.5c0,9.9-2.1,20-6.1,29.3c-0.9,2.1,0,4.7,2.2,5.6
		c2.1,0.9,4.7,0,5.6-2.2c4.5-10.4,6.9-21.6,6.9-32.6v-32.5C291.1,240,282.9,231.8,272.7,231.8"/>
	<path id="Fill-20" d="M164,186.1c0-2.3-1.9-4.2-4.2-4.2H99.7c-13.6,0-24.7-11.1-24.7-24.7v-56.4c0-13.6,11.1-24.7,24.7-24.7h22.8
		c2.3,0,4.2-1.9,4.2-4.2c0-2.3-1.9-4.2-4.2-4.2H99.7c-18.4-0.1-33.3,14.8-33.3,33.1V157c0,18.4,14.9,33.2,33.2,33.2h60.1
		C162.1,190.3,164,188.4,164,186.1"/>
	<path id="Fill-22" d="M300.4,67.5H136.6c-2.3,0-4.2,1.9-4.2,4.2c0,2.3,1.9,4.2,4.2,4.2h163.7c13.6,0,24.7,11.1,24.7,24.7V157
		c0,13.6-11.1,24.7-24.7,24.7h-81.7c-2.3,0-4.2,1.9-4.2,4.2c0,2.3,1.9,4.2,4.2,4.2h81.7c18.4,0,33.2-14.9,33.2-33.2v-56.4
		C333.7,82.4,318.7,67.5,300.4,67.5"/>
	<g>
		<polygon points="147.2,113.6 159.1,113.6 159.1,150.6 166.1,150.6 166.1,113.6 178.2,113.6 178.2,106.9 147.2,106.9 		"/>
		<path d="M247.1,134c-0.4-0.7-1-1.3-1.4-1.9c-0.4-0.6-1-1.1-1.6-1.6c0.7-0.2,1.2-0.6,1.8-0.9c1.2-0.8,2.3-1.7,3.1-2.7
			c0.9-1,1.6-2.2,2-3.6c0.4-1.3,0.7-2.8,0.7-4.3c0-2-0.3-3.8-1-5.3s-1.7-2.8-2.9-3.8c-1.2-1-2.7-1.8-4.3-2.2s-3.5-0.7-5.3-0.7h-13.5
			v43.7h7.1v-17.6h2.9c0.8,0,1.4,0.1,2.1,0.3c0.6,0.2,1.1,0.4,1.7,0.9c0.6,0.4,1.1,1,1.7,1.7c0.6,0.7,1.1,1.6,1.8,2.7l7.2,12.1h8.5
			l-8.8-14.1C248.1,135.5,247.6,134.8,247.1,134z M244,122.4c-0.3,0.9-0.9,1.6-1.4,2.1c-0.7,0.6-1.4,1-2.3,1.3s-1.9,0.4-3,0.4h-5.5
			v-12.8h5.6c2.5,0,4.2,0.6,5.5,1.6c1.2,1,1.8,2.5,1.8,4.3C244.6,120.6,244.3,121.5,244,122.4z"/>
		<path d="M138.2,130.9c-1-1-2.3-2-3.7-2.8s-2.8-1.6-4.3-2.3c-1.4-0.7-2.7-1.3-3.8-1.9c-1-0.6-1.9-1.1-2.7-1.7
			c-0.7-0.6-1.1-1.1-1.4-1.8c-0.3-0.6-0.4-1.3-0.4-2.2s0.2-1.7,0.6-2.2c0.4-0.7,1-1.2,1.7-1.6c0.7-0.4,1.6-0.8,2.5-0.9
			c1-0.2,2-0.3,2.9-0.3c3.6,0,6.6,0.8,8.8,2.3l1.8,1.2v-8.2l-0.6-0.3c-2-1.1-5.1-1.6-9.5-1.6c-1.9,0-3.8,0.2-5.6,0.7
			s-3.5,1.2-4.9,2.2c-1.4,1-2.7,2.2-3.6,3.8c-0.9,1.6-1.4,3.5-1.4,5.5c0,1.7,0.3,3.2,0.9,4.5c0.6,1.2,1.4,2.5,2.5,3.5
			c1,1,2.1,1.9,3.5,2.7c1.2,0.8,2.7,1.6,4.1,2.2c1.3,0.7,2.7,1.3,3.8,2c1.1,0.6,2.1,1.2,2.9,1.9c0.8,0.6,1.3,1.2,1.8,2
			c0.4,0.7,0.6,1.4,0.6,2.3c0,1.7-0.6,3-1.8,3.9c-1.2,1-3.3,1.4-6,1.4c-0.8,0-1.7-0.1-2.7-0.2c-1-0.1-1.9-0.4-2.9-0.7
			c-1-0.3-1.9-0.7-2.7-1.1c-0.8-0.4-1.6-0.9-2.1-1.4l-1.9-1.7v8.8l0.4,0.3c0.7,0.4,1.4,0.8,2.5,1.1c0.9,0.3,1.9,0.6,3,0.8
			c1,0.2,2,0.3,3,0.4c1,0.1,1.9,0.1,2.6,0.1c2,0,4-0.2,5.8-0.7c1.9-0.4,3.6-1.1,5-2.1c1.4-1,2.7-2.2,3.6-3.8
			c0.9-1.6,1.3-3.5,1.3-5.7c0-1.7-0.3-3.2-1-4.6C140.1,133.1,139.2,132,138.2,130.9z"/>
		<path d="M194.9,106.9l-16.7,43.7h7.8l4.1-11.6h16l4.3,11.6h7.8l-16.8-43.7C201.5,106.9,194.9,106.9,194.9,106.9z M198,117.2
			l5.6,15.3h-11.1L198,117.2z"/>
		<polygon points="258.9,106.9 258.9,113.6 270.8,113.6 270.8,150.6 278,150.6 278,113.6 289.9,113.6 289.9,106.9 		"/>
	</g>
</g>
</svg>
