<?xml version="1.0" encoding="utf-8"?>
<!-- Generator: Adobe Illustrator 21.0.0, SVG Export Plug-In . SVG Version: 6.00 Build 0)  -->
<svg version="1.1" id="Слой_1" xmlns="http://www.w3.org/2000/svg" xmlns:xlink="http://www.w3.org/1999/xlink" x="0px" y="0px"
	 viewBox="0 0 30 30" style="enable-background:new 0 0 30 30;" xml:space="preserve">
<style type="text/css">
	.st0{fill:#EF7F9C;}
	.st1{fill:#05D1C4;}
</style>
<path class="st0" d="M27.9,16.9c-0.2-1-0.8-1.9-1.3-2.7c-0.6-0.8-1.4-1.6-2.2-2.2c-0.9-0.6-1.9-1-2.8-1.1c-0.9-0.2-1.9-0.2-3-0.1
	c-1.1,0.2-2,0.6-2.6,1c-0.8,0.5-1.4,1.2-2,2.1c-0.5,0.8-0.8,1.8-1,2.7c-0.2,1.1,0,2.5,0.4,3.9c0.3,0.7,0.7,1.4,1.2,2.1L13.4,24
	c0,0-1.6-1.6-2.2-2.2c-0.3-0.3-1.3-0.6-1.7-0.2c-0.5,0.5-0.3,1.3,0.2,1.8l2.2,2.1l-1.9,2c-0.8,0.8-0.4,1.5-0.1,1.8
	c0.3,0.3,1.2,0.2,1.9-0.5c0.5-0.5,1.7-1.8,1.7-1.8l2.2,2.1c0.3,0.3,1,0.5,1.6-0.1c0.4-0.4,0.4-1.1-0.1-1.6L15,25.4l1.2-1.2l0,0
	c0.8,0.6,1.5,1,2.2,1.1c1.8,0.6,3.7,0.6,5.4-0.1l1.2-0.6c0.9-0.5,1.6-1.3,2-1.9c0.4-0.6,1-2.2,1-2.8C28.2,18.7,28.1,17.7,27.9,16.9z
	 M24.7,22c-0.2,0.1-0.7,0.6-0.9,0.7c-2.4,1.6-5.8,0.8-7.6-1.7c-0.9-1.3-1.3-2.8-1-4.3c0.2-1.3,1-2.4,2.1-3.1
	c0.9-0.6,1.8-0.8,2.8-0.8c1.8,0,3.6,0.9,4.8,2.5C26.4,17.5,26.3,20.3,24.7,22z"/>
<path class="st1" d="M22.4,0.7h-6c-0.7,0-1.2,0.6-1.2,1.2c0,0.6,0.6,1.2,1.2,1.2h2.9l-4.1,3.8c-1.4-1-2.9-1.5-4.6-1.5
	c-4.3,0-7.8,3.4-7.8,7.6c0,4.2,3.5,7.6,7.8,7.6s7.8-3.4,7.8-7.6c0-1.5-0.5-3.1-1.5-4.5l4-3.9v2.8c0,0.6,0.6,1.2,1.2,1.2
	c0.6,0,1.2-0.6,1.2-1.2V1.7C23.3,1.1,23.1,0.7,22.4,0.7z M14.4,9.4c1,0.9,1.6,2.2,1.6,3.6c0,2.8-2.4,5.1-5.3,5.1
	c-2.9,0-5.3-2.3-5.3-5.1s2.4-5.1,5.3-5.1C12,7.9,13.4,8.4,14.4,9.4z M22.9,1.7L22.9,1.7L22.9,1.7L22.9,1.7z"/>
</svg>
