<svg xmlns="http://www.w3.org/2000/svg" viewBox="0 0 64.5 64.6"><path d="M32.2 58.2C46.5 58.2 58 46.6 58 32.3 58.1 18 46.5 6.4 32.2 6.4 18 6.4 6.4 18 6.4 32.3c0 14.3 11.6 25.9 25.8 25.9z" fill="#e94142"/><path d="M32.2 62.6c16.7 0 30.2-13.6 30.2-30.3S48.9 2 32.2 2 2 15.6 2 32.3s13.5 30.3 30.2 30.3z" fill="none" stroke="#e94142" stroke-width="4"/><path d="M23 43.4c0-1.9.3-3.6.8-5 .6-1.5 1.5-2.8 2.8-4.1s3-2.6 5.3-4c.7-.4 1.1-.8 1.4-1.1s.4-.7.4-1.1c0-.9-.6-1.4-1.9-1.4-1 0-2.1.3-3.3.8-1.3.5-2.5 1.1-3.5 1.9l-1.9-7c1.4-.7 3-1.3 4.9-1.8s3.7-.7 5.5-.7c3 0 5.4.7 7.1 2 1.7 1.3 2.5 3.2 2.5 5.7 0 1.3-.3 2.5-.9 3.5s-1.3 1.8-2.1 2.5-1.9 1.5-3.2 2.3c-1.5 1-2.6 1.8-3.3 2.5s-1 1.5-1 2.4h4v-1.9h6.8v7.3H23v-2.8z" fill="#fff"/></svg>