<svg xmlns="http://www.w3.org/2000/svg" viewBox="0 0 64.5 64.6"><path d="M32.2 58.2C46.5 58.2 58 46.6 58 32.3 58.1 18 46.5 6.4 32.2 6.4 18 6.4 6.4 18 6.4 32.3c0 14.3 11.6 25.9 25.8 25.9z" fill="#e94142"/><path d="M32.2 62.6c16.7 0 30.2-13.6 30.2-30.3S48.9 2 32.2 2 2 15.6 2 32.3s13.5 30.3 30.2 30.3z" fill="none" stroke="#e94142" stroke-width="4"/><path d="M36 29.2c2.5 0 4.3.7 5.6 2.2 1.3 1.5 1.9 3.4 1.9 5.9 0 1.9-.4 3.5-1.3 4.9-.8 1.4-2.1 2.5-3.8 3.3-1.7.8-3.7 1.2-6.1 1.2-1.6 0-3.2-.2-4.8-.5-1.6-.4-3-.8-4.3-1.3v-7c2.9 1.3 5.5 2 7.8 2 1.2 0 2.1-.2 2.7-.7.6-.5.9-1.3.9-2.3 0-.8-.2-1.4-.5-1.8s-.9-.7-1.7-.7c-.6 0-1.1.1-1.4.4s-.7.7-.9 1.3h-6.9l1.4-15.4h17.6v6.4h-11l-.2 3.2c1.4-.7 3.1-1.1 5-1.1z" fill="#fff"/></svg>