<svg xmlns="http://www.w3.org/2000/svg" viewBox="0 0 64.5 64.6"><path d="M32.2 58.2C46.5 58.2 58 46.6 58 32.3 58.1 18 46.5 6.4 32.2 6.4 18 6.4 6.4 18 6.4 32.3c0 14.3 11.6 25.9 25.8 25.9z" fill="#e94142"/><path d="M32.2 62.6c16.7 0 30.2-13.6 30.2-30.3S48.9 2 32.2 2 2 15.6 2 32.3s13.5 30.3 30.2 30.3z" fill="none" stroke="#e94142" stroke-width="4"/><path d="M39.1 33.1c.7.2 1.3.5 2 1.1s1.1 1.2 1.6 2 .6 1.7.6 2.7c0 2.4-.9 4.3-2.6 5.7-1.7 1.4-4.3 2.1-7.7 2.1-1.6 0-3.2-.2-4.8-.5-1.6-.4-3-.8-4.3-1.3v-7c1.4.6 2.8 1.1 4.2 1.5 1.5.4 2.9.6 4.2.6.9 0 1.6-.1 2-.4.4-.3.6-.8.6-1.4 0-1.3-.8-1.9-2.3-1.9h-2.4v-5.4H32c1.5 0 2.2-.6 2.2-1.8 0-1.2-.7-1.8-2.2-1.8-1.1 0-2.2.2-3.3.7s-2.3 1.1-3.3 1.9l-1.9-7c1.3-.7 2.9-1.3 4.6-1.8 1.7-.5 3.4-.7 5.2-.7 3 0 5.4.6 7 1.9 1.6 1.3 2.4 3.1 2.4 5.4 0 1.5-.3 2.6-1 3.6-.7.6-1.6 1.3-2.6 1.8z" fill="#fff"/></svg>