<?xml version="1.0" encoding="utf-8"?>
<!-- Generator: Adobe Illustrator 21.0.0, SVG Export Plug-In . SVG Version: 6.00 Build 0)  -->
<svg version="1.1" id="Слой_1" xmlns="http://www.w3.org/2000/svg" xmlns:xlink="http://www.w3.org/1999/xlink" x="0px" y="0px"
	 viewBox="0 0 316.5 384" style="enable-background:new 0 0 316.5 384;" xml:space="preserve">
<style type="text/css">
	.st0{fill:#EDF6FF;}
	.st1{fill:#DDEBFD;}
	.st2{fill:#05D1C4;}
	.st3{fill:#FFFFFF;}
	.st4{fill:#E94142;}
	.st5{fill:#E86B7B;}
	.st6{fill:#05AF9F;}
	.st7{fill:#FDFDFE;}
	.st8{fill:#E84242;}
	.st9{fill:#E84343;}
	.st10{fill:#43E8DE;}
	.st11{fill:#43E5DC;}
	.st12{fill:#43E6DC;}
	.st13{fill:#EFF5F4;}
</style>
<g id="Group-77" transform="translate(3.75 3.75)">
	<path id="Fill-1" class="st0" d="M68.5,369c-15.6,0-28.2-12.4-28.2-27.7V29.1C40.3,13.8,51.5,2.9,67,2.9h175
		c15.6,0,28.2,12.4,28.2,27.7v312.1c0,15.3-11.1,26.3-26.7,26.3H68.5z"/>
	<path id="Fill-5_2_" class="st1" d="M61.4,340.5V7.5c0-1.8-22.5,8.7-22.5,22.5v316.5C38.8,362,61.4,346.9,61.4,340.5z"/>
	<path id="Fill-7" class="st2" d="M40.3,48.8V29.1C40.3,13.8,51.5,2.9,67,2.9h128.8h26.3H242c15.6,0,28.2,12.4,28.2,27.7v19.6
		L40.3,48.8z"/>
	<path id="Fill-9" class="st2" d="M268.7,323.7v19.6c0,15.3-11.1,26.3-26.7,26.3H67c-15.6,0-28.2-12.4-28.2-27.7v-19.6L268.7,323.7z
		"/>
	<path id="Fill-11" class="st3" d="M307.2,104.1V84.2c0-8.3-6.7-15-15-15H155.7c-8.3,0-15,6.7-15,15V160c0,8.3,6.7,15,15,15h110.8
		c4.9,0,9.6,1.9,13.1,5.3l17.4,16.9c3.8,3.7,10.2,1,10.2-4.3v-62.5V104.1z"/>
	<path id="Fill-15" class="st4" d="M230.3,150.8c-2.2,2.2-4.2,0.7-6.3-1.5l-27-26.9c-1.4-1.4-5.1-5.5-5.1-12.7c0-10.8,7.2-18,18-18
		c7,0,13,3.7,16.5,9.1c3.4-5.5,9.5-9.1,16.5-9.1c10.8,0,19.5,9.1,19.5,19.9c0,5.8-3.5,10.4-5.1,12.2c0,0-0.1,0.1-0.1,0.1
		L230.3,150.8z"/>
	<path id="Fill-17" class="st5" d="M237.5,143.3l-27-26.9c-1.4-1.4-5.1-5.5-5.1-12.7c0-4.5,1.5-8.7,4.1-12
		c-10.6,0.2-19.1,8.8-19.1,19.5c0,7.2,3.6,11.2,5.1,12.7l27,26.9c2.2,2.2,5.7,2.2,7.8,0l7.4-7.3
		C237.6,143.4,237.6,143.3,237.5,143.3"/>
	<path id="Fill-19" class="st2" d="M128.8,207h24.6c8.3,0,15,6.7,15,15v75.8c0,8.3-6.7,15-15,15H42.6c-4.9,0-9.6,1.9-13.1,5.3
		L12.1,335c-3.8,3.7-10.2,1-10.2-4.3V222c0-8.3,6.7-15,15-15h85.7H128.8z"/>
	<path id="Fill-21" class="st6" d="M36.6,297.7c-4.9,0-9.6,1.9-13.1,5.3l-4,3.9c-1,0.9-2.6,0.3-2.6-1.1V207c-8.3,0-15,6.7-15,15
		v102.2v6.5c0,5.3,6.4,8,10.2,4.3l17.4-16.9c3.5-3.4,8.2-5.3,13.1-5.3h110.8c8.3,0,15-6.7,15-15H36.6z"/>
	<path id="Fill-26" d="M164.3,30c3.1,0,5.6-2.5,5.6-5.6s-2.5-5.6-5.6-5.6h-37.6c-3.1,0-5.6,2.5-5.6,5.6s2.5,5.6,5.6,5.6H164.3z"/>
	<path id="Fill-28" d="M307.2,109.8c3.1,0,5.6-2.5,5.6-5.6V84.2c0-11.4-9.3-20.6-20.7-20.6h-16.3V30c0-18.6-15.2-33.8-33.8-33.8H67
		C48.4-3.8,33.2,11.4,33.2,30v33.3c0,3.1,2.5,5.6,5.6,5.6c3.1,0,5.6-2.5,5.6-5.6V30C44.5,17.6,54.6,7.5,67,7.5h175
		c12.4,0,22.5,10.1,22.5,22.5v33.6H155.7c-11.4,0-20.7,9.3-20.7,20.6V160c0,11.4,9.3,20.6,20.7,20.6h108.9v105.7
		c0,3.1,2.5,5.6,5.6,5.6c3.1,0,5.6-2.5,5.6-5.6V184.5l17.2,16.7c2.2,2.2,5.1,3.3,8.1,3.3c1.5,0,3.1-0.3,4.5-0.9
		c4.3-1.8,7.1-6,7.1-10.7v-62.5c0-3.1-2.5-5.6-5.6-5.6c-3.1,0-5.6,2.5-5.6,5.6v62.5c0,0.1,0,0.2-0.2,0.3c-0.2,0.1-0.3,0-0.4-0.1
		l-17.4-16.9c-4.6-4.5-10.6-6.9-17-6.9H155.7c-5.2,0-9.4-4.2-9.4-9.4V84.2c0-5.2,4.2-9.4,9.4-9.4h136.4c5.2,0,9.4,4.2,9.4,9.4v19.9
		C301.5,107.2,304.1,109.8,307.2,109.8z"/>
	<path id="Fill-31" d="M209.9,86.1c6.2,0,12,2.2,16.5,6.2c4.5-3.9,10.3-6.2,16.5-6.2c13.9,0,25.1,11.4,25.1,25.5
		c0,7.8-4.5,13.8-6.5,15.9c-0.1,0.1-0.2,0.2-0.3,0.3l-26.9,26.9c-2.2,2.2-5,3.3-7.9,3.3c-2.9,0-5.7-1.1-7.9-3.3l-27-26.9
		c-4.4-4.4-6.7-10.1-6.7-16.7C184.8,97.4,196.1,86.1,209.9,86.1z M253.2,120c0.9-1,3.6-4.4,3.6-8.4c0-7.7-6.4-14.3-13.9-14.3
		c-4.8,0-9.2,2.4-11.7,6.5c-1,1.6-2.8,2.6-4.8,2.6c-1.9,0-3.7-1-4.8-2.6c-2.6-4.1-6.9-6.5-11.7-6.5c-7.6,0-13.9,6.2-13.9,13.9
		c0,3.5,1.2,6.4,3.4,8.7l26.9,26.9L253.2,120z"/>
	<path id="Fill-33" d="M183.1,18.8c3.1,0,5.6,2.5,5.6,5.6s-2.5,5.6-5.6,5.6c-3.1,0-5.6-2.5-5.6-5.6S180,18.8,183.1,18.8"/>
	<path d="M270.2,306.9c-3.1,0-5.6,2.5-5.6,5.6v34c0,12.4-10.1,22.5-22.5,22.5H67c-12.4,0-22.5-10.1-22.5-22.5v-28.3h108.9
		c11.4,0,20.7-9.3,20.7-20.6v-75.8c0-11.4-9.3-20.6-20.7-20.6h-9.7c-1-2.3-2.2-4.5-3.5-6.7c0.4-2.6,0.8-5.3,1.2-7.9l2.8-18.5
		c0.3-1.8,0.5-3.6,0.8-5.5l1.6-10.6l-6.4,4l0-0.4l-0.5,0.8c-0.5,0.3-0.9,0.6-1.3,0.8c-0.9,0.6-1.8,1.2-2.7,1.7
		c-3.5,2-7,3.9-10.5,5.9l-2.5-4.2l-13.3,2.2l2.2-3.2l-3.9-4.3l-5.9,2.4l5.7-11.6l-10.6,6l-0.4,0.2c-0.3,0.2-0.5,0.3-0.7,0.4
		l-3.4,2.2c-2.2,1.4-4.4,2.8-6.6,4.2c-3.4,2.1-6.8,4.2-10.2,6.3c0,0-0.1,0-0.1,0c-5.3,1-10.4,2.7-15.3,5.1
		c-4.9-2.8-9.8-5.5-14.6-8.3l-0.9-0.5V89.6c0-3.1-2.5-5.6-5.6-5.6s-5.6,2.5-5.6,5.6v65.5l-3.8-2.3v6.7l0,0.2c0,0.2,0,0.5,0,0.9
		l0.5,3.7c0.6,3.9,1.2,7.9,1.7,11.8l1,6.7c0.1,1,0.3,2,0.4,2.9v10.5c-0.8,1.4-1.6,2.8-2.3,4.4c-0.1,0.2-0.2,0.5-0.3,0.7H16.9
		c-11.4,0-20.7,9.3-20.7,20.6v108.7c0,4.7,2.8,8.9,7.1,10.7c1.5,0.6,3,0.9,4.5,0.9c3,0,5.9-1.1,8.1-3.3l17.2-16.7v24.4
		c0,18.6,15.2,33.8,33.8,33.8h175c18.6,0,33.8-15.1,33.8-33.8v-34C275.8,309.4,273.3,306.9,270.2,306.9z M42.6,306.9
		c-6.4,0-12.5,2.5-17,6.9L8.2,330.8c-0.1,0.1-0.2,0.2-0.4,0.1c-0.2-0.1-0.2-0.2-0.2-0.3V221.8c0-5.2,4.2-9.4,9.4-9.4h9.9
		c-0.5,2.2-0.9,4.4-1.2,6.6c-0.1,0.7-0.2,1.3-0.3,2l-0.2,1l0,9.7l0.1,0.3c0,0.2,0.1,0.4,0.1,0.6c0,0.2,0.1,0.4,0.1,0.7
		c0.8,8.1,3.2,16.1,7.3,23.8c2.4,4.5,5.7,9,10,13.6c5.3,5.7,12,10.3,20.4,14c5.9,2.6,12.5,4.2,19.4,4.7c1.6,0.1,3.1,0.2,4.7,0.2
		c9.1,0,17.4-1.8,25.1-5.4c6.6-3.1,12.3-6.9,17.2-11.5c3.9,0.1,7.2-0.4,10.3-1.7c7.7-3.3,12.6-8.7,14.6-16.2
		c2.4-8.8,0.5-16.9-5.5-23.6c0.4-5.9,0-11.7-1.3-17.5c-0.1-0.4-0.2-0.8-0.3-1.2h5.9c5.2,0,9.4,4.2,9.4,9.4v75.8
		c0,5.2-4.2,9.4-9.4,9.4H42.6z"/>
	<path class="st7" d="M140.5,213.9c-1.5-6.2-4-12-7.4-17.4c-0.2-0.2-0.3-0.6-0.3-0.9c0.5-3.3,1-6.7,1.5-10c1-6.5,1.9-13,2.9-19.5
		c0,0-0.1-0.1-0.1-0.1c-0.2,0.1-0.4,0.1-0.6,0.3c-5.2,3-10.5,6-15.7,9c-1.9,1.1-3.8,2.1-5.7,3.2c-0.4,0.2-0.7,0.3-1.1,0
		c-3.3-1.8-6.6-3.3-10.2-4.6c-0.2-0.1-0.4-0.1-0.6-0.2c0.3-0.3,0.6-0.5,0.8-0.6c1.2-0.9,2.4-1.9,3.6-2.8c0,0-0.1-0.1-0.1-0.1
		c-2.9,0.5-5.8,1-8.7,1.4c-0.3,0-0.6,0.1-0.9,0.2c-1.3,0.2-2.6,0.5-3.9,0c1.1-1.5,2.2-3.1,3.2-4.6c0-0.1-0.1-0.1-0.1-0.2
		c-3.3,1.3-6.6,2.5-10.1,3.9c1.1-2.2,2-4.1,3-6.1c-0.1,0-0.1-0.1-0.2-0.1c-3.8,2.4-7.6,4.8-11.4,7.1c-0.3,0.2-0.8,0.4-1.2,0.5
		c-3.6,0.7-7.1,1.5-10.5,3.1c-2.1,1.1-4.3,2-6.5,3.1c-0.4,0.2-0.7,0.2-1.1,0c-2.2-1.3-20.7-11.9-21.9-12.5c0.1,0.4,4.2,29.7,4.1,30
		c-1.1,2.1-2.4,4.1-3.5,6.2c-4.6,9.2-6.4,18.9-5.7,29.1c0.6,8.6,3.2,16.6,7.5,24.1c2.8,4.9,6.4,9.1,10.4,12.9
		c7.2,6.7,15.7,10.9,25.2,13.1c8.3,1.9,16.7,1.8,25.1-0.5c10.1-2.8,19-7.6,26.1-15.4c-2.6-0.7,15-32.2,15-32.3
		C142.4,226.6,142,220.2,140.5,213.9z M95.5,226.7c0,0.8-0.7,1.6-1.5,1.5c-0.7,0-1.3-0.8-1.3-1.6c0-0.8,0.6-1.4,1.4-1.4
		C94.9,225.3,95.5,225.9,95.5,226.7z M94.6,232.4c0,0.8-0.6,1.4-1.4,1.4c-0.8,0-1.4-0.6-1.4-1.4c0-0.8,0.7-1.4,1.4-1.4
		C94,231,94.6,231.6,94.6,232.4z M82,232.4c0,0.8-0.6,1.4-1.4,1.4c-0.8,0-1.4-0.6-1.4-1.4c0-0.8,0.6-1.4,1.4-1.4
		C81.4,230.9,82,231.6,82,232.4z M79.7,225.2c0.8,0,1.4,0.6,1.4,1.4c0,0.7-0.8,1.6-1.5,1.5c-0.7,0-1.4-0.9-1.3-1.6
		C78.3,225.8,78.9,225.2,79.7,225.2z M48.7,221.4c-1.2,0.6-2.1,0.4-2.5-0.4c-0.5-0.9-0.1-1.6,1.2-2.2c3.6-1.7,7.3-2.5,11.3-2.4
		c-0.6-1.6-0.7-3.2,0.2-4.6c0.5-0.9,1.3-1.6,2.2-2c1.9-0.8,4.1-0.3,5.4,1.3c1.5,1.9,1.4,4-0.3,6.5c3.7,1.2,7,3,10,5.4
		c0.9,0.7,1.1,1.6,0.5,2.3c-0.6,0.7-1.4,0.7-2.3,0c-4.6-3.7-9.8-5.9-15.8-6C55.2,219.1,51.9,219.9,48.7,221.4z M56.5,229.8
		c-1.3,0.2-2.2-0.3-2.1-1.7c0-0.7,0.5-1.1,1.3-1.3c4.6-1.3,9.2-1.3,13.8-0.2c0.9,0.2,1.7,0.4,2.5,0.7c1.3,0.5,2.6,1.1,3.9,1.7
		c0.8,0.4,1.1,1.3,0.7,2c-0.4,0.7-1.2,1-2,0.6c-3.8-1.8-7.7-2.8-11.9-2.6C60.6,229,58.6,229.5,56.5,229.8z M102.1,242.1
		c-1.4,1.6-3.2,2.4-5.3,2.5c-0.6,0-1.3,0-1.9-0.1c-0.3,0-0.6-0.1-0.9-0.1c-0.5,1.6-1.3,3-2.6,4.1c-3.3,3-8.2,1.9-10.4-2.3
		c-0.3-0.6-0.5-1.2-0.8-1.8c-3.1,0.4-5.9-0.1-8.2-2.5c-0.7-0.8-0.7-1.7,0-2.4c-0.1-0.2-0.2-0.3-0.3-0.5c-0.4-0.7-0.2-1.5,0.4-1.9
		c0.6-0.4,1.4-0.4,2,0.2c2.9,2.8,6.6,2.6,9.1-0.6c1.7-2.2,2.4-4.8,2.5-7.6c0-0.9,0-3.4,0-3.8c-0.6,0,3.4,0,2.9,0
		c0,0.4,0,5.5,0.7,7.6c0.7,2.1,1.7,4,3.4,5.3c2.2,1.6,5.5,1.4,7.3-0.5c0.8-0.9,1.6-1,2.3-0.5c0.7,0.6,0.7,1.3,0.1,2.3
		C102.9,240.5,102.9,241.2,102.1,242.1z M119.2,229.4c-0.3,0.7-1,0.9-1.8,0.7c-6-1.6-11.8-0.9-17.4,1.4c-0.2,0.1-0.5,0.2-0.7,0.3
		c-0.9,0.4-1.7,0.2-2.1-0.6c-0.4-0.8-0.1-1.6,0.8-2c3.6-1.9,7.5-2.9,11.6-3.1c0.4,0,0.8,0,1.1-0.1c2.6,0.1,5.1,0.3,7.4,1.1
		C119.2,227.5,119.6,228.5,119.2,229.4z M128,220.9c-0.4,0.8-1.2,1-2.1,0.6c-9.4-4.4-18-2.4-26.1,3.5c-0.2,0.1-0.4,0.3-0.6,0.4
		c-0.6,0.4-1.4,0.2-1.9-0.3c-0.4-0.5-0.5-1.4,0.1-1.9c0.5-0.4,1-0.8,1.5-1.2c2.7-2,5.7-3.5,9-4.6c-2.2-2.5-1.5-5.3-0.2-6.8
		c1.4-1.6,3.9-1.9,5.8-0.8c2.1,1.2,2.8,3.5,1.9,6.1c2.1,0.3,4.2,0.4,6.3,0.9c1.8,0.4,3.6,1.2,5.4,1.9
		C128,219.3,128.3,220.1,128,220.9z"/>
	<path id="Fill-41" class="st8" d="M119.6,261.8c2.1,1.7,4.5,2.8,7.1,3.5c0.7,0,1.3,0.1,2,0.2c1.4,0.1,2.8,0.3,4.2,0.1
		c7.2-1,12.3-4.8,14.8-11.7c2.1-5.7,1.3-11.1-1.9-16.1c-1.1-1.7-2.7-3-4.1-4.5c-0.3-0.2-0.5-0.3-0.8-0.5c-7.3-5-17.6-3.7-23.2,3
		c-1.2,1.4-2.3,1.7-3.9,1.4c-2-0.3-4.1-0.4-6.1-0.6l0,0c0.1,0.2,0.1,0.4,0.3,0.6c1.5,2.2,2.9,4.5,4.5,6.7c0.6,0.9,1.1,1.8,0.8,2.9
		c-0.1,0.5-0.1,1.1,0,1.7c0,0.1,0,0.1,0,0.2C113.4,253.9,115.5,258.4,119.6,261.8z M132,253.8c-0.5,0.4-0.9,0.9-1.3,1.4
		c-2-1.9-3.9-3.7-5.9-5.5c-0.8-0.8-1.7-1.4-2-2.6c-0.4-1.6,0.2-3.3,1.6-4.2c1.3-0.9,3.1-0.9,4.4,0c0.6,0.4,1.2,0.8,1.8,1.3
		c0.6-0.4,1.2-0.9,1.8-1.3c1.5-1,3.6-0.9,4.9,0.4c1.3,1.3,1.7,3.2,0.8,4.8c-0.2,0.3-0.4,0.6-0.6,0.8
		C135.6,250.5,133.8,252.1,132,253.8z"/>
	<path id="Fill-57" class="st9" d="M88.5,225.3c-1,0-1.9,0-2.9,0c-0.6,0-1.2,0-1.8,0c-1.4-0.1-2.2-1.3-1.5-2.5
		c1.1-1.9,2.1-3.8,3.3-5.7c0.7-1.2,2.3-1.2,3,0.1c1.1,1.8,2.1,3.6,3.1,5.5c0.7,1.3,0,2.6-1.5,2.7C89.6,225.3,89.1,225.3,88.5,225.3"
		/>
	<path id="Fill-59" class="st10" d="M87.4,207.6c-1.1-1.2-2.1-2.1-3.1-3.2c-0.7,0.7-1.3,1.4-2,2c-0.6,0.6-1.3,0.6-1.9,0.1
		c-0.5-0.5-0.6-1.2-0.2-1.7c1.3-1.4,2.6-2.7,4-4.1c1,1,1.9,2,2.8,2.9c1-0.8,1.9-1.6,2.9-2.4c1.2,1.2,2.5,2.6,3.9,4
		c0.5,0.5,0.3,1.3-0.2,1.7c-0.5,0.4-1.2,0.5-1.7,0c-0.7-0.6-1.3-1.4-2-2.1C89.1,205.8,88.3,206.6,87.4,207.6"/>
	<path id="Fill-61" class="st11" d="M94,244.4c0.1-0.7,0.3-1.4,0.4-2c1.2-0.1,2.4-0.2,3.6-0.3c1.8-0.2,3-1.4,4.2-2.6
		c0.7,1,0.7,1.7-0.1,2.6c-1.4,1.6-3.2,2.4-5.3,2.5C95.8,244.6,94.9,244.5,94,244.4"/>
	<path id="Fill-63" class="st12" d="M72,239.6c2.1,2.3,4.7,3.1,7.8,2.7c0.1,0.8,0.3,1.5,0.4,2.2c-3.1,0.4-5.9-0.1-8.2-2.5
		C71.3,241.2,71.3,240.3,72,239.6"/>
	<path id="Fill-75" class="st13" d="M130.7,255.2c-2-1.9-3.9-3.7-5.9-5.5c-0.8-0.8-1.7-1.4-2-2.6c-0.4-1.6,0.2-3.3,1.6-4.2
		c1.3-0.9,3.1-0.9,4.4,0c0.6,0.4,1.2,0.8,1.8,1.3c0.6-0.4,1.2-0.9,1.8-1.3c1.5-1,3.6-0.9,4.9,0.4c1.3,1.3,1.7,3.2,0.8,4.8
		c-0.2,0.3-0.4,0.6-0.6,0.8c-1.8,1.7-3.6,3.3-5.4,5C131.5,254.2,131.1,254.7,130.7,255.2"/>
</g>
</svg>
