<?xml version="1.0" encoding="utf-8"?>
<!-- Generator: Adobe Illustrator 21.0.0, SVG Export Plug-In . SVG Version: 6.00 Build 0)  -->
<svg version="1.1" id="Слой_1" xmlns="http://www.w3.org/2000/svg" xmlns:xlink="http://www.w3.org/1999/xlink" x="0px" y="0px"
	 viewBox="0 0 400 400" style="enable-background:new 0 0 400 400;" xml:space="preserve">
<style type="text/css">
	.st0{fill:#E94142;}
	.st1{fill:#E86B7B;}
	.st2{fill:#EFEFEF;}
	.st3{fill:#DCDCDC;}
	.st4{fill:#05D1C4;}
	.st5{fill:#05AF9F;}
</style>
<g id="Group-81" transform="translate(85 90.50049)">
	<path id="Fill-1_1_" class="st0" d="M109.7,129.5c-1.6,1.6-3.1,0.4-4.7-1.1l-20-20c-1.1-1.1-3.8-4.1-3.8-9.5
		c0-8,5.3-13.4,13.4-13.4c5.1,0,9.7,2.7,12.2,6.8c2.6-4.1,7-6.8,12.2-6.8c8,0,14.5,6.8,14.5,14.8c0,4.3-2.6,7.8-3.8,9.1
		c0,0,0,0-0.1,0.1L109.7,129.5z"/>
	<path id="Fill-3_1_" class="st1" d="M114.9,124l-20-20c-1.1-1.1-3.8-4.1-3.8-9.5c0-3.3,1.1-6.5,3-8.9c-7.9,0.1-14.1,6.6-14.1,14.5
		c0,5.3,2.7,8.3,3.8,9.5l20,20c1.6,1.6,4.2,1.6,5.8,0l5.5-5.5C115,124,115,124,114.9,124"/>
	<path id="Fill-5_1_" d="M94.5,81.4c4.6,0,8.9,1.7,12.2,4.6c3.3-2.9,7.7-4.6,12.2-4.6c10.2,0,18.6,8.5,18.6,18.9
		c0,5.8-3.3,10.2-4.8,11.9c-0.1,0.1-0.1,0.2-0.2,0.2l-19.9,19.9c-1.6,1.6-3.8,2.4-5.9,2.4s-4.2-0.8-5.9-2.4l-20-20
		c-3.2-3.2-5-7.6-5-12.4C75.8,89.8,84.2,81.4,94.5,81.4z M126.6,106.6c0.7-0.8,2.7-3.3,2.7-6.2c0-5.8-4.7-10.6-10.2-10.6
		c-3.6,0-6.8,1.8-8.7,4.8c-0.8,1.2-2.1,2-3.6,2c-1.4,0-2.8-0.8-3.6-2c-1.9-3-5.1-4.8-8.7-4.8c-5.7,0-10.2,4.7-10.2,10.4
		c0,2.6,0.9,4.8,2.6,6.5l19.9,19.9L126.6,106.6z"/>
	<path id="Fill-7_1_" class="st2" d="M172.9,55.5l3-2h58.4l2.8,2c9.9-8.9,16.1-21.7,16.1-36.1c0-26.7-21.6-48.3-48.3-48.3
		s-48.3,21.7-48.3,48.3C156.7,33.8,163,46.7,172.9,55.5z"/>
	<path id="Fill-9_1_" class="st3" d="M175.2,19.4c0-23.5,16.8-43.2,39-47.4c-3-0.6-6.1-0.9-9.2-0.9c-26.6,0-48.3,21.7-48.3,48.3
		c0,14.4,6.2,27.3,16.1,36.1l3-2h13.4C180.6,44.8,175.2,32.8,175.2,19.4"/>
	<path id="Fill-13_1_" class="st3" d="M209.4,14.6c-6.3-6.3-6.3-16.7,0-23c1.1-1.1,2.2-2,3.6-2.7c-6.2-3.5-14.1-2.6-19.4,2.7
		c-6.3,6.3-6.3,16.7,0,23c5.2,5.2,13.2,6.1,19.4,2.7C211.7,16.7,210.5,15.8,209.4,14.6"/>
	<path id="Fill-15_1_" class="st4" d="M218.5,34.8h-27.1c-10.2,0-18.6,8.3-18.6,18.6v2.2c8.6,7.7,19.8,12.2,32.2,12.2
		s23.6-4.7,32.2-12.2v-2.2C237.1,43,228.9,34.8,218.5,34.8"/>
	<path id="Fill-17_1_" class="st5" d="M196.9,52.8c0-8.7,6-16,14-18h-19.6c-10.2,0-18.6,8.3-18.6,18.6v2.2c6.7,5.9,14.9,10,24,11.6
		V52.8H196.9z"/>
	<path id="Fill-19_1_" class="st4" d="M-7.2,55.5l3.1-2h58.4l2.8,2c9.9-8.9,16.1-21.7,16.1-36.1c0-26.7-21.6-48.3-48.3-48.3
		S-23.4-7.3-23.4,19.4C-23.4,33.8-17.1,46.7-7.2,55.5"/>
	<path id="Fill-21_1_" class="st5" d="M-4.8,19.4c0-23.5,16.8-43.2,39-47.4c-3-0.6-6.1-0.9-9.2-0.9c-26.7,0-48.3,21.6-48.3,48.3
		c0,14.4,6.2,27.3,16.1,36.1l3.1-2H9.2C0.6,44.8-4.8,32.8-4.8,19.4"/>
	<path id="Fill-23_1_" class="st2" d="M24.9-13.1c9,0,16.3,7.2,16.3,16.3S34,19.4,24.9,19.4S8.7,12.2,8.7,3.2S15.9-13.1,24.9-13.1"
		/>
	<path id="Fill-25_1_" class="st3" d="M29.3,14.6c-6.3-6.3-6.3-16.7,0-23c1.1-1.1,2.2-2,3.6-2.7c-6.2-3.5-14.1-2.6-19.4,2.7
		c-6.3,6.3-6.3,16.7,0,23c5.2,5.2,13.2,6.1,19.4,2.7C31.6,16.7,30.4,15.8,29.3,14.6"/>
	<path id="Fill-27_1_" class="st0" d="M38.5,34.8H11.4c-10.2,0-18.6,8.3-18.6,18.6v2.2c8.6,7.7,19.8,12.2,32.2,12.2
		s23.6-4.7,32.2-12.2v-2.2C57,43,48.8,34.8,38.5,34.8"/>
	<path id="Fill-29_1_" class="st1" d="M16.9,52.8c0-8.7,6-16,14-18H11.4c-10.2,0-18.6,8.3-18.6,18.6v2.2c6.7,5.9,14.9,10,24,11.6
		V52.8H16.9z"/>
	<path id="Fill-31_1_" class="st4" d="M172.9,236l3-2h58.4l2.8,2c9.9-8.9,16.1-21.7,16.1-36.1c0-26.7-21.6-48.3-48.3-48.3
		s-48.3,21.7-48.3,48.3C156.7,214.3,163,227.2,172.9,236z"/>
	<path id="Fill-33_1_" class="st5" d="M175.2,199.9c0-23.5,16.8-43.2,39-47.4c-3-0.6-6.1-0.9-9.2-0.9c-26.6,0-48.3,21.7-48.3,48.3
		c0,14.4,6.2,27.3,16.1,36.1l3-2h13.4C180.6,225.3,175.2,213.1,175.2,199.9"/>
	<path id="Fill-35_1_" class="st2" d="M205.1,167.4c9,0,16.3,7.2,16.3,16.3c0,9-7.2,16.3-16.3,16.3c-9,0-16.3-7.2-16.3-16.3
		C188.8,174.6,196,167.4,205.1,167.4"/>
	<path id="Fill-37_1_" class="st3" d="M209.4,195.1c-6.3-6.3-6.3-16.7,0-23c1.1-1.1,2.2-2,3.6-2.7c-6.2-3.5-14.1-2.6-19.4,2.7
		c-6.3,6.3-6.3,16.7,0,23c5.2,5.2,13.2,6.1,19.4,2.7C211.7,197.1,210.5,196.2,209.4,195.1"/>
	<path id="Fill-39_1_" class="st0" d="M218.5,215.2h-27.1c-10.2,0-18.6,8.3-18.6,18.6v2.2c8.6,7.7,19.8,12.2,32.2,12.2
		s23.6-4.7,32.2-12.2v-2.2C237.1,223.5,228.9,215.2,218.5,215.2"/>
	<path id="Fill-41" class="st1" d="M196.9,233.3c0-8.7,6-16,14-18h-19.6c-10.2,0-18.6,8.3-18.6,18.6v2.2c6.7,5.9,14.9,10,24,11.6
		v-14.4H196.9z"/>
	<path id="Fill-43" class="st2" d="M-7.2,236l3-2h58.4l2.8,2c9.9-8.9,16.1-21.7,16.1-36.1c0-26.7-21.6-48.3-48.3-48.3
		s-48.3,21.7-48.3,48.3C-23.4,214.3-17.1,227.2-7.2,236"/>
	<path id="Fill-45_1_" class="st3" d="M-4.8,199.9c0-23.5,16.8-43.2,39-47.4c-3-0.6-6.1-0.9-9.2-0.9c-26.6,0-48.3,21.7-48.3,48.3
		c0,14.4,6.2,27.3,16.1,36.1l3-2H9.1C0.6,225.3-4.8,213.1-4.8,199.9"/>
	<path id="Fill-49" class="st3" d="M29.3,195.1c-6.3-6.3-6.3-16.7,0-23c1.1-1.1,2.2-2,3.6-2.7c-6.2-3.5-14.1-2.6-19.4,2.7
		c-6.3,6.3-6.3,16.7,0,23c5.2,5.2,13.2,6.1,19.4,2.7C31.6,197.1,30.4,196.2,29.3,195.1"/>
	<path id="Fill-51_1_" class="st4" d="M38.5,215.2H11.4c-10.2,0-18.6,8.3-18.6,18.6v2.2c8.6,7.7,19.8,12.2,32.2,12.2
		s23.6-4.7,32.2-12.2v-2.2C57,223.5,48.8,215.2,38.5,215.2"/>
	<path id="Fill-53_1_" class="st5" d="M16.9,233.3c0-8.7,6-16,14-18H11.4c-10.2,0-18.6,8.3-18.6,18.6v2.2c6.7,5.9,14.9,10,24,11.6
		v-14.4H16.9z"/>
	<path d="M24.9-33.2C-4-33.2-27.5-9.7-27.5,19.3c0,28.9,23.5,52.5,52.4,52.5s52.4-23.6,52.4-52.5C77.4-9.7,53.9-33.2,24.9-33.2z
		 M24.9,63.4c-10,0-19.9-3.3-27.9-10c0-8.7,6.8-14.7,14.4-14.7h27.1c7.6,0,14.4,6,14.4,14.7C45,60,35.2,63.4,24.9,63.4z M60.1,45.9
		c-3-9-11.6-15.6-21.6-15.6H11.4c-10,0-18.6,6.6-21.6,15.6c-5.7-7.5-9-16.7-9-26.7C-19.3-5.2,0.6-25,24.8-25S68.9-5.2,68.9,19.2
		C69,29.2,65.7,38.6,60.1,45.9z"/>
	<path d="M205.1,147.1c-28.9,0-52.4,23.6-52.4,52.5s23.5,52.5,52.4,52.5c28.8,0,52.4-23.5,52.4-52.5
		C257.5,170.7,234,147.1,205.1,147.1z M177.1,233.9c0-8.7,6.8-14.7,14.4-14.7h27.1c7.6,0,14.4,6,14.4,14.7
		C216.8,247.2,193.4,247.3,177.1,233.9z M240.1,226.4c-3-9-11.6-15.6-21.6-15.6h-27.1c-10,0-18.6,6.6-21.6,15.6
		c-5.7-7.5-9-16.7-9-26.7c0-24.4,19.8-44.2,44.1-44.2s44.1,19.8,44.1,44.2C249.2,209.7,245.8,218.9,240.1,226.4z"/>
	<path id="Fill-61" d="M39.4-11.4c8,8,8,20.9,0,28.9s-20.9,8-28.8,0c-8-8.1-8-21-0.1-28.9C18.5-19.4,31.4-19.4,39.4-11.4L39.4-11.4z
		 M33.5-5.5c-4.7-4.7-12.4-4.7-17,0s-4.7,12.4,0,17.1c4.7,4.7,12.4,4.7,17,0C38.2,6.9,38.2-0.8,33.5-5.5L33.5-5.5z"/>
	<path id="Fill-63" d="M39.4,197.9c-7.9,8-20.9,8-28.8,0c-7.9-8-7.9-20.9,0-28.9c7.9-8,20.9-8,28.8,0l0,0
		C47.3,177,47.3,190,39.4,197.9z M33.5,175c-4.7-4.7-12.4-4.7-17,0s-4.7,12.4,0,17.1c4.7,4.7,12.4,4.7,17,0
		C38.2,187.3,38.2,179.6,33.5,175z"/>
	<path id="Fill-65_1_" d="M190.6,17.4c-7.9-8-7.9-20.9,0-28.9c7.9-8,20.9-8,28.8,0l0,0c8,8,8,20.9,0,28.9
		C211.5,25.4,198.6,25.4,190.6,17.4z M196.5,11.5c4.7,4.7,12.4,4.7,17,0s4.7-12.4,0-17.1l0,0c-4.7-4.7-12.4-4.7-17,0
		C191.8-0.8,191.8,6.9,196.5,11.5z"/>
	<path id="Fill-67_1_" d="M190.6,168.9c7.9-8,20.9-8,28.8,0c7.9,8,7.9,20.9,0,28.9c-7.9,8-20.9,8-28.8,0
		C182.7,190,182.7,177,190.6,168.9z M196.5,192c4.7,4.7,12.4,4.7,17,0c4.7-4.7,4.7-12.4,0-17.1c-4.7-4.7-12.4-4.7-17,0
		C191.8,179.6,191.8,187.3,196.5,192z"/>
	<path id="Fill-69_1_" d="M141.3,23.4c2.3,0,4.2-1.9,4.2-4.2s-1.9-4.2-4.2-4.2H88.7c-2.3,0-4.2,1.9-4.2,4.2s1.9,4.2,4.2,4.2H141.3z"
		/>
	<path id="Fill-71_1_" d="M88.7,195.6c-2.3,0-4.2,1.9-4.2,4.2c0,2.3,1.9,4.2,4.2,4.2h52.5c2.3,0,4.2-1.9,4.2-4.2
		c0-2.3-1.9-4.2-4.2-4.2H88.7z"/>
	<path id="Fill-73_1_" d="M29.2,135.8V83.2c0-2.3-1.9-4.2-4.2-4.2s-4.2,1.9-4.2,4.2v52.7c0,2.3,1.9,4.2,4.2,4.2
		S29.2,138.1,29.2,135.8"/>
	<path id="Fill-75_1_" d="M209.2,135.8V83.2c0-2.3-1.9-4.2-4.2-4.2c-2.3,0-4.2,1.9-4.2,4.2v52.7c0,2.3,1.9,4.2,4.2,4.2
		C207.3,140.1,209.2,138.1,209.2,135.8"/>
	<path id="Fill-77_1_" d="M253.3,14.1c-2.2,0.4-4.5-1-4.9-3.3c-4-20.7-22.3-35.6-43.3-35.6c-24.3,0-44.1,19.8-44.1,44.2
		c0,10,3.3,19.3,9,26.7c3-9,11.6-15.6,21.6-15.6h27.1c10,0,18.6,6.6,21.6,15.6c3.8-5,6.6-10.9,8-17.4c0.4-2.2,2.7-3.7,5-3.2
		c2.2,0.4,3.7,2.7,3.2,5C251.4,54.5,230,72,205.2,72c-28.8,0-52.4-23.4-52.4-52.5c0-28.9,23.5-52.5,52.4-52.5
		c25,0,46.6,17.8,51.4,42.4C256.9,11.4,255.5,13.6,253.3,14.1z M233,53.2c0-7.9-6.5-14.5-14.4-14.5h-27.1c-7.6,0-14.4,6-14.4,14.7
		c8.1,6.7,18.1,10,27.9,10c10.5,0,20.3-3.8,27.9-10.1v-0.1H233z"/>
	<path id="Fill-79_1_" d="M77.4,199.7c0,28.9-23.5,52.5-52.4,52.5c-29.1,0-52.4-23.6-52.4-52.5c0-24.8,17.6-46.5,41.9-51.4
		c2.2-0.4,4.5,1,4.9,3.2s-1,4.5-3.2,4.9c-20.4,4.2-35.2,22.4-35.2,43.3c0,10,3.3,19.3,9,26.7c3-9,11.6-15.6,21.6-15.6h27.1
		c10,0,18.6,6.6,21.6,15.6c5.7-7.5,9-16.7,9-26.7c0-20.9-14.8-39.1-35.2-43.3c-2.2-0.4-3.7-2.7-3.2-4.9c0.4-2.2,2.7-3.7,4.9-3.2
		C59.8,153.3,77.4,174.8,77.4,199.7z M38.5,219.2H11.4c-7.6,0-14.4,6-14.4,14.7c16.4,13.5,39.7,13.2,55.9,0
		C52.9,225.2,46.1,219.2,38.5,219.2z"/>
</g>
</svg>
