<svg version="1.1" id="Слой_1" xmlns="http://www.w3.org/2000/svg" x="0" y="0" viewBox="0 0 828.3 828.2" xml:space="preserve"><style>.st1{fill:#fff}.st3{fill:#eff5f4}.st4{fill:#fdfdfe}.st5{fill:#e84242}</style><g id="Group-489" opacity=".176"><g id="Group-488"><path id="Fill-31" class="st1" d="M196 2.3c.2 0 .4-.2.4-.4s-.2-.4-.4-.4-.4.2-.4.4.2.4.4.4"/><path id="Fill-33" class="st1" d="M244.5 2.7c.4 0 .8-.4.8-.8s-.4-.8-.8-.8-.8.4-.8.8.3.8.8.8"/><path id="Fill-35" class="st1" d="M293 3.1c.7 0 1.2-.5 1.2-1.2S293.7.7 293 .7s-1.2.5-1.2 1.2.5 1.2 1.2 1.2"/><path id="Fill-37" class="st1" d="M341.5 3.5c.9 0 1.6-.7 1.6-1.6 0-.9-.7-1.6-1.6-1.6s-1.6.7-1.6 1.6.7 1.6 1.6 1.6"/><path id="Fill-39" class="st1" d="M390.1 3.8c1 0 1.9-.8 1.9-1.9 0-1-.8-1.9-1.9-1.9-1 0-1.9.8-1.9 1.9 0 1 .8 1.9 1.9 1.9"/><path id="Fill-41" class="st1" d="M438.6 3.8c1 0 1.9-.8 1.9-1.9 0-1-.8-1.9-1.9-1.9-1 0-1.9.8-1.9 1.9 0 1 .8 1.9 1.9 1.9"/><path id="Fill-43" class="st1" d="M487.1 3.5c.9 0 1.6-.7 1.6-1.6 0-.9-.7-1.6-1.6-1.6-.9 0-1.6.7-1.6 1.6s.7 1.6 1.6 1.6"/><path id="Fill-45" class="st1" d="M535.6 3.1c.7 0 1.2-.5 1.2-1.2s-.5-1.2-1.2-1.2-1.2.5-1.2 1.2.5 1.2 1.2 1.2"/><path id="Fill-47" class="st1" d="M584.1 2.6c.4 0 .7-.3.7-.7s-.3-.7-.7-.7-.7.3-.7.7c.1.4.4.7.7.7"/><path id="Fill-55" class="st1" d="M147.5 51.1c.4 0 .7-.3.7-.7 0-.4-.3-.7-.7-.7s-.7.3-.7.7c0 .4.3.7.7.7"/><path id="Fill-57" class="st1" d="M196 51.9c.8 0 1.5-.7 1.5-1.5s-.7-1.5-1.5-1.5-1.5.7-1.5 1.5.7 1.5 1.5 1.5"/><path id="Fill-59" class="st1" d="M244.5 53c1.4 0 2.6-1.1 2.6-2.6 0-1.4-1.1-2.6-2.6-2.6-1.4 0-2.6 1.1-2.6 2.6 0 1.4 1.2 2.6 2.6 2.6"/><path id="Fill-61" class="st1" d="M293 54.2c2.1 0 3.8-1.7 3.8-3.8 0-2.1-1.7-3.8-3.8-3.8-2.1 0-3.8 1.7-3.8 3.8s1.7 3.8 3.8 3.8"/><path id="Fill-63" class="st1" d="M341.5 55.1c2.6 0 4.7-2.1 4.7-4.7s-2.1-4.7-4.7-4.7-4.7 2.1-4.7 4.7 2.1 4.7 4.7 4.7"/><path id="Fill-65" class="st1" d="M390.1 55.8c3 0 5.4-2.4 5.4-5.4s-2.4-5.4-5.4-5.4-5.4 2.4-5.4 5.4 2.4 5.4 5.4 5.4"/><path id="Fill-67" class="st1" d="M438.6 55.7c2.9 0 5.2-2.3 5.2-5.2 0-2.9-2.3-5.2-5.2-5.2-2.9 0-5.2 2.3-5.2 5.2-.1 2.8 2.3 5.2 5.2 5.2"/><path id="Fill-69" class="st1" d="M487.1 55c2.5 0 4.6-2 4.6-4.6 0-2.5-2-4.6-4.6-4.6s-4.6 2-4.6 4.6c0 2.5 2.1 4.6 4.6 4.6"/><path id="Fill-71" class="st1" d="M535.6 54c2 0 3.6-1.6 3.6-3.6s-1.6-3.6-3.6-3.6-3.6 1.6-3.6 3.6 1.6 3.6 3.6 3.6"/><path id="Fill-73" class="st1" d="M584.1 52.7c1.3 0 2.3-1 2.3-2.3s-1-2.3-2.3-2.3-2.3 1-2.3 2.3 1.1 2.3 2.3 2.3"/><path id="Fill-75" class="st1" d="M632.6 51.8c.7 0 1.3-.6 1.3-1.3 0-.7-.6-1.3-1.3-1.3s-1.3.6-1.3 1.3c0 .7.6 1.3 1.3 1.3"/><path id="Fill-77" class="st1" d="M681.2 51c.3 0 .5-.2.5-.5s-.2-.5-.5-.5-.5.2-.5.5c-.1.2.2.5.5.5"/><path id="Fill-83" class="st1" d="M98.9 99.7c.4 0 .8-.4.8-.8s-.4-.8-.8-.8-.8.4-.8.8c0 .5.4.8.8.8"/><path id="Fill-85" class="st1" d="M147.5 100.9c1.1 0 2-.9 2-2s-.9-2-2-2-2 .9-2 2c-.1 1.1.8 2 2 2"/><path id="Fill-87" class="st1" d="M196 103c2.2 0 4-1.8 4-4s-1.8-4-4-4-4 1.8-4 4c-.1 2.2 1.7 4 4 4"/><path id="Fill-89" class="st1" d="M244.5 105.3c3.5 0 6.3-2.8 6.3-6.3s-2.8-6.3-6.3-6.3-6.3 2.8-6.3 6.3 2.8 6.3 6.3 6.3"/><path id="Fill-91" class="st1" d="M293 107.7c4.8 0 8.7-3.9 8.7-8.7s-3.9-8.7-8.7-8.7c-4.8 0-8.7 3.9-8.7 8.7s3.9 8.7 8.7 8.7"/><path id="Fill-93" class="st1" d="M341.5 109.6c5.9 0 10.6-4.8 10.6-10.6 0-5.9-4.8-10.6-10.6-10.6s-10.6 4.8-10.6 10.6 4.8 10.6 10.6 10.6"/><path id="Fill-95" class="st1" d="M389.6 98.8l-10.4 4.6 10.8 7.2c6.5 0 11.7-5.2 11.7-11.7s-5.2-11.7-11.7-11.7-11.7 5.2-11.7 11.7 5.2 11.7 11.7 11.7"/><path id="Fill-97" class="st1" d="M438.6 110.5c6.4 0 11.6-5.2 11.6-11.6 0-6.4-5.2-11.6-11.6-11.6S427 92.5 427 98.9s5.2 11.6 11.6 11.6"/><path id="Fill-99" class="st1" d="M487.1 109.3c5.7 0 10.4-4.6 10.4-10.4 0-5.7-4.6-10.4-10.4-10.4-5.7 0-10.4 4.6-10.4 10.4 0 5.7 4.7 10.4 10.4 10.4"/><path id="Fill-101" class="st1" d="M535.6 107.3c4.6 0 8.3-3.7 8.3-8.3s-3.7-8.3-8.3-8.3-8.3 3.7-8.3 8.3c0 4.5 3.7 8.3 8.3 8.3"/><path id="Fill-103" class="st1" d="M584.1 104.8c3.3 0 5.9-2.6 5.9-5.9 0-3.3-2.6-5.9-5.9-5.9-3.3 0-5.9 2.7-5.9 5.9 0 3.3 2.7 5.9 5.9 5.9"/><path id="Fill-105" class="st1" d="M632.6 102.6c2 0 3.6-1.6 3.6-3.6s-1.6-3.6-3.6-3.6S629 97 629 99c0 1.9 1.6 3.6 3.6 3.6"/><path id="Fill-107" class="st1" d="M681.2 100.7c1 0 1.7-.8 1.7-1.8s-.8-1.7-1.7-1.7c-1 0-1.8.8-1.8 1.7s.8 1.8 1.8 1.8"/><path id="Fill-109" class="st1" d="M729.7 99.6c.4 0 .7-.3.7-.7s-.3-.7-.7-.7-.7.3-.7.7.3.7.7.7"/><path id="Fill-117" class="st1" d="M50.4 148.1c.4 0 .7-.3.7-.7s-.3-.7-.7-.7c-.4 0-.7.3-.7.7.1.4.4.7.7.7"/><path id="Fill-119" class="st1" d="M98.9 149.5c1.1 0 2-.9 2-2s-.9-2-2-2-2 .9-2 2 .9 2 2 2"/><path id="Fill-121" class="st1" d="M147.5 151.7c2.4 0 4.3-1.9 4.3-4.3s-1.9-4.3-4.3-4.3-4.3 1.9-4.3 4.3 1.9 4.3 4.3 4.3"/><path id="Fill-123" class="st1" d="M196 155.2c4.3 0 7.8-3.5 7.8-7.8s-3.5-7.8-7.8-7.8-7.8 3.5-7.8 7.8c0 4.4 3.5 7.8 7.8 7.8"/><path id="Fill-125" class="st1" d="M244.5 158.9c6.3 0 11.4-5.1 11.4-11.4 0-6.3-5.1-11.4-11.4-11.4s-11.4 5.1-11.4 11.4c0 6.3 5.1 11.4 11.4 11.4"/><path id="Fill-127" class="st1" d="M293 162.5c8.3 0 15.1-6.7 15.1-15.1s-6.7-15.1-15.1-15.1c-8.3 0-15.1 6.7-15.1 15.1s6.8 15.1 15.1 15.1"/><path id="Fill-129" class="st1" d="M341.5 165.1c9.7 0 17.6-7.9 17.6-17.6 0-9.7-7.9-17.6-17.6-17.6s-17.6 7.9-17.6 17.6c0 9.7 7.9 17.6 17.6 17.6"/><path id="Fill-131" class="st1" d="M390 166.4c10.5 0 19-8.5 19-19s-8.5-19-19-19-19 8.5-19 19c.1 10.5 8.6 19 19 19"/><path id="Fill-133" class="st1" d="M438.6 166.3c10.4 0 18.8-8.4 18.8-18.8s-8.4-18.8-18.8-18.8-18.8 8.4-18.8 18.8c-.1 10.3 8.4 18.8 18.8 18.8"/><path id="Fill-135" class="st1" d="M487.1 164.7c9.5 0 17.2-7.7 17.2-17.2s-7.7-17.2-17.2-17.2-17.2 7.7-17.2 17.2 7.7 17.2 17.2 17.2"/><path id="Fill-137" class="st1" d="M535.6 162c8 0 14.5-6.5 14.5-14.5s-6.5-14.5-14.5-14.5-14.5 6.5-14.5 14.5 6.5 14.5 14.5 14.5"/><path id="Fill-139" class="st1" d="M584.1 158.2c5.9 0 10.8-4.8 10.8-10.8 0-5.9-4.8-10.8-10.8-10.8-5.9 0-10.8 4.8-10.8 10.8.1 6 4.9 10.8 10.8 10.8"/><path id="Fill-141" class="st1" d="M632.6 154.6c3.9 0 7.1-3.2 7.1-7.1 0-3.9-3.2-7.1-7.1-7.1-3.9 0-7.1 3.2-7.1 7.1 0 3.9 3.2 7.1 7.1 7.1"/><path id="Fill-143" class="st1" d="M681.2 151.2c2.1 0 3.8-1.7 3.8-3.8s-1.7-3.8-3.8-3.8-3.8 1.7-3.8 3.8 1.7 3.8 3.8 3.8"/><path id="Fill-145" class="st1" d="M729.7 149.2c1 0 1.7-.8 1.7-1.8s-.8-1.7-1.7-1.7c-1 0-1.7.8-1.7 1.7s.7 1.8 1.7 1.8"/><path id="Fill-147" class="st1" d="M778.2 148c.3 0 .5-.2.5-.5s-.2-.5-.5-.5-.5.2-.5.5.2.5.5.5"/><path id="Fill-155" class="st1" d="M50.4 197.4c.8 0 1.5-.7 1.5-1.5s-.7-1.5-1.5-1.5-1.5.7-1.5 1.5c0 .9.7 1.5 1.5 1.5"/><path id="Fill-157" class="st1" d="M98.9 200c2.2 0 4-1.8 4-4s-1.8-4-4-4-4 1.8-4 4 1.8 4 4 4"/><path id="Fill-159" class="st1" d="M147.5 203.8c4.3 0 7.8-3.5 7.8-7.8s-3.5-7.8-7.8-7.8-7.8 3.5-7.8 7.8 3.4 7.8 7.8 7.8"/><path id="Fill-161" class="st1" d="M196 209c7.2 0 13-5.8 13-13s-5.8-13-13-13-13 5.8-13 13c-.1 7.2 5.8 13 13 13"/><path id="Fill-163" class="st1" d="M244.5 213.9c9.9 0 17.9-8 17.9-17.9s-8-17.9-17.9-17.9-17.9 8-17.9 17.9c0 9.8 8 17.9 17.9 17.9"/><path id="Fill-165" class="st1" d="M584.1 213c9.4 0 17.1-7.6 17.1-17.1 0-9.4-7.7-17.1-17.1-17.1-9.4 0-17.1 7.6-17.1 17.1s7.7 17.1 17.1 17.1"/><path id="Fill-167" class="st1" d="M632.6 208.1c6.7 0 12.1-5.4 12.1-12.1 0-6.7-5.4-12.1-12.1-12.1-6.7 0-12.1 5.4-12.1 12.1 0 6.6 5.5 12.1 12.1 12.1"/><path id="Fill-169" class="st1" d="M681.2 203c3.9 0 7-3.1 7-7s-3.1-7-7-7-7 3.1-7 7c0 3.8 3.1 7 7 7"/><path id="Fill-171" class="st1" d="M729.7 199.5c1.9 0 3.5-1.6 3.5-3.5s-1.6-3.5-3.5-3.5-3.5 1.6-3.5 3.5 1.6 3.5 3.5 3.5"/><path id="Fill-173" class="st1" d="M778.2 197.2c.7 0 1.2-.5 1.2-1.2s-.5-1.2-1.2-1.2-1.2.5-1.2 1.2c0 .6.5 1.2 1.2 1.2"/><path id="Fill-175" class="st1" d="M827 196c0-.1-.1-.3-.3-.3-.1 0-.3.1-.3.3 0 .1.1.3.3.3.2-.1.3-.2.3-.3"/><path id="Fill-179" class="st1" d="M1.9 245.3c.4 0 .8-.4.8-.8s-.4-.8-.8-.8-.8.4-.8.8.4.8.8.8"/><path id="Fill-181" class="st1" d="M50.4 247c1.4 0 2.6-1.1 2.6-2.6 0-1.4-1.1-2.6-2.6-2.6-1.4 0-2.6 1.1-2.6 2.6.1 1.5 1.2 2.6 2.6 2.6"/><path id="Fill-183" class="st1" d="M98.9 250.8c3.5 0 6.3-2.8 6.3-6.3s-2.8-6.3-6.3-6.3-6.3 2.8-6.3 6.3 2.8 6.3 6.3 6.3"/><path id="Fill-185" class="st1" d="M147.5 255.9c6.3 0 11.4-5.1 11.4-11.4s-5.1-11.4-11.4-11.4c-6.3 0-11.4 5.1-11.4 11.4-.1 6.3 5 11.4 11.4 11.4"/><path id="Fill-187" class="st1" d="M196 262.4c9.9 0 17.9-8 17.9-17.9s-8-17.9-17.9-17.9-17.9 8-17.9 17.9 8 17.9 17.9 17.9"/><path id="Fill-189" class="st1" d="M632.6 261.3c9.3 0 16.8-7.5 16.8-16.8s-7.5-16.8-16.8-16.8-16.8 7.5-16.8 16.8 7.6 16.8 16.8 16.8"/><path id="Fill-191" class="st1" d="M681.2 255c5.8 0 10.5-4.7 10.5-10.5S687 234 681.2 234s-10.5 4.7-10.5 10.5 4.7 10.5 10.5 10.5"/><path id="Fill-193" class="st1" d="M729.7 250c3 0 5.5-2.5 5.5-5.5s-2.5-5.5-5.5-5.5-5.5 2.5-5.5 5.5 2.4 5.5 5.5 5.5"/><path id="Fill-195" class="st1" d="M778.2 246.6c1.2 0 2.2-1 2.2-2.2s-1-2.2-2.2-2.2-2.2 1-2.2 2.2 1 2.2 2.2 2.2"/><path id="Fill-197" class="st1" d="M826.7 245.1c.4 0 .7-.3.7-.7s-.3-.7-.7-.7-.7.3-.7.7.3.7.7.7"/><path id="Fill-201" class="st1" d="M1.9 294.2c.7 0 1.2-.5 1.2-1.2s-.5-1.2-1.2-1.2-1.2.5-1.2 1.2.5 1.2 1.2 1.2"/><path id="Fill-203" class="st1" d="M50.4 296.8c2.1 0 3.8-1.7 3.8-3.8 0-2.1-1.7-3.8-3.8-3.8-2.1 0-3.8 1.7-3.8 3.8.1 2.1 1.7 3.8 3.8 3.8"/><path id="Fill-205" class="st1" d="M98.9 301.7c4.8 0 8.7-3.9 8.7-8.7 0-4.8-3.9-8.7-8.7-8.7s-8.7 3.9-8.7 8.7c0 4.8 3.9 8.7 8.7 8.7"/><path id="Fill-207" class="st1" d="M147.5 308.1c8.3 0 15.1-6.7 15.1-15.1 0-8.3-6.7-15.1-15.1-15.1-8.3 0-15.1 6.7-15.1 15.1 0 8.3 6.7 15.1 15.1 15.1"/><path id="Fill-209" class="st1" d="M632.6 314.1c11.7 0 21.1-9.5 21.1-21.1 0-11.7-9.5-21.1-21.1-21.1-11.7 0-21.1 9.5-21.1 21.1 0 11.7 9.5 21.1 21.1 21.1"/><path id="Fill-211" class="st1" d="M681.2 307c7.7 0 14-6.3 14-14s-6.3-14-14-14-14 6.3-14 14 6.2 14 14 14"/><path id="Fill-213" class="st1" d="M729.7 300.8c4.3 0 7.8-3.5 7.8-7.8s-3.5-7.8-7.8-7.8-7.8 3.5-7.8 7.8 3.5 7.8 7.8 7.8"/><path id="Fill-215" class="st1" d="M778.2 296.2c1.8 0 3.2-1.4 3.2-3.2 0-1.8-1.4-3.2-3.2-3.2s-3.2 1.5-3.2 3.2c0 1.8 1.4 3.2 3.2 3.2"/><path id="Fill-217" class="st1" d="M826.7 293.9c.5 0 .9-.4.9-.9s-.4-.9-.9-.9-.9.4-.9.9.4.9.9.9"/><path id="Fill-221" class="st1" d="M1.9 343.1c.9 0 1.6-.7 1.6-1.6s-.7-1.6-1.6-1.6c-.9 0-1.6.7-1.6 1.6s.7 1.6 1.6 1.6"/><path id="Fill-223" class="st1" d="M50.4 346.2c2.6 0 4.7-2.1 4.7-4.7s-2.1-4.7-4.7-4.7-4.7 2.1-4.7 4.7 2.1 4.7 4.7 4.7"/><path id="Fill-225" class="st1" d="M98.9 352.1c5.9 0 10.6-4.8 10.6-10.6s-4.8-10.6-10.6-10.6c-5.9 0-10.6 4.8-10.6 10.6s4.8 10.6 10.6 10.6"/><path id="Fill-227" class="st1" d="M147.5 359.1c9.7 0 17.6-7.9 17.6-17.6s-7.9-17.6-17.6-17.6c-9.7 0-17.6 7.9-17.6 17.6-.1 9.7 7.8 17.6 17.6 17.6"/><path id="Fill-229" class="st1" d="M681.2 357.9c9.1 0 16.4-7.3 16.4-16.4s-7.4-16.4-16.4-16.4c-9.1 0-16.4 7.3-16.4 16.4-.1 9.1 7.3 16.4 16.4 16.4"/><path id="Fill-231" class="st1" d="M729.7 351.1c5.3 0 9.6-4.3 9.6-9.5s-4.3-9.6-9.6-9.6-9.5 4.3-9.5 9.6 4.2 9.5 9.5 9.5"/><path id="Fill-233" class="st1" d="M778.2 345.5c2.2 0 4-1.8 4-4s-1.8-4-4-4-4 1.8-4 4 1.8 4 4 4"/><path id="Fill-235" class="st1" d="M826.7 342.9c.7 0 1.3-.6 1.3-1.3s-.6-1.3-1.3-1.3-1.3.6-1.3 1.3.6 1.3 1.3 1.3"/><path id="Fill-239" class="st1" d="M1.9 388.1c-1 0-1.9.8-1.9 1.9s.8 1.9 1.9 1.9c1 0 1.9-.8 1.9-1.9s-.9-1.9-1.9-1.9"/><path id="Fill-241" class="st1" d="M50.4 384.6c-3 0-5.4 2.4-5.4 5.4s2.4 5.4 5.4 5.4 5.4-2.4 5.4-5.4-2.4-5.4-5.4-5.4"/><path id="Fill-243" class="st1" d="M98.9 378.3c-6.5 0-11.7 5.2-11.7 11.7s5.2 11.7 11.7 11.7 11.7-5.2 11.7-11.7c0-6.4-5.2-11.7-11.7-11.7"/><path id="Fill-245" class="st1" d="M147.5 371c-10.5 0-19 8.5-19 19s8.5 19 19 19 19-8.5 19-19c-.1-10.5-8.6-19-19-19"/><path id="Fill-247" class="st1" d="M681.2 372.4c-9.7 0-17.6 7.9-17.6 17.6s7.9 17.6 17.6 17.6c9.7 0 17.6-7.9 17.6-17.6s-7.9-17.6-17.6-17.6"/><path id="Fill-249" class="st1" d="M729.7 379.5c-5.8 0-10.5 4.7-10.5 10.5s4.7 10.5 10.5 10.5 10.5-4.7 10.5-10.5-4.7-10.5-10.5-10.5"/><path id="Fill-251" class="st1" d="M778.2 385.4c-2.5 0-4.6 2-4.6 4.6 0 2.5 2 4.6 4.6 4.6 2.5 0 4.6-2 4.6-4.6 0-2.5-2.1-4.6-4.6-4.6"/><path id="Fill-253" class="st1" d="M826.7 391.6c.9 0 1.6-.7 1.6-1.6s-.7-1.6-1.6-1.6c-.9 0-1.6.7-1.6 1.6s.7 1.6 1.6 1.6"/><path id="Fill-258" class="st1" d="M1.9 436.6c-1 0-1.9.8-1.9 1.9 0 1 .8 1.9 1.9 1.9 1 0 1.9-.8 1.9-1.9 0-1-.9-1.9-1.9-1.9"/><path id="Fill-260" class="st1" d="M50.4 433.3c-2.9 0-5.2 2.3-5.2 5.2 0 2.9 2.3 5.2 5.2 5.2 2.9 0 5.2-2.4 5.2-5.2.1-2.9-2.3-5.2-5.2-5.2"/><path id="Fill-262" class="st1" d="M98.9 427c-6.4 0-11.6 5.2-11.6 11.6s5.2 11.6 11.6 11.6c6.4 0 11.6-5.2 11.6-11.6 0-6.5-5.2-11.6-11.6-11.6"/><path id="Fill-264" class="st1" d="M147.5 419.7c-10.4 0-18.8 8.4-18.8 18.8s8.4 18.8 18.8 18.8 18.8-8.4 18.8-18.8-8.4-18.8-18.8-18.8"/><path id="Fill-266" class="st1" d="M681.2 420.9c-9.7 0-17.6 7.9-17.6 17.6s7.9 17.6 17.6 17.6c9.7 0 17.6-7.9 17.6-17.6s-7.9-17.6-17.6-17.6"/><path id="Fill-268" class="st1" d="M729.7 428c-5.8 0-10.5 4.7-10.5 10.5s4.7 10.5 10.5 10.5 10.5-4.7 10.5-10.5-4.7-10.5-10.5-10.5"/><path id="Fill-270" class="st1" d="M778.2 434c-2.5 0-4.6 2-4.6 4.6 0 2.5 2 4.6 4.6 4.6 2.5 0 4.6-2.1 4.6-4.6 0-2.6-2.1-4.6-4.6-4.6"/><path id="Fill-272" class="st1" d="M826.7 437.1c-.8 0-1.5.7-1.5 1.5s.7 1.5 1.5 1.5 1.5-.7 1.5-1.5c0-.9-.7-1.5-1.5-1.5"/><path id="Fill-276" class="st1" d="M1.9 485.4c-.9 0-1.6.7-1.6 1.6 0 .9.7 1.6 1.6 1.6.9 0 1.6-.7 1.6-1.6 0-.8-.7-1.6-1.6-1.6"/><path id="Fill-278" class="st1" d="M50.4 482.5c-2.5 0-4.6 2-4.6 4.6s2 4.6 4.6 4.6c2.5 0 4.6-2 4.6-4.6s-2.1-4.6-4.6-4.6"/><path id="Fill-280" class="st1" d="M98.9 476.7c-5.7 0-10.4 4.6-10.4 10.4 0 5.7 4.6 10.4 10.4 10.4 5.7 0 10.4-4.6 10.4-10.4 0-5.8-4.6-10.4-10.4-10.4"/><path id="Fill-282" class="st1" d="M147.5 469.8c-9.5 0-17.2 7.7-17.2 17.2s7.7 17.2 17.2 17.2 17.2-7.7 17.2-17.2-7.7-17.2-17.2-17.2"/><path id="Fill-284" class="st1" d="M681.2 471c-8.8 0-16 7.2-16 16s7.2 16 16 16 16-7.2 16-16-7.2-16-16-16"/><path id="Fill-286" class="st1" d="M729.7 477.8c-5.1 0-9.3 4.2-9.3 9.3s4.2 9.3 9.3 9.3 9.3-4.2 9.3-9.3c0-5.2-4.2-9.3-9.3-9.3"/><path id="Fill-288" class="st1" d="M778.2 483.1c-2.2 0-3.9 1.7-3.9 3.9s1.7 3.9 3.9 3.9 3.9-1.7 3.9-3.9c0-2.1-1.7-3.9-3.9-3.9"/><path id="Fill-290" class="st1" d="M826.7 485.7c-.7 0-1.3.6-1.3 1.3s.6 1.3 1.3 1.3 1.3-.6 1.3-1.3c.1-.7-.5-1.3-1.3-1.3"/><path id="Fill-294" class="st1" d="M1.9 534.3c-.7 0-1.2.5-1.2 1.2s.5 1.2 1.2 1.2 1.2-.5 1.2-1.2c0-.6-.5-1.2-1.2-1.2"/><path id="Fill-296" class="st1" d="M50.4 531.9c-2 0-3.6 1.6-3.6 3.6s1.6 3.6 3.6 3.6 3.6-1.6 3.6-3.6-1.6-3.6-3.6-3.6"/><path id="Fill-298" class="st1" d="M98.9 527.2c-4.6 0-8.3 3.7-8.3 8.3s3.7 8.3 8.3 8.3 8.3-3.7 8.3-8.3c.1-4.5-3.6-8.3-8.3-8.3"/><path id="Fill-300" class="st1" d="M147.5 521c-8 0-14.5 6.5-14.5 14.5s6.5 14.5 14.5 14.5 14.5-6.5 14.5-14.5-6.5-14.5-14.5-14.5"/><path id="Fill-302" class="st1" d="M632.6 515c-11.4 0-20.6 9.2-20.6 20.6 0 11.4 9.2 20.6 20.6 20.6 11.4 0 20.6-9.2 20.6-20.6 0-11.4-9.2-20.6-20.6-20.6"/><path id="Fill-304" class="st1" d="M681.2 522.1c-7.4 0-13.5 6-13.5 13.5 0 7.4 6 13.5 13.5 13.5 7.4 0 13.5-6 13.5-13.5-.1-7.5-6.1-13.5-13.5-13.5"/><path id="Fill-306" class="st1" d="M729.7 528.2c-4.1 0-7.4 3.3-7.4 7.4 0 4.1 3.3 7.4 7.4 7.4 4.1 0 7.4-3.3 7.4-7.4 0-4.1-3.3-7.4-7.4-7.4"/><path id="Fill-308" class="st1" d="M778.2 532.6c-1.6 0-3 1.3-3 3 0 1.6 1.3 3 3 3 1.6 0 3-1.3 3-3s-1.4-3-3-3"/><path id="Fill-310" class="st1" d="M826.7 534.6c-.5 0-.9.4-.9.9s.4.9.9.9.9-.4.9-.9c.1-.5-.4-.9-.9-.9"/><path id="Fill-314" class="st1" d="M1.9 583.4c-.4 0-.7.3-.7.7s.3.7.7.7.7-.3.7-.7-.3-.7-.7-.7"/><path id="Fill-316" class="st1" d="M50.4 581.8c-1.3 0-2.3 1-2.3 2.3s1 2.3 2.3 2.3 2.3-1 2.3-2.3c0-1.3-1-2.3-2.3-2.3"/><path id="Fill-318" class="st1" d="M98.9 578.2c-3.3 0-5.9 2.7-5.9 5.9 0 3.3 2.7 5.9 5.9 5.9 3.3 0 5.9-2.7 5.9-5.9.1-3.3-2.6-5.9-5.9-5.9"/><path id="Fill-320" class="st1" d="M147.5 573.3c-5.9 0-10.8 4.8-10.8 10.8 0 5.9 4.8 10.8 10.8 10.8 5.9 0 10.8-4.8 10.8-10.8-.1-6-4.9-10.8-10.8-10.8"/><path id="Fill-322" class="st1" d="M196 567c-9.4 0-17.1 7.6-17.1 17.1 0 9.4 7.7 17.1 17.1 17.1 9.4 0 17.1-7.6 17.1-17.1S205.4 567 196 567"/><path id="Fill-324" class="st1" d="M584.1 562.5c-11.9 0-21.5 9.6-21.5 21.5s9.6 21.5 21.5 21.5 21.5-9.6 21.5-21.5c.1-11.8-9.6-21.5-21.5-21.5"/><path id="Fill-326" class="st1" d="M632.6 568.1c-8.8 0-16 7.2-16 16s7.2 16 16 16 16-7.2 16-16c.1-8.9-7.1-16-16-16"/><path id="Fill-328" class="st1" d="M681.2 574.3c-5.4 0-9.8 4.4-9.8 9.8s4.4 9.8 9.8 9.8 9.8-4.4 9.8-9.8-4.4-9.8-9.8-9.8"/><path id="Fill-330" class="st1" d="M729.7 579c-2.8 0-5.1 2.3-5.1 5.1s2.3 5.1 5.1 5.1 5.1-2.3 5.1-5.1-2.3-5.1-5.1-5.1"/><path id="Fill-332" class="st1" d="M778.2 582.2c-1 0-1.9.8-1.9 1.9 0 1 .8 1.9 1.9 1.9s1.9-.8 1.9-1.9c0-1.1-.9-1.9-1.9-1.9"/><path id="Fill-334" class="st1" d="M826.7 583.5c-.3 0-.5.2-.5.5s.2.5.5.5.5-.2.5-.5c.1-.2-.2-.5-.5-.5"/><path id="Fill-340" class="st1" d="M50.4 631.2c-.7 0-1.3.6-1.3 1.4s.6 1.3 1.3 1.3 1.3-.6 1.3-1.3-.5-1.4-1.3-1.4"/><path id="Fill-342" class="st1" d="M98.9 629c-2 0-3.6 1.6-3.6 3.6s1.6 3.6 3.6 3.6 3.6-1.6 3.6-3.6c.1-2-1.6-3.6-3.6-3.6"/><path id="Fill-344" class="st1" d="M147.5 625.5c-3.9 0-7.1 3.2-7.1 7.1 0 3.9 3.2 7.1 7.1 7.1 3.9 0 7.1-3.2 7.1-7.1s-3.2-7.1-7.1-7.1"/><path id="Fill-346" class="st1" d="M196 620.5c-6.7 0-12.1 5.4-12.1 12.1 0 6.7 5.4 12.1 12.1 12.1 6.7 0 12.1-5.4 12.1-12.1s-5.4-12.1-12.1-12.1"/><path id="Fill-348" class="st1" d="M244.5 615.8c-9.3 0-16.8 7.5-16.8 16.8s7.5 16.8 16.8 16.8 16.8-7.5 16.8-16.8-7.5-16.8-16.8-16.8"/><path id="Fill-350" class="st1" d="M293 611.5c-11.7 0-21.1 9.5-21.1 21.1 0 11.7 9.5 21.1 21.1 21.1 11.7 0 21.1-9.5 21.1-21.1 0-11.7-9.4-21.1-21.1-21.1"/><path id="Fill-352" class="st1" d="M535.6 612c-11.4 0-20.6 9.2-20.6 20.6 0 11.4 9.2 20.6 20.6 20.6 11.4 0 20.6-9.2 20.6-20.6 0-11.4-9.2-20.6-20.6-20.6"/><path id="Fill-354" class="st1" d="M584.1 616.6c-8.8 0-16 7.2-16 16s7.2 16 16 16 16-7.2 16-16c0-8.9-7.1-16-16-16"/><path id="Fill-356" class="st1" d="M632.6 621.3c-6.2 0-11.3 5.1-11.3 11.3s5.1 11.3 11.3 11.3 11.3-5.1 11.3-11.3c0-6.3-5-11.3-11.3-11.3"/><path id="Fill-358" class="st1" d="M681.2 626.1c-3.6 0-6.5 2.9-6.5 6.5s2.9 6.5 6.5 6.5 6.5-2.9 6.5-6.5c-.1-3.6-3-6.5-6.5-6.5"/><path id="Fill-360" class="st1" d="M729.7 629.5c-1.7 0-3.1 1.4-3.1 3.1 0 1.7 1.4 3.1 3.1 3.1 1.7 0 3.1-1.4 3.1-3.1s-1.4-3.1-3.1-3.1"/><path id="Fill-362" class="st1" d="M778.2 631.5c-.6 0-1.1.5-1.1 1.1s.5 1.1 1.1 1.1 1.1-.5 1.1-1.1-.5-1.1-1.1-1.1"/><path id="Fill-370" class="st1" d="M50.4 680.6c-.3 0-.5.2-.5.5s.2.5.5.5.5-.2.5-.5c.1-.3-.2-.5-.5-.5"/><path id="Fill-372" class="st1" d="M98.9 679.4c-1 0-1.7.8-1.7 1.8s.8 1.7 1.7 1.7c1 0 1.8-.8 1.8-1.7 0-1.1-.8-1.8-1.8-1.8"/><path id="Fill-374" class="st1" d="M147.5 677.3c-2.1 0-3.8 1.7-3.8 3.8s1.7 3.8 3.8 3.8 3.8-1.7 3.8-3.8c-.1-2.1-1.8-3.8-3.8-3.8"/><path id="Fill-376" class="st1" d="M196 674.1c-3.9 0-7 3.1-7 7s3.1 7 7 7 7-3.1 7-7-3.2-7-7-7"/><path id="Fill-378" class="st1" d="M244.5 670.6c-5.8 0-10.5 4.7-10.5 10.5s4.7 10.5 10.5 10.5 10.5-4.7 10.5-10.5-4.7-10.5-10.5-10.5"/><path id="Fill-380" class="st1" d="M293 667.1c-7.7 0-14 6.3-14 14s6.3 14 14 14 14-6.3 14-14-6.3-14-14-14"/><path id="Fill-382" class="st1" d="M341.5 664.7c-9.1 0-16.4 7.3-16.4 16.4s7.4 16.4 16.4 16.4c9.1 0 16.4-7.3 16.4-16.4s-7.3-16.4-16.4-16.4"/><path id="Fill-384" class="st1" d="M390 663.5c-9.7 0-17.6 7.9-17.6 17.6 0 9.7 7.9 17.6 17.6 17.6s17.6-7.9 17.6-17.6c.1-9.7-7.8-17.6-17.6-17.6"/><path id="Fill-386" class="st1" d="M438.6 663.5c-9.7 0-17.6 7.9-17.6 17.6 0 9.7 7.9 17.6 17.6 17.6s17.6-7.9 17.6-17.6-7.9-17.6-17.6-17.6"/><path id="Fill-388" class="st1" d="M487.1 665.1c-8.8 0-16 7.2-16 16s7.2 16 16 16 16-7.2 16-16-7.2-16-16-16"/><path id="Fill-390" class="st1" d="M535.6 667.7c-7.4 0-13.5 6-13.5 13.5 0 7.4 6 13.5 13.5 13.5 7.4 0 13.5-6 13.5-13.5s-6.1-13.5-13.5-13.5"/><path id="Fill-392" class="st1" d="M584.1 671.3c-5.4 0-9.8 4.4-9.8 9.8s4.4 9.8 9.8 9.8 9.8-4.4 9.8-9.8-4.3-9.8-9.8-9.8"/><path id="Fill-394" class="st1" d="M632.6 674.7c-3.6 0-6.5 2.9-6.5 6.5s2.9 6.5 6.5 6.5 6.5-2.9 6.5-6.5c0-3.7-2.9-6.5-6.5-6.5"/><path id="Fill-396" class="st1" d="M681.2 677.7c-1.9 0-3.4 1.5-3.4 3.4s1.5 3.4 3.4 3.4 3.4-1.5 3.4-3.4c-.1-1.9-1.6-3.4-3.4-3.4"/><path id="Fill-398" class="st1" d="M729.7 679.6c-.8 0-1.5.7-1.5 1.5s.7 1.5 1.5 1.5 1.5-.7 1.5-1.5-.7-1.5-1.5-1.5"/><path id="Fill-400" class="st1" d="M778.2 680.7c-.2 0-.4.2-.4.4s.2.4.4.4.4-.2.4-.4-.2-.4-.4-.4"/><path id="Fill-406" class="st1" d="M98.9 728.9c-.4 0-.7.3-.7.7s.3.7.7.7.7-.3.7-.7c0-.4-.3-.7-.7-.7"/><path id="Fill-408" class="st1" d="M147.5 727.9c-1 0-1.8.8-1.8 1.7 0 1 .8 1.8 1.8 1.8s1.7-.8 1.7-1.8c0-.9-.8-1.7-1.7-1.7"/><path id="Fill-410" class="st1" d="M196 726.1c-1.9 0-3.5 1.6-3.5 3.5s1.6 3.5 3.5 3.5 3.5-1.6 3.5-3.5-1.6-3.5-3.5-3.5"/><path id="Fill-412" class="st1" d="M244.5 724.1c-3 0-5.5 2.5-5.5 5.5s2.5 5.5 5.5 5.5 5.5-2.5 5.5-5.5-2.5-5.5-5.5-5.5"/><path id="Fill-414" class="st1" d="M293 721.8c-4.3 0-7.8 3.5-7.8 7.8s3.5 7.8 7.8 7.8 7.8-3.5 7.8-7.8-3.5-7.8-7.8-7.8"/><path id="Fill-416" class="st1" d="M341.5 720.1c-5.3 0-9.6 4.3-9.6 9.6s4.3 9.6 9.6 9.6 9.6-4.3 9.6-9.6-4.3-9.6-9.6-9.6"/><path id="Fill-418" class="st1" d="M390 719.1c-5.8 0-10.5 4.7-10.5 10.5s4.7 10.5 10.5 10.5 10.5-4.7 10.5-10.5-4.7-10.5-10.5-10.5"/><path id="Fill-420" class="st1" d="M438.6 719.1c-5.8 0-10.5 4.7-10.5 10.5s4.7 10.5 10.5 10.5 10.5-4.7 10.5-10.5-4.7-10.5-10.5-10.5"/><path id="Fill-422" class="st1" d="M487.1 720.3c-5.1 0-9.3 4.2-9.3 9.3s4.2 9.3 9.3 9.3 9.3-4.2 9.3-9.3c0-5.1-4.2-9.3-9.3-9.3"/><path id="Fill-424" class="st1" d="M535.6 722.2c-4.1 0-7.4 3.3-7.4 7.4 0 4.1 3.3 7.4 7.4 7.4 4.1 0 7.4-3.3 7.4-7.4s-3.3-7.4-7.4-7.4"/><path id="Fill-426" class="st1" d="M584.1 724.5c-2.8 0-5.1 2.3-5.1 5.1s2.3 5.1 5.1 5.1 5.1-2.3 5.1-5.1-2.3-5.1-5.1-5.1"/><path id="Fill-428" class="st1" d="M632.6 726.5c-1.7 0-3.1 1.4-3.1 3.1 0 1.7 1.4 3.1 3.1 3.1 1.7 0 3.1-1.4 3.1-3.1 0-1.7-1.3-3.1-3.1-3.1"/><path id="Fill-430" class="st1" d="M681.2 728.1c-.8 0-1.5.7-1.5 1.5s.7 1.5 1.5 1.5 1.5-.7 1.5-1.5c-.1-.8-.7-1.5-1.5-1.5"/><path id="Fill-432" class="st1" d="M729.7 729.1c-.3 0-.5.2-.5.5s.2.5.5.5.5-.2.5-.5-.2-.5-.5-.5"/><path id="Fill-438" class="st1" d="M147.5 777.6c-.3 0-.5.2-.5.5s.2.5.5.5.5-.2.5-.5-.2-.5-.5-.5"/><path id="Fill-440" class="st1" d="M196 776.9c-.7 0-1.2.5-1.2 1.2s.5 1.2 1.2 1.2 1.2-.5 1.2-1.2c0-.6-.6-1.2-1.2-1.2"/><path id="Fill-442" class="st1" d="M244.5 776c-1.2 0-2.2 1-2.2 2.1 0 1.2 1 2.2 2.2 2.2s2.2-1 2.2-2.2c-.1-1.2-1-2.1-2.2-2.1"/><path id="Fill-444" class="st1" d="M293 774.9c-1.8 0-3.2 1.4-3.2 3.2s1.4 3.2 3.2 3.2 3.2-1.5 3.2-3.2-1.4-3.2-3.2-3.2"/><path id="Fill-446" class="st1" d="M341.5 774.1c-2.2 0-4 1.8-4 4s1.8 4 4 4 4-1.8 4-4c.1-2.2-1.7-4-4-4"/><path id="Fill-448" class="st1" d="M390 773.6c-2.5 0-4.6 2-4.6 4.6 0 2.5 2 4.6 4.6 4.6 2.5 0 4.6-2 4.6-4.6s-2-4.6-4.6-4.6"/><path id="Fill-450" class="st1" d="M438.6 773.6c-2.5 0-4.6 2-4.6 4.6 0 2.5 2 4.6 4.6 4.6s4.6-2 4.6-4.6c-.1-2.6-2.1-4.6-4.6-4.6"/><path id="Fill-452" class="st1" d="M487.1 774.2c-2.2 0-3.9 1.7-3.9 3.9s1.7 3.9 3.9 3.9 3.9-1.7 3.9-3.9c0-2.1-1.8-3.9-3.9-3.9"/><path id="Fill-454" class="st1" d="M535.6 775.2c-1.6 0-3 1.3-3 3 0 1.6 1.3 3 3 3s3-1.3 3-3-1.4-3-3-3"/><path id="Fill-456" class="st1" d="M584.1 776.3c-1 0-1.9.8-1.9 1.9 0 1 .8 1.9 1.9 1.9 1 0 1.9-.8 1.9-1.9s-.8-1.9-1.9-1.9"/><path id="Fill-458" class="st1" d="M632.6 777.1c-.6 0-1.1.5-1.1 1.1s.5 1.1 1.1 1.1 1.1-.5 1.1-1.1c0-.7-.5-1.1-1.1-1.1"/><path id="Fill-460" class="st1" d="M681.2 777.7c-.2 0-.4.2-.4.4s.2.4.4.4.4-.2.4-.4-.2-.4-.4-.4"/><path id="Fill-466" class="st1" d="M195.7 826.7c0 .1.1.3.3.3.1 0 .3-.1.3-.3 0-.1-.1-.3-.3-.3s-.3.1-.3.3"/><path id="Fill-468" class="st1" d="M244.5 826c-.4 0-.7.3-.7.7s.3.7.7.7.7-.3.7-.7-.3-.7-.7-.7"/><path id="Fill-470" class="st1" d="M293 825.7c-.5 0-.9.4-.9.9s.4.9.9.9.9-.4.9-.9-.4-.9-.9-.9"/><path id="Fill-472" class="st1" d="M341.5 825.3c-.7 0-1.3.6-1.3 1.3s.6 1.3 1.3 1.3 1.3-.6 1.3-1.3c.1-.7-.5-1.3-1.3-1.3"/><path id="Fill-474" class="st1" d="M390 825c-.9 0-1.6.7-1.6 1.6 0 .9.7 1.6 1.6 1.6s1.6-.7 1.6-1.6c.1-.8-.7-1.6-1.6-1.6"/><path id="Fill-476" class="st1" d="M438.6 825.2c-.8 0-1.5.7-1.5 1.5s.7 1.5 1.5 1.5 1.5-.7 1.5-1.5c-.1-.9-.7-1.5-1.5-1.5"/><path id="Fill-478" class="st1" d="M487.1 825.3c-.7 0-1.3.6-1.3 1.3s.6 1.3 1.3 1.3 1.3-.6 1.3-1.3c0-.7-.6-1.3-1.3-1.3"/><path id="Fill-480" class="st1" d="M535.6 825.7c-.5 0-.9.4-.9.9s.4.9.9.9.9-.4.9-.9-.4-.9-.9-.9"/><path id="Fill-482" class="st1" d="M584.1 826.1c-.3 0-.5.2-.5.5s.2.5.5.5.5-.2.5-.5c.1-.2-.2-.5-.5-.5"/><path id="Fill-484" class="st1" d="M632.4 826.7c0 .1.1.3.3.3.1 0 .3-.1.3-.3 0-.1-.1-.3-.3-.3s-.3.1-.3.3"/><path id="Fill-1" class="st1" d="M636.5 365c12.4 1.6 22 12.1 22 25 0 11.7-8 21.6-18.8 24.4 10.8 2.8 18.7 12.6 18.7 24.2 0 13.8-11.2 25.1-25 25.1-9.1 0-17.1-4.9-21.4-12.2-2.3 4.9-6 9.2-10.5 12.2 4.8 3.4 8.6 8.3 10.6 14 3.6-8.2 11.8-13.9 21.4-13.9 12.9 0 23.4 10.5 23.4 23.5s-10.5 23.5-23.4 23.5c-9.5 0-17.7-5.7-21.4-13.9-2.5 7.1-7.6 12.9-14.2 16.2 7.9 4.5 13.3 13.1 13.3 22.9 0 14.5-11.7 26.3-26.2 26.3-9.2 0-17.2-4.7-21.9-11.8-2.8 5.2-7 9.4-12.2 12.2 7.1 4.7 11.8 12.8 11.8 21.9 0 14.5-11.7 26.3-26.2 26.3-9.8 0-18.3-5.4-22.8-13.3-3.3 6.6-9.1 11.8-16.2 14.2 8.2 3.7 13.9 11.9 13.9 21.4 0 13-10.5 23.5-23.4 23.5s-23.4-10.5-23.4-23.5c0-9.6 5.7-17.8 13.9-21.4-5.7-2-10.6-5.7-14-10.6-3 4.5-7.2 8.2-12.1 10.5 7.3 4.4 12.2 12.3 12.2 21.5 0 13.8-11.2 25.1-25 25.1-11.6 0-21.4-8-24.2-18.7-2.8 10.9-12.6 18.9-24.3 18.9-12.8 0-23.4-9.6-24.9-22-1.6 11.7-11.5 20.7-23.6 20.7-13.2 0-23.8-10.7-23.8-23.9 0-9.4 5.5-17.6 13.4-21.4-6.5-2.5-11.9-7.3-15.2-13.4-4.7 7.8-13.2 13-22.9 13-13.4 0-24.5-9.9-26.4-22.8-1.9 10.5-11.1 18.4-22.1 18.4-12.4 0-22.5-10.1-22.5-22.5 0-10.8 7.5-19.8 17.6-22-12-2.2-21.3-12.3-22.1-24.8-.9 11.1-10.2 19.8-21.6 19.8-12 0-21.7-9.7-21.7-21.7s9.7-21.7 21.7-21.7c11.3 0 20.6 8.7 21.6 19.8.6-8.9 5.4-16.5 12.5-21-5.6-3.1-10-8-12.6-14-4.2 7.6-12.2 12.8-21.5 12.8-13.5 0-24.5-11-24.5-24.5 0-11.1 7.3-20.4 17.4-23.5-10.9-3.1-19-13.2-19-25.1 0-11 6.8-20.4 16.3-24.2-9.6-3.9-16.4-13.3-16.4-24.4 0-11.7 7.6-21.6 18.2-25-9.8-3.3-16.9-12.6-16.9-23.6 0-13.8 11.1-24.9 24.9-24.9 9.2 0 17.2 5 21.5 12.5 2.5-5.5 6.6-10 11.8-13.1-6-4-10.3-10.2-11.8-17.6-2.4 9.6-11.1 16.8-21.5 16.8-12.3 0-22.2-10-22.2-22.2s9.7-22.5 21.9-22.5c10.4 0 19 7.1 21.5 16.8 2-10.2 9.7-18.3 19.5-21.1-9.1-3.1-15.7-11.8-15.7-22 0-12.9 10.4-23.3 23.3-23.3 10.2 0 18.9 6.6 22 15.8 2.8-9.9 10.9-17.5 21-19.5-9.6-2.5-16.7-11.1-16.7-21.5 0-12.3 9.9-22.2 22.2-22.2 12.3 0 22.2 10 22.2 22.2 0 10.4-7.1 19.1-16.7 21.5 7.3 1.5 13.5 5.8 17.5 11.8 3.1-5.1 7.6-9.3 13.1-11.8-7.4-4.3-12.5-12.4-12.5-21.6 0-13.8 11.1-24.9 24.9-24.9 10.9 0 20.2 7.1 23.5 16.9a26.21 26.21 0 0125-18.2c11 0 20.5 6.8 24.3 16.5 3.9-9.6 13.2-16.3 24.2-16.3 11.9 0 22 8 25.1 19 3.1-10.1 12.4-17.4 23.4-17.4 13.5 0 24.5 11 24.5 24.5 0 9.3-5.2 17.4-12.8 21.5 5.9 2.6 10.8 7 13.9 12.6 4.5-7.1 12.1-11.9 21-12.5-11.1-.9-19.8-10.2-19.8-21.6 0-12 9.7-21.7 21.7-21.7s21.7 9.7 21.7 21.7c0 11.4-8.7 20.7-19.8 21.6 12.4.8 22.6 10.1 24.7 22.1 2.2-10.1 11.2-17.7 21.9-17.7 12.4 0 22.5 10.1 22.5 22.5 0 11-7.9 20.2-18.4 22.1 12.9 2 22.7 13.1 22.7 26.5 0 9.8-5.2 18.3-13 23 6.1 3.3 10.8 8.7 13.3 15.2 3.9-8 12-13.4 21.4-13.4 13.2 0 23.8 10.7 23.8 23.9.1 12-8.9 22-20.6 23.5z"/><path id="Fill-117_1_" class="st1" d="M2.7 196.7c.4 0 .7-.3.7-.7s-.3-.7-.7-.7c-.4 0-.7.3-.7.7.1.4.4.7.7.7"/></g></g><path d="M174.1 400.2c2.5-36.9 13.4-71.3 31.2-103.1.6-1.3 1.3-1.9 1.9-3.2 5.7-6.4 5.1-13.4 4.5-21-5.7-36.3-11.5-73.2-17.2-110.1-1.3-7-1.9-14.6-3.2-22.3 1.3 0 1.9.6 3.2 1.3 35.6 19.7 70.6 39.5 105.6 59.8 1.9 1.3 3.2 1.3 5.1 0 20.4-10.8 42-17.8 64.9-22.3 1.9 0 3.2-1.3 5.1-1.9 28.6-17.8 56.6-35.6 84.6-53.4 1.3-.6 1.9-1.3 3.8-1.9-6.4 13.4-12.7 25.5-19.7 38.8 17.8-7 35-13.4 53.4-20.4-8.3 11.5-15.9 22.9-24.2 33.7 28-4.5 54.7-8.9 81.4-13.4 0 0 0 .6.6.6-14.6 10.8-29.3 21.6-43.9 33.1 6.4 3.2 12.1 5.7 17.8 8.9 1.3.6 1.9-.6 3.2-1.3 35.6-19.7 70.6-40.1 106.3-59.8 1.3-.6 2.5-1.3 4.5-1.9-1.3 9.5-3.2 19.1-4.5 28.6-3.8 24.2-7.6 49-10.8 73.2l-6.4 42.6c0 2.5 0 4.5 1.3 6.4 21.6 35 34.4 73.8 35.6 116.4.6 10.2 0 20.4-.6 31.2 0 1.9.6 3.2 1.9 3.8 32.5 33.1 35 82.7 5.1 117.7-16.5 19.7-37.5 29.3-63 30.5-3.8 0-8.3 0-12.1-.6-1.9 0-2.5 0-3.2 1.3-32.5 31.8-71.3 53.4-115.8 63-15.9 3.2-31.8 5.1-47.7 5.7h-12.1c-13.4-.6-26.7-1.9-40.1-4.5-59.8-12.1-108.8-42.6-146.3-90.4-26.7-34.4-42.6-73.8-48.4-117.7-1.3-5.1-1.3-10.2-2.5-14.6v-31.5c.7 0 .7-.6.7-1.3z" fill="#0a0c25"/><path class="st3" d="M410.1 661.1l12.1-.6v.6h-12.1z"/><path class="st4" d="M501.8 184.5c-5.1 4.5-10.2 7.6-15.3 11.5l-3.2 2.5c.6 1.3 1.9 1.3 3.2 1.9 14.6 4.5 28.6 10.8 42 18.5 1.9 1.3 3.2.6 4.5 0 29.3-16.5 58.5-33.1 88.4-49.6 1.3-.6 1.9-1.9 3.2-1.9h.6c-3.8 25.5-7.6 50.9-11.5 76.4-1.9 15.3-4.5 29.9-7 45.2 0 1.9 0 2.5 1.3 3.8 17.2 26.1 28.6 54.7 33.7 85.3 3.8 21.6 4.5 43.9 1.9 65.5 10.1 59.6-12.9 125.9-62.4 133.6-33.1 34.4-73.8 57.3-120.9 65.5-72.5 13.4-137.4-3.2-193.4-51.5-40.7-34.4-65.5-78.3-75.7-130.4-11.5-61.1 0-118.4 34.4-170.5 1.3-1.9 1.3-3.2 1.3-5.1-3.8-26.1-8.3-52.2-11.5-78.3l-5.7-37.5v-2.5c1.3 0 1.9.6 3.2 1.3 29.3 16.5 58.5 33.1 87.8 49.6 1.9 1.3 3.2 1.3 5.1 0 21.6-12.1 44.5-20.4 69.4-24.8 2.5-.6 4.5-1.3 6.4-2.5 14.6-9.5 29.9-19.1 45.2-28 .6-.6 1.9-.6 2.5-1.3-3.8 8.3-8.3 16.5-12.7 25.5 4.5-1.9 8.3-3.2 12.7-5.1 8.9-3.2 18.5-7 27.4-10.8.6 0 1.9 0 1.9-.6l-13.4 19.1c7 2.5 13.4.6 19.7-.6l36.3-5.7.6 1.5zm-23 285.7c2.5-4.5 2.5-7.6-.6-9.5-3.2-1.9-6.4-1.3-9.5 1.9-7.6 8.3-21 8.9-30.5 1.9-7.6-5.7-11.5-13.4-14.6-22.3-3.2-10.2-2.5-20.4-2.5-31.2h-12.7v15.3c-.6 11.5-3.2 22.3-10.2 31.8-10.2 13.4-26.1 14.6-37.5 2.5-2.5-2.5-5.7-2.5-8.3-.6-2.5 1.9-3.2 5.1-1.3 8.3 2.3 4.2 20.5 16.2 35.6 21.6 1.3 2.5 1.9 5.1 3.2 7.6 8.9 17.8 29.9 21.6 43.3 9.5 5.1-5.1 8.3-10.8 10.8-17.2 2.9-5.6 20.2-4.8 34.8-19.6zm23.6-91c-1.3.6-29.4 11.7-42 22.9-3.2 2.5-3.8 6.4-1.3 9.5s5.7 3.2 8.9 0c7-5.7 15.3-10.8 23.5-14.6 19.1-8.9 38.8-12.7 59.8-8.9 8.9 1.9 17.8 4.5 26.1 8.3 4.5 1.9 8.9 0 9.5-4.5.6-3.2-1.9-5.7-4.5-7-15.3-7.6-31.2-11.5-48.4-10.8 3.2-12.7.6-21-8.3-26.1-7.6-4.5-17.8-2.5-23.5 3.8-6.8 7.1-6.8 16 .2 27.4zm-173.1 0c.6-.6 1.3-1.9 1.9-1.9 5.1-6.4 5.7-15.3 1.3-22.9-5.1-7-13.4-10.2-21-8.3-10.8 2.5-16.5 14-13.4 24.8.6 1.9 1.3 3.2-1.9 3.2-8.3 0-29.3 4-47.1 11.5-3.2 1.9-4.5 5.1-3.2 8.3 1.3 2.5 4.5 4.5 7.6 3.2 1.3 0 1.9-.6 3.2-1.3 13.4-6.4 26.7-9.5 41.4-9.5 24.8.6 46.4 9.5 66.2 25.5 3.8 3.2 7 3.2 9.5 0s1.9-6.4-1.9-9.5c-13.3-11-27.3-18-42.6-23.1zm185.2 35.7h-5.1c-16.5.6-33.1 5.1-48.4 12.1-3.8 1.9-5.1 5.1-3.2 8.3s5.1 4.5 8.9 2.5c24.8-10.8 49.6-14.6 75.7-7 1.3 0 2.5.6 3.8 0 2.5-1.3 4.5-3.2 4.5-5.7 0-3.2-1.9-5.1-5.1-5.7-10.1-3.3-20.3-3.9-31.1-4.5zm-199.2-1.3c-10.2 0-21 1.3-31.2 4.5-3.2.6-5.1 3.2-5.1 6.4 0 4.5 3.8 7 8.9 5.1 13.4-3.8 27.4-4.5 41.4-2.5 11.5 1.9 22.9 5.1 33.7 10.2 2.5 1.3 5.1.6 7-1.3s1.9-3.8 1.9-6.4c-.6-1.9-2.5-3.2-4.5-3.8-15.8-7.8-33.6-11.6-52.1-12.2zm69.4 9.5c3.2 0 6.4-2.5 6.4-5.7s-2.5-5.7-5.7-5.7-5.7 2.5-5.7 5.7c-.7 3.2 1.8 5.7 5 5.7zm4.4 11.5c-3.2 0-5.7 2.5-5.7 5.7s2.5 5.7 5.7 5.7 5.7-2.5 5.7-5.7c.1-3.2-2.5-5.7-5.7-5.7zm62.4-17.8c0-3.2-2.5-5.7-6.4-5.7-3.2 0-5.7 2.5-5.7 5.7s2.5 5.7 5.7 5.7c3.8.6 6.4-2.6 6.4-5.7zm-4.5 23.5c0-3.2-2.5-5.7-5.7-5.7s-5.7 2.5-5.7 5.7 2.5 5.7 5.7 5.7 5.7-2.5 5.7-5.7z"/><path class="st5" d="M598.7 429.2c-24 0-45.3 11.4-58.9 29v-.1h-38.7l23.9 35.1c-.5 3.4-.8 6.9-.8 10.5 0 41.1 33.3 74.4 74.4 74.4s74.4-33.3 74.4-74.4c.2-41.2-33.2-74.5-74.3-74.5z"/><path class="st4" d="M501.8 183.9h1.3c-.7.6-1.3.6-1.3 0 0 .6 0 .6 0 0zm122.1-17.2s.7 0 0 0c.7.6 0 0 0 0zM428.6 161s0-.7 0 0c0 0 0 .6 0 0 0 .6 0 0 0 0zm29.9 10.2c0-.7 0-.7 0 0z"/><path class="st5" d="M420 411.7h-19.1c-5.7 0-8.9-5.7-6.4-10.8 4.5-8.3 8.9-15.9 13.4-23.5 3.2-5.1 9.5-5.1 12.7 0 4.5 7.6 8.9 15.3 13.4 22.9 3.2 5.7 0 10.8-6.4 11.5-2.5-.1-5-.1-7.6-.1z"/><path d="M445.2 337.4c-1.9 1.3-5.8 2.2-8.5-.4-2.6-2.3-4.5-4.5-7-7-1.3-1.3-1.9-1.3-3.2 0-2.5 2.5-4.4 4.5-7 7-1.9 1.9-2.2 1.7-3.8 0-2.7-3-5.2-5.5-8.3-8.9-1.3-1.3-1.9-1.3-3.2 0-2.5 2.5-4.5 4.4-6.4 6.4-2 2-5.7 2.5-8.3 0-2.5-2.5-2.5-5.1 0-8.3l14.6-14.6c1.3-1.3 1.9-1.3 3.2 0 3.2 3.8 7.6 9.5 10.8 9.5 3.2 0 6.1-4.3 9.5-8.3 1.2-1.4 1.9-1.3 3.2 0l14.6 14.6c3.3 3.6 2 8.3-.2 10zm-1.4 153.9c.6-3.2 1.3-6.1 3.2-8s5.1 0 8.3-.6c10.2-1.6 15.8-5 23.2-12.1 2.5 3.8 3.5 7 1 10.1-5.7 6.4-13.4 9.5-22.3 10.8-3.9.8-9.6 1.1-13.4-.2zm-89.6-20.8c8.3 8.9 17.7 12.8 29.7 12.1 1.3 0 1.9 0 2.5 1.9 0 2.5.6 5.1 1.3 7.6-13.4 1.9-24.8 0-34.4-10.2-2.4-3.7-2.4-6.9.1-10.1l.8-1.3z" fill="#43e8de"/><path class="st5" d="M501.1 458.1z"/><path class="st3" d="M581.3 480.4c5.1 0 8.9 2.5 12.7 5.7 2.5 1.9 3.8 1.9 6.4 0 3.8-3.8 8.3-6.4 14.6-5.7 6.4 0 12.1 4.5 14.6 10.8s.6 12.7-3.8 17.2c-8.3 8.3-17.2 15.9-25.5 23.5-1.9 1.9-3.2 1.9-5.1 0-8.3-8.3-16.5-15.3-24.8-22.9-5.1-5.1-7-11.5-4.5-17.8 2-6.4 7.8-10.8 15.4-10.8z"/></svg>