<?xml version="1.0" encoding="utf-8"?>
<!-- Generator: Adobe Illustrator 21.0.0, SVG Export Plug-In . SVG Version: 6.00 Build 0)  -->
<svg version="1.1" id="Capa_1" xmlns="http://www.w3.org/2000/svg" xmlns:xlink="http://www.w3.org/1999/xlink" x="0px" y="0px"
	 viewBox="0 0 512 512" style="enable-background:new 0 0 512 512;" xml:space="preserve">
<style type="text/css">
	.st0{fill:#202020;}
	.st1{fill:#05D1C4;}
	.st2{fill:#FFFFFF;}
	.st3{opacity:0.2;enable-background:new    ;}
</style>
<path class="st0" d="M256,0C114.8,0,0,114.8,0,256s114.8,256,256,256s256-114.8,256-256S397.2,0,256,0z"/>
<path class="st1" d="M0,255.7C0,133.9,84.5,32,200.3,6.1L361.7,489c-32.1,14.3-67.2,23-104.5,23C115.4,512,0,397,0,255.7z"/>
<g>
	<path class="st2" d="M392.5,192c-5.1,16.9-19.6,44.9-39.7,70.4c-11-12.5-19.9-24.1-23-31.7c-2.2-5.5-8.5-8.1-13.9-5.9
		c-5.5,2.2-8.1,8.4-5.9,13.9c4.3,10.5,15.5,25.1,28.6,40c-6.9,7.3-14.1,14-21.8,19.7L281.5,192H392.5z"/>
	<path class="st2" d="M370.9,460.4l-47-141.1l2.3-1.2c9.3-6.6,18.2-15,26.8-23.9c20.5,21.6,41.1,40.7,45.2,44.4
		c2,1.9,4.6,2.8,7.2,2.8c2.9,0,5.8-1.2,7.9-3.5c4-4.4,3.7-11.1-0.7-15.1c-10-9.1-28.4-26.7-45.4-44.7c24.3-29.9,42.3-64.2,47.3-86.1
		h22.9c5.9,0,10.7-4.8,10.7-10.7s-4.8-10.7-10.7-10.7h-74.7V160c0-5.9-4.8-10.7-10.7-10.7s-10.7,4.8-10.7,10.7v10.7h-67l-49-147.1
		c10.1-1.3,20.3-2.2,30.7-2.2c129.4,0,234.7,105.3,234.7,234.7C490.7,343.6,442.3,420.1,370.9,460.4z"/>
</g>
<path class="st3" d="M29.4,375.1C75,457.5,159.8,511.6,256.6,511.6c38.2,0,72.3-7.1,105.1-22.6l-28.5-85.4
	c-38.6,23.6-76.2,37.6-123.9,37.6C140,441.2,76.4,421.5,29.4,375.1z"/>
<path class="st3" d="M415.9,84.7c16,27.4,26.8,58.3,30.5,91.3c0.9,1.6,1.6,3.3,1.6,5.3c0,1.5-0.3,2.9-0.9,4.2
	c0.4,5.7,0.9,11.4,0.9,17.1c0,44.6-12.7,86.1-34.4,121.6c3.1,4,3.1,9.7-0.4,13.6c-2.1,2.3-5,3.5-7.9,3.5c-0.9,0-1.8-0.3-2.7-0.5
	c-15,20.5-33.1,38.4-53.8,53.1l22.1,66.4c71.4-40.3,119.7-116.7,119.7-204.4C490.7,188.4,461.8,127.5,415.9,84.7z"/>
<g>
	<path class="st0" d="M231.5,353.3h-4.1c-8.8,0-16.7-5.7-19.3-14.1l-8-24.9c-0.8-2.5-3.2-4.2-5.8-4.2H134c-2.7,0-5,1.7-5.8,4.3
		l-7.9,24.8c-2.7,8.4-10.5,14.2-19.4,14.2h-3.6c-14.1,0-23.9-14-19.1-27.3l56-153.9c2.9-8,10.5-13.4,19.1-13.4h23.4
		c8.6,0,16.3,5.4,19.1,13.5l54.7,153.9C255.4,339.4,245.6,353.3,231.5,353.3z M158.4,206.2l-17.3,62.4c-1.1,3.9,1.8,7.7,5.9,7.7
		h33.8c4,0,6.9-3.8,5.9-7.7l-16.5-62.4C168.6,200.3,160.1,200.2,158.4,206.2z"/>
</g>
</svg>
