<?xml version="1.0" encoding="utf-8"?>
<!-- Generator: Adobe Illustrator 21.0.0, SVG Export Plug-In . SVG Version: 6.00 Build 0)  -->
<svg version="1.1" id="Слой_1" xmlns="http://www.w3.org/2000/svg" xmlns:xlink="http://www.w3.org/1999/xlink" x="0px" y="0px"
	 viewBox="0 0 336 366.7" style="enable-background:new 0 0 336 366.7;" xml:space="preserve">
<style type="text/css">
	.st0{fill:#EFEFEF;}
	.st1{fill:#DCDCDC;}
	.st2{fill:#05D1C4;}
	.st3{fill:#05AF9F;}
	.st4{fill:#E82A40;}
	.st5{fill:#D6243A;}
	.st6{fill:#E94142;}
	.st7{fill:#E86B7B;}
	.st8{fill:#FDFDFE;}
	.st9{fill:#E84242;}
	.st10{fill:#E84343;}
	.st11{fill:#43E8DE;}
	.st12{fill:#43E5DC;}
	.st13{fill:#43E6DC;}
	.st14{fill:#EFF5F4;}
</style>
<g id="Group-75" transform="translate(3.5 3.5)">
	<path id="Fill-1" class="st0" d="M287.8,135.5L161.1,262c-1.6,1.6-4.3,1.6-6,0l-56.4-56.3c-1.6-1.6-1.6-4.3,0-6L227.2,71.6
		c18.4-18.4,41.6-31.5,67-37.5c13.7-3.2,26.5-4.5,31.1,0.1c4,4,3.8,14.3,1.8,26C322.2,88.8,308.3,115.1,287.8,135.5"/>
	<path id="Fill-3" class="st1" d="M326.1,60.2c2-11.8,2.2-22-1.8-26c-2.1-2.1-5.9-3-10.8-3c0.1,4.4-0.5,9.6-1.4,15.1
		c-4.9,28.6-18.7,54.8-39.2,75.3L146.5,248c-1.6,1.6-4.3,1.6-6,0l13.9,13.9c1.6,1.6,4.3,1.6,6,0l126.5-126.5
		C307.3,115,321.2,88.8,326.1,60.2"/>
	<path id="Fill-5" class="st2" d="M286.9,135.9l-9.2,9.3l-62.2-62.5l11-11c18.4-18.5,41.5-31.6,66.8-37.6c13.7-3.2,26.4-4.5,31,0.1
		c4,4,3.8,14.3,1.8,26.1C321.2,89,307.4,115.4,286.9,135.9"/>
	<path id="Fill-7" class="st3" d="M326.1,60.4c2-11.8,2.2-22.1-1.8-26.1c-2.1-2.1-6-3-10.8-3c0.1,4.4-0.5,9.6-1.4,15.2
		c-4.9,28.7-18.8,55-39.3,75.6l-9.3,9.3l14,14l9.3-9.3C307.3,115.4,321.2,89,326.1,60.4"/>
	<path id="Fill-9" class="st4" d="M118.8,276.2l-34.3-34.8l19-31.2l46,46.7L118.8,276.2z"/>
	<path id="Fill-11" class="st5" d="M135.5,243.2l-31,19.1l14,13.9l31-19.1L135.5,243.2z"/>
	<path id="Fill-13" class="st2" d="M113,184.2L87.5,167c-1.2-0.8-1.3-2.4-0.3-3.4l15.1-14.9c1.8-1.8,4.4-2.7,7-2.5l39.2,3.1
		L113,184.2z"/>
	<path id="Fill-15" class="st2" d="M175.5,246.7l17.2,25.5c0.8,1.2,2.4,1.3,3.4,0.3l14.9-15.1c1.8-1.8,2.7-4.4,2.5-7l-3.1-39.2
		L175.5,246.7z"/>
	<path id="Fill-17" class="st2" d="M186.1,111.2l62.4,62.4l-19.6,19.6l-62.4-62.4L186.1,111.2z"/>
	<path id="Fill-19" class="st3" d="M215.5,179.5l19.3-19.3l13.8,13.8l-19.3,19.3L215.5,179.5z"/>
	<path id="Fill-21" class="st6" d="M73,261c-25.5,7.6-60.8,30-71.5,95.4c-0.2,1.1,0.8,2,1.9,1.7c12.7-3.4,76-22.6,93.1-73.2
		C101.4,270.5,87.8,256.6,73,261"/>
	<path id="Fill-23" class="st7" d="M73,261c-1.6,0.5-3.3,1-5,1.6c7.3,4.2,11.7,13.1,8.6,22.3c-12.6,37.3-50.3,57.6-74.4,67
		c-0.3,1.5-0.6,3-0.8,4.6c-0.2,1.1,0.8,2,1.9,1.7c12.7-3.4,76-22.6,93.1-73.2C101.4,270.5,87.8,256.6,73,261"/>
	<path id="Fill-27" d="M71.4,256.7c-15.1,4.5-36.5,15-52.9,39.5c-1.5,2.3-0.9,5.3,1.4,6.9c2.3,1.5,5.3,0.9,6.9-1.4
		c11.9-17.7,27.8-29.6,47.5-35.5c5.2-1.5,10.5-0.2,14.2,3.7c3.6,3.7,4.8,8.9,3.1,13.8C77,326.7,26.4,346.1,7.3,351.9
		c2.2-11.4,5.3-22,9.3-31.3c1.1-2.5-0.1-5.4-2.6-6.5c-2.5-1.1-5.4,0.1-6.5,2.6c-4.9,11.5-8.5,24.7-10.9,39c-0.4,2.2,0.4,4.3,2,5.8
		c1.2,1.1,2.7,1.7,4.3,1.7c0.6,0,1.1-0.1,1.7-0.2c12.9-3.5,78.4-23.3,96.3-76.2c2.9-8.5,0.9-17.4-5.4-23.8
		C89.3,256.5,80,254.1,71.4,256.7"/>
	<path d="M327.9,30.7c-5.4-5.4-16.7-5.9-35.6-1.4c-3.3,0.8-6.7,1.7-9.9,2.7c-2.6,0.8-4,3.6-3.2,6.2c0.8,2.6,3.6,4,6.2,3.2
		c3-1,6.1-1.8,9.2-2.5c21.7-5.1,26-1.6,26.4-1.2c0.6,0.6,3.4,4.4,0.4,21.7c-4.7,27.5-17.8,52.6-37.8,72.7l-5.8,5.8l-23.4-23.5
		c2.5-1.7,4.8-3.5,7-5.6c3.4,0.1,6.3-0.4,9-1.6c6.7-2.9,11.1-7.8,12.8-14.4c2.1-7.8,0.4-15-4.8-20.9c0.3-5.1,0-10.3-1.1-15.4
		c-1.2-5.9-3.5-11.6-6.6-16.9c0.3-2.3,0.7-4.6,1-6.9l2.4-16.3c0.2-1.6,0.5-3.3,0.7-5l1.4-9.7c0,0-16,9.7-18.9,11.4l-2.1-3.7
		l-11.3,1.9l1.8-2.6l-3.6-4l-4.8,2l5-10.4c0,0-25.4,15.6-28.4,17.5c-4.5,0.9-9,2.4-13.2,4.4c-4.2-2.4-26.9-15.8-26.9-15.8
		s3.9,33.3,4.3,36.6c-0.3,0.6-0.6,1.1-0.9,1.7c-0.7,1.3-1.5,2.7-2.1,4.1c-2.4,5-4.2,12.2-4.7,16.4c-0.5,4.8-0.4,9.8-0.1,12.5
		c0.6,7.2,2.8,14.3,6.4,21.1c2,3.8,4.7,7.5,8.2,11.3l-2,2c0,0,0,0,0,0l-19.5,19.5l-16.5,16.5l-36.6-2.9c-4-0.3-8,1.1-10.8,4l-15,15
		c-1.5,1.5-2.3,3.6-2.1,5.7c0.2,2.1,1.3,4,3.1,5.2l20.4,14l-10.8,10.8c-1.7,1.7-2.7,4-2.7,6.5c0,2.4,0.9,4.7,2.7,6.5l2.2,2.2
		l-17.1,27.6c-1.2,1.9-0.9,4.5,0.7,6.1l34.5,34.5c0.9,1,2.2,1.4,3.5,1.4c0.9,0,1.8-0.2,2.6-0.7l27.6-17.1l2.2,2.2
		c1.7,1.7,4,2.7,6.5,2.7c2.4,0,4.7-1,6.5-2.7l10.8-10.8l14,20.5c1.2,1.8,3.1,2.9,5.2,3.1c0.2,0,0.4,0,0.7,0c1.9,0,3.7-0.7,5-2.1
		l15-15c2.8-2.9,4.3-6.8,4-10.8l-2.9-36.7l16.5-16.5l0,0l19.5-19.5c0,0,0,0,0,0l38.6-38.6c21.5-21.5,35.5-48.5,40.5-78
		C333.7,45.2,332.7,35.5,327.9,30.7z M93.7,165.2l12.7-12.7c0.8-0.8,1.9-1.2,3.1-1.1l28.3,2.3l-24.8,24.8L93.7,165.2z M119.6,270
		l-29-29l13.8-22.3l10.7,10.7l26.8,26.8L119.6,270z M208,254.3L195.2,267l-13.2-19.3l24.8-24.8l2.3,28.3
		C209.2,252.4,208.8,253.5,208,254.3z M229,186.7l-6.9-6.9c-1.9-1.9-5-1.9-7,0c-1.9,1.9-1.9,5,0,7l6.9,6.9l-64.3,64.4l-55.2-55.3
		l14.5-14.5l0,0l17.4-17.4l32.4-32.5l33.5,33.6c1.9,1.9,5,1.9,7,0c1.9-1.9,1.9-5,0-7l-33.5-33.6l12.5-12.6l55.2,55.3L229,186.7z
		 M248.5,167.2L198.3,117c1.6,0.9,3.2,1.7,4.9,2.5c5.2,2.3,10.9,3.7,17,4.1c1.4,0.1,2.8,0.1,4.1,0.1c7.6,0,14.5-1.5,21.1-4.4
		l25.4,25.5L248.5,167.2z"/>
	<path class="st8" d="M271.2,57.2c-1.3-5.4-3.5-10.5-6.5-15.2c-0.1-0.2-0.3-0.5-0.2-0.8c0.4-2.9,0.9-5.8,1.3-8.7
		c0.8-5.7,1.7-11.3,2.5-17c0,0-0.1,0-0.1-0.1c-0.2,0.1-0.3,0.1-0.5,0.2c-4.6,2.6-9.2,5.2-13.7,7.9c-1.7,0.9-3.3,1.9-5,2.8
		c-0.4,0.2-0.6,0.2-1,0c-2.8-1.6-5.8-2.9-8.9-4c-0.2-0.1-0.3-0.1-0.5-0.2c0.3-0.2,0.5-0.4,0.7-0.6c1.1-0.8,2.1-1.6,3.2-2.5
		c0,0,0,0-0.1-0.1c-2.5,0.4-5.1,0.8-7.6,1.2c-0.3,0-0.5,0.1-0.8,0.1c-1.1,0.2-2.2,0.4-3.4,0c1-1.3,1.9-2.7,2.8-4
		c0-0.1-0.1-0.1-0.1-0.2c-2.9,1.1-5.8,2.2-8.8,3.4c0.9-1.9,1.8-3.6,2.6-5.3c-0.1,0-0.1-0.1-0.2-0.1c-3.3,2.1-6.7,4.2-10,6.2
		c-0.3,0.2-0.7,0.3-1,0.4c-3.1,0.6-6.2,1.3-9.1,2.7c-1.9,0.9-3.8,1.8-5.6,2.7c-0.4,0.2-0.6,0.2-1,0c-1.9-1.1-3.8-2.3-5.8-3.4
		c-3.5-2-7.1-4-10.6-6c-0.9-0.5-1.7-1-2.7-1.5c0,0.3,0.1,0.6,0.1,0.8c0.3,2.3,0.7,4.5,1,6.8c0.9,5.9,1.7,11.7,2.6,17.6
		c0,0.3,0,0.7-0.2,1c-1,1.8-2.1,3.5-3,5.4c-4.1,8-5.6,16.5-5,25.4c0.5,7.5,2.8,14.5,6.5,21.1c2.4,4.2,5.6,7.9,9.1,11.3
		c6.3,5.9,13.8,9.5,22,11.4c7.3,1.7,14.6,1.5,21.9-0.5c8.9-2.4,16.6-6.7,22.8-13.4c-2.2-0.7,13.1-28.1,13.1-28.2
		C272.8,68.3,272.5,62.7,271.2,57.2z M230.7,67.2c0.7,0,1.2,0.5,1.2,1.2c0,0.7-0.7,1.4-1.3,1.3c-0.6,0-1.2-0.7-1.2-1.4
		C229.4,67.7,229.9,67.2,230.7,67.2z M229.8,72.1c0.7,0,1.2,0.6,1.2,1.3c0,0.7-0.5,1.2-1.2,1.2c-0.7,0-1.2-0.6-1.2-1.3
		C228.6,72.7,229.2,72.1,229.8,72.1z M220.1,73.4c0,0.7-0.6,1.2-1.3,1.2c-0.7,0-1.2-0.5-1.2-1.2c0-0.7,0.5-1.2,1.2-1.2
		C219.5,72.2,220.1,72.7,220.1,73.4z M218,67.2c0.7,0,1.2,0.6,1.2,1.2c0,0.6-0.7,1.4-1.3,1.3c-0.6,0-1.2-0.7-1.2-1.4
		C216.8,67.7,217.3,67.2,218,67.2z M190.9,63.8c-1.1,0.5-1.8,0.4-2.2-0.4c-0.4-0.8,0-1.4,1.1-2c3.1-1.5,6.4-2.2,9.9-2.1
		c-0.5-1.4-0.6-2.8,0.1-4.1c0.4-0.8,1.1-1.4,1.9-1.7c1.6-0.7,3.6-0.2,4.7,1.2c1.3,1.6,1.2,3.5-0.3,5.7c3.2,1.1,6.2,2.6,8.8,4.7
		c0.8,0.6,1,1.4,0.4,2c-0.5,0.6-1.2,0.6-2,0c-4-3.2-8.6-5.1-13.8-5.3C196.6,61.8,193.7,62.5,190.9,63.8z M197.7,71.2
		c-1.1,0.2-1.9-0.3-1.8-1.5c0-0.6,0.4-0.9,1.1-1.1c4-1.1,8-1.1,12.1-0.2c0.7,0.2,1.5,0.3,2.2,0.6c1.2,0.4,2.3,1,3.4,1.5
		c0.7,0.3,0.9,1.1,0.6,1.8c-0.3,0.6-1,0.8-1.7,0.5c-3.3-1.5-6.7-2.4-10.4-2.3C201.4,70.5,199.5,70.9,197.7,71.2z M237.6,81.9
		c-1.2,1.4-2.8,2.1-4.7,2.2c-0.5,0-1.1,0-1.7-0.1c-0.3,0-0.5,0-0.8-0.1c-0.5,1.4-1.1,2.6-2.2,3.6c-2.9,2.6-7.2,1.7-9.1-2
		c-0.3-0.5-0.5-1.1-0.7-1.6c-2.7,0.4-5.2,0-7.1-2.2c-0.6-0.7-0.6-1.5,0-2.1c-0.1-0.1-0.2-0.3-0.3-0.4c-0.3-0.6-0.2-1.3,0.3-1.7
		c0.5-0.4,1.2-0.3,1.7,0.2c2.5,2.5,5.8,2.2,7.9-0.6c1.5-2,2.1-4.2,2.2-6.6c0-0.8,0-1.5,0-2.3c0-0.3,0-0.7,0-1c-0.5,0,3,0,2.5,0
		c0,0.4,0,0.7,0,1.1c0,1.9,0,3.7,0.6,5.5c0.6,1.8,1.4,3.5,3,4.6c1.9,1.4,4.8,1.2,6.4-0.4c0.7-0.8,1.4-0.9,2-0.5
		c0.6,0.5,0.6,1.1,0.1,2C238.3,80.5,238.3,81.1,237.6,81.9z M252.6,70.8c-0.3,0.6-0.9,0.8-1.6,0.6c-5.2-1.4-10.3-0.8-15.2,1.2
		c-0.2,0.1-0.4,0.2-0.6,0.3c-0.8,0.3-1.5,0.1-1.8-0.5c-0.4-0.7-0.1-1.4,0.7-1.8c3.2-1.7,6.6-2.5,10.2-2.7c0.4,0,0.7,0,1-0.1
		c2.3,0.1,4.4,0.3,6.5,0.9C252.5,69.1,252.9,70,252.6,70.8z M260.2,63.4c-0.3,0.7-1.1,0.9-1.8,0.5c-8.3-3.9-15.8-2.1-22.8,3.1
		c-0.2,0.1-0.3,0.3-0.5,0.4c-0.6,0.3-1.2,0.2-1.6-0.3c-0.4-0.5-0.4-1.2,0-1.7c0.4-0.4,0.8-0.7,1.3-1.1c2.4-1.7,5-3.1,7.9-4
		c-1.9-2.2-1.3-4.7-0.1-5.9c1.3-1.4,3.4-1.7,5-0.7c1.9,1.1,2.4,3,1.7,5.4c1.8,0.3,3.7,0.4,5.5,0.8c1.6,0.4,3.2,1.1,4.7,1.7
		C260.3,62,260.5,62.7,260.2,63.4z"/>
	<path id="Fill-39" class="st9" d="M252.1,98.7c1.8,1.5,3.9,2.5,6.2,3.2c0.6,0,1.1,0.1,1.7,0.1c1.2,0.1,2.5,0.3,3.7,0.1
		c6.3-0.9,10.7-4.3,12.9-10.4c1.8-5,1.2-9.9-1.7-14.4c-0.9-1.5-2.3-2.7-3.5-4c-0.2-0.1-0.5-0.3-0.7-0.4c-6.4-4.4-15.4-3.3-20.3,2.7
		c-1,1.3-2,1.5-3.4,1.3c-1.8-0.3-3.5-0.4-5.3-0.5l0,0c0.1,0.2,0.1,0.3,0.2,0.5c1.3,2,2.6,4,3.9,5.9c0.6,0.8,0.9,1.6,0.7,2.6
		c-0.1,0.5-0.1,1,0,1.5c0,0.1,0,0.1,0,0.2C246.6,91.8,248.5,95.7,252.1,98.7z"/>
	<path id="Fill-41" class="st8" d="M241.8,18.7c0.1,0,0.2-0.1,0.3-0.1c0,0,0,0.1,0,0.1c-0.1,0-0.2,0.1-0.3,0.1
		C241.9,18.8,241.8,18.7,241.8,18.7"/>
	<path id="Fill-43" class="st8" d="M267.9,14.7c0,0,0.1-0.1,0.1-0.1c0,0.1,0,0.2,0,0.3C268,14.8,268,14.8,267.9,14.7"/>
	<path id="Fill-55_1_" class="st10" d="M225.8,67.3c-0.9,0-3.6,0-4.2,0c-1.3,0-2-1.2-1.4-2.2c1-1.7,1.9-3.3,3-5c0.7-1.1,2-1,2.7,0.1
		c1,1.6,1.9,3.2,2.8,4.8c0.7,1.2,0,2.3-1.4,2.3C226.8,67.3,226.3,67.3,225.8,67.3"/>
	<path id="Fill-57" class="st11" d="M224.8,51.8c-1-1-1.7-1.8-2.6-2.7c-0.6,0.6-1.1,1.2-1.7,1.7c-0.5,0.5-1.1,0.5-1.6,0.1
		c-0.4-0.4-0.6-1-0.1-1.5c1.1-1.2,2.2-2.4,3.4-3.6c0.8,0.9,1.6,1.7,2.4,2.5c0.8-0.7,1.6-1.4,2.5-2c1,1,2.2,2.2,3.3,3.4
		c0.4,0.4,0.3,1.1-0.2,1.5c-0.4,0.4-1,0.4-1.5,0c-0.6-0.6-1.1-1.2-1.7-1.8C226.2,50.2,225.5,50.9,224.8,51.8"/>
	<path id="Fill-59_2_" class="st12" d="M230.5,83.9c0.1-0.5,0.2-1.4,0.3-2c1.2,0,2.1,0.1,3.3-0.3c1.6-0.5,2.5-1.2,3.6-2.1
		c0.6,0.8,0.5,1.7-0.2,2.4c-1.3,1.2-2.6,1.9-4.9,2.1C231.9,84.2,230.5,83.9,230.5,83.9z"/>
	<path id="Fill-61" class="st13" d="M211.2,79.6c1.9,1.8,4.2,2.8,7.1,2.5c0.1,0.6,0.1,1.4,0.3,2c-2.9,0.3-5.2-0.2-7.2-2.2
		C210.7,81.3,210.6,80.2,211.2,79.6"/>
	<path id="Fill-71" class="st9" d="M242,76.8C242,76.8,242,76.7,242,76.8C242,76.7,242,76.7,242,76.8C242,76.7,242,76.7,242,76.8
		L242,76.8z"/>
	<path id="Fill-73" class="st14" d="M261.8,92.8c-1.9-1.7-3.7-3.3-5.5-4.9c-0.8-0.7-1.6-1.3-1.8-2.3c-0.3-1.4,0.2-2.9,1.5-3.7
		c1.2-0.8,2.9-0.8,4.1,0c0.6,0.4,1.1,0.8,1.7,1.2c0.6-0.4,1.1-0.8,1.7-1.2c1.4-0.9,3.3-0.8,4.5,0.3c1.3,1.1,1.5,2.9,0.7,4.3
		c-0.2,0.3-0.4,0.5-0.6,0.7c-1.7,1.5-3.3,2.9-5,4.4C262.6,92,262.2,92.4,261.8,92.8"/>
</g>
</svg>
