<svg version="1.1" id="Слой_1" xmlns="http://www.w3.org/2000/svg" x="0" y="0" viewBox="0 0 153.7 48.4" xml:space="preserve"><style>.st0{fill:#0a0c25}.st1{fill:#eff5f4}.st3{fill:#fdfdfe}.st4{fill:#e84242}.st6{fill:#0b0d26}.st8{fill:#fff}</style><path class="st0" d="M.1 25c.3-3.3 1.2-6.3 2.8-9.2.1-.1.1-.2.1-.3.5-.5.5-1.1.4-1.9L1.9 3.7c-.1-.7-.2-1.3-.3-2 .1 0 .2.1.3.1C5 3.6 8.2 5.3 11.4 7.1c.1.1.3.1.5 0 1.8-.9 3.7-1.6 5.8-2 .1 0 .3-.1.5-.2 2.5-1.6 5.1-3.1 7.6-4.7.1-.1.2-.1.3-.2-.6 1.1-1.1 2.3-1.7 3.5 1.6-.6 3.1-1.2 4.7-1.8-.7 1.1-1.4 2-2.1 3 2.5-.4 4.9-.8 7.3-1.2 0 0 0 .1.1.1-1.3 1-2.6 1.9-3.9 2.9l1.5.8c.1.1.2-.1.3-.1 3.1-1.8 6.3-3.6 9.5-5.3.1-.1.2-.1.4-.2-.1.9-.3 1.7-.4 2.5-.3 2.1-.7 4.3-1 6.5l-.7 3.9c0 .2 0 .4.1.5 2 3.2 3.1 6.7 3.2 10.5.1.9 0 1.8-.1 2.7 0 .1.1.3.1.3 2.9 2.9 3.1 7.4.5 10.5-1.5 1.7-3.3 2.7-5.7 2.7-.3 0-.7 0-1.1-.1-.1 0-.2 0-.3.1-2.9 2.9-6.4 4.7-10.4 5.7-1.4.3-2.8.5-4.3.5H21c-1.2-.1-2.4-.1-3.6-.4-5.3-1.1-9.8-3.8-13.1-8.1C1.9 36.5.5 33 0 29.1c.1-.2.1-.7 0-1.1v-2.8c.1 0 .1-.1.1-.2zm36.4 15.8c.9.1 1.8.2 2.7.1 4.5-.7 6.9-6 4.5-10-.5-.7-1.1-1.3-1.7-1.9.3-2 .1-3.9-.1-5.9-.5-2.7-1.5-5.3-3-7.7-.1-.1-.1-.2-.1-.3.2-1.3.4-2.7.6-4.1l1-6.8v.1c-.1 0-.2.1-.3.1-2.6 1.5-5.3 2.9-7.9 4.5-.1.1-.3.1-.4 0-1.2-.7-2.5-1.2-3.7-1.7-.1 0-.2 0-.3-.1l.3-.3c.5-.3.9-.7 1.3-1.1 0 0 .1 0 .1-.1h-.1c-1.1.1-2.1.3-3.3.5-.6.1-1.1.3-1.8.1l1.2-1.7v-.1h-.1c-.1 0-.1 0-.2.1-.8.3-1.7.6-2.5.9-.3.1-.7.3-1.1.4.4-.8.8-1.5 1.2-2.3h-.1c-.1 0-.1.1-.2.1-1.3.8-2.7 1.7-4 2.5-.2.1-.3.2-.6.2-2.2.4-4.3 1.1-6.2 2.2-.2.1-.3.1-.5 0L3.4 4.1c.1.1 0 .1-.1.1v.3l.5 3.3c.3 2.3.7 4.7 1.1 7 0 .1 0 .3-.1.5C1.7 19.9.6 25 1.7 30.5c.9 4.7 3.1 8.6 6.7 11.7 5 4.3 10.8 5.8 17.4 4.6 4.1-.8 7.7-2.9 10.7-6z"/><path class="st1" d="M21.2 48.4l1.1-.1v.1h-1.1z"/><path d="M.1 25c0 .1.1.1-.1.2l.1-.2z" fill="#fefefe"/><path class="st3" d="M29.4 5.7c-.4.4-.9.7-1.3 1.1l-.3.2c.1.1.1.1.3.1 1.3.4 2.5 1 3.7 1.7.1.1.3.1.4 0 2.6-1.5 5.2-3 7.9-4.5.1 0 .2-.1.3-.1h.1l-1 6.8c-.2 1.3-.4 2.7-.6 4.1 0 .1 0 .2.1.3 1.5 2.3 2.5 4.9 3 7.7.3 1.9.4 3.9.1 5.9-.1-.1-.2-.1-.3-.2-2.7-1.9-6.5-1.4-8.7 1.1-.5.5-.9.7-1.5.5-.7-.1-1.5-.2-2.2-.2 0 .1.1.3.1.3.5.8 1.1 1.6 1.6 2.3.3.3.4.7.3 1.1-.1.3 0 .5 0 .7.1 1.9.9 3.5 2.3 4.7.8.7 1.7 1.1 2.7 1.4-3 3.1-6.6 5.1-10.8 5.9-6.5 1.2-12.3-.3-17.4-4.6-3.5-3-5.7-6.9-6.6-11.5-1-5.5 0-10.6 3.1-15.3.1-.1.1-.3.1-.5-.4-2.3-.8-4.7-1.1-7l-.5-3.4v-.2c.1 0 .2.1.3.1l7.8 4.4c.1.1.3.1.5 0 1.9-1.1 4-1.8 6.2-2.2l.6-.2c1.3-.8 2.7-1.7 4-2.5.1-.1.1-.1.2-.1-.3.7-.7 1.5-1.1 2.3.4-.1.7-.3 1.1-.4.8-.3 1.7-.6 2.5-.9.1 0 .1 0 .2-.1l-1.2 1.7c.6.3 1.2.1 1.8-.1 1.1-.1 2.1-.3 3.3-.4zm-2 25.6c.3-.4.3-.7-.1-.9-.3-.2-.5-.1-.8.2-.7.7-1.9.8-2.7.2-.7-.5-1-1.2-1.3-2-.3-.9-.3-1.8-.3-2.7h.7c.6 0 .9-.5.6-1-.4-.7-.8-1.3-1.1-2-.3-.5-.8-.5-1.1 0l-1.2 2.1c-.3.5.1.9.6.9h.7v1.3c-.1 1-.3 2-.9 2.8-.9 1.2-2.3 1.3-3.4.3-.2-.2-.5-.3-.7-.1-.2.2-.3.5-.1.7 0 .1.1.1.1.1-.3.3-.3.5 0 .8.8.9 1.9 1.1 3.1.9.1.2.2.5.3.7.8 1.6 2.7 1.9 3.9.9.5-.4.7-.9.9-1.5.3.1.7.1 1.1.1.7-.1 1.5-.3 2-.9 0-.3 0-.5-.3-.9zm2.1-8.1c-.1 0-.1.1-.3.1-1.3.5-2.5 1.1-3.5 1.9-.3.3-.3.6-.1.8.2.3.5.3.8 0 .7-.5 1.3-1 2.1-1.3 1.7-.8 3.5-1.1 5.3-.8.8.1 1.6.4 2.3.7.4.2.8 0 .8-.4.1-.3-.1-.5-.4-.6-1.3-.7-2.8-1-4.3-.9.3-1.1.1-1.9-.7-2.3-.7-.4-1.6-.3-2.1.3-.6.6-.6 1.5.1 2.5zm-15.5 0c.1-.1.1-.1.1-.2.5-.6.5-1.4.1-2-.4-.7-1.1-.9-1.9-.7-.9.3-1.5 1.3-1.2 2.2.1.1.1.3-.1.3-.7 0-1.5.1-2.1.3-.7.1-1.4.4-2 .7-.3.1-.4.5-.3.7.1.3.4.4.7.3.1 0 .2-.1.3-.1 1.1-.5 2.4-.9 3.7-.8 2.3.1 4.1.9 5.9 2.3.3.3.7.3.9 0s.1-.6-.1-.9c-1.4-1-2.6-1.7-4-2.1zm16.5 3.1H30c-1.5.1-2.9.4-4.3 1.1-.3.1-.5.5-.3.7.1.3.5.4.8.2 2.2-1 4.4-1.3 6.7-.7.1 0 .3.1.3 0 .3-.1.4-.3.4-.5 0-.3-.1-.5-.4-.5-.7-.1-1.7-.2-2.7-.3zm-17.7 0c-.9 0-1.9.1-2.7.4-.3.1-.5.3-.5.5 0 .4.3.6.8.5 1.2-.3 2.5-.4 3.7-.2 1.1.1 2.1.5 3 .9.3.1.5.1.7-.1.1-.1.2-.3.1-.6-.1-.2-.2-.3-.4-.3-1.5-.7-3.1-1.1-4.7-1.1zm11.5-7.5c0-.1-.1-.2-.1-.3l-1.3-1.3c-.1-.1-.2-.1-.3 0 0 .1-.1.1-.1.1-.3.2-.4.7-.7.7-.3 0-.5-.4-.7-.7l-.3-.3c-.1-.1-.1-.1-.3 0l-1.3 1.3c-.3.3-.3.5 0 .7.2.2.5.2.7 0l.6-.6c.1-.1.1-.1.3 0 .3.3.5.5.7.8.1.1.2.1.3 0 .2-.2.4-.4.6-.7.1-.1.2-.1.3 0l.6.6c.1.1.3.1.5.1.5 0 .5-.1.5-.4zM19 27.1c.3 0 .5-.3.5-.5 0-.3-.3-.5-.5-.5-.3 0-.5.2-.5.5-.1.3.1.5.5.5zm.3 1c-.3 0-.5.3-.5.5 0 .3.3.5.5.5s.5-.3.5-.5c0-.3-.2-.5-.5-.5zm5.6-1.6c0-.3-.3-.5-.5-.5-.3 0-.5.3-.5.5 0 .3.3.5.5.5.3.1.5-.1.5-.5zm-.4 2.1c0-.3-.2-.5-.5-.5s-.5.3-.5.5c0 .3.3.5.5.5.3 0 .5-.2.5-.5z"/><path class="st4" d="M29.3 30.2c.7 0 1.5.1 2.3.2.6.1 1 0 1.5-.5 2.1-2.5 5.9-3 8.7-1.1.1.1.2.1.3.2.7.6 1.3 1.1 1.7 1.9 2.4 3.9 0 9.2-4.5 10-.9.1-1.8.1-2.7-.1-1-.3-1.9-.7-2.7-1.4-1.4-1.3-2.3-2.8-2.3-4.7 0-.3-.1-.5 0-.7.1-.4-.1-.7-.3-1.1-.5-.7-1.1-1.5-1.6-2.3-.2-.1-.4-.3-.4-.4zm7.2 2.1c-.7 0-1.2.3-1.4.9-.2.6-.1 1.1.4 1.6.7.7 1.5 1.4 2.3 2.1.1.1.3.1.4 0 .7-.7 1.5-1.4 2.3-2.1.4-.4.6-1 .3-1.5-.2-.5-.7-.9-1.3-.9-.5 0-.9.2-1.3.5-.2.2-.3.2-.6 0-.3-.4-.7-.7-1.1-.6z"/><path class="st3" d="M29.4 5.7zm11-1.6zm-17.6-.5s0-.1 0 0zm2.7.9z"/><path d="M22.2 26.1c0 .9-.1 1.9.3 2.7.3.7.6 1.5 1.3 2 .8.6 2.1.5 2.7-.2.3-.3.6-.4.8-.2.3.2.3.5.1.9-.6.7-1.3.9-2.1 1-.3 0-.6-.1-.7.1-.1.1-.1.5-.1.7-.2.6-.5 1.1-.9 1.5-1.3 1.1-3.1.7-3.9-.9-.1-.2-.2-.5-.3-.7-.1-.2-.1-.5-.1-.7 0-.1-.1-.1-.2-.1-1.1.1-2-.1-2.7-.9l-.1-.1c-.1-.3-.1-.6.1-.7s.5-.1.7.1c1.1 1.1 2.5.9 3.4-.3.7-.8.9-1.8.9-2.8v-1.3c.1-.1.4-.1.8-.1z" fill="#090b24"/><path class="st0" d="M29.5 23.2c-.7-1-.7-1.8-.1-2.5.5-.6 1.4-.7 2.1-.3.8.4 1.1 1.2.7 2.3 1.5 0 2.9.3 4.3.9.3.1.5.3.4.6-.1.4-.5.6-.8.4-.7-.3-1.5-.6-2.3-.7-1.9-.3-3.7 0-5.3.8-.7.3-1.5.8-2.1 1.3-.3.3-.6.3-.8 0s-.1-.6.1-.8c1.1-.9 2.3-1.5 3.5-1.9.1-.1.2-.1.3-.1zm-15.5 0c1.4.5 2.7 1.1 3.7 2 .3.3.4.6.1.9-.2.3-.5.3-.9 0-1.7-1.4-3.7-2.2-5.9-2.3-1.3 0-2.5.3-3.7.8-.1.1-.1.1-.3.1-.3.1-.6-.1-.7-.3-.1-.3 0-.6.3-.7.7-.3 1.3-.6 2-.7s1.4-.3 2.1-.3c.3 0 .2-.1.1-.3-.3-1 .3-2 1.2-2.2.7-.2 1.5.1 1.9.7s.3 1.4-.1 2c.2.1.2.1.2.3z"/><path class="st6" d="M30.5 26.3c1 0 1.9.1 2.8.4.3.1.4.3.4.5 0 .3-.1.4-.4.5-.1.1-.3 0-.3 0-2.3-.7-4.6-.3-6.7.7-.3.1-.7.1-.8-.2-.1-.3 0-.6.3-.7 1.3-.7 2.8-1 4.3-1.1.2-.1.4-.1.4-.1z"/><path class="st0" d="M12.8 26.3c1.7 0 3.2.3 4.7 1.1.1.1.3.1.4.3s.1.4-.1.6c-.2.1-.4.2-.7.1-.9-.5-2-.7-3-.9-1.3-.2-2.5-.1-3.7.2-.5.1-.8-.1-.8-.5 0-.3.1-.5.5-.5.8-.3 1.7-.4 2.7-.4z"/><path class="st4" d="M22.2 26.1h-1.7c-.5 0-.8-.5-.6-.9l1.2-2.1c.3-.5.8-.4 1.1 0 .4.7.8 1.3 1.1 2 .3.5 0 1-.6 1h-.5z"/><path d="M24.3 18.8c0 .3-.1.4-.3.5-.2.1-.4.1-.5-.1l-.6-.6c-.1-.1-.2-.1-.3 0-.2.2-.4.4-.6.7-.1.1-.3.1-.3 0-.3-.3-.5-.5-.7-.8-.1-.1-.2-.1-.3 0l-.7.7c-.3.3-.5.3-.7 0-.2-.2-.2-.5 0-.7l1.3-1.3c.1-.1.2-.1.3 0l.3.3c.3.2.5.7.7.7s.5-.4.7-.7c.1 0 .1-.1.1-.1.1-.1.1-.1.3 0l1.3 1.3c0-.1.1 0 0 .1zm0 14.3c.1-.3 0-.6.1-.7.1-.1.5 0 .7-.1.9-.1 1.6-.3 2.1-1 .3.3.3.5 0 .9-.5.6-1.2.9-2 .9-.2 0-.5.1-.9 0zm-8.2-1.8c.7.8 1.7 1.1 2.7.9.1 0 .2 0 .2.1 0 .2.1.5.1.7-1.1.1-2.2 0-3.1-.9-.2-.2-.2-.5.1-.8z" fill="#43e8de"/><path class="st6" d="M19 27.1c-.3 0-.5-.3-.5-.5 0-.3.3-.5.5-.5s.5.3.5.5c0 .3-.3.5-.5.5zm.3 1c.3 0 .5.3.5.5 0 .3-.2.5-.5.5s-.5-.2-.5-.5.2-.5.5-.5zm5.6-1.6c0 .3-.2.5-.5.5s-.5-.2-.5-.5.2-.5.5-.5.5.3.5.5zm-.4 2.1c0 .3-.2.5-.5.5s-.5-.3-.5-.5c0-.3.3-.5.5-.5.3 0 .5.2.5.5z"/><path class="st1" d="M36.5 32.3c.4 0 .8.3 1.1.5.2.2.3.2.6 0 .3-.3.7-.6 1.3-.5.6 0 1.1.4 1.3.9.2.6.1 1.1-.3 1.5-.7.7-1.5 1.4-2.3 2.1-.1.1-.3.1-.4 0-.7-.7-1.5-1.4-2.3-2.1-.5-.4-.6-1-.4-1.6s.8-.8 1.4-.8z"/><path class="st8" d="M73.9 27.1c-.5 0-.9.1-1.2.4-.3.2-.5.5-.8 1-.3.6-.7 1.1-1.2 1.4-.4.3-1 .4-1.7.4-1 0-1.9-.4-2.5-1.2-.7-.8-1-2-1-3.5s.3-2.7 1-3.5c.6-.8 1.5-1.2 2.5-1.2 1.3 0 2.3.6 2.9 1.8.2.5.5.8.8 1s.7.4 1.2.4c.6 0 1-.2 1.4-.6s.5-.8.5-1.4c0-.3 0-.5-.1-.8-.3-1.3-1.2-2.3-2.5-3.1-1.3-.8-2.7-1.2-4.3-1.2-2.3 0-4.2.8-5.7 2.4-1.4 1.6-2.1 3.7-2.1 6.3s.7 4.7 2.1 6.2c1.4 1.6 3.3 2.4 5.7 2.4 1.5 0 2.9-.4 4.1-1.1 1.3-.8 2.1-1.8 2.6-3.1.1-.3.2-.6.2-.9 0-.6-.2-1-.5-1.4-.3-.5-.8-.7-1.4-.7zM90.1 18.4c-1.2-1-2.8-1.5-4.8-1.5-1.4 0-2.6.3-3.7.8-1.2.6-2 1.4-2.5 2.3-.3.5-.4 1-.4 1.5 0 .6.2 1.1.6 1.4s.9.6 1.4.6c.8 0 1.4-.4 1.8-1 .3-.6.7-1 1.2-1.3.4-.3 1-.4 1.7-.4.8 0 1.4.2 1.9.6.4.4.6.9.6 1.5v.5l-3.5.2c-1.9.1-3.4.6-4.5 1.5-1.2.9-1.7 2.2-1.7 3.8 0 1.6.6 2.9 1.7 3.9s2.5 1.5 4.2 1.5c1.2 0 2.3-.3 3.3-.9.3-.2.6-.4.8-.6.1.3.3.6.5.9.4.4.9.6 1.5.6s1.1-.2 1.5-.6c.4-.4.6-.9.6-1.5v-9.4c-.3-2-.9-3.4-2.2-4.4zM87.7 27v.3c0 .8-.3 1.5-.9 2.1-.7.6-1.4.9-2.4.9-.7 0-1.3-.2-1.7-.5-.3-.3-.5-.6-.5-1.1 0-.4.2-.8.5-1 .4-.3 1.1-.5 1.9-.6l3.1-.1zM111.8 16.8c-1.2 0-2.3.3-3.3.9-.5.3-1 .7-1.4 1.2-.3-.5-.7-.9-1.2-1.2-.9-.6-1.9-.9-3.1-.9s-2.2.3-3.1.9c-.2.1-.4.3-.6.4-.1-.2-.2-.5-.4-.6-.4-.4-.9-.6-1.5-.6s-1.1.2-1.5.6-.6.9-.6 1.5v13c0 .6.2 1.1.6 1.5s.9.7 1.5.7 1.2-.2 1.5-.7c.4-.4.6-.9.6-1.5v-8.4c0-.8.2-1.5.7-2s1.1-.8 1.8-.8 1.3.2 1.6.6c.4.4.6.9.6 1.6v9c0 .6.2 1.1.6 1.5s.9.7 1.5.7 1.2-.2 1.5-.7c.4-.4.6-.9.6-1.5v-8.5c0-.8.2-1.4.7-1.9s1.1-.7 1.8-.7c.8 0 1.3.2 1.7.6.4.4.6 1 .6 1.8V32c0 .6.2 1.1.6 1.5s.9.7 1.5.7 1.2-.2 1.5-.7c.4-.4.6-.9.6-1.5v-9.3c0-1.7-.5-3.1-1.6-4.2-.7-1.1-2.1-1.7-3.8-1.7zM133.4 16.8c-.6 0-1.1.2-1.5.6-.2.2-.4.5-.5.8l-.9-.6c-1-.6-2-.8-3.2-.8-2.2 0-4 .8-5.3 2.4s-1.9 3.6-1.9 6.2c0 2.5.7 4.6 1.9 6.2 1.3 1.6 3.1 2.4 5.3 2.4 1.2 0 2.3-.3 3.3-.8.3-.2.5-.3.8-.5v.2c0 .9-.3 2-.9 2.5-.6.6-1.5.8-2.6.8-.6 0-1.2-.1-1.6-.4-.5-.3-1-.7-1.6-1.3-.3-.3-.5-.5-.8-.7-.3-.1-.6-.2-.9-.2-.5 0-1 .2-1.4.5-.4.4-.6.9-.6 1.4s.1 1 .4 1.4c.6 1 1.5 1.7 2.7 2.3 1.1.5 2.4.8 3.8.8h.1c2.3 0 4.1-.6 5.5-1.8s2.2-3.2 2.2-5.4V19c0-.6-.2-1.1-.6-1.5-.6-.5-1.1-.7-1.7-.7zm-2.2 8.6c0 1.4-.3 2.6-1 3.5-.6.8-1.5 1.2-2.5 1.2s-1.8-.4-2.5-1.2c-.7-.8-1-2-1-3.5s.3-2.7 1-3.5c.6-.8 1.4-1.2 2.4-1.2s1.9.4 2.5 1.2c.8.9 1.1 2.1 1.1 3.5zM151.5 19.2c-1.4-1.6-3.4-2.4-5.7-2.4-2.4 0-4.3.8-5.7 2.4s-2.1 3.7-2.1 6.3.7 4.7 2.1 6.3c1.4 1.6 3.4 2.4 5.7 2.4s4.3-.8 5.7-2.4 2.1-3.7 2.1-6.3c.1-2.6-.7-4.7-2.1-6.3zm-3.1 9.9l.2.1-.2-.1c-.6.8-1.5 1.2-2.6 1.2s-1.9-.4-2.6-1.2c-.7-.8-1-2-1-3.6 0-1.5.3-2.7 1-3.6.6-.8 1.5-1.2 2.6-1.2s1.9.4 2.6 1.2c.7.8 1 2 1 3.6 0 1.5-.4 2.7-1 3.6z"/></svg>