<?xml version="1.0" encoding="utf-8"?>
<!-- Generator: Adobe Illustrator 21.0.0, SVG Export Plug-In . SVG Version: 6.00 Build 0)  -->
<svg version="1.1" id="Слой_1" xmlns="http://www.w3.org/2000/svg" xmlns:xlink="http://www.w3.org/1999/xlink" x="0px" y="0px"
	 viewBox="0 0 153.6 48.2" style="enable-background:new 0 0 153.6 48.2;" xml:space="preserve">
<style type="text/css">
	.st0{fill:#145455;}
	.st1{fill:#0A0C25;}
	.st2{fill:#EFF5F4;}
	.st3{fill:#FDFDFE;}
	.st4{fill:#E84242;}
	.st5{fill:#43E8DE;}
</style>
<path class="st0" d="M73.8,26.9c-0.5,0-0.9,0.1-1.2,0.4c-0.3,0.2-0.5,0.5-0.8,1c-0.3,0.6-0.7,1.1-1.2,1.4c-0.4,0.3-1,0.4-1.7,0.4
	c-1,0-1.9-0.4-2.5-1.2c-0.7-0.8-1-2-1-3.5s0.3-2.7,1-3.5c0.6-0.8,1.5-1.2,2.5-1.2c1.3,0,2.3,0.6,2.9,1.8c0.2,0.5,0.5,0.8,0.8,1
	s0.7,0.4,1.2,0.4c0.6,0,1-0.2,1.4-0.6s0.5-0.8,0.5-1.4c0-0.3,0-0.5-0.1-0.8c-0.3-1.3-1.2-2.3-2.5-3.1c-1.3-0.8-2.7-1.2-4.3-1.2
	c-2.3,0-4.2,0.8-5.7,2.4c-1.4,1.6-2.1,3.7-2.1,6.3s0.7,4.7,2.1,6.2c1.4,1.6,3.3,2.4,5.7,2.4c1.5,0,2.9-0.4,4.1-1.1
	c1.3-0.8,2.1-1.8,2.6-3.1c0.1-0.3,0.2-0.6,0.2-0.9c0-0.6-0.2-1-0.5-1.4C74.9,27.1,74.4,26.9,73.8,26.9z M90,18.2
	c-1.2-1-2.8-1.5-4.8-1.5c-1.4,0-2.6,0.3-3.7,0.8c-1.2,0.6-2,1.4-2.5,2.3c-0.3,0.5-0.4,1-0.4,1.5c0,0.6,0.2,1.1,0.6,1.4
	s0.9,0.6,1.4,0.6c0.8,0,1.4-0.4,1.8-1c0.3-0.6,0.7-1,1.2-1.3c0.4-0.3,1-0.4,1.7-0.4c0.8,0,1.4,0.2,1.9,0.6c0.4,0.4,0.6,0.9,0.6,1.5
	v0.5l-3.5,0.2c-1.9,0.1-3.4,0.6-4.5,1.5c-1.2,0.9-1.7,2.2-1.7,3.8c0,1.6,0.6,2.9,1.7,3.9s2.5,1.5,4.2,1.5c1.2,0,2.3-0.3,3.3-0.9
	c0.3-0.2,0.6-0.4,0.8-0.6c0.1,0.3,0.3,0.6,0.5,0.9c0.4,0.4,0.9,0.6,1.5,0.6s1.1-0.2,1.5-0.6c0.4-0.4,0.6-0.9,0.6-1.5v-9.4
	C91.9,20.6,91.3,19.2,90,18.2z M87.6,26.8v0.3c0,0.8-0.3,1.5-0.9,2.1c-0.7,0.6-1.4,0.9-2.4,0.9c-0.7,0-1.3-0.2-1.7-0.5
	c-0.3-0.3-0.5-0.6-0.5-1.1c0-0.4,0.2-0.8,0.5-1c0.4-0.3,1.1-0.5,1.9-0.6C84.5,26.9,87.6,26.8,87.6,26.8z M111.7,16.6
	c-1.2,0-2.3,0.3-3.3,0.9c-0.5,0.3-1,0.7-1.4,1.2c-0.3-0.5-0.7-0.9-1.2-1.2c-0.9-0.6-1.9-0.9-3.1-0.9s-2.2,0.3-3.1,0.9
	c-0.2,0.1-0.4,0.3-0.6,0.4c-0.1-0.2-0.2-0.5-0.4-0.6c-0.4-0.4-0.9-0.6-1.5-0.6s-1.1,0.2-1.5,0.6S95,18.2,95,18.8v13
	c0,0.6,0.2,1.1,0.6,1.5s0.9,0.7,1.5,0.7s1.2-0.2,1.5-0.7c0.4-0.4,0.6-0.9,0.6-1.5v-8.4c0-0.8,0.2-1.5,0.7-2s1.1-0.8,1.8-0.8
	s1.3,0.2,1.6,0.6c0.4,0.4,0.6,0.9,0.6,1.6v9c0,0.6,0.2,1.1,0.6,1.5s0.9,0.7,1.5,0.7s1.2-0.2,1.5-0.7c0.4-0.4,0.6-0.9,0.6-1.5v-8.5
	c0-0.8,0.2-1.4,0.7-1.9s1.1-0.7,1.8-0.7c0.8,0,1.3,0.2,1.7,0.6c0.4,0.4,0.6,1,0.6,1.8v8.7c0,0.6,0.2,1.1,0.6,1.5s0.9,0.7,1.5,0.7
	s1.2-0.2,1.5-0.7c0.4-0.4,0.6-0.9,0.6-1.5v-9.3c0-1.7-0.5-3.1-1.6-4.2C114.8,17.2,113.4,16.6,111.7,16.6L111.7,16.6z M133.3,16.6
	c-0.6,0-1.1,0.2-1.5,0.6c-0.2,0.2-0.4,0.5-0.5,0.8l-0.9-0.6c-1-0.6-2-0.8-3.2-0.8c-2.2,0-4,0.8-5.3,2.4s-1.9,3.6-1.9,6.2
	c0,2.5,0.7,4.6,1.9,6.2c1.3,1.6,3.1,2.4,5.3,2.4c1.2,0,2.3-0.3,3.3-0.8c0.3-0.2,0.5-0.3,0.8-0.5v0.2c0,0.9-0.3,2-0.9,2.5
	c-0.6,0.6-1.5,0.8-2.6,0.8c-0.6,0-1.2-0.1-1.6-0.4c-0.5-0.3-1-0.7-1.6-1.3c-0.3-0.3-0.5-0.5-0.8-0.7c-0.3-0.1-0.6-0.2-0.9-0.2
	c-0.5,0-1,0.2-1.4,0.5c-0.4,0.4-0.6,0.9-0.6,1.4s0.1,1,0.4,1.4c0.6,1,1.5,1.7,2.7,2.3c1.1,0.5,2.4,0.8,3.8,0.8h0.1
	c2.3,0,4.1-0.6,5.5-1.8s2.2-3.2,2.2-5.4V18.8c0-0.6-0.2-1.1-0.6-1.5C134.4,16.8,133.9,16.6,133.3,16.6L133.3,16.6z M131.1,25.2
	c0,1.4-0.3,2.6-1,3.5c-0.6,0.8-1.5,1.2-2.5,1.2s-1.8-0.4-2.5-1.2c-0.7-0.8-1-2-1-3.5s0.3-2.7,1-3.5c0.6-0.8,1.4-1.2,2.4-1.2
	c1,0,1.9,0.4,2.5,1.2C130.8,22.6,131.1,23.8,131.1,25.2L131.1,25.2z M151.4,19c-1.4-1.6-3.4-2.4-5.7-2.4c-2.4,0-4.3,0.8-5.7,2.4
	s-2.1,3.7-2.1,6.3s0.7,4.7,2.1,6.3c1.4,1.6,3.4,2.4,5.7,2.4s4.3-0.8,5.7-2.4s2.1-3.7,2.1-6.3C153.6,22.7,152.8,20.6,151.4,19z
	 M148.3,28.9l0.2,0.1L148.3,28.9c-0.6,0.8-1.5,1.2-2.6,1.2s-1.9-0.4-2.6-1.2c-0.7-0.8-1-2-1-3.6c0-1.5,0.3-2.7,1-3.6
	c0.6-0.8,1.5-1.2,2.6-1.2s1.9,0.4,2.6,1.2c0.7,0.8,1,2,1,3.6C149.3,26.8,148.9,28,148.3,28.9z"/>
<g>
	<path class="st1" d="M0.1,24.9c0.2-3.3,1.2-6.4,2.8-9.2C2.9,15.5,3,15.5,3,15.4c0.5-0.6,0.5-1.2,0.4-1.9c-0.5-3.2-1-6.5-1.5-9.8
		C1.8,3,1.7,2.3,1.6,1.6c0.1,0,0.2,0.1,0.3,0.1c3.2,1.8,6.3,3.5,9.4,5.3c0.2,0.1,0.3,0.1,0.5,0c1.8-1,3.8-1.6,5.8-2
		c0.2,0,0.3-0.1,0.5-0.2c2.6-1.6,5.1-3.2,7.6-4.8C25.7,0.1,25.8,0.1,26,0c-0.6,1.2-1.1,2.3-1.8,3.5c1.6-0.6,3.1-1.2,4.8-1.8
		c-0.7,1-1.4,2-2.2,3c2.5-0.4,4.9-0.8,7.3-1.2c0,0,0,0.1,0.1,0.1c-1.3,1-2.6,1.9-3.9,3c0.6,0.3,1.1,0.5,1.6,0.8
		c0.1,0.1,0.2-0.1,0.3-0.1c3.2-1.8,6.3-3.6,9.5-5.3c0.1-0.1,0.2-0.1,0.4-0.2c-0.1,0.8-0.3,1.7-0.4,2.6c-0.3,2.2-0.7,4.4-1,6.5
		l-0.6,3.8c0,0.2,0,0.4,0.1,0.6c1.9,3.1,3.1,6.6,3.2,10.4c0.1,0.9,0,1.8-0.1,2.8c0,0.2,0.1,0.3,0.2,0.3c2.9,3,3.1,7.4,0.5,10.5
		c-1.5,1.8-3.4,2.6-5.6,2.7c-0.3,0-0.7,0-1.1-0.1c-0.2,0-0.2,0-0.3,0.1c-2.9,2.8-6.4,4.8-10.4,5.6c-1.4,0.3-2.8,0.5-4.3,0.5h-1.1
		c-1.2-0.1-2.4-0.2-3.6-0.4c-5.3-1.1-9.7-3.8-13.1-8.1C2.2,36.6,0.7,33,0.2,29.1c-0.1-0.5-0.1-0.9-0.2-1.3V25
		C0.1,25,0.1,24.9,0.1,24.9L0.1,24.9z"/>
	<path class="st2" d="M21.2,48.2L21.2,48.2l1.1-0.1v0.1H21.2z"/>
	<path class="st3" d="M29.4,5.6c-0.5,0.4-0.9,0.7-1.4,1l-0.3,0.2C27.8,6.9,27.9,6.9,28,7c1.3,0.4,2.6,1,3.8,1.7
		c0.2,0.1,0.3,0.1,0.4,0c2.6-1.5,5.2-3,7.9-4.4c0.1-0.1,0.2-0.2,0.3-0.2c0,0,0,0,0.1,0c-0.3,2.3-0.7,4.6-1,6.8
		c-0.2,1.4-0.4,2.7-0.6,4c0,0.2,0,0.2,0.1,0.3c1.5,2.3,2.6,4.9,3,7.6c0.3,1.9,0.4,3.9,0.2,5.9c0.9,5.3-1.2,11.3-5.6,11.9
		c-3,3.1-6.6,5.1-10.8,5.9c-6.5,1.2-12.3-0.3-17.3-4.6c-3.6-3.1-5.9-7-6.8-11.7c-1-5.5,0-10.6,3.1-15.2c0.1-0.2,0.1-0.3,0.1-0.5
		c-0.3-2.3-0.7-4.7-1-7L3.2,4.2c0-0.1,0-0.2,0-0.2c0.1,0,0.2,0.1,0.3,0.1c2.6,1.5,5.2,3,7.9,4.4c0.2,0.1,0.3,0.1,0.5,0
		c1.9-1.1,4-1.8,6.2-2.2c0.2-0.1,0.4-0.1,0.6-0.2c1.3-0.8,2.7-1.7,4-2.5c0.1-0.1,0.2-0.1,0.2-0.1l0,0c-0.3,0.7-0.7,1.5-1.1,2.3
		c0.4-0.2,0.7-0.3,1.1-0.5c0.8-0.3,1.7-0.6,2.5-1c0.1,0,0.2,0,0.2-0.1l0,0L24.3,6c0.6,0.2,1.2,0.1,1.8-0.1c1.1-0.2,2.2-0.3,3.2-0.5
		C29.4,5.6,29.4,5.6,29.4,5.6L29.4,5.6z M27.3,31.1c0.2-0.4,0.2-0.7-0.1-0.8c-0.3-0.2-0.6-0.1-0.8,0.2c-0.7,0.7-1.9,0.8-2.7,0.2
		c-0.7-0.5-1-1.2-1.3-2c-0.3-0.9-0.2-1.8-0.2-2.8H21c0,0.5,0,0.9,0,1.4c-0.1,1-0.3,2-0.9,2.8c-0.9,1.2-2.3,1.3-3.4,0.2
		C16.5,30,16.2,30,16,30.2c-0.2,0.2-0.3,0.5-0.1,0.7c0.2,0.4,1.8,1.4,3.2,1.9c0.1,0.2,0.2,0.5,0.3,0.7c0.8,1.6,2.7,1.9,3.9,0.8
		c0.5-0.5,0.7-1,1-1.5C24.5,32.4,26,32.5,27.3,31.1z M29.4,23c-0.1,0.1-2.6,1-3.8,2c-0.3,0.2-0.3,0.6-0.1,0.8c0.2,0.3,0.5,0.3,0.8,0
		c0.6-0.5,1.4-1,2.1-1.3c1.7-0.8,3.5-1.1,5.3-0.8c0.8,0.2,1.6,0.4,2.3,0.7c0.4,0.2,0.8,0,0.8-0.4c0.1-0.3-0.2-0.5-0.4-0.6
		c-1.4-0.7-2.8-1-4.3-1c0.3-1.1,0.1-1.9-0.7-2.3c-0.7-0.4-1.6-0.2-2.1,0.3C28.8,21.2,28.8,22,29.4,23z M13.9,23
		c0.1-0.1,0.1-0.2,0.2-0.2c0.5-0.6,0.5-1.4,0.1-2c-0.5-0.6-1.2-0.9-1.9-0.7c-1,0.2-1.5,1.3-1.2,2.2c0.1,0.2,0.1,0.3-0.2,0.3
		c-0.7,0-2.6,0.4-4.2,1c-0.3,0.2-0.4,0.5-0.3,0.7c0.1,0.2,0.4,0.4,0.7,0.3c0.1,0,0.2-0.1,0.3-0.1c1.2-0.6,2.4-0.8,3.7-0.8
		c2.2,0.1,4.1,0.8,5.9,2.3c0.3,0.3,0.6,0.3,0.8,0c0.2-0.3,0.2-0.6-0.2-0.8C16.6,24.1,15.3,23.4,13.9,23z M30.5,26.2
		c-0.1,0-0.3,0-0.5,0c-1.5,0.1-3,0.5-4.3,1.1c-0.3,0.2-0.5,0.5-0.3,0.7c0.2,0.3,0.5,0.4,0.8,0.2c2.2-1,4.4-1.3,6.8-0.6
		c0.1,0,0.2,0.1,0.3,0c0.2-0.1,0.4-0.3,0.4-0.5c0-0.3-0.2-0.5-0.5-0.5C32.4,26.3,31.5,26.2,30.5,26.2z M12.7,26.1
		c-0.9,0-1.9,0.1-2.8,0.4c-0.3,0.1-0.5,0.3-0.5,0.6c0,0.4,0.3,0.6,0.8,0.5c1.2-0.3,2.5-0.4,3.7-0.2c1,0.2,2,0.5,3,0.9
		c0.2,0.1,0.5,0.1,0.6-0.1s0.2-0.3,0.2-0.6c-0.1-0.2-0.2-0.3-0.4-0.3C15.9,26.5,14.3,26.1,12.7,26.1z M18.9,26.9
		c0.3,0,0.6-0.2,0.6-0.5c0-0.3-0.2-0.5-0.5-0.5s-0.5,0.2-0.5,0.5C18.4,26.7,18.6,26.9,18.9,26.9z M19.3,27.9c-0.3,0-0.5,0.2-0.5,0.5
		S19,29,19.3,29s0.5-0.2,0.5-0.5C19.8,28.2,19.6,27.9,19.3,27.9z M24.9,26.4c0-0.3-0.2-0.5-0.6-0.5c-0.3,0-0.5,0.2-0.5,0.5
		s0.2,0.5,0.5,0.5C24.6,26.9,24.9,26.6,24.9,26.4z M24.5,28.5c0-0.3-0.2-0.5-0.5-0.5c-0.3,0-0.5,0.2-0.5,0.5S23.7,29,24,29
		C24.2,29,24.5,28.7,24.5,28.5z"/>
	<path class="st4" d="M38,27.5c-2.1,0-4.1,1-5.3,2.6v0h-3.5l2.1,3.1l0,0c0,0.3-0.1,0.6-0.1,0.9c0,3.7,3,6.7,6.7,6.7s6.7-3,6.7-6.7
		C44.7,30.4,41.7,27.5,38,27.5z"/>
	<path class="st3" d="M29.4,5.5c0,0,0.1,0,0.1,0C29.4,5.6,29.4,5.6,29.4,5.5C29.4,5.6,29.4,5.6,29.4,5.5z M40.3,4
		C40.3,4,40.3,4,40.3,4L40.3,4C40.3,4,40.3,4,40.3,4z M22.8,3.5C22.8,3.5,22.8,3.4,22.8,3.5C22.8,3.5,22.8,3.5,22.8,3.5
		C22.8,3.5,22.8,3.5,22.8,3.5z M25.5,4.4C25.5,4.3,25.5,4.3,25.5,4.4L25.5,4.4L25.5,4.4z"/>
	<path class="st4" d="M22.1,25.9h-1.7c-0.5,0-0.8-0.5-0.6-1c0.4-0.7,0.8-1.4,1.2-2.1c0.3-0.5,0.8-0.5,1.1,0c0.4,0.7,0.8,1.4,1.2,2
		c0.3,0.5,0,1-0.6,1C22.5,25.9,22.3,25.9,22.1,25.9z"/>
	<path class="st5" d="M24.1,19.1c-0.2,0.1-0.5,0.2-0.8,0c-0.2-0.2-0.4-0.4-0.6-0.6c-0.1-0.1-0.2-0.1-0.3,0c-0.2,0.2-0.4,0.4-0.6,0.6
		c-0.2,0.2-0.2,0.2-0.3,0c-0.2-0.3-0.5-0.5-0.7-0.8c-0.1-0.1-0.2-0.1-0.3,0c-0.2,0.2-0.4,0.4-0.6,0.6c-0.2,0.2-0.5,0.2-0.7,0
		c-0.2-0.2-0.2-0.5,0-0.7l1.3-1.3c0.1-0.1,0.2-0.1,0.3,0c0.3,0.3,0.7,0.8,1,0.8s0.5-0.4,0.8-0.7c0.1-0.1,0.2-0.1,0.3,0l1.3,1.3
		C24.4,18.6,24.3,19,24.1,19.1z M24.1,32.9c0.1-0.3,0.1-0.6,0.2-0.7s0.5,0,0.7-0.1c0.9-0.1,1.6-0.3,2.2-1c0.2,0.3,0.2,0.6,0,0.8
		c-0.5,0.6-1.2,0.8-2,1C24.9,33,24.4,33.1,24.1,32.9z M15.9,31.2c0.7,0.8,1.7,1,2.7,1c0.1,0,0.2,0,0.2,0.2c0,0.2,0.1,0.5,0.1,0.7
		c-1.2,0.2-2.2,0-3.1-0.9C15.7,31.7,15.7,31.5,15.9,31.2L15.9,31.2z"/>
	<path class="st4" d="M29.3,30L29.3,30L29.3,30L29.3,30z"/>
	<path class="st2" d="M36.5,32c0.5,0,0.8,0.2,1.1,0.5c0.2,0.2,0.3,0.2,0.6,0c0.3-0.3,0.7-0.6,1.3-0.5c0.6,0,1.1,0.4,1.3,1
		c0.2,0.6,0.1,1.1-0.3,1.5c-0.7,0.7-1.5,1.4-2.3,2.1c-0.2,0.2-0.3,0.2-0.5,0c-0.7-0.7-1.5-1.4-2.2-2c-0.5-0.5-0.6-1-0.4-1.6
		C35.3,32.4,35.8,32,36.5,32L36.5,32z"/>
</g>
</svg>
