<?xml version="1.0" encoding="utf-8"?>
<!-- Generator: Adobe Illustrator 21.0.0, SVG Export Plug-In . SVG Version: 6.00 Build 0)  -->
<svg version="1.1" id="Слой_1" xmlns="http://www.w3.org/2000/svg" xmlns:xlink="http://www.w3.org/1999/xlink" x="0px" y="0px"
	 viewBox="0 0 512.1 539" style="enable-background:new 0 0 512.1 539;" xml:space="preserve">
<style type="text/css">
	.st0{fill:#0A0C25;}
	.st1{fill:#EFF5F4;}
	.st2{fill:#FDFDFE;}
	.st3{fill:#E84242;}
	.st4{fill:#43E8DE;}
</style>
<g>
	<path class="st0" d="M0.7,278.1c2.5-36.9,13.4-71.3,31.2-103.1c0.6-1.3,1.3-1.9,1.9-3.2c5.7-6.4,5.1-13.4,4.5-21
		c-5.7-36.3-11.5-73.2-17.2-110.1c-1.3-7-1.9-14.6-3.2-22.3c1.3,0,1.9,0.6,3.2,1.3c35.6,19.7,70.6,39.5,105.6,59.8
		c1.9,1.3,3.2,1.3,5.1,0c20.4-10.8,42-17.8,64.9-22.3c1.9,0,3.2-1.3,5.1-1.9c28.6-17.8,56.6-35.6,84.6-53.4c1.3-0.6,1.9-1.3,3.8-1.9
		c-6.4,13.4-12.7,25.5-19.7,38.8c17.8-7,35-13.4,53.4-20.4c-8.3,11.5-15.9,22.9-24.2,33.7c28-4.5,54.7-8.9,81.4-13.4
		c0,0,0,0.6,0.6,0.6c-14.6,10.8-29.3,21.6-43.9,33.1c6.4,3.2,12.1,5.7,17.8,8.9c1.3,0.6,1.9-0.6,3.2-1.3
		c35.6-19.7,70.6-40.1,106.3-59.8c1.3-0.6,2.5-1.3,4.5-1.9c-1.3,9.5-3.2,19.1-4.5,28.6c-3.8,24.2-7.6,49-10.8,73.2l-6.4,42.6
		c0,2.5,0,4.5,1.3,6.4c21.6,35,34.4,73.8,35.6,116.4c0.6,10.2,0,20.4-0.6,31.2c0,1.9,0.6,3.2,1.9,3.8c32.5,33.1,35,82.7,5.1,117.7
		c-16.5,19.7-37.5,29.3-63,30.5c-3.8,0-8.3,0-12.1-0.6c-1.9,0-2.5,0-3.2,1.3c-32.5,31.8-71.3,53.4-115.8,63
		c-15.9,3.2-31.8,5.1-47.7,5.7h-12.1c-13.4-0.6-26.7-1.9-40.1-4.5C137.4,521.5,88.4,491,50.9,443.2C24.2,408.8,8.3,369.4,2.5,325.5
		c-1.3-5.1-1.3-10.2-2.5-14.6v-31.5C0.7,279.4,0.7,278.8,0.7,278.1L0.7,278.1z"/>
	<path class="st1" d="M236.7,539L236.7,539l12.1-0.6v0.6H236.7z"/>
	<path class="st2" d="M328.4,62.4c-5.1,4.5-10.2,7.6-15.3,11.5l-3.2,2.5c0.6,1.3,1.9,1.3,3.2,1.9c14.6,4.5,28.6,10.8,42,18.5
		c1.9,1.3,3.2,0.6,4.5,0c29.3-16.5,58.5-33.1,88.4-49.6c1.3-0.6,1.9-1.9,3.2-1.9c0,0,0,0,0.6,0c-3.8,25.5-7.6,50.9-11.5,76.4
		c-1.9,15.3-4.5,29.9-7,45.2c0,1.9,0,2.5,1.3,3.8c17.2,26.1,28.6,54.7,33.7,85.3c3.8,21.6,4.5,43.9,1.9,65.5
		c10.1,59.6-12.9,125.9-62.4,133.6c-33.1,34.4-73.8,57.3-120.9,65.5c-72.5,13.4-137.4-3.2-193.4-51.5
		C52.8,434.7,28,390.8,17.8,338.7c-11.5-61.1,0-118.4,34.4-170.5c1.3-1.9,1.3-3.2,1.3-5.1C49.7,137,45.2,110.9,42,84.8l-5.7-37.5
		c0-0.6,0-1.9,0-2.5c1.3,0,1.9,0.6,3.2,1.3C68.8,62.6,98,79.2,127.3,95.7c1.9,1.3,3.2,1.3,5.1,0c21.6-12.1,44.5-20.4,69.4-24.8
		c2.5-0.6,4.5-1.3,6.4-2.5c14.6-9.5,29.9-19.1,45.2-28c0.6-0.6,1.9-0.6,2.5-1.3l0,0c-3.8,8.3-8.3,16.5-12.7,25.5
		c4.5-1.9,8.3-3.2,12.7-5.1c8.9-3.2,18.5-7,27.4-10.8c0.6,0,1.9,0,1.9-0.6l0,0l-13.4,19.1c7,2.5,13.4,0.6,19.7-0.6
		c12.1-1.9,24.2-3.8,36.3-5.7C328.4,62.4,328.4,62.4,328.4,62.4L328.4,62.4z M305.4,348.1c2.5-4.5,2.5-7.6-0.6-9.5
		c-3.2-1.9-6.4-1.3-9.5,1.9c-7.6,8.3-21,8.9-30.5,1.9c-7.6-5.7-11.5-13.4-14.6-22.3c-3.2-10.2-2.5-20.4-2.5-31.2H235
		c0,5.1,0,10.2,0,15.3c-0.6,11.5-3.2,22.3-10.2,31.8c-10.2,13.4-26.1,14.6-37.5,2.5c-2.5-2.5-5.7-2.5-8.3-0.6
		c-2.5,1.9-3.2,5.1-1.3,8.3c2.3,4.2,20.5,16.2,35.6,21.6c1.3,2.5,1.9,5.1,3.2,7.6c8.9,17.8,29.9,21.6,43.3,9.5
		c5.1-5.1,8.3-10.8,10.8-17.2C273.5,362.1,290.8,362.9,305.4,348.1z M329,257.1c-1.3,0.6-29.4,11.7-42,22.9
		c-3.2,2.5-3.8,6.4-1.3,9.5s5.7,3.2,8.9,0c7-5.7,15.3-10.8,23.5-14.6c19.1-8.9,38.8-12.7,59.8-8.9c8.9,1.9,17.8,4.5,26.1,8.3
		c4.5,1.9,8.9,0,9.5-4.5c0.6-3.2-1.9-5.7-4.5-7c-15.3-7.6-31.2-11.5-48.4-10.8c3.2-12.7,0.6-21-8.3-26.1c-7.6-4.5-17.8-2.5-23.5,3.8
		C322,236.8,322,245.7,329,257.1z M155.9,257.1c0.6-0.6,1.3-1.9,1.9-1.9c5.1-6.4,5.7-15.3,1.3-22.9c-5.1-7-13.4-10.2-21-8.3
		c-10.8,2.5-16.5,14-13.4,24.8c0.6,1.9,1.3,3.2-1.9,3.2c-8.3,0-29.3,4-47.1,11.5c-3.2,1.9-4.5,5.1-3.2,8.3c1.3,2.5,4.5,4.5,7.6,3.2
		c1.3,0,1.9-0.6,3.2-1.3c13.4-6.4,26.7-9.5,41.4-9.5c24.8,0.6,46.4,9.5,66.2,25.5c3.8,3.2,7,3.2,9.5,0s1.9-6.4-1.9-9.5
		C185.2,269.2,171.2,262.2,155.9,257.1z M341.1,292.8c-1.3,0-3.2,0-5.1,0c-16.5,0.6-33.1,5.1-48.4,12.1c-3.8,1.9-5.1,5.1-3.2,8.3
		s5.1,4.5,8.9,2.5c24.8-10.8,49.6-14.6,75.7-7c1.3,0,2.5,0.6,3.8,0c2.5-1.3,4.5-3.2,4.5-5.7c0-3.2-1.9-5.1-5.1-5.7
		C362.1,294,351.9,293.4,341.1,292.8z M141.9,291.5c-10.2,0-21,1.3-31.2,4.5c-3.2,0.6-5.1,3.2-5.1,6.4c0,4.5,3.8,7,8.9,5.1
		c13.4-3.8,27.4-4.5,41.4-2.5c11.5,1.9,22.9,5.1,33.7,10.2c2.5,1.3,5.1,0.6,7-1.3s1.9-3.8,1.9-6.4c-0.6-1.9-2.5-3.2-4.5-3.8
		C178.2,295.9,160.4,292.1,141.9,291.5z M211.3,301c3.2,0,6.4-2.5,6.4-5.7s-2.5-5.7-5.7-5.7s-5.7,2.5-5.7,5.7
		C205.6,298.5,208.1,301,211.3,301z M215.7,312.5c-3.2,0-5.7,2.5-5.7,5.7s2.5,5.7,5.7,5.7s5.7-2.5,5.7-5.7
		C221.5,315,218.9,312.5,215.7,312.5z M278.1,294.7c0-3.2-2.5-5.7-6.4-5.7c-3.2,0-5.7,2.5-5.7,5.7s2.5,5.7,5.7,5.7
		C275.5,301,278.1,297.8,278.1,294.7z M273.6,318.2c0-3.2-2.5-5.7-5.7-5.7s-5.7,2.5-5.7,5.7s2.5,5.7,5.7,5.7
		S273.6,321.4,273.6,318.2z"/>
	<path class="st3" d="M425.3,307.1c-24,0-45.3,11.4-58.9,29l0-0.1h-38.7l23.9,35.1l0,0c-0.5,3.4-0.8,6.9-0.8,10.5
		c0,41.1,33.3,74.4,74.4,74.4s74.4-33.3,74.4-74.4C499.8,340.4,466.4,307.1,425.3,307.1z"/>
	<path class="st2" d="M328.4,61.8c0,0,0.6,0,1.3,0C329,62.4,328.4,62.4,328.4,61.8C328.4,62.4,328.4,62.4,328.4,61.8z M450.5,44.6
		C450.5,44.6,451.2,44.6,450.5,44.6L450.5,44.6C451.2,45.2,450.5,44.6,450.5,44.6z M255.2,38.9C255.2,38.9,255.2,38.2,255.2,38.9
		C255.2,38.9,255.2,39.5,255.2,38.9C255.2,39.5,255.2,38.9,255.2,38.9z M285.1,49.1C285.1,48.4,285.1,48.4,285.1,49.1L285.1,49.1
		L285.1,49.1z"/>
	<path class="st3" d="M246.6,289.6h-19.1c-5.7,0-8.9-5.7-6.4-10.8c4.5-8.3,8.9-15.9,13.4-23.5c3.2-5.1,9.5-5.1,12.7,0
		c4.5,7.6,8.9,15.3,13.4,22.9c3.2,5.7,0,10.8-6.4,11.5C251.7,289.6,249.2,289.6,246.6,289.6z"/>
	<path class="st4" d="M269.9,214.1c-1.9,1.3-5.8,2.2-8.5-0.4c-2.6-2.3-4.5-4.5-7-7c-1.3-1.3-1.9-1.3-3.2,0c-2.5,2.5-4.4,4.5-7,7
		c-1.9,1.9-2.2,1.7-3.8,0c-2.7-3-5.2-5.5-8.3-8.9c-1.3-1.3-1.9-1.3-3.2,0c-2.5,2.5-4.5,4.4-6.4,6.4c-2,2-5.7,2.5-8.3,0
		c-2.5-2.5-2.5-5.1,0-8.3l14.6-14.6c1.3-1.3,1.9-1.3,3.2,0c3.2,3.8,7.6,9.5,10.8,9.5c3.2,0,6.1-4.3,9.5-8.3c1.2-1.4,1.9-1.3,3.2,0
		l14.6,14.6C273.4,207.7,272.1,212.4,269.9,214.1z M269.1,368.3c0.6-3.2,0.6-6.4,2.5-8.3s5.1,0,8.3-0.6c10.2-1.6,17.8-3.8,24.2-11.5
		c2.5,3.8,2.5,6.4,0,9.5c-5.7,6.4-13.4,9.5-22.3,10.8C278,369,272.9,369.6,269.1,368.3z M178.1,348.6c8.3,8.9,18.5,11.5,30.5,10.8
		c1.3,0,1.9,0,2.5,1.9c0,2.5,0.6,5.1,1.3,7.6c-13.4,1.9-24.8,0-34.4-10.2C175.6,355,175.6,351.8,178.1,348.6L178.1,348.6z"/>
	<path class="st3" d="M327.7,336L327.7,336L327.7,336L327.7,336z"/>
	<path class="st1" d="M407.9,358.3c5.1,0,8.9,2.5,12.7,5.7c2.5,1.9,3.8,1.9,6.4,0c3.8-3.8,8.3-6.4,14.6-5.7
		c6.4,0,12.1,4.5,14.6,10.8s0.6,12.7-3.8,17.2c-8.3,8.3-17.2,15.9-25.5,23.5c-1.9,1.9-3.2,1.9-5.1,0c-8.3-8.3-16.5-15.3-24.8-22.9
		c-5.1-5.1-7-11.5-4.5-17.8C394.5,362.7,400.3,358.3,407.9,358.3L407.9,358.3z"/>
</g>
</svg>
