<?xml version="1.0" encoding="utf-8"?>
<!-- Generator: Adobe Illustrator 21.0.0, SVG Export Plug-In . SVG Version: 6.00 Build 0)  -->
<svg version="1.1" id="Слой_1" xmlns="http://www.w3.org/2000/svg" xmlns:xlink="http://www.w3.org/1999/xlink" x="0px" y="0px"
	 viewBox="0 0 229 63" style="enable-background:new 0 0 229 63;" xml:space="preserve">
<path id="Rectangle" style="fill:#05D1C4;" d="M31.5,0H199c0.5,0,1,0.1,1.5,0.1c0.5,0.1,1,0.1,1.5,0.2l1.5,0.3l1.5,0.3
	c0.5,0.1,1,0.3,1.5,0.4s1,0.3,1.5,0.5s1,0.4,1.4,0.6c0.5,0.2,0.9,0.4,1.4,0.6c0.5,0.2,0.9,0.5,1.4,0.7s0.9,0.5,1.3,0.8
	c0.4,0.3,0.9,0.5,1.3,0.8c0.4,0.3,0.8,0.6,1.3,0.9c0.4,0.3,0.8,0.6,1.2,1c0.4,0.3,0.8,0.7,1.2,1c0.4,0.3,0.8,0.7,1.1,1.1l1.1,1.1
	c0.3,0.4,0.7,0.8,1,1.2s0.6,0.8,1,1.2c0.3,0.4,0.6,0.8,0.9,1.3c0.3,0.4,0.6,0.9,0.8,1.3c0.3,0.4,0.5,0.9,0.8,1.3
	c0.2,0.5,0.5,0.9,0.7,1.4s0.4,0.9,0.6,1.4c0.2,0.5,0.4,1,0.6,1.4c0.2,0.5,0.3,1,0.5,1.5c0.1,0.5,0.3,1,0.4,1.5l0.3,1.5l0.3,1.5
	c0.1,0.5,0.1,1,0.2,1.5s0.1,1,0.1,1.5v3c0,0.5-0.1,1-0.1,1.5c-0.1,0.5-0.1,1-0.2,1.5l-0.3,1.5l-0.3,1.5c-0.1,0.5-0.3,1-0.4,1.5
	c-0.1,0.5-0.3,1-0.5,1.5s-0.4,1-0.6,1.4c-0.2,0.5-0.4,0.9-0.6,1.4c-0.2,0.5-0.5,0.9-0.7,1.4s-0.5,0.9-0.8,1.3
	c-0.3,0.4-0.5,0.9-0.8,1.3c-0.3,0.4-0.6,0.8-0.9,1.3c-0.3,0.4-0.6,0.8-1,1.2c-0.3,0.4-0.7,0.8-1,1.2s-0.7,0.8-1.1,1.1l-1.1,1.1
	c-0.4,0.3-0.8,0.7-1.2,1s-0.8,0.6-1.2,1c-0.4,0.3-0.8,0.6-1.3,0.9s-0.9,0.6-1.3,0.8c-0.4,0.3-0.9,0.5-1.3,0.8
	c-0.5,0.2-0.9,0.5-1.4,0.7s-0.9,0.4-1.4,0.6c-0.5,0.2-1,0.4-1.4,0.6c-0.5,0.2-1,0.3-1.5,0.5c-0.5,0.1-1,0.3-1.5,0.4l-1.5,0.3
	l-1.5,0.3c-0.5,0.1-1,0.1-1.5,0.2s-1,0.1-1.5,0.1H30c-0.5,0-1-0.1-1.5-0.1c-0.5-0.1-1-0.1-1.5-0.2l-1.5-0.3L24,61.9
	c-0.5-0.1-1-0.3-1.5-0.4c-0.5-0.1-1-0.3-1.5-0.5s-1-0.4-1.4-0.6S18.5,60.2,18,60s-0.9-0.5-1.4-0.7s-0.9-0.5-1.3-0.8
	c-0.4-0.3-0.9-0.5-1.3-0.8c-0.4-0.3-0.8-0.6-1.3-0.9c-0.4-0.3-0.8-0.6-1.2-1c-0.4-0.3-0.8-0.7-1.2-1s-0.8-0.7-1.1-1.1l-1.1-1.1
	c-0.3-0.4-0.7-0.8-1-1.2s-0.6-0.8-1-1.2c-0.3-0.4-0.6-0.8-0.9-1.3c-0.3-0.4-0.6-0.9-0.8-1.3c-0.3-0.4-0.5-0.9-0.8-1.3
	C3.5,45.9,3.2,45.4,3,45c-0.2-0.5-0.4-0.9-0.6-1.4s-0.4-1-0.6-1.4c-0.2-0.5-0.3-1-0.5-1.5c-0.1-0.5-0.3-1-0.4-1.5l-0.3-1.5l-0.3-1.5
	c-0.1-0.5-0.1-1-0.2-1.5S0,33.7,0,33.2v-1.5v-1.5c0-0.5,0.1-1,0.1-1.5c0.1-0.5,0.1-1,0.2-1.5l0.3-1.5l0.3-1.5c0.1-0.5,0.3-1,0.4-1.5
	s0.3-1,0.5-1.5s0.4-1,0.6-1.4S2.8,18.5,3,18c0.2-0.5,0.5-0.9,0.7-1.4s0.5-0.9,0.8-1.3C4.7,14.9,5,14.4,5.3,14
	c0.3-0.4,0.6-0.8,0.9-1.3c0.3-0.4,0.6-0.8,1-1.2c0.3-0.4,0.7-0.8,1-1.2c0.3-0.3,0.7-0.7,1-1.1l1.1-1.1c0.4-0.3,0.8-0.7,1.2-1
	s0.8-0.6,1.2-1c0.4-0.3,0.8-0.6,1.3-0.9c0.4-0.3,0.9-0.6,1.3-0.8c0.4-0.3,0.9-0.5,1.3-0.8c0.5-0.1,1-0.4,1.4-0.6
	c0.5-0.2,0.9-0.4,1.4-0.6c0.5-0.2,1-0.4,1.4-0.6c0.5-0.2,1-0.3,1.5-0.5c0.5-0.1,1-0.3,1.5-0.4l1.5-0.3l1.5-0.3
	c0.5-0.1,1-0.1,1.5-0.2s1-0.1,1.5-0.1C29.8,0,31.5,0,31.5,0z"/>
<path style="fill:#0A0C25;" d="M18.5,31.4c0.2-3.3,1.2-6.4,2.8-9.3c0.1-0.1,0.1-0.2,0.2-0.3c0.5-0.6,0.5-1.2,0.4-1.9
	c-0.5-3.3-1-6.6-1.6-9.9c-0.1-0.6-0.2-1.3-0.3-2c0.1,0,0.2,0.1,0.3,0.1c3.2,1.8,6.4,3.6,9.5,5.4c0.2,0.1,0.3,0.1,0.5,0
	c1.8-1,3.8-1.6,5.9-2c0.2,0,0.3-0.1,0.5-0.2c2.6-1.6,5.1-3.2,7.6-4.8c0.1-0.1,0.2-0.1,0.3-0.2c-0.6,1.2-1.1,2.3-1.8,3.5L47.6,8
	c-0.7,1-1.4,2.1-2.2,3c2.5-0.4,4.9-0.8,7.3-1.2c0,0,0,0.1,0.1,0.1c-1.3,1-2.6,1.9-4,3c0.6,0.3,1.1,0.5,1.6,0.8
	c0.1,0.1,0.2-0.1,0.3-0.1l9.6-5.4c0.1-0.1,0.2-0.1,0.4-0.2c-0.1,0.9-0.3,1.7-0.4,2.6c-0.3,2.2-0.7,4.4-1,6.6L58.8,21
	c0,0.2,0,0.4,0.1,0.6c1.9,3.2,3.1,6.7,3.2,10.5c0.1,0.9,0,1.8-0.1,2.8c0,0.2,0.1,0.3,0.2,0.3c2.9,3,3.2,7.5,0.5,10.6
	c-1.5,1.8-3.4,2.6-5.7,2.7c-0.3,0-0.7,0-1.1-0.1c-0.2,0-0.2,0-0.3,0.1c-2.9,2.9-6.4,4.8-10.4,5.7c-1.4,0.3-2.9,0.5-4.3,0.5h-1.1
	c-1.2-0.1-2.4-0.2-3.6-0.4c-5.4-1.1-9.8-3.8-13.2-8.1c-2.4-3.1-3.8-6.7-4.4-10.6c-0.1-0.5-0.1-0.9-0.2-1.3v-2.8
	C18.5,31.5,18.5,31.4,18.5,31.4z"/>
<path style="fill:#EFF5F4;" d="M39.8,54.9l1.1-0.1v0.1H39.8z"/>
<path style="fill:#FDFDFE;" d="M48,11.9c-0.5,0.4-0.9,0.7-1.4,1l-0.3,0.2c0.1,0.1,0.2,0.1,0.3,0.2c1.3,0.4,2.6,1,3.8,1.7
	c0.2,0.1,0.3,0.1,0.4,0c2.6-1.5,5.3-3,8-4.5c0.1-0.1,0.2-0.2,0.3-0.2h0.1c-0.3,2.3-0.7,4.6-1,6.9c-0.2,1.4-0.4,2.7-0.6,4.1
	c0,0.2,0,0.2,0.1,0.3c1.6,2.4,2.6,4.9,3,7.7c0.3,1.9,0.4,4,0.2,5.9c0.9,5.4-1.2,11.3-5.6,12c-3,3.1-6.7,5.2-10.9,5.9
	C37.9,54.3,32,52.8,27,48.5c-3.7-3.1-5.9-7.1-6.8-11.8c-1-5.5,0-10.7,3.1-15.4c0.1-0.2,0.1-0.3,0.1-0.5c-0.3-2.4-0.7-4.7-1-7.1
	l-0.5-3.4v-0.2c0.1,0,0.2,0.1,0.3,0.1c2.6,1.5,5.3,3,7.9,4.5c0.2,0.1,0.3,0.1,0.5,0c1.9-1.1,4-1.8,6.3-2.2c0.2-0.1,0.4-0.1,0.6-0.2
	c1.3-0.9,2.7-1.7,4.1-2.5c0.1-0.1,0.2-0.1,0.2-0.1c-0.3,0.7-0.7,1.5-1.1,2.3c0.4-0.2,0.7-0.3,1.1-0.5c0.8-0.3,1.7-0.6,2.5-1
	c0.1,0,0.2,0,0.2-0.1l-1.2,1.7c0.6,0.2,1.2,0.1,1.8-0.1c1.1-0.2,2.2-0.3,3.3-0.5C48.4,11.5,48,11.9,48,11.9z M46,37.7
	c0.2-0.4,0.2-0.7-0.1-0.9S45.3,36.7,45,37c-0.7,0.7-1.9,0.8-2.7,0.2c-0.7-0.5-1-1.2-1.3-2c-0.3-0.9-0.2-1.8-0.2-2.8h-1.1v1.4
	c-0.1,1-0.3,2-0.9,2.9c-0.9,1.2-2.4,1.3-3.4,0.2c-0.2-0.2-0.5-0.2-0.7-0.1c-0.2,0.2-0.3,0.5-0.1,0.7c0.2,0.4,1.8,1.5,3.2,1.9
	c0.1,0.2,0.2,0.5,0.3,0.7c0.8,1.6,2.7,1.9,3.9,0.9c0.5-0.5,0.7-1,1-1.6C43.1,38.9,44.7,39,46,37.7L46,37.7z M48.1,29.5
	c-0.1,0.1-2.7,1.1-3.8,2.1c-0.3,0.2-0.3,0.6-0.1,0.9s0.5,0.3,0.8,0c0.6-0.5,1.4-1,2.1-1.3c1.7-0.8,3.5-1.1,5.4-0.8
	c0.8,0.2,1.6,0.4,2.4,0.7c0.4,0.2,0.8,0,0.9-0.4c0.1-0.3-0.2-0.5-0.4-0.6c-1.4-0.7-2.8-1-4.4-1c0.3-1.1,0.1-1.9-0.7-2.4
	c-0.7-0.4-1.6-0.2-2.1,0.3C47.5,27.6,47.5,28.4,48.1,29.5z M32.5,29.5c0.1-0.1,0.1-0.2,0.2-0.2c0.5-0.6,0.5-1.4,0.1-2.1
	c-0.5-0.6-1.2-0.9-1.9-0.7c-1,0.2-1.5,1.3-1.2,2.2c0.1,0.2,0.1,0.3-0.2,0.3c-0.7,0-2.6,0.4-4.2,1c-0.3,0.2-0.4,0.5-0.3,0.7
	s0.4,0.4,0.7,0.3c0.1,0,0.2-0.1,0.3-0.1c1.2-0.6,2.4-0.9,3.7-0.9c2.2,0.1,4.2,0.9,6,2.3c0.3,0.3,0.6,0.3,0.9,0
	c0.2-0.3,0.2-0.6-0.2-0.9C35.1,30.6,33.9,29.9,32.5,29.5z M49.2,32.7h-0.5c-1.5,0.1-3,0.5-4.4,1.1C44,34,43.8,34.3,44,34.5
	c0.2,0.3,0.5,0.4,0.8,0.2c2.2-1,4.5-1.3,6.8-0.6c0.1,0,0.2,0.1,0.3,0c0.2-0.1,0.4-0.3,0.4-0.5c0-0.3-0.2-0.5-0.5-0.5
	C51.1,32.8,50.2,32.7,49.2,32.7z M31.2,32.6c-0.9,0-1.9,0.1-2.8,0.4c-0.3,0-0.4,0.3-0.4,0.5c0,0.4,0.3,0.6,0.8,0.5
	c1.2-0.3,2.5-0.4,3.7-0.2c1,0.2,2.1,0.5,3,0.9c0.2,0.1,0.5,0.1,0.6-0.1c0.2-0.2,0.2-0.3,0.2-0.6c-0.1-0.2-0.2-0.3-0.4-0.3
	C34.5,33,32.9,32.6,31.2,32.6z M37.5,33.4c0.3,0,0.6-0.2,0.6-0.5s-0.2-0.5-0.5-0.5s-0.5,0.2-0.5,0.5C37,33.2,37.2,33.4,37.5,33.4z
	 M37.9,34.5c-0.3,0-0.5,0.2-0.5,0.5s0.2,0.5,0.5,0.5s0.5-0.2,0.5-0.5S38.2,34.5,37.9,34.5z M43.5,32.9c0-0.3-0.2-0.5-0.6-0.5
	c-0.3,0-0.5,0.2-0.5,0.5s0.2,0.5,0.5,0.5C43.3,33.4,43.5,33.1,43.5,32.9z M43.1,35c0-0.3-0.2-0.5-0.5-0.5s-0.5,0.2-0.5,0.5
	s0.2,0.5,0.5,0.5S43.1,35.3,43.1,35z M0,0"/>
<path style="fill:#E84242;" d="M40.7,32.4H39c-0.5,0-0.8-0.5-0.6-1l1.2-2.1c0.3-0.5,0.9-0.5,1.1,0l1.2,2.1c0.3,0.5,0,1-0.6,1
	C41.3,32.4,40.7,32.4,40.7,32.4z"/>
<path style="fill:#43E8DE;" d="M43,25.5c-0.2,0.1-0.5,0.2-0.8,0l-0.6-0.6c-0.1-0.1-0.2-0.1-0.3,0l-0.6,0.6c-0.2,0.2-0.2,0.2-0.3,0
	c-0.2-0.3-0.5-0.5-0.7-0.8c-0.1-0.1-0.2-0.1-0.3,0l-0.6,0.6c-0.2,0.2-0.5,0.2-0.7,0s-0.2-0.5,0-0.7l1.3-1.3c0.1-0.1,0.2-0.1,0.3,0
	c0.3,0.3,0.7,0.9,1,0.9s0.5-0.4,0.9-0.7c0.1-0.1,0.2-0.1,0.3,0l1.3,1.3C43.3,24.9,43.2,25.3,43,25.5z M42.9,39.4
	c0.1-0.3,0.1-0.6,0.2-0.7c0.2-0.2,0.5,0,0.7-0.1c0.9-0.1,1.6-0.3,2.2-1c0.2,0.3,0.2,0.6,0,0.9c-0.5,0.6-1.2,0.9-2,1
	C43.7,39.4,43.2,39.5,42.9,39.4z M34.7,37.6c0.7,0.8,1.7,1,2.7,1c0.1,0,0.2,0,0.2,0.2s0.1,0.5,0.1,0.7c-1.2,0.2-2.2,0-3.1-0.9
	C34.5,38.2,34.5,37.9,34.7,37.6z"/>
<g style="opacity:0.71;">
	<path style="fill:#1B2229;" d="M95.2,34.1c-0.6,0-1.1,0.2-1.6,0.5c-0.3,0.3-0.7,0.7-1,1.3c-0.5,0.9-1.1,1.6-1.8,2
		c-0.7,0.4-1.5,0.6-2.6,0.6c-1.6,0-2.8-0.6-3.7-1.8c-1-1.2-1.5-3-1.5-5.1s0.5-3.9,1.5-5.1s2.2-1.8,3.7-1.8c2,0,3.4,0.9,4.3,2.6
		c0.3,0.6,0.7,1,1,1.3c0.4,0.3,0.9,0.5,1.5,0.5c0.9,0,1.5-0.4,1.8-0.7c0.3-0.3,0.7-0.9,0.7-1.8c0-0.3-0.1-0.7-0.2-1
		c-0.5-1.7-1.6-3.2-3.4-4.3c-1.7-1.1-3.7-1.7-5.9-1.7c-3.2,0-5.9,1.1-7.9,3.4c-2,2.2-2.9,5.1-2.9,8.7s1,6.5,3,8.7s4.6,3.3,7.9,3.3
		c2.1,0,4-0.5,5.7-1.6s2.9-2.5,3.5-4.2c0.1-0.5,0.2-0.8,0.2-1.2c0-0.7-0.2-1.4-0.7-1.8C96.6,34.3,95.9,34.1,95.2,34.1z M117.6,21.7
		c-1.6-1.4-3.9-2.1-6.6-2.1c-1.9,0-3.6,0.4-5.2,1.2c-1.6,0.8-2.8,1.9-3.5,3.2c-0.4,0.7-0.6,1.3-0.6,2s0.3,1.4,0.7,1.9
		s1.1,0.7,1.8,0.7c1,0,1.9-0.5,2.3-1.4c0.5-0.9,1.1-1.5,1.7-1.9c0.7-0.4,1.5-0.6,2.5-0.6c1.2,0,2.1,0.3,2.8,0.9
		c0.6,0.5,0.9,1.3,0.9,2.3v0.8l-5.2,0.3c-2.7,0.1-4.8,0.8-6.3,2.1c-1.6,1.3-2.4,3-2.4,5.2s0.8,4,2.3,5.4c1.5,1.3,3.4,2,5.8,2
		c1.6,0,3.1-0.4,4.5-1.2c0.5-0.3,1-0.7,1.4-1c0.1,0.6,0.3,1.1,0.7,1.5c0.5,0.5,1.2,0.8,2,0.8s1.4-0.3,1.9-0.8s0.7-1.2,0.7-2V27.5
		C120.1,25.1,119.3,23.1,117.6,21.7L117.6,21.7z M109.6,38.6c-1,0-1.9-0.2-2.5-0.7c-0.5-0.4-0.8-1-0.8-1.7s0.3-1.2,0.8-1.6
		c0.6-0.5,1.6-0.8,2.8-0.8l4.7-0.3v0.7c0,1.2-0.5,2.3-1.4,3.1C112.2,38.2,111,38.6,109.6,38.6z M147.9,19.6c-1.7,0-3.2,0.4-4.5,1.2
		c-0.8,0.5-1.5,1.1-2.1,1.9c-0.5-0.7-1.1-1.4-1.8-1.8c-1.2-0.8-2.6-1.2-4.3-1.2c-1.6,0-3,0.4-4.2,1.2c-0.4,0.2-0.7,0.5-1,0.8
		c-0.1-0.4-0.3-0.8-0.6-1.1c-0.5-0.5-1.2-0.8-1.9-0.8s-1.4,0.3-1.9,0.8s-0.7,1.2-0.7,2V41c0,0.8,0.3,1.5,0.8,2
		c0.5,0.6,1.2,0.9,2,0.9s1.5-0.3,2-0.9c0.5-0.6,0.8-1.2,0.8-2V28.9c0-1.2,0.4-2.2,1.1-3c0.7-0.8,1.6-1.2,2.8-1.2
		c1.1,0,1.9,0.3,2.5,0.9s0.9,1.4,0.9,2.4v12.8c0,0.8,0.3,1.5,0.8,2c0.5,0.6,1.2,0.9,2,0.9s1.5-0.3,2-0.9c0.5-0.6,0.8-1.2,0.8-2v-12
		c0-1.2,0.4-2.1,1.1-2.9c0.7-0.7,1.6-1.1,2.7-1.1s2,0.3,2.5,0.9c0.6,0.6,0.9,1.5,0.9,2.7v12.4c0,0.8,0.3,1.5,0.8,2
		c0.5,0.6,1.2,0.9,2,0.9s1.5-0.3,2-0.9c0.5-0.6,0.8-1.2,0.8-2V27.5c0-2.4-0.7-4.3-2.2-5.8C152.2,20.3,150.3,19.6,147.9,19.6z
		 M178.1,19.6c-0.8,0-1.5,0.3-2,0.8c-0.4,0.4-0.6,0.9-0.7,1.4c-0.4-0.4-0.9-0.8-1.4-1.1c-1.3-0.8-2.8-1.2-4.5-1.2
		c-3.1,0-5.5,1.1-7.4,3.3c-1.8,2.2-2.7,5.1-2.7,8.6s0.9,6.4,2.7,8.6s4.3,3.3,7.3,3.3c1.6,0,3.2-0.4,4.5-1.2c0.5-0.3,1-0.6,1.4-1v0.7
		c0,1.3-0.4,3.1-1.3,3.9c-0.9,0.8-2.2,1.2-3.8,1.2c-0.9,0-1.7-0.2-2.4-0.6c-0.7-0.4-1.5-1-2.3-1.9c-0.4-0.4-0.7-0.7-1-0.9
		c-0.4-0.2-0.8-0.3-1.2-0.3c-0.7,0-1.4,0.2-1.8,0.7c-0.5,0.5-0.8,1.1-0.8,1.8s0.2,1.3,0.6,1.9c0.9,1.3,2.1,2.4,3.7,3.1
		c1.5,0.7,3.3,1.1,5.2,1.1h0.2c3.2,0,5.8-0.9,7.7-2.5c2-1.7,3-4.8,3-7.7V22.4c0-0.8-0.3-1.5-0.8-2C179.6,19.8,178.9,19.6,178.1,19.6
		z M175.3,31.5c0,2.1-0.5,3.8-1.5,5s-2.2,1.8-3.7,1.8s-2.7-0.6-3.6-1.7c-1-1.2-1.4-2.9-1.4-5.1c0-2.1,0.5-3.8,1.4-5.1
		c0.9-1.2,2.1-1.7,3.6-1.7c1.6,0,2.8,0.6,3.7,1.8C174.8,27.7,175.3,29.4,175.3,31.5z M203.2,22.9c-2-2.2-4.7-3.3-7.9-3.3
		c-3.3,0-5.9,1.1-7.9,3.3s-3,5.1-3,8.7s1,6.6,3,8.7c2,2.2,4.7,3.3,7.9,3.3s5.9-1.1,7.9-3.3s3-5.1,3-8.7S205.2,25,203.2,22.9z
		 M199.1,36.8c-0.9,1.2-2.2,1.7-3.8,1.7s-2.8-0.6-3.8-1.7c-1-1.2-1.5-2.9-1.5-5.2s0.5-4,1.5-5.2c0.9-1.2,2.2-1.7,3.8-1.7
		s2.8,0.6,3.8,1.7c1,1.2,1.5,2.9,1.5,5.2S200.1,35.6,199.1,36.8z"/>
</g>
<path style="fill:#E84242;" d="M56.8,34.3c-2.1,0-4.1,1-5.3,2.6l0,0H48l2.1,3.1l0,0c0,0.3-0.1,0.6-0.1,0.9c0,3.7,3,6.7,6.7,6.7
	s6.7-3,6.7-6.7C63.5,37.2,60.5,34.3,56.8,34.3z"/>
<path style="fill:#EFF5F4;" d="M55.3,38.8c0.5,0,0.8,0.2,1.1,0.5c0.2,0.2,0.3,0.2,0.6,0c0.3-0.3,0.7-0.6,1.3-0.5
	c0.6,0,1.1,0.4,1.3,1s0.1,1.1-0.3,1.5c-0.7,0.7-1.5,1.4-2.3,2.1c-0.2,0.2-0.3,0.2-0.5,0c-0.7-0.7-1.5-1.4-2.2-2
	c-0.5-0.5-0.6-1-0.4-1.6C54.1,39.2,54.6,38.8,55.3,38.8L55.3,38.8z"/>
</svg>
