<?xml version="1.0" encoding="utf-8"?>
<!-- Generator: Adobe Illustrator 21.0.0, SVG Export Plug-In . SVG Version: 6.00 Build 0)  -->
<svg version="1.1" id="Слой_1" xmlns="http://www.w3.org/2000/svg" xmlns:xlink="http://www.w3.org/1999/xlink" x="0px" y="0px"
	 viewBox="0 0 50 50" style="enable-background:new 0 0 50 50;" xml:space="preserve">
<style type="text/css">
	.st0{fill:#E0F2FE;}
	.st1{fill:#D9DBDB;}
	.st2{fill:#FFFFFF;}
	.st3{fill:#E94142;}
	.st4{fill:#E86B7B;}
	.st5{fill:#20B69F;}
	.st6{fill:#17998C;}
</style>
<circle class="st0" cx="25" cy="25" r="25"/>
<g>
	<path id="Fill-30" class="st1" d="M29.3,31.8V38c-1.3,0.5-2.8,0.8-4.3,0.8c-1.5,0-2.9-0.3-4.3-0.8v-6.2H29.3z"/>
	<path class="st2" d="M37.4,19.7h-1.1C36,14,31.1,9.5,25.1,9.5c-6,0-11,4.6-11.2,10.3h-1.1c-1.7,0-3,1.3-3,2.9c0,1.6,1.4,2.9,3,2.9
		h1.1c0.3,5.3,5.3,10,11.2,10c5.9,0,10.9-4.7,11.2-10h1.1c1.7,0,3-1.3,3-2.9C40.4,21,39,19.7,37.4,19.7z"/>
	<path id="Fill-32" class="st1" d="M36.3,20.3c-0.2,0-0.4,0-0.6-0.1c-2.8-0.5-7-0.8-10.7-0.8s-7.9,0.3-10.7,0.8
		c-0.2,0-0.4,0.1-0.6,0.1c0-6,5-10.9,11.2-10.9S36.3,14.3,36.3,20.3"/>
	<path class="st3" d="M37.7,13.3c0-0.5-0.4-1-1-1.2c-1-5.3-5.8-9.3-11.7-9.3s-10.7,4-11.7,9.3c-0.6,0.2-1,0.6-1,1.2l-0.1,2.7
		c0,0.8,0.8,1.5,1.6,1.3c3-0.5,7.5-0.8,11.2-0.8c3.7,0,8.2,0.3,11.2,0.8c0.9,0.2,1.7-0.5,1.6-1.3L37.7,13.3z"/>
	<path id="Fill-34" class="st4" d="M37.5,16.9l-4.2-0.5C33.3,11,28.5,3.9,23,3c0.7-0.1,1.4-0.2,2.1-0.2c6.5,0,12.2,5,12.2,11.2
		L37.5,16.9z"/>
	<path id="Fill-44" d="M21.7,22.9V22c0-0.6-0.5-1.1-1.1-1.1c-0.6,0-1.1,0.5-1.1,1.1v0.8c0,0.6,0.5,1.1,1.1,1.1
		C21.2,24,21.7,23.5,21.7,22.9"/>
	<path id="Fill-45" d="M30.6,22.9V22c0-0.6-0.5-1.1-1.1-1.1c-0.6,0-1.1,0.5-1.1,1.1v0.8c0,0.6,0.5,1.1,1.1,1.1
		C30.1,24,30.6,23.5,30.6,22.9"/>
	<path class="st0" d="M10.8,22.5c0,1,0.8,1.8,1.8,1.8v-3.6C11.6,20.8,10.8,21.6,10.8,22.5z"/>
	<path class="st0" d="M39.2,22.5c0-1-0.8-1.8-1.8-1.8v3.6C38.4,24.3,39.2,23.5,39.2,22.5z"/>
	<path class="st5" d="M37.1,42.8l-3.5-1.1c-0.9,3.7-4.5,6.4-8.6,6.4c-6,0-8.8-6.2-8.8-6.2s-3.8,1.4-6.5,2.8C14,48.1,19.3,50,25,50
		c5.3,0,10.2-1.6,14.2-4.4C38.7,44.5,38,43.6,37.1,42.8z"/>
	<path class="st6" d="M37.1,42.8c0.8,0.8,1.5,1.8,2.1,2.8c0.5-0.4,1-0.7,1.5-1.1c-0.8-0.6-1.7-1.1-2.8-1.5L37.1,42.8z"/>
	<path class="st2" d="M21.9,38.4V41c0,0.6-0.5,1.1-1.1,1.1c-0.6,0-1.1-0.5-1.1-1.1v-0.2L18.6,41c0,0,0.1,0.6,0.7,1.7
		c1.1,2,3.3,3.3,5.7,3.3c3.1,0,5.7-2.1,6.4-4.9l-1-0.3V41c0,0.6-0.5,1.1-1.1,1.1c-0.6,0-1.1-0.5-1.1-1.1v-2.6c0,0-1.7,0.4-3,0.4
		C23.9,38.8,21.9,38.4,21.9,38.4z"/>
	<path d="M40.2,41.6c-0.5-0.3-9.8-3.1-9.8-3.1v-3.1c1.2-0.6,2.4-1.4,3.4-2.4c1.9-1.8,3.1-4.1,3.5-6.5h0.1c1,0,3.8-0.9,3.8-4
		c0-2.6-2.8-4-3.8-4h-0.1c0-0.1,0-0.1,0-0.2c0.3-0.1,0.6-0.2,0.8-0.5c0.6-0.5,0.9-1.2,0.9-1.9l-0.1-2.8c0-0.8-0.5-1.5-1.2-1.9
		c-0.7-2.6-2.2-5-4.4-6.6C30.9,2.9,28,1.9,25,1.9s-5.9,1-8.2,2.8c-2.2,1.7-3.8,4-4.4,6.6c-0.7,0.4-1.1,1.1-1.2,1.9L11.1,16
		c0,0.8,0.3,1.5,0.9,1.9c0.3,0.2,0.5,0.4,0.8,0.5c0,0.1,0,0.1,0,0.2h-0.1c-2.3,0-4.2,1.8-4.2,4c0,2.2,1.9,4,4.2,4h0.1
		c0.2,1.1,0.5,2.1,1,3.1c0.2,0.4,0.6,0.6,1,0.6c0.2,0,0.3,0,0.5-0.1c0.6-0.3,0.8-0.9,0.5-1.5c-0.6-1.2-0.9-2.5-0.9-3.8v-4.6
		c0-0.6,0.1-1.2,0.2-1.8c2.8-0.4,6.6-0.6,9.9-0.6s7.1,0.2,9.9,0.6c0.1,0.6,0.2,1.2,0.2,1.8v4.7c0,3.7-2.5,7-5.9,8.6
		c-1.3,0.6-2.8,1-4.3,1c-1.5,0-2.9-0.3-4.3-0.9c-0.6-0.3-1.3-0.7-1.9-1.1c-0.5-0.4-1.2-0.3-1.6,0.2c-0.4,0.5-0.3,1.2,0.2,1.5
		c0.7,0.5,1.4,0.9,2.2,1.3v3.1c0,0-7.5,2.7-11.6,4.9c0.1,0.1,0.3,0.3,0.4,0.4c0.4,0.4,0.8,0.7,1.3,1c2.7-1.4,6.5-2.8,6.5-2.8
		s2.7,6.2,8.8,6.2c4.1,0,7.6-2.7,8.6-6.4l3.5,1.1l0.8,0.2c1,0.3,2,0.8,2.8,1.5c0.3-0.2,0.5-0.4,0.8-0.7c0.1-0.1,0.2-0.1,0.2-0.2
		c0.2-0.2,0.4-0.4,0.7-0.6C41.8,42.5,40.7,41.9,40.2,41.6z M37.4,20.8c1,0,1.8,0.8,1.8,1.8s-0.8,1.8-1.8,1.8V20.8z M12.6,24.3
		c-1,0-1.8-0.8-1.8-1.8c0-1,0.8-1.8,1.8-1.8V24.3z M25,4.1c4.5,0,8.5,2.7,10,6.5c-3-0.5-6.3-0.8-10-0.8s-7,0.2-10,0.8
		C16.5,6.8,20.5,4.1,25,4.1z M35.1,16.2v-1.7c0-0.6-0.5-1.1-1.1-1.1c-0.6,0-1.1,0.5-1.1,1.1v1.4c-0.7-0.1-1.4-0.1-2.1-0.2V14
		c0-0.6-0.5-1.1-1.1-1.1c-0.6,0-1.1,0.5-1.1,1.1v1.6c-0.7,0-1.5-0.1-2.2-0.1v-1.7c0-0.6-0.5-1.1-1.1-1.1c-0.6,0-1.1,0.5-1.1,1.1v1.7
		c-0.7,0-1.4,0-2.2,0.1V14c0-0.6-0.5-1.1-1.1-1.1c-0.6,0-1.1,0.5-1.1,1.1v1.8c-0.7,0.1-1.5,0.1-2.1,0.2v-1.4c0-0.6-0.5-1.1-1.1-1.1
		c-0.6,0-1.1,0.5-1.1,1.1v1.7c-0.5,0.1-0.9,0.1-1.3,0.2c-0.1,0-0.2,0-0.2-0.1c0,0-0.1-0.1-0.1-0.2l0.1-2.8c0-0.1,0.1-0.2,0.2-0.2
		c3.3-0.7,7-1.1,11.3-1.1c4.3,0,8,0.4,11.3,1.1c0.1,0,0.2,0.1,0.2,0.2l0.1,2.8c0,0.1,0,0.2-0.1,0.2c0,0-0.1,0.1-0.2,0.1
		C36,16.3,35.5,16.2,35.1,16.2z M25,46c-2.4,0-4.6-1.2-5.7-3.3c-0.6-1-0.7-1.7-0.7-1.7l1.1-0.3V41c0,0.6,0.5,1.1,1.1,1.1
		c0.6,0,1.1-0.5,1.1-1.1v-2.1v-2.6c1,0.2,2.1,0.4,3.1,0.4c1,0,2.1-0.1,3.1-0.4v2.5V41c0,0.6,0.5,1.1,1.1,1.1c0.6,0,1.1-0.5,1.1-1.1
		v-0.2l1,0.3C30.7,43.9,28.1,46,25,46z"/>
</g>
</svg>
