<?xml version="1.0" encoding="utf-8"?>
<!-- Generator: Adobe Illustrator 21.0.0, SVG Export Plug-In . SVG Version: 6.00 Build 0)  -->
<svg version="1.1" id="Слой_1" xmlns="http://www.w3.org/2000/svg" xmlns:xlink="http://www.w3.org/1999/xlink" x="0px" y="0px"
	 viewBox="0 0 251.6 207.9" style="enable-background:new 0 0 251.6 207.9;" xml:space="preserve">
<style type="text/css">
	.st0{fill:#E94142;fill-opacity:0.4382;}
	.st1{fill:#E94142;}
	.st2{fill:#FFFFFF;}
	.st3{fill:#E86B7B;}
	.st4{fill:#D9DBDB;}
	.st5{fill:#05D1C4;}
	.st6{fill:#05AF9F;}
	.st7{fill:#20B69F;}
	.st8{fill:#17998C;}
	.st9{fill:#E01058;}
	.st10{fill:#F8F3F1;}
	.st11{fill:#FB1466;}
</style>
<g id="Group-47">
	<path id="Fill-1" class="st0" d="M242.6,156.4l8.7,45.7c0.5,2.1,0.4,5.1-2.1,5.6c-2.8,0.5-4.3-0.5-4.5-1.4l-0.1-0.7h-10.7l0,0
		c0,0-231.1,1.2-230.7-0.8l9.3-48.5c0.9-4.8,2.9-9.4,5.7-13.3l-0.7-2.6c-1.5-5.7,2-11.5,7.7-13l21.9-5.7c3.3-0.9,6.7,0,9.2,2.1
		l5.3-1.7v-10.2c-2.4-1.2-4.6-2.6-6.8-4.3c-1.6-1.2-1.9-3.5-0.6-5.1l0.1-0.1c-2.5-2.3-4.6-5-6.4-7.9c-0.1,0-0.1,0.1-0.2,0.1
		c-0.5,0.2-1,0.3-1.5,0.3c-1.4,0-2.7-0.8-3.3-2.1c-1.6-3.3-2.6-6.8-3.2-10.3h-0.3c-7.3,0-13.2-5.9-13.2-13.1s5.9-13.1,13.2-13.1h0.2
		c0-0.2,0.1-0.4,0.1-0.5c-0.9-0.3-1.8-0.8-2.6-1.5c-1.8-1.6-2.8-4-2.7-6.4l0.4-9.1c0.1-2.7,1.6-5.1,3.8-6.4
		c2.1-8.6,7-16.4,14.1-22.1c7.3-5.9,16.6-9.1,26-9.1c9.5,0,18.7,3.2,26,9.1c7,5.6,12,13.4,14.1,22.1c2.2,1.4,3.6,3.8,3.8,6.4
		l0.4,9.1c0.1,2.5-0.9,4.8-2.7,6.4c-0.8,0.7-1.6,1.2-2.6,1.5c0,0.2,0.1,0.4,0.1,0.5h0.2c3.4,0,6.4,1.3,8.7,3.3v-9
		c0-27.3,22.3-49.4,49.6-49.4c10.5,0,20.5,3.2,29,9.3c1.6,1.2,2,3.4,0.8,5.1l-0.1,0.1c2.2,1.8,4.2,3.8,6,6c0.3,0.4,0.6,0.8,0.9,1.2
		l0.1-0.1c1.7-1.1,3.9-0.6,5,1.1c5.2,8,7.9,17.2,7.9,26.8v10.8c1.8,2.2,2.8,5,2.8,8.1s-1.1,5.9-2.8,8.1v3.8
		c0,13.2-10.5,24-23.6,24.5c-2.7,2.5-5.8,4.5-8.9,6.1v10.2l26.1,8.4C231.4,134.2,240.2,144.2,242.6,156.4z M159.2,111.9
		c-3.2-1.6-6.2-3.6-9-6.1c-13.1-0.6-23.6-11.4-23.6-24.5v-2.1c-2.3,2.1-5.4,3.3-8.7,3.3h-0.3c-1.2,7.9-5.1,15.5-11.1,21.6
		c-3.2,3.2-6.8,5.8-10.7,7.8V122l26.1,8.4c1.7,0.6,3.4,1.2,5,2l32.3-10.4V111.9z"/>
	<path id="Fill-8" class="st1" d="M244.6,207.9H128.2l-2-71.4l46.8-17.5l42.1,13.5c10.6,3.4,18.5,12.2,20.6,23.1L244.6,207.9z"/>
	<path id="Fill-10" class="st2" d="M197.1,126.7c-0.9,12.5-11.3,22.3-24,22.3s-23.1-9.8-24-22.3l24-7.7L197.1,126.7z"/>
	<path id="Fill-12" class="st3" d="M244.4,207.9h-12.2c-0.5,0-0.9-0.4-1-0.8l-10.4-54.8c-1.4-7.6-5.5-14.3-11.3-19.1
		c-0.9-0.7-0.1-2.1,1-1.8l4.9,1.6c10.5,3.4,18.4,12.3,20.5,23.3l9.5,50.4C245.5,207.3,245,207.9,244.4,207.9z"/>
	<path id="Fill-14" class="st2" d="M160.1,132h27V99h-27V132z"/>
	<path id="Fill-16" class="st4" d="M187.1,99v20.4c-4.2,1.7-8.7,2.6-13.5,2.6s-9.3-0.9-13.5-2.6V99H187.1z"/>
	<path class="st5" d="M173.1,3c-25.4,0-46,20.6-46,46.1V80c0,11.6,9.4,21,21,21h50c11.6,0,21-9.4,21-21V49.1
		C219.1,23.6,198.5,3,173.1,3z"/>
	<path class="st6" d="M205.8,16.5C197.5,8.2,186.1,3,173.6,3c-2.2,0-4.4,0.2-6.5,0.5c10,1.4,18.9,6.1,25.7,13
		c4.7,4.7,8.4,10.5,10.7,17c-0.7-0.9-1.5-1.7-2.4-2.5c2.6,5.7,4,11.9,4,18.5V54h1v26c0,11.6-9.3,21-20.8,21h12.9
		c11.5,0,20.8-9.4,20.8-21V49.1C219.1,36.3,214,24.8,205.8,16.5z"/>
	<path class="st2" d="M210.4,59h-6c-0.1-0.5-0.1-0.9-0.2-1.4h-11.3c-14.5,0-26.4-11.6-26.8-26.1c-13.5,2.8-23.6,13.9-25.2,27.5h-5.3
		c-5.3,0-9.6,4.3-9.6,9.5s4.3,9.5,9.6,9.5h5.1c1.1,16,15.5,29.5,31.9,29.5s30.8-13.6,31.9-29.5h5.8c5.3,0,9.6-4.3,9.6-9.5
		S215.8,59,210.4,59z"/>
	<path id="Fill-25" class="st7" d="M146.6,207.9H3.9c-0.4,0-0.7-0.4-0.6-0.8l10.1-51.5c2.1-10.9,10-19.7,20.6-23.1l41.9-13.4
		c0.1,0,0.3,0,0.4,0l41.9,13.4c10.6,3.4,18.5,12.2,20.6,23.1l8.5,51.6C147.3,207.5,147,207.9,146.6,207.9z"/>
	<path id="Fill-26" class="st8" d="M53.9,142.6l-0.7-2.8c-0.9-3.5-4.5-5.5-8.1-4.6l-21.7,5.5c-3.8,1-6,4.7-5,8.4l2.4,8.9
		c0.9,3.5,4.6,5.7,8.3,4.8l11.5-2.9c3.6-0.9,5.8-4.5,4.9-8.1l-0.3-1l4.6-1.2C52.8,148.8,54.7,145.7,53.9,142.6"/>
	<path id="Fill-27" class="st8" d="M147.4,207.9h-14l-10.7-55.6c-1.9-10.2-8.6-18.8-17.7-23.3l12.3,4c10.5,3.4,18.4,12.3,20.4,23.3
		L147.4,207.9z"/>
	<path id="Fill-28" class="st2" d="M99.1,126.7c-0.9,12.5-11.3,22.3-24,22.3s-23.1-9.8-24-22.3l24-7.7L99.1,126.7z"/>
	<path id="Fill-29" class="st2" d="M62.1,131h27V98h-27V131z"/>
	<path id="Fill-30" class="st4" d="M89.1,99v20.4c-4.2,1.7-8.7,2.6-13.5,2.6s-9.3-0.9-13.5-2.6V99H89.1z"/>
	<path class="st2" d="M114.5,59h-3.4c-0.8-18.9-16.4-34-35.5-34S40.9,40.1,40.1,59h-3.4c-5.3,0-9.6,4.3-9.6,9.5s4.3,9.5,9.6,9.5h3.5
		c1.1,17.4,16.6,33,35.4,33s34.3-15.6,35.4-33h3.5c5.3,0,9.6-4.3,9.6-9.5S119.8,59,114.5,59z"/>
	<path id="Fill-32" class="st4" d="M111.1,61c-0.6,0-1.2-0.1-1.8-0.2c-8.7-1.5-22.2-2.5-33.7-2.5s-25,1-33.7,2.5
		c-0.6,0.1-1.2,0.2-1.8,0.2c0-19.9,15.9-36,35.5-36S111.1,41.1,111.1,61"/>
	<path class="st1" d="M115.7,37.6c-0.1-1.8-1.4-3.4-3.2-3.9C109.4,16.2,94.1,3,75.6,3S41.8,16.2,38.7,33.7c-1.8,0.5-3.1,2.1-3.2,3.9
		l-0.4,8.9c-0.1,2.7,2.4,4.9,5.2,4.4c9.5-1.6,23.7-2.6,35.3-2.6c11.7,0,25.8,1,35.3,2.6c2.8,0.5,5.3-1.7,5.2-4.4L115.7,37.6z"/>
	<path id="Fill-34" class="st3" d="M113.1,40H99.7c0-18.2-13.2-33.3-30.6-36.4C71.3,3.2,73.5,3,75.8,3C96.4,3,113,19.6,113.1,40"/>
	<path id="Fill-36" class="st9" d="M116.1,46.3c0.1,2.9-2.5,5.2-5.4,4.7c-2.1-0.4-4.5-0.7-7-1c1.2-0.9,2-2.3,2-4l-0.4-11.3
		c-0.1-1.5-0.9-2.9-2.1-3.7c3.2,0.5,6.1,1.1,9,1.7c2,0.5,3.5,2.2,3.6,4.2L116.1,46.3z"/>
	<path id="Fill-37" class="st2" d="M37.1,126.1l4.1,14.9l8.3-2.1c3.3-0.8,5.3-4,4.4-7.1l-0.8-2.9c-1-3.5-4.8-5.7-8.5-4.7L37.1,126.1
		z"/>
	<path id="Fill-38" class="st2" d="M17.3,138.5l2.4,9.3c1,3.7,4.7,5.9,8.4,5l11.7-3c3.7-1,5.9-4.7,5-8.5L40.7,125l-18.2,4.7
		C18.6,130.7,16.3,134.6,17.3,138.5"/>
	<path id="Fill-39" class="st10" d="M58.1,207.9h36V169h-36V207.9z"/>
	<path class="st4" d="M193,57.6c-9.1,0-17.1-4.5-21.9-11.4C174,55.9,183,63,193.6,63h11.2v-0.2c0-1.8-0.1-3.5-0.4-5.2
		C204.4,57.6,193,57.6,193,57.6z"/>
	<path id="Fill-40" class="st11" d="M58.1,183h36v-13h-36V183z"/>
	<path d="M248,203.7l-9.3-48.5c-2.3-12.2-11.1-22.1-22.9-25.9l-26-8.4v-10.2c3.2-1.6,6.2-3.6,8.9-6.1c13-0.6,23.5-11.3,23.5-24.5
		v-3.8c1.8-2.2,2.8-5,2.8-8.1s-1.1-5.9-2.8-8.1V49.4c0-9.5-2.7-18.8-7.9-26.7c-1.1-1.7-3.3-2.2-5-1.1s-2.2,3.3-1.1,5
		c4.4,6.8,6.7,14.7,6.7,22.8v6.1c-1-0.2-2-0.4-3.1-0.4h-0.1c0.1-0.4,0.2-0.8,0.2-1.2c0-2-1.6-3.6-3.6-3.6h-15.4
		c-10.8,0-19.6-8.8-19.6-19.5v-5.5c0-2-1.6-3.6-3.6-3.6c-1.6,0-2.9,1-3.4,2.4c-16.4,2.6-29,15.2-32.2,31.1h-0.6
		c-1.1,0-2.1,0.1-3.1,0.4v-6.1c0-23.2,18.9-42.2,42.2-42.2c8.9,0,17.4,2.7,24.6,7.9c1.6,1.2,3.9,0.8,5.1-0.8
		c1.2-1.6,0.8-3.9-0.8-5.1C193.1,3.2,183.2,0,172.7,0c-27.3,0-49.5,22.2-49.5,49.4v9c-2.3-2.1-5.4-3.3-8.7-3.3h-0.2
		c0-0.2-0.1-0.4-0.1-0.5c0.9-0.3,1.8-0.8,2.6-1.5c1.8-1.6,2.8-4,2.7-6.4l-0.4-9.1c-0.1-2.7-1.6-5.1-3.8-6.4c-2.1-8.6-7-16.4-14-22
		C94.1,3.2,84.9,0,75.5,0S56.9,3.2,49.6,9.1c-7,5.6-11.9,13.4-14,22c-2.2,1.4-3.6,3.8-3.7,6.4l-0.4,9.1c-0.1,2.5,0.9,4.8,2.7,6.4
		c0.8,0.7,1.6,1.2,2.6,1.5c0,0.2-0.1,0.4-0.1,0.5h-0.2c-7.3,0-13.2,5.9-13.2,13.1s5.9,13.1,13.2,13.1h0.3c0.5,3.5,1.6,6.9,3.2,10.3
		c0.6,1.3,1.9,2.1,3.3,2.1c0.5,0,1-0.1,1.5-0.3c1.8-0.9,2.6-3,1.7-4.8c-1.9-4.1-2.9-8.3-2.9-12.6V60.6c0-2.1,0.2-4.1,0.6-6.1
		c8.9-1.3,21-2.1,31.4-2.1s22.5,0.8,31.4,2.1c0.4,2,0.6,4,0.6,6.1V76c0,16.8-14.9,31.5-32,31.5c-7,0-13.7-2.3-19.4-6.8
		c-1.6-1.2-3.9-0.9-5.1,0.6c-1.2,1.6-0.9,3.9,0.6,5.1c2.1,1.7,4.4,3.1,6.8,4.3v10.2l-5.3,1.7c-2.5-2-5.8-2.9-9.1-2l-22,5.6
		c-5.7,1.5-9.1,7.3-7.7,13l0.7,2.6c-2.8,4-4.8,8.5-5.7,13.3l-9.3,48.5c-0.4,2,0.9,3.9,2.9,4.2c0.3,0.1,0.5,0.1,0.7,0.1
		c1.7,0,3.2-1.2,3.6-2.9l9.3-48.5c0.3-1.8,0.9-3.5,1.6-5.2c0.9,1.4,2.1,2.5,3.5,3.4c1.6,1,3.4,1.4,5.3,1.4c0.9,0,1.8-0.1,2.6-0.3
		l11.6-3c2.7-0.7,5-2.4,6.4-4.8c1-1.6,1.4-3.5,1.4-5.3l1.4-0.4c0.8-0.2,1.6-0.6,2.4-1C58,148.6,66.3,153,75.5,153
		c12.9,0,24.1-9,27.1-21.3l13.7,4.4c9.3,3,16.2,10.8,18,20.4l9.3,48.5c0.3,1.7,1.9,2.9,3.6,2.9c0.2,0,0.5,0,0.7-0.1
		c2-0.4,3.3-2.3,2.9-4.2l-4.7-24.7l-1.4-7.3l-3.2-16.5c-1.4-7.3-5.1-13.8-10.5-18.7l14.7-4.7c3,12.3,14.2,21.3,27.1,21.3
		c12.9,0,24.1-9,27.1-21.3l13.7,4.4c9.3,3,16.2,10.8,18,20.4l2.9,15.1l1.4,7.3l5,26.1c0.3,1.7,1.9,2.9,3.6,2.9c0.2,0,0.5,0,0.7-0.1
		C247.1,207.6,248.4,205.7,248,203.7z M36.2,74.2c-3.2-0.1-5.7-2.7-5.7-5.9c0-3.2,2.6-5.8,5.7-5.9V74.2z M41.3,144.4
		c-0.4,0.7-1.1,1.3-1.9,1.5l-11.6,3c-0.8,0.2-1.7,0.1-2.4-0.3c-0.7-0.4-1.3-1.1-1.5-1.9l-2.4-9.2c-0.5-1.8,0.6-3.7,2.5-4.2l14.4-3.7
		l3.2,12.5C41.8,142.8,41.7,143.7,41.3,144.4z M49.9,134.3c-0.3,0.5-0.8,0.9-1.4,1l-1.1,0.3l-2.1-7.9l0.4-0.1
		c1.6-0.4,3.2,0.5,3.7,2.2l0.7,2.9C50.3,133.2,50.3,133.8,49.9,134.3z M217.7,68.3c0,3.2-2.6,5.8-5.7,5.9V62.8c0-0.1,0-0.2,0-0.4
		C215.2,62.5,217.7,65.1,217.7,68.3z M211.6,81.4h0.3c1.1,0,2.1-0.1,3.1-0.4c-0.3,5.8-3.5,10.9-8.2,13.8
		C209.2,90.7,210.8,86.1,211.6,81.4z M140.8,62.8L140.8,62.8c0-15.3,10.8-28.3,25.5-31.3c0.4,14.4,12.3,26.1,26.8,26.1h11.3
		c0.3,1.7,0.4,3.5,0.4,5.2V76c0,16.8-14.9,31.5-32,31.5c-17,0-32-14.7-32-31.5V62.8z M133.9,81.4c0.7,4.7,2.4,9.2,4.8,13.4
		c-4.7-2.9-7.9-8-8.2-13.8c1,0.2,2,0.4,3.1,0.4H133.9z M133.5,62.4c0,0.1,0,0.2,0,0.4v11.4c-3.2-0.1-5.7-2.7-5.7-5.9
		C127.7,65.1,130.3,62.5,133.5,62.4z M114.7,62.4c3.2,0.1,5.7,2.7,5.7,5.9c0,3.2-2.6,5.8-5.7,5.9V62.4z M75.5,7.3
		c14.2,0,26.8,8.9,31.7,21.6c-9.4-1.7-19.8-2.6-31.7-2.6s-22.2,0.8-31.7,2.6C48.7,16.1,61.3,7.3,75.5,7.3z M107.2,47.2v-5.5
		c0-2-1.6-3.6-3.6-3.6s-3.6,1.6-3.6,3.6v4.7c-2.2-0.2-4.4-0.4-6.7-0.6V40c0-2-1.6-3.6-3.6-3.6S86.1,38,86.1,40v5.4
		c-2.3-0.1-4.6-0.2-6.8-0.2v-5.5c0-2-1.6-3.6-3.6-3.6s-3.6,1.6-3.6,3.6v5.5c-2.2,0-4.5,0.1-6.8,0.2V40c0-2-1.6-3.6-3.6-3.6
		S58.1,38,58.1,40v5.8c-2.3,0.2-4.6,0.3-6.7,0.6v-4.7c0-2-1.6-3.6-3.6-3.6s-3.6,1.6-3.6,3.6v5.5c-1.5,0.2-2.9,0.4-4.2,0.6
		c-0.3,0.1-0.5-0.1-0.6-0.2c-0.1-0.1-0.3-0.3-0.3-0.6l0.4-9.1c0-0.4,0.3-0.7,0.6-0.7c10.4-2.4,22.1-3.6,35.8-3.6s25.4,1.2,35.8,3.6
		c0.3,0.1,0.6,0.4,0.6,0.7l0.4,9.1c0,0.3-0.1,0.5-0.3,0.6c-0.1,0.1-0.3,0.2-0.6,0.2C110.1,47.6,108.6,47.4,107.2,47.2z M75.5,145.8
		c-7.6,0-14.5-4.1-18.1-10.8c0.3-1.4,0.2-2.8-0.1-4.2l-0.4-1.7l1.6-0.5v0.7c0,2,1.6,3.6,3.6,3.6c2,0,3.6-1.6,3.6-3.6v-15.7
		c3.2,0.8,6.5,1.3,9.8,1.3s6.6-0.4,9.8-1.3v15.7c0,2,1.6,3.6,3.6,3.6s3.6-1.6,3.6-3.6v-0.7l3.1,1C93.6,138.9,85.2,145.8,75.5,145.8z
		 M123.5,131.3c-1.6-0.8-3.2-1.5-4.9-2l-26-8.4v-10.2c3.9-1.9,7.5-4.5,10.7-7.8c5.9-6,9.8-13.6,11.1-21.5h0.3c3.3,0,6.4-1.3,8.7-3.3
		v2.1c0,13.2,10.4,23.9,23.5,24.5c2.7,2.5,5.7,4.5,8.9,6.1V121L123.5,131.3z M172.7,145.8c-9.7,0-18.1-6.9-20.1-16.3l3.1-1v0.7
		c0,2,1.6,3.6,3.6,3.6s3.6-1.6,3.6-3.6v-15.7c3.2,0.8,6.5,1.3,9.8,1.3s6.6-0.4,9.8-1.3v15.7c0,2,1.6,3.6,3.6,3.6s3.6-1.6,3.6-3.6
		v-0.7l3.1,1C190.9,138.9,182.5,145.8,172.7,145.8z"/>
	<path id="Fill-42" d="M158.6,73c1.9,0,3.5-1.6,3.5-3.6v-2.8c0-2-1.6-3.6-3.5-3.6s-3.5,1.6-3.5,3.6v2.8
		C155.1,71.4,156.7,73,158.6,73"/>
	<path id="Fill-43" d="M186.6,73c1.9,0,3.5-1.6,3.5-3.6v-2.8c0-2-1.6-3.6-3.5-3.6s-3.5,1.6-3.5,3.6v2.8
		C183.1,71.4,184.7,73,186.6,73"/>
	<path id="Fill-44" d="M65.1,69.4v-2.8c0-2-1.6-3.6-3.5-3.6s-3.5,1.6-3.5,3.6v2.8c0,2,1.6,3.6,3.5,3.6S65.1,71.4,65.1,69.4"/>
	<path id="Fill-45" d="M93.1,69.4v-2.8c0-2-1.6-3.6-3.5-3.6s-3.5,1.6-3.5,3.6v2.8c0,2,1.6,3.6,3.5,3.6S93.1,71.4,93.1,69.4"/>
	<path d="M93.5,164.9H57.7c-2,0-3.6,1.7-3.6,3.7v35.6c0,2,1.6,3.7,3.6,3.7s3.6-1.7,3.6-3.7V186H90v18.2c0,2,1.6,3.7,3.6,3.7
		s3.6-1.7,3.6-3.7v-35.6C97.1,166.6,95.5,164.9,93.5,164.9z M90,178.7H61.2v-6.4h28.7L90,178.7L90,178.7z"/>
</g>
</svg>
