<?xml version="1.0" encoding="utf-8"?>
<!-- Generator: Adobe Illustrator 21.0.0, SVG Export Plug-In . SVG Version: 6.00 Build 0)  -->
<svg version="1.1" id="Слой_1" xmlns="http://www.w3.org/2000/svg" xmlns:xlink="http://www.w3.org/1999/xlink" x="0px" y="0px"
	 viewBox="0 0 460 365" style="enable-background:new 0 0 460 365;" xml:space="preserve">
<style type="text/css">
	.st0{fill:#05655F;}
	.st1{fill:#05D1C4;}
	.st2{fill:#FFFFFF;}

	.stars {
		animation-name: zoomDots;
		animation-duration: 1s;
		animation-timing-function: cubic-bezier(0.49, 0.52, 0.25, 1.26);
		transform-origin: center;
		animation-delay: 0.75s;
		transform: scale(0);
		animation-fill-mode: both;
	}
	
	@keyframes zoomDots {
		0%, 50% {transform: scale(0)}
		100% {transform: scale(1)}
	}
</style>
<g id="Group-22" transform="translate(37 50)">
	<path id="Fill-7_1_" class="st0" d="M-6.7,195.6c0,7.1,5.8,12.8,12.8,12.8h34l4,13.5c0.5,1.5,1.6,2.7,3.2,3.3
		c0.5,0.2,1,0.3,1.6,0.3c1,0,2.1-0.4,2.9-0.9l22-16.1l13.9-0.1c2.7,0,5-2.3,4.9-5c0-2.7-2.3-4.9-5-4.9l-15.5,0.1
		c-1,0,30.5-50.9,30.5-50.9c0,1.6,50.3,50.9,48.7,50.9l-18.6-0.1c-2.7,0-5,2.2-5,4.9c0,2.7,2.2,5,4.9,5l18.6,0.1
		c7.1,0,12.8-5.8,12.8-12.8v-55.3h3.4l21.9,16.1c0.8,0.7,1.9,0.9,2.9,0.9c0.6,0,1-0.1,1.6-0.3c1.5-0.5,2.7-1.8,3.2-3.3l4-13.5h34
		c7.1,0,12.8-5.8,12.8-12.8v-115c0.4-7.1-5.4-12.8-12.6-12.8"/>
	<path id="Fill-1" class="st1" d="M77.5,66.9V7.6c0-4.3,3.5-7.8,7.9-7.8h145.2c4.3,0,7.9,3.5,7.9,7.8v114.9c0,4.3-3.5,7.8-7.9,7.8
		h-37.8l-5.1,17.2l-23.2-17.1h-9"/>
	<path id="Fill-3" class="st2" d="M83,198.6l-15.5,0.1l-23.2,17.1l-5.1-17.1H1.4c-4.3,0-7.9-3.5-7.9-7.8v-115c0-4.3,3.5-7.8,7.9-7.8
		h145.2c4.3,0,7.9,3.5,7.9,7.8v114.9c0,4.3-3.5,7.8-7.9,7.8l-18.6-0.1"/>
	<path id="Fill-5" d="M105.6,203.6c-2.1,0-4-1.3-4.7-3.3c-0.7-1.9-0.1-4.2,1.5-5.5c1.6-1.4,4.1-1.5,5.9-0.5c1.7,1,2.6,3.2,2.3,5.2
		C110,201.8,107.9,203.6,105.6,203.6"/>
	<path id="Fill-7" d="M233.5,122.6c0,1.6-1.3,2.9-2.9,2.9h-37.8c-2.2,0-4.2,1.4-4.8,3.6l-3,10.3l-17.6-12.9
		c-0.8-0.7-1.9-0.9-2.9-0.9h-5V94.2h50.1c2.7,0,5-2.3,5-5s-2.3-5-5-5h-50.1v-8.5c0-1-0.1-2-0.4-2.9h50.5c2.7,0,5-2.3,5-5s-2.3-5-5-5
		H82.5V7.6c0-1.6,1.3-2.9,2.9-2.9h145.2c1.6,0,2.9,1.3,2.9,2.9V122.6z M230.6-5.2H85.4c-7.1,0-12.8,5.8-12.8,12.8V63H1.4
		c-7.1,0.1-12.8,5.9-12.8,12.9v114.9c0,7.1,5.8,12.8,12.8,12.8h34l4,13.5c0.5,1.5,1.6,2.7,3.2,3.3c0.5,0.2,1,0.3,1.6,0.3
		c1,0,2.1-0.4,2.9-0.9l22-16.1l13.9-0.1c2.7,0,5-2.3,4.9-5c0-2.7-2.3-4.9-5-4.9l-15.5,0.1c-1,0-2.1,0.4-2.9,0.9l-17.6,12.9l-3-10.3
		c-0.7-2.1-2.5-3.6-4.8-3.6H1.3c-1.6,0-2.9-1.3-2.9-2.9V75.9c0-1.6,1.3-2.9,2.9-2.9h145.2c1.6,0,2.9,1.3,2.9,2.9v114.9
		c0,1.6-1.3,2.9-2.9,2.9l-18.6-0.1c-2.7,0-5,2.2-5,4.9s2.2,5,4.9,5l18.6,0.1c7.1,0,12.8-5.8,12.8-12.8v-55.3h3.4l21.9,16.1
		c0.8,0.7,1.9,0.9,2.9,0.9c0.6,0,1-0.1,1.6-0.3c1.5-0.5,2.7-1.8,3.2-3.3l4-13.5h34c7.1,0,12.8-5.8,12.8-12.8V7.6
		C243.5,0.6,237.8-5.2,230.6-5.2z"/>
	<path id="Fill-10" d="M209.7,22.5H106.4c-2.7,0-5,2.3-5,5s2.3,5,5,5h103.3c2.7,0,5-2.3,5-5S212.5,22.5,209.7,22.5"/>
	<path id="Fill-12" d="M209.7,42.8H106.4c-2.7,0-5,2.3-5,5s2.3,5,5,5h103.3c2.7,0,5-2.3,5-5C214.6,44.9,212.5,42.8,209.7,42.8"/>
	<path id="Fill-14" d="M125.7,99.3H22.4c-2.7,0-5,2.3-5,5s2.3,5,5,5h103.3c2.7,0,5-2.3,5-5C130.7,101.5,128.4,99.3,125.7,99.3"/>
	<path id="Fill-16" d="M125.7,119.6H22.4c-2.7,0-5,2.3-5,5s2.3,5,5,5h103.3c2.7,0,5-2.3,5-5C130.7,121.8,128.4,119.6,125.7,119.6"/>
	<path id="Fill-18" d="M125.7,139.2H22.4c-2.7,0-5,2.3-5,5s2.3,5,5,5h103.3c2.7,0,5-2.3,5-5S128.4,139.2,125.7,139.2"/>
	<path id="Fill-20" d="M125.7,159.5H22.4c-2.7,0-5,2.3-5,5s2.3,5,5,5h103.3c2.7,0,5-2.3,5-5S128.4,159.5,125.7,159.5"/>
</g>
<g class="stars">
	<path id="Fill-1_1_" class="st2" d="M33.2,33.8l3.1,3.9c0.8,1,2.4,0.7,2.8-0.6l1.3-4.8c0.1-0.5,0.5-0.9,1-1.1l4.7-1.6
		c1.2-0.4,1.4-2.1,0.3-2.8l-4.3-2.6c-0.4-0.3-0.7-0.8-0.7-1.3l-0.2-5c0-1.3-1.6-2-2.6-1.2l-3.9,3.2c-0.4,0.3-0.9,0.4-1.4,0.3
		l-4.9-1.4c-1.3-0.4-2.4,0.9-1.9,2.1l1.8,4.6c0.2,0.5,0.1,1-0.2,1.4L25.3,31c-0.7,1.1,0.1,2.5,1.4,2.4l5-0.3
		C32.3,33.2,32.8,33.4,33.2,33.8"/>
	<path id="Fill-1_2_" class="st2" d="M70.2,308.8l3.1,3.9c0.8,1,2.4,0.7,2.8-0.6l1.3-4.8c0.1-0.5,0.5-0.9,1-1.1l4.7-1.6
		c1.2-0.4,1.4-2.1,0.3-2.8l-4.3-2.7c-0.4-0.3-0.7-0.8-0.7-1.3l-0.2-5c0-1.3-1.6-2-2.6-1.2l-3.9,3.2c-0.4,0.3-0.9,0.4-1.4,0.3
		l-4.9-1.4c-1.3-0.4-2.4,0.9-1.9,2.1l1.8,4.6c0.2,0.5,0.1,1-0.2,1.4l-2.8,4.1c-0.7,1.1,0.1,2.5,1.4,2.4l5-0.3
		C69.3,308.2,69.8,308.4,70.2,308.8"/>
	<path id="Fill-1_3_" class="st2" d="M403.3,28v7.9c0,2,2.3,3.1,3.9,1.8l6.2-5c0.6-0.5,1.5-0.7,2.2-0.5l7.4,2.2
		c1.9,0.6,3.7-1.4,3.1-3.3l-2.6-7.3c-0.3-0.8-0.1-1.6,0.3-2.3l4.6-6.5c1.2-1.7,0-4-2-3.8l-7.8,0.4c-0.8,0-1.6-0.3-2-1l-4.6-6
		c-1.2-1.6-3.7-1.1-4.3,0.9l-2.2,7.6c-0.2,0.8-0.8,1.4-1.6,1.7l-7.4,2.7c-1.9,0.7-2.3,3.3-0.6,4.4l6.4,4.3
		C402.9,26.5,403.3,27.2,403.3,28"/>
</g>
</svg>
