<svg version="1.1" id="Слой_1" xmlns="http://www.w3.org/2000/svg" x="0" y="0" viewBox="0 0 269 312" xml:space="preserve"><style>.st2{fill:#fff}</style><g id="Group-10" transform="translate(17)"><path id="Fill-1" d="M218.4 199.7c-15.3 42.7-46.4 72.1-95.3 89.7-.2.1-.4.1-.6.2-.5.1-1 .1-1.5 0-.2 0-.4-.1-.5-.2-48.9-17.6-80.1-46.9-95.4-89.6-13.3-37.4-12.6-78.3-11.9-114.5v-.2c.1-3.1.2-6.4.3-9.9.1-7.5 5.9-13.7 13.2-14.1C46 60 63 56.1 78.5 49.3 94 42.5 107.8 32.9 120.7 20c.7-.6 1.5-.6 2.2 0 12.9 12.9 26.7 22.5 42.2 29.3 15.6 6.8 32.5 10.7 51.8 11.8 7.3.4 13.1 6.6 13.2 14.1.1 3.6.1 6.8.3 9.9.6 36.2 1.3 77.2-12 114.6" fill="#e94142" fill-opacity=".278"/><path id="Fill-4" d="M211.2 192.8c-14.7 42.7-44.6 72-91.5 89.7-.2.1-.3.1-.5.2-.5.1-1 .1-1.5 0-.2 0-.4-.1-.5-.2-46.9-17.6-76.9-46.9-91.5-89.6-12.8-37.4-12.1-78.3-11.4-114.5v-.2c.1-3.1.2-6.4.3-9.9.1-7.5 5.7-13.7 12.6-14.1 18.5-1.1 34.8-5 49.8-11.8 14.9-6.8 28.2-16.4 40.5-29.3.6-.6 1.4-.6 2.1 0 12.3 12.9 25.6 22.5 40.5 29.3 15 6.8 31.2 10.7 49.8 11.8 7 .4 12.5 6.6 12.6 14.1.1 3.6.1 6.8.3 9.9.6 36.2 1.3 77.2-11.6 114.6" fill="#05d1c4"/><path id="Fill-6" d="M117 286.2c.5.1 1 .2 1.5.2s1-.1 1.5-.2c.3-.1.7-.2 1-.3 48-18 78.6-48.1 93.6-91.9 13.1-38.1 12.3-79.4 11.7-115.9V78c-.1-3-.2-6.2-.3-9.8-.1-9.4-7.2-17.2-16.1-17.7-18.1-1.1-33.9-4.8-48.5-11.4-14.5-6.6-27.4-15.9-39.4-28.5l-.2-.2c-1-.9-2.2-1.4-3.5-1.4s-2.5.5-3.5 1.4l-.2.2c-12 12.6-24.9 21.9-39.4 28.5C60.9 45.7 45 49.4 27 50.5c-8.9.5-16 8.3-16.1 17.7 0 3.5-.1 6.8-.3 9.8v.3C10 114.8 9.2 156.1 22.2 194c15 43.8 45.7 73.9 93.7 91.9.4.1.7.2 1.1.3zM17.9 78.5v-.2c.1-3.1.2-6.4.3-10 .1-5.6 4.1-10.2 9.2-10.5 19-1.1 35.7-5.1 51-12.1 14.7-6.7 27.9-16 40.1-28.4 12.2 12.4 25.4 21.7 40.1 28.4 15.4 7 32.1 10.9 51 12.1 5.1.3 9.1 4.9 9.2 10.5.1 3.6.1 6.9.3 10 .6 35.9 1.3 76.5-11.3 113.4-14.3 41.6-43.5 70.2-89.3 87.4-45.9-17.2-75.1-45.8-89.4-87.4C16.5 155 17.3 114.3 17.9 78.5z"/></g><g id="Group-19" transform="translate(0 59)"><path id="Fill-8" class="st2" d="M208.7 88.3c0 40.6-33 73.5-73.6 73.5-40.7 0-73.6-32.9-73.6-73.5s33-73.5 73.6-73.5c40.6 0 73.6 32.9 73.6 73.5"/><path d="M191.9 32.3c-30.6-30.6-80.3-30.7-111-.2-29.6 29.5-30.9 77-2.8 107.9l-6 6c-4.8-4.8-12.7-4.8-17.5 0l-40.9 40.8c-4.8 4.8-4.8 12.7 0 17.5l5.8 5.8c4.8 4.8 12.7 4.8 17.5 0l40.9-40.8c4.8-4.8 4.8-12.7 0-17.5l6-6c32.2 29 81.8 26.5 110.8-5.6 28.1-30.9 26.9-78.4-2.8-107.9zm-5.8 105c-27.4 27.4-71.9 27.4-99.4 0s-27.4-71.8 0-99.2 71.9-27.4 99.4 0c27.4 27.4 27.4 71.8 0 99.2z"/><path id="Fill-15" d="M180.2 43.9l-5.8 5.8c20.9 21 20.9 54.9 0 75.8l5.8 5.8c24.2-24 24.2-63.2 0-87.4"/><path id="Fill-17" d="M155.8 61.4l-33 35.4-8.9-9.6c-3.3-3.5-8.6-3.5-11.8 0-3.3 3.5-3.3 9.2 0 12.7l14.9 16c1.6 1.8 3.8 2.6 5.9 2.6s4.3-.9 5.9-2.6l38.9-41.7c3.3-3.5 3.3-9.2 0-12.7-3.4-3.6-8.7-3.6-11.9-.1" fill="#e94142"/></g><path class="st2" d="M24.2 265l-5.9-5.9c-2.5-2.5-2.5-6.5 0-9l40-40.1c2.5-2.5 6.5-2.5 9 0l5.9 5.9c2.5 2.5 2.5 6.5 0 9l-40 40.1c-2.5 2.5-6.5 2.5-9 0z"/></svg>