<svg version="1.1" id="Слой_1" xmlns="http://www.w3.org/2000/svg" x="0" y="0" viewBox="0 0 257 252" xml:space="preserve"><style>.st1{fill:#e94142}.st3{fill:#fff}.st4{fill:#e86b7b}</style><g id="Group-82"><path id="Fill-1" d="M213.6 152.6l16.6 4c15.7 3.7 26.6 17.6 26.6 33.8v33.5c0 2.8-2.2 5-5 5h-39.9v15c0 2.8-2.2 5-5 5h-56.7c-2.7 0-5-2.2-5-5h-11.1c0 1.3-.5 2.6-1.5 3.5-.9.9-2.2 1.5-3.5 1.5-1.3 0-2.6-.5-3.5-1.5-.9-.9-1.5-2.2-1.5-3.5h-13c0 2.8-2.2 5-5 5H51.8c-2.7 0-5-2.2-5-5v-15H7c-2.7 0-5-2.2-5-5v-33.5c0-16.1 10.9-30 26.6-33.8l16.6-4V146c-9.2-5.8-15.4-16.1-15.4-27.8V99.6c0-18.1 14.7-32.9 32.8-32.9 9.8 0 18.6 4.3 24.7 11.2 5.2-18.3 22.1-31.8 42.1-31.8 19.9 0 36.8 13.4 42.1 31.7 6-6.8 14.8-11.1 24.6-11.1 18.1 0 32.8 14.8 32.8 32.9v18.6c0 11.7-6.1 22-15.4 27.8v6.6zM107 160.8v-7.3c-7-4.2-12.8-10.4-16.5-17.7-2.6 4.1-6.1 7.7-10.3 10.3v6.5l16.7 4c3.5.8 7 2.2 10.1 4.2zm71.7-14.8v6.5l-16.7 4c-3.6.9-7.1 2.3-10.2 4.3v-7.3c7.1-4.2 12.9-10.4 16.7-17.7 2.6 4.1 6 7.6 10.2 10.2z" fill="#e94142" fill-opacity=".34"/><path id="Fill-4" class="st1" d="M205.2 35h3.6c2.9 0 5.2-2.2 5.2-5s-2.3-5-5.2-5h-3.6c-2.9 0-5.2 2.2-5.2 5s2.3 5 5.2 5"/><path id="Fill-6" class="st1" d="M230.2 35h3.6c2.9 0 5.2-2.2 5.2-5s-2.3-5-5.2-5h-3.6c-2.9 0-5.2 2.2-5.2 5s2.3 5 5.2 5"/><path id="Fill-8" class="st1" d="M219 49c2.8 0 5-2.3 5-5.2v-3.6c0-2.9-2.2-5.2-5-5.2s-5 2.3-5 5.2v3.6c0 2.9 2.2 5.2 5 5.2"/><path id="Fill-10" class="st1" d="M219 25c2.8 0 5-2.3 5-5.2v-3.6c0-2.9-2.2-5.2-5-5.2s-5 2.3-5 5.2v3.6c0 2.9 2.2 5.2 5 5.2"/><path id="Fill-12" class="st1" d="M27.2 35h3.6c2.9 0 5.2-2.2 5.2-5s-2.3-5-5.2-5h-3.6c-2.9 0-5.2 2.2-5.2 5s2.3 5 5.2 5"/><path id="Fill-14" class="st1" d="M52.2 35h3.6c2.9 0 5.2-2.2 5.2-5s-2.3-5-5.2-5h-3.6c-2.9 0-5.2 2.2-5.2 5s2.3 5 5.2 5"/><path id="Fill-16" class="st1" d="M41 49c2.8 0 5-2.3 5-5.2v-3.6c0-2.9-2.2-5.2-5-5.2s-5 2.3-5 5.2v3.6c0 2.9 2.2 5.2 5 5.2"/><path id="Fill-18" class="st1" d="M41 25c2.8 0 5-2.3 5-5.2v-3.6c0-2.9-2.2-5.2-5-5.2s-5 2.3-5 5.2v3.6c0 2.9 2.2 5.2 5 5.2"/><path id="Fill-20" class="st1" d="M130 25c2.8 0 5-2.2 5-5V7c0-2.7-2.2-5-5-5s-5 2.2-5 5v13c0 2.8 2.2 5 5 5"/><path id="Fill-22" class="st1" d="M106.1 25.5c1 1 2.3 1.5 3.7 1.5 1.3 0 2.7-.5 3.7-1.5 2-2 2-5.3 0-7.3l-7.6-7.6c-2-2-5.3-2-7.4 0-2 2-2 5.3 0 7.4l7.6 7.5z"/><path d="M250 193.4c0-13.8-9.4-25.8-22.7-29l-20.4-4.9V147h-25v12.5l-20.5 4.9c-5.5 1.3-10.4 4.2-14.1 8l-1.8-.4-35-.1-2.7.6c-3.8-3.9-8.7-6.8-14.3-8.2L73 159.4V147H48v12.6l-20.4 4.9C14.4 167.7 5 179.7 5 193.4V227h45v20h156v-20h44v-33.6z" fill="#05d1c4"/><path id="Fill-24" class="st1" d="M151.1 27c1.3 0 2.6-.5 3.6-1.5l7.8-7.8c2-2 2-5.2 0-7.2s-5.2-2-7.2 0l-7.8 7.8c-2 2-2 5.2 0 7.2 1 1 2.3 1.5 3.6 1.5"/><path class="st3" d="M33 103v17.6c0 12 15 26.4 15 26.4v12.9L61 191l13-31.1V147s14-14.4 14-26.4V103H33z"/><path id="Fill-32" class="st1" d="M88 109v-6.8C88 86.6 75.7 74 60.5 74S33 86.6 33 102.2v6.8h19c11.9 0 23.5-3.3 33.7-9.6"/><path class="st3" d="M89 92v26.9c0 15.7 9.3 29.3 22.7 35.5l-.5 7.6c0 2.8-.8 5.5-2.1 7.8l18.5 42.1 18.5-42.1c-1.4-2.3-2.2-5-2.2-7.8v-7.4c13.6-6.1 23.1-19.8 23.1-35.7V92H89z"/><path id="Fill-44" class="st1" d="M128 53c-21.5 0-39 17.7-39 39.5v9.5h19.1c12.7 0 24.7-5.7 32.8-15.5L167 102v-9.5c0-21.8-17.5-39.5-39-39.5"/><path class="st3" d="M167 103v17.6c0 12 7.2 22.2 17.4 26.4H181v12.9l13 31.1 13-31.1V147h-2.4c10.2-4.2 17.4-14.4 17.4-26.4V103h-55z"/><path id="Fill-48" class="st1" d="M167 109v-6.8c0-15.6 12.3-28.2 27.5-28.2S222 86.6 222 102.2v6.8h-19c-11.9 0-23.5-3.3-33.7-9.6"/><path id="Fill-50" d="M128 241c-1.3 0-2.6.5-3.5 1.5-.9.9-1.5 2.2-1.5 3.5s.5 2.6 1.5 3.5c.9.9 2.2 1.5 3.5 1.5 1.3 0 2.6-.5 3.5-1.5.9-.9 1.5-2.2 1.5-3.5s-.5-2.6-1.5-3.5c-.9-1-2.2-1.5-3.5-1.5"/><path id="Fill-52" d="M202.2 32h3.6c2.9 0 5.2-2.2 5.2-5s-2.3-5-5.2-5h-3.6c-2.9 0-5.2 2.2-5.2 5s2.3 5 5.2 5"/><path id="Fill-54" d="M227.2 32h3.6c2.9 0 5.2-2.2 5.2-5s-2.3-5-5.2-5h-3.6c-2.9 0-5.2 2.2-5.2 5s2.3 5 5.2 5"/><path id="Fill-56" d="M216 47c2.8 0 5-2.3 5-5.2v-3.6c0-2.9-2.2-5.2-5-5.2s-5 2.3-5 5.2v3.6c0 2.9 2.2 5.2 5 5.2"/><path id="Fill-58" d="M216 23c2.8 0 5-2.3 5-5.2v-3.6c0-2.9-2.2-5.2-5-5.2s-5 2.3-5 5.2v3.6c0 2.9 2.2 5.2 5 5.2"/><path id="Fill-60" d="M24.2 32h3.6c2.9 0 5.2-2.2 5.2-5s-2.3-5-5.2-5h-3.6c-2.9 0-5.2 2.2-5.2 5s2.3 5 5.2 5"/><path id="Fill-62" d="M49.2 32h3.6c2.9 0 5.2-2.2 5.2-5s-2.3-5-5.2-5h-3.6c-2.9 0-5.2 2.2-5.2 5s2.3 5 5.2 5"/><path id="Fill-64" d="M38 47c2.8 0 5-2.3 5-5.2v-3.6c0-2.9-2.2-5.2-5-5.2s-5 2.3-5 5.2v3.6c0 2.9 2.2 5.2 5 5.2"/><path id="Fill-66" d="M38 23c2.8 0 5-2.3 5-5.2v-3.6c0-2.9-2.2-5.2-5-5.2s-5 2.3-5 5.2v3.6c0 2.9 2.2 5.2 5 5.2"/><path id="Fill-68" d="M128 23c2.8 0 5-2.2 5-5V5c0-2.7-2.2-5-5-5s-5 2.2-5 5v13c0 2.8 2.2 5 5 5"/><path id="Fill-70" d="M103.1 23.5c1 1 2.3 1.5 3.7 1.5 1.3 0 2.7-.5 3.7-1.5 2-2 2-5.3 0-7.4l-7.6-7.6c-2-2-5.3-2-7.4 0-2 2-2 5.3 0 7.4l7.6 7.6z"/><path id="Fill-72" d="M148.1 25c1.3 0 2.6-.5 3.6-1.5l7.8-7.8c2-2 2-5.2 0-7.2s-5.2-2-7.2 0l-7.8 7.8c-2 2-2 5.2 0 7.2 1 1 2.3 1.5 3.6 1.5"/><path id="Fill-74" class="st4" d="M210.4 108l10.6-.6s-9.9-41.5-22-32c-9.3 7.3 17.2 21.7 11.4 32.6"/><path id="Fill-76" class="st4" d="M76.5 102l11.5-.5S77.2 67.3 64.2 75.2c-10.1 6 18.6 17.9 12.3 26.8"/><path id="Fill-78" class="st4" d="M153.7 93.5l7.7 4.5s11-25.1-12.7-39l-16-4.5c-10.3-4.1 28.5 15.8 21 39"/><path d="M228.4 159.7l-16.6-4v-6.6c9.2-5.8 15.4-16.1 15.4-27.9v-18.6c0-18.2-14.7-33-32.9-33-9.8 0-18.6 4.3-24.6 11.1-5.3-18.3-22.2-31.7-42.1-31.7-20 0-36.9 13.5-42.1 31.9-6-6.9-14.9-11.2-24.7-11.2-18.1 0-32.9 14.8-32.9 33v18.6c0 11.7 6.1 22 15.4 27.9v6.6l-16.6 4C10.9 163.4 0 177.3 0 193.5V227c0 2.8 2.2 5 5 5h39.8v15c0 2.8 2.2 5 5 5h54.6c2.8 0 5-2.2 5-5s-2.2-5-5-5H82.2v-22c0-2.8-2.2-5-5-5s-5 2.2-5 5v22H54.8v-22.5c0-16.9 11.5-31.5 27.9-35.5l24.5-5.9L123 214c.8 1.8 2.6 3 4.6 3 2 0 3.8-1.2 4.6-3l15.7-35.9 24.4 5.8c16.4 3.9 27.9 18.5 27.9 35.5v5.6c-.3.6-.4 1.3-.4 2s.1 1.4.4 2v13h-17.4v-22c0-2.8-2.2-5-5-5s-5 2.2-5 5v22h-24.4c-2.8 0-5 2.2-5 5s2.2 5 5 5h56.7c2.8 0 5-2.2 5-5v-15H250c2.8 0 5-2.2 5-5v-33.6c0-16.1-10.9-30-26.6-33.7zm-34.1-80.1c12.6 0 22.9 10.3 22.9 23v1.7H203c-10.8 0-21.3-2.8-30.7-8.2 2.8-9.5 11.6-16.5 22-16.5zm-22.9 40.8V107c9.8 4.8 20.6 7.4 31.5 7.4h14.2v6.9c0 12.7-10.3 23-22.9 23s-22.9-10.3-22.9-23v-.9zM93.7 92.9c0-18.7 15.2-34 33.9-34s33.9 15.2 33.9 34v.7L143 82.7c-2.1-1.2-4.8-.8-6.3 1.1-7.2 8.6-17.7 13.5-28.9 13.5h-14v-4.4zm-55.9 9.7c0-12.7 10.3-23 22.9-23 10.4 0 19.2 7 22 16.5-9.3 5.4-19.9 8.2-30.7 8.2H37.8v-1.7zm0 18.6v-6.9H52c11 0 21.8-2.5 31.6-7.4v14.3c0 12.7-10.3 23-22.9 23s-22.9-10.3-22.9-23zm7 98.3v2.6H29.9v-22.2c0-2.8-2.2-5-5-5s-5 2.2-5 5V222H10v-28.6c0-11.5 7.8-21.4 19-24.1l15.8-3.8L55 190.3c-6.4 8.1-10.2 18.2-10.2 29.2zm15.9-41.4L53.2 160V153.2c2.4.6 5 .9 7.5.9 2.6 0 5.1-.3 7.5-.9v6.8l-7.5 18.1zm19.6-3.8c-2.9.7-5.8 1.7-8.4 2.9l4.9-11.6 15.8 3.8c1.2.3 2.4.7 3.6 1.2l-15.9 3.7zm24.8-10.4c-3.1-1.9-6.6-3.4-10.2-4.3l-16.7-4v-6.5c4.1-2.6 7.7-6.1 10.3-10.3 3.8 7.4 9.5 13.5 16.6 17.7v7.4zm34.8 7.4l-12.4 28.4-12.5-28.4V161c4 1.2 8.2 1.8 12.5 1.8 4.3 0 8.4-.6 12.4-1.8v10.3zm-12.3-18.5c-18.7 0-33.9-15.2-33.9-34v-11.5h14c12.7 0 24.8-5 33.7-14l20 11.8V120c-.6 18.2-15.6 32.8-33.8 32.8zm22.3 3.9c7.1-4.2 12.9-10.4 16.7-17.8 2.6 4.1 6.1 7.6 10.2 10.2v6.5l-16.7 4c-3.6.9-7.1 2.3-10.2 4.3v-7.2zm24.6 17.6l-15.8-3.8c1.2-.5 2.4-.9 3.7-1.2l15.8-3.8 4.9 11.7c-2.7-1.2-5.6-2.2-8.6-2.9zm12.2-14.2v-.5-6.3c2.4.6 4.9.9 7.5.9 2.6 0 5.1-.3 7.5-.9v6.6l-7.6 18.3-7.4-18.1zM245 222h-10v-22.2c0-2.8-2.2-5-5-5s-5 2.2-5 5V222h-15v-2.5c0-10.9-3.8-21.1-10.2-29.1l10.3-24.8 15.8 3.8c11.2 2.7 19 12.6 19 24.1V222z"/></g></svg>