<?xml version="1.0" encoding="utf-8"?>
<!-- Generator: Adobe Illustrator 21.0.0, SVG Export Plug-In . SVG Version: 6.00 Build 0)  -->
<svg version="1.1" id="Слой_1" xmlns="http://www.w3.org/2000/svg" xmlns:xlink="http://www.w3.org/1999/xlink" x="0px" y="0px"
	 viewBox="0 0 400 400" style="enable-background:new 0 0 400 400;" xml:space="preserve">
<style type="text/css">
	.st0{fill:#E94142;fill-opacity:0.3395;}
	.st1{fill:#E94142;}
	.st2{fill:#05D1C4;}
	.st3{fill:#FFFFFF;}
	.st4{fill:#E86B7B;}
</style>
<g id="Group-82">
	<path id="Fill-1" class="st0" d="M296.1,201l18.7,4.5c17.7,4.2,30,19.9,30,38.2v37.8c0,3.2-2.5,5.6-5.6,5.6h-45.1v16.9
		c0,3.2-2.5,5.6-5.6,5.6h-64c-3,0-5.6-2.5-5.6-5.6h-12.5c0,1.5-0.6,2.9-1.7,4c-1,1-2.5,1.7-4,1.7s-2.9-0.6-4-1.7c-1-1-1.7-2.5-1.7-4
		h-14.7c0,3.2-2.5,5.6-5.6,5.6h-61.3c-3,0-5.6-2.5-5.6-5.6v-16.9H62.8c-3,0-5.6-2.5-5.6-5.6v-37.8c0-18.2,12.3-33.9,30-38.2
		l18.7-4.5v-7.5c-10.4-6.5-17.4-18.2-17.4-31.4v-21c0-20.4,16.6-37.2,37-37.2c11.1,0,21,4.9,27.9,12.6c5.9-20.7,25-35.9,47.5-35.9
		c22.5,0,41.6,15.1,47.5,35.8c6.8-7.7,16.7-12.5,27.8-12.5c20.4,0,37,16.7,37,37.2v21c0,13.2-6.9,24.8-17.4,31.4v7.5H296.1z
		 M175.7,210.3v-8.2c-7.9-4.7-14.5-11.7-18.6-20c-2.9,4.6-6.9,8.7-11.6,11.6v7.3l18.9,4.5C168.3,206.5,172.2,208,175.7,210.3z
		 M256.7,193.6v7.3l-18.9,4.5c-4.1,1-8,2.6-11.5,4.9v-8.2l0,0c8-4.7,14.6-11.7,18.9-20C248.1,186.7,252,190.6,256.7,193.6z"/>
	<path id="Fill-4" class="st1" d="M286.6,68.2h4.1c3.3,0,5.9-2.5,5.9-5.6c0-3.2-2.6-5.6-5.9-5.6h-4.1c-3.3,0-5.9,2.5-5.9,5.6
		C280.8,65.8,283.4,68.2,286.6,68.2"/>
	<path id="Fill-6" class="st1" d="M314.9,68.2h4.1c3.3,0,5.9-2.5,5.9-5.6c0-3.2-2.6-5.6-5.9-5.6h-4.1c-3.3,0-5.9,2.5-5.9,5.6
		C309,65.8,311.6,68.2,314.9,68.2"/>
	<path id="Fill-8" class="st1" d="M302.2,84c3.2,0,5.6-2.6,5.6-5.9v-4.1c0-3.3-2.5-5.9-5.6-5.9s-5.6,2.6-5.6,5.9v4.1
		C296.6,81.4,299.1,84,302.2,84"/>
	<path id="Fill-10" class="st1" d="M302.2,56.9c3.2,0,5.6-2.6,5.6-5.9V47c0-3.3-2.5-5.9-5.6-5.9s-5.6,2.6-5.6,5.9v4.1
		C296.6,54.3,299.1,56.9,302.2,56.9"/>
	<path id="Fill-12" class="st1" d="M85.6,68.2h4.1c3.3,0,5.9-2.5,5.9-5.6c0-3.2-2.6-5.6-5.9-5.6h-4.1c-3.3,0-5.9,2.5-5.9,5.6
		C79.7,65.8,82.3,68.2,85.6,68.2"/>
	<path id="Fill-14" class="st1" d="M113.8,68.2h4.1c3.3,0,5.9-2.5,5.9-5.6c0-3.2-2.6-5.6-5.9-5.6h-4.1c-3.3,0-5.9,2.5-5.9,5.6
		C108,65.8,110.6,68.2,113.8,68.2"/>
	<path id="Fill-16" class="st1" d="M101.2,84c3.2,0,5.6-2.6,5.6-5.9v-4.1c0-3.3-2.5-5.9-5.6-5.9s-5.6,2.6-5.6,5.9v4.1
		C95.6,81.4,98,84,101.2,84"/>
	<path id="Fill-18" class="st1" d="M101.2,56.9c3.2,0,5.6-2.6,5.6-5.9V47c0-3.3-2.5-5.9-5.6-5.9s-5.6,2.6-5.6,5.9v4.1
		C95.6,54.3,98,56.9,101.2,56.9"/>
	<path id="Fill-20" class="st1" d="M201.7,56.9c3.2,0,5.6-2.5,5.6-5.6V36.6c0-3-2.5-5.6-5.6-5.6c-3.2,0-5.6,2.5-5.6,5.6v14.7
		C196.1,54.5,198.5,56.9,201.7,56.9"/>
	<path id="Fill-22" class="st1" d="M174.7,57.5c1.1,1.1,2.6,1.7,4.2,1.7c1.5,0,3-0.6,4.2-1.7c2.3-2.3,2.3-6,0-8.2l-8.6-8.6
		c-2.3-2.3-6-2.3-8.4,0c-2.3,2.3-2.3,6,0,8.4L174.7,57.5z"/>
	<path class="st2" d="M337.2,247.1c0-15.6-10.6-29.1-25.6-32.7l-23-5.5v-14.1h-28.2v14.1l-23.2,5.5c-6.2,1.5-11.7,4.7-15.9,9l-2-0.5
		l-39.5-0.1l-3,0.7c-4.3-4.4-9.8-7.7-16.1-9.3l-23.2-5.5v-14h-28.2v14.2l-23,5.5c-14.9,3.6-25.5,17.2-25.5,32.6v37.9h50.8v22.6
		h176.2v-22.6h49.7V247.1z"/>
	<path id="Fill-24" class="st1" d="M225.5,59.2c1.5,0,2.9-0.6,4.1-1.7l8.8-8.8c2.3-2.3,2.3-5.9,0-8.1c-2.3-2.3-5.9-2.3-8.1,0
		l-8.8,8.8c-2.3,2.3-2.3,5.9,0,8.1C222.6,58.6,224.1,59.2,225.5,59.2"/>
	<path class="st3" d="M92.2,145v19.9c0,13.6,16.9,29.8,16.9,29.8v14.6l14.7,35.1l14.7-35.1v-14.6c0,0,15.8-16.3,15.8-29.8V145H92.2z
		"/>
	<path id="Fill-32" class="st1" d="M154.3,151.8v-7.7c0-17.6-13.9-31.8-31.1-31.8s-31.1,14.2-31.1,31.8v7.7h21.5
		c13.4,0,26.5-3.7,38.1-10.8"/>
	<path class="st3" d="M155.4,132.6V163c0,17.7,10.5,33.1,25.6,40.1l-0.6,8.6c0,3.2-0.9,6.2-2.4,8.8L199,268l20.9-47.5
		c-1.6-2.6-2.5-5.6-2.5-8.8v-8.4c15.4-6.9,26.1-22.4,26.1-40.3v-30.4H155.4z"/>
	<path id="Fill-44" class="st1" d="M199.4,88.6L199.4,88.6c-24.3,0-44,20-44,44.6v10.7H177c14.3,0,27.9-6.4,37-17.5l29.5,17.5v-10.7
		C243.5,108.6,223.7,88.6,199.4,88.6"/>
	<path class="st3" d="M243.5,145v19.9c0,13.6,8.1,25.1,19.6,29.8h-3.8v14.6l14.7,35.1l14.7-35.1v-14.6H286
		c11.5-4.7,19.6-16.3,19.6-29.8V145H243.5z"/>
	<path id="Fill-48" class="st1" d="M243.5,151.8v-7.7c0-17.6,13.9-31.8,31.1-31.8s31.1,14.2,31.1,31.8v7.7h-21.5
		c-13.4,0-26.5-3.7-38.1-10.8"/>
	<path id="Fill-50" d="M199.4,300.9c-1.5,0-2.9,0.6-4,1.7c-1,1-1.7,2.5-1.7,4s0.6,2.9,1.7,4c1,1,2.5,1.7,4,1.7c1.5,0,2.9-0.6,4-1.7
		c1-1,1.7-2.5,1.7-4s-0.6-2.9-1.7-4C202.4,301.4,200.9,300.9,199.4,300.9"/>
	<path id="Fill-52" d="M283.2,64.8h4.1c3.3,0,5.9-2.5,5.9-5.6c0-3.2-2.6-5.6-5.9-5.6h-4.1c-3.3,0-5.9,2.5-5.9,5.6
		C277.4,62.4,280,64.8,283.2,64.8"/>
	<path id="Fill-54" d="M311.5,64.8h4.1c3.3,0,5.9-2.5,5.9-5.6c0-3.2-2.6-5.6-5.9-5.6h-4.1c-3.3,0-5.9,2.5-5.9,5.6
		C305.6,62.4,308.2,64.8,311.5,64.8"/>
	<path id="Fill-56" d="M298.8,81.8c3.2,0,5.6-2.6,5.6-5.9v-4.1c0-3.3-2.5-5.9-5.6-5.9s-5.6,2.6-5.6,5.9v4.1
		C293.2,79.2,295.7,81.8,298.8,81.8"/>
	<path id="Fill-58" d="M298.8,54.7c3.2,0,5.6-2.6,5.6-5.9v-4.1c0-3.3-2.5-5.9-5.6-5.9s-5.6,2.6-5.6,5.9v4.1
		C293.2,52.1,295.7,54.7,298.8,54.7"/>
	<path id="Fill-60" d="M82.2,64.8h4.1c3.3,0,5.9-2.5,5.9-5.6c0-3.2-2.6-5.6-5.9-5.6h-4.1c-3.3,0-5.9,2.5-5.9,5.6
		C76.4,62.4,79,64.8,82.2,64.8"/>
	<path id="Fill-62" d="M110.5,64.8h4.1c3.3,0,5.9-2.5,5.9-5.6c0-3.2-2.6-5.6-5.9-5.6h-4.1c-3.3,0-5.9,2.5-5.9,5.6
		C104.6,62.4,107.2,64.8,110.5,64.8"/>
	<path id="Fill-64" d="M97.8,81.8c3.2,0,5.6-2.6,5.6-5.9v-4.1c0-3.3-2.5-5.9-5.6-5.9c-3.2,0-5.6,2.6-5.6,5.9v4.1
		C92.2,79.2,94.7,81.8,97.8,81.8"/>
	<path id="Fill-66" d="M97.8,54.7c3.2,0,5.6-2.6,5.6-5.9v-4.1c0-3.3-2.5-5.9-5.6-5.9c-3.2,0-5.6,2.6-5.6,5.9v4.1
		C92.2,52.1,94.7,54.7,97.8,54.7"/>
	<path id="Fill-68" d="M199.4,54.7c3.2,0,5.6-2.5,5.6-5.6V34.4c0-3-2.5-5.6-5.6-5.6c-3.2,0-5.6,2.5-5.6,5.6V49
		C193.8,52.2,196.3,54.7,199.4,54.7"/>
	<path id="Fill-70" d="M171.3,55.2c1.1,1.1,2.6,1.7,4.2,1.7c1.5,0,3-0.6,4.2-1.7c2.3-2.3,2.3-6,0-8.4l-8.6-8.6c-2.3-2.3-6-2.3-8.4,0
		c-2.3,2.3-2.3,6,0,8.4L171.3,55.2z"/>
	<path id="Fill-72" d="M222.1,56.9c1.5,0,2.9-0.6,4.1-1.7l8.8-8.8c2.3-2.3,2.3-5.9,0-8.1c-2.3-2.3-5.9-2.3-8.1,0l-8.8,8.8
		c-2.3,2.3-2.3,5.9,0,8.1C219.2,56.4,220.7,56.9,222.1,56.9"/>
	<path id="Fill-74" class="st4" d="M292.5,150.7l12-0.7c0,0-11.2-46.9-24.8-36.1C269.1,122.1,299.1,138.4,292.5,150.7"/>
	<path id="Fill-76" class="st4" d="M141.3,143.9l13-0.6c0,0-12.2-38.6-26.9-29.7C116,120.4,148.4,133.8,141.3,143.9"/>
	<path id="Fill-78" class="st4" d="M228.5,134.3l8.7,5.1c0,0,12.4-28.3-14.3-44l-18.1-5.1C193.1,85.6,236.9,108.1,228.5,134.3"/>
	<path d="M312.8,209.1l-18.7-4.5v-7.5c10.4-6.5,17.4-18.2,17.4-31.5v-21c0-20.6-16.6-37.3-37.2-37.3c-11.1,0-21,4.9-27.8,12.5
		C240.6,99.2,221.5,84,199,84c-22.6,0-41.7,15.2-47.5,36c-6.8-7.8-16.8-12.6-27.9-12.6c-20.4,0-37.2,16.7-37.2,37.3v21
		c0,13.2,6.9,24.8,17.4,31.5v7.5l-18.7,4.5c-17.8,4.1-30.2,19.8-30.2,38.1v37.8c0,3.2,2.5,5.6,5.6,5.6h44.9v16.9
		c0,3.2,2.5,5.6,5.6,5.6h61.7c3.2,0,5.6-2.5,5.6-5.6s-2.5-5.6-5.6-5.6h-25.1v-24.8c0-3.2-2.5-5.6-5.6-5.6c-3.2,0-5.6,2.5-5.6,5.6
		V302h-19.6v-25.4c0-19.1,13-35.6,31.5-40.1l27.7-6.7l17.8,40.5c0.9,2,2.9,3.4,5.2,3.4c2.3,0,4.3-1.4,5.2-3.4l17.7-40.5l27.6,6.5
		c18.5,4.4,31.5,20.9,31.5,40.1v6.3c-0.3,0.7-0.5,1.5-0.5,2.3c0,0.8,0.1,1.6,0.5,2.3V302h-19.6v-24.8c0-3.2-2.5-5.6-5.6-5.6
		c-3.2,0-5.6,2.5-5.6,5.6V302h-27.6c-3.2,0-5.6,2.5-5.6,5.6c0,3.2,2.5,5.6,5.6,5.6h64c3.2,0,5.6-2.5,5.6-5.6v-16.9h45.1
		c3.2,0,5.6-2.5,5.6-5.6v-37.9C342.9,228.9,330.6,213.2,312.8,209.1z M274.3,118.6c14.2,0,25.9,11.6,25.9,26v1.9h-16
		c-12.2,0-24.1-3.2-34.7-9.3C252.6,126.5,262.6,118.6,274.3,118.6z M248.5,164.7c0-0.6,0-15.1,0-15.1c11.1,5.4,23.3,8.4,35.6,8.4h16
		v7.8c0,14.3-11.6,26-25.9,26c-14.2,0-25.9-11.6-25.9-26v-1H248.5z M160.7,133.6c0-21.1,17.2-38.4,38.3-38.4s38.3,17.2,38.3,38.4
		v0.8l-20.9-12.3c-2.4-1.4-5.4-0.9-7.1,1.2c-8.1,9.7-20,15.2-32.6,15.2h-15.8v-5H160.7z M97.6,144.6c0-14.3,11.6-26,25.9-26
		c11.7,0,21.7,7.9,24.8,18.6c-10.5,6.1-22.5,9.3-34.7,9.3h-16V144.6z M97.6,165.6v-7.8h16c12.4,0,24.6-2.8,35.7-8.4v16.1
		c0,14.3-11.6,26-25.9,26S97.6,179.9,97.6,165.6z M105.5,276.6v2.9H88.7v-25.1c0-3.2-2.5-5.6-5.6-5.6s-5.6,2.5-5.6,5.6v25H66.2
		v-32.3c0-13,8.8-24.2,21.5-27.2l17.8-4.3l11.5,28C109.8,252.8,105.5,264.2,105.5,276.6z M123.4,229.8l-8.5-20.4c0-0.1,0-0.2,0-0.5
		v-7.2c2.7,0.7,5.6,1,8.5,1c2.9,0,5.8-0.3,8.5-1v6.8c0,0.1,0,0.2,0,0.3c0,0.2,0,0.3,0,0.6L123.4,229.8z M145.6,225.5
		c-3.3,0.8-6.5,1.9-9.5,3.3l5.5-13.1l17.8,4.3c1.4,0.3,2.7,0.8,4.1,1.4L145.6,225.5z M173.6,213.8c-3.5-2.1-7.5-3.8-11.5-4.9
		l-18.9-4.5v-7.3c4.6-2.9,8.7-6.9,11.6-11.6c4.3,8.4,10.7,15.2,18.7,20V213.8z M212.9,222.2l-14,32.1l-14.1-32.1v-11.6
		c4.5,1.4,9.3,2,14.1,2c4.9,0,9.5-0.7,14-2V222.2z M199,201.3c-21.1,0-38.3-17.2-38.3-38.4v-13h15.8c14.3,0,28-5.6,38.1-15.8
		l22.6,13.3v16.8C236.5,184.8,219.5,201.3,199,201.3z M224.2,205.7L224.2,205.7c8-4.7,14.6-11.7,18.9-20.1
		c2.9,4.6,6.9,8.6,11.5,11.5v7.3l-18.9,4.5c-4.1,1-8,2.6-11.5,4.9V205.7z M252,225.5l-17.8-4.3c1.4-0.6,2.7-1,4.2-1.4l17.8-4.3
		l5.5,13.2C258.6,227.5,255.3,226.3,252,225.5z M265.7,209.5c0-0.2,0-0.5,0-0.6v-0.1v-7c2.7,0.7,5.5,1,8.5,1c2.9,0,5.8-0.3,8.5-1
		v7.1c0,0.1,0,0.2,0,0.3l-8.6,20.7L265.7,209.5z M331.6,279.4h-11.3v-25.1c0-3.2-2.5-5.6-5.6-5.6s-5.6,2.5-5.6,5.6v25.1H292v-2.8
		c0-12.3-4.3-23.8-11.5-32.9l11.6-28L310,220c12.6,3,21.5,14.2,21.5,27.2v32.2H331.6z"/>
</g>
</svg>
