<?xml version="1.0" encoding="utf-8"?>
<!-- Generator: Adobe Illustrator 21.0.0, SVG Export Plug-In . SVG Version: 6.00 Build 0)  -->
<svg version="1.1" id="Слой_1" xmlns="http://www.w3.org/2000/svg" xmlns:xlink="http://www.w3.org/1999/xlink" x="0px" y="0px"
	 viewBox="0 0 490 335" style="enable-background:new 0 0 490 335;" xml:space="preserve">
<style type="text/css">
	.st0{fill:#05655F;}
	.st1{fill:#FFFFFF;}
	.st2{fill:#FF7480;}

    .stars {
		animation-name: zoomDots;
		animation-duration: 1s;
		animation-timing-function: cubic-bezier(0.49, 0.52, 0.25, 1.26);
		transform-origin: center;
		animation-delay: 0.75s;
		transform: scale(0);
		animation-fill-mode: both;
	}
	
	@keyframes zoomDots {
		0%, 50% {transform: scale(0)}
		100% {transform: scale(1)}
	}
</style>

<g id="Group-24" transform="translate(32 38)">
	<path id="Fill-5_1_" class="st0" d="M208,49.2h7c2.4,0,4.4-2,4.4-4.4s-2-4.4-4.4-4.4h-16.8c-2.4,0-4.4,2-4.4,4.4v16.8
		c0,2.4,2,4.4,4.4,4.4s4.4-2,4.4-4.4v-4.9c13.4,17.9,20.7,39.7,20.7,62.3c0,57.4-46.7,104.2-104.2,104.2
		c-57.4,0-104.2-46.8-104.2-104.2S61.7,14.8,119.1,14.8c4.2,0,8.5,0.3,12.7,0.8c2.4,0.3,4.6-1.4,4.9-3.8c0.3-2.4-1.4-4.6-3.8-4.9
		c-4.6-0.6-9.2-0.9-13.8-0.9C88.9,6,60.5,17.8,39.2,39.1S6.1,88.8,6.1,119s11.8,58.6,33.1,79.9S88.9,232,119.1,232
		s58.6-11.8,79.9-33.1s33.1-49.7,33.1-79.9C232.1,93.5,223.6,69.1,208,49.2"/>
	<path id="Fill-8_1_" class="st0" d="M53.9,72.6c-2.1-1.3-4.8-0.7-6.1,1.4c-10.1,15.9-14.5,35-12.6,53.9c2,19.1,10.6,37.1,24.2,50.7
		c16.4,16.4,38,24.6,59.6,24.6s43.2-8.2,59.6-24.6c32.8-32.8,32.8-86.3,0-119.2c-13.5-13.6-31.5-22.2-50.6-24.2
		c-18.8-2-37.9,2.4-53.8,12.5c-2.1,1.3-2.7,4-1.4,6.1c1.3,2.1,4,2.7,6.1,1.4c30-18.9,68.4-14.6,93.5,10.5
		c29.4,29.4,29.4,77.3,0,106.7s-77.3,29.4-106.7,0C41,147.7,36.6,108.3,55.3,78.8C56.6,76.6,56,73.9,53.9,72.6"/>
	<path id="Fill-1" class="st1" d="M193.9,114c0,44.1-35.7,79.8-79.8,79.8S34.3,158.1,34.3,114S70,34.2,114.1,34.2
		S193.9,69.9,193.9,114z"/>
	<path id="Fill-5" d="M203,44.2h7c2.4,0,4.4-2,4.4-4.4s-2-4.4-4.4-4.4h-16.8c-2.4,0-4.4,2-4.4,4.4v16.8c0,2.4,2,4.4,4.4,4.4
		s4.4-2,4.4-4.4v-4.9c13.4,17.9,20.7,39.7,20.7,62.3c0,57.4-46.7,104.2-104.2,104.2C56.7,218.2,9.9,171.4,9.9,114
		S56.7,9.8,114.1,9.8c4.2,0,8.5,0.3,12.7,0.8c2.4,0.3,4.6-1.4,4.9-3.8s-1.4-4.6-3.8-4.9c-4.6-0.6-9.2-0.9-13.8-0.9
		C83.9,1,55.5,12.8,34.2,34.1S1.1,83.8,1.1,114s11.8,58.6,33.1,79.9S83.9,227,114.1,227s58.6-11.8,79.9-33.1s33.1-49.7,33.1-79.9
		C227.1,88.5,218.6,64.1,203,44.2"/>
	<path id="Fill-8" d="M48.9,67.6c-2.1-1.3-4.8-0.7-6.1,1.4c-10.1,15.9-14.5,35-12.6,53.9c2,19.1,10.6,37.1,24.2,50.7
		c16.4,16.4,38,24.6,59.6,24.6s43.2-8.2,59.6-24.6c32.8-32.8,32.8-86.3,0-119.2c-13.5-13.6-31.5-22.2-50.6-24.2
		c-18.8-2-37.9,2.4-53.8,12.5c-2.1,1.3-2.7,4-1.4,6.1c1.3,2.1,4,2.7,6.1,1.4c30-18.9,68.4-14.6,93.5,10.5
		c29.4,29.4,29.4,77.3,0,106.7s-77.3,29.4-106.7,0C36,142.7,31.6,103.3,50.3,73.8C51.6,71.6,51,68.9,48.9,67.6"/>
	<path id="Fill-10" d="M171.4,118.5h5.4c2.4,0,4.4-2,4.4-4.4s-2-4.4-4.4-4.4h-5.4c-2.4,0-4.4,2-4.4,4.4S169,118.5,171.4,118.5"/>
	<path id="Fill-12" d="M46.9,113.9c0,2.4,2,4.4,4.4,4.4h5.4c2.4,0,4.4-2,4.4-4.4s-2-4.4-4.4-4.4h-5.4
		C48.9,109.5,46.9,111.5,46.9,113.9"/>
	<path id="Fill-14" d="M118.6,56.7v-5.4c0-2.4-2-4.4-4.4-4.4s-4.4,2-4.4,4.4v5.4c0,2.4,2,4.4,4.4,4.4S118.6,59.1,118.6,56.7"/>
	<path id="Fill-16" d="M109.6,171.3v5.4c0,2.4,2,4.4,4.4,4.4s4.4-2,4.4-4.4v-5.4c0-2.4-2-4.4-4.4-4.4S109.6,168.9,109.6,171.3"/>
	<path id="Fill-18" d="M92,85.7c-1.7-1.7-4.5-1.7-6.2,0s-1.7,4.5,0,6.2l14.9,14.9c-1.1,2.1-1.8,4.6-1.8,7.2
		c0,8.4,6.8,15.2,15.2,15.2s15.2-6.8,15.2-15.2c0-2.6-0.7-5-1.8-7.2l30.2-30.2c1.7-1.7,1.7-4.5,0-6.2s-4.5-1.7-6.2,0l-30.2,30.2
		c-2.1-1.1-4.6-1.8-7.2-1.8s-5,0.7-7.2,1.8L92,85.7z"/>
	<circle class="st2" cx="114.1" cy="114" r="6.4"/>
	<path id="Fill-20" d="M60.8,60.7c0.8-0.8,1.3-2,1.3-3.1c0-1.2-0.5-2.3-1.3-3.1s-2-1.3-3.1-1.3c-1.2,0-2.3,0.5-3.1,1.3
		s-1.3,2-1.3,3.1c0,1.2,0.5,2.3,1.3,3.1s2,1.3,3.1,1.3S59.9,61.5,60.8,60.7"/>
	<path id="Fill-22" d="M144.7,14.2c1.2,0,2.3-0.5,3.1-1.3s1.3-2,1.3-3.1c0-1.2-0.5-2.3-1.3-3.1s-2-1.3-3.1-1.3
		c-1.2,0-2.3,0.5-3.1,1.3s-1.3,2-1.3,3.1c0,1.2,0.5,2.3,1.3,3.1S143.5,14.2,144.7,14.2"/>
</g>
<g class="stars">
	<path id="Fill-1_1_" class="st1" d="M12.1,311.6l4.2,5.6c1.1,1.4,3.3,1,3.8-0.8l1.7-6.8c0.2-0.7,0.7-1.3,1.4-1.5l6.5-2.4
		c1.7-0.6,1.9-2.9,0.4-3.9l-5.8-3.8c-0.6-0.4-1-1.1-1-1.8l-0.2-7c-0.1-1.8-2.1-2.8-3.5-1.6l-5.3,4.5c-0.5,0.5-1.3,0.6-2,0.4l-6.6-2
		c-1.7-0.5-3.3,1.2-2.6,2.9l2.5,6.6c0.3,0.7,0.2,1.4-0.2,2l-3.9,5.8c-1,1.5,0.1,3.5,1.9,3.4l6.9-0.4C11,310.7,11.7,311,12.1,311.6"
		/>
	<path id="Fill-1_2_" class="st1" d="M306.2,17.5l3.1,3.9c0.8,1,2.4,0.7,2.8-0.6l1.3-4.8c0.1-0.5,0.5-0.9,1-1.1l4.8-1.7
		c1.2-0.4,1.4-2.1,0.3-2.8l-4.4-2.6c-0.4-0.3-0.7-0.8-0.7-1.3l-0.2-5c0-1.3-1.6-2-2.6-1.2l-3.9,3.2c-0.4,0.3-0.9,0.4-1.4,0.3
		l-4.9-1.4c-1.3-0.4-2.4,0.9-1.9,2.1l1.8,4.6c0.2,0.5,0.1,1-0.2,1.4l-2.8,4.1c-0.7,1.1,0.1,2.5,1.4,2.4l5-0.3
		C305.3,16.8,305.8,17,306.2,17.5"/>
	<path id="Fill-1_3_" class="st1" d="M447.3,303.4v7.9c0,2,2.3,3.1,3.9,1.8l6.2-5c0.6-0.5,1.5-0.7,2.2-0.5l7.4,2.2
		c1.9,0.6,3.7-1.4,3.1-3.3l-2.6-7.3c-0.3-0.8-0.1-1.6,0.3-2.3l4.6-6.5c1.2-1.7,0-4-2-3.8l-7.8,0.4c-0.8,0-1.6-0.3-2-1l-4.6-6.2
		c-1.2-1.6-3.7-1.1-4.3,0.9l-2.2,7.6c-0.2,0.8-0.8,1.4-1.6,1.7l-7.4,2.7c-1.9,0.7-2.3,3.3-0.6,4.4l6.4,4.3
		C446.9,301.9,447.3,302.6,447.3,303.4"/>
</g>
</svg>
