<?xml version="1.0" encoding="utf-8"?>
<!-- Generator: Adobe Illustrator 21.0.0, SVG Export Plug-In . SVG Version: 6.00 Build 0)  -->
<svg version="1.1" id="Слой_1" xmlns="http://www.w3.org/2000/svg" xmlns:xlink="http://www.w3.org/1999/xlink" x="0px" y="0px"
	 viewBox="0 0 50 50" style="enable-background:new 0 0 50 50;" xml:space="preserve">
<circle style="fill:#D3A2F9;" cx="25" cy="25" r="25"/>
<path style="fill:#D9DBDB;" d="M21.3,35.2l0.1,1.4c1.2,0.6,5.9,0.4,6.7-0.2v-1C27.1,35.7,21.3,35.2,21.3,35.2z"/>
<path style="fill:#FFFFFF;" d="M31.5,20.6c-3,0-5.4-1.9-6.5-4.4V9.5c-6,0.1-10.9,4.6-11.1,10.3h-1.1c-1.7,0-3,1.3-3,2.9
	c0,1.6,1.4,2.9,3,2.9h1.1c0.3,5.3,4.7,8.2,10.5,8.3c0,0,3.7,0.1,5.1-0.9c0.5-0.2,2.2-1.2,2.4-1.4c1.9-1.6,3.4-4.4,3.5-7v-4H31.5z"/>
<g>
	<path style="fill:#05AF9F;" d="M37,26c-0.3,1.4-0.7,2.9-1.5,4.1c1.4-0.9,2.5-2.1,2.6-4.3C37.8,25.9,37,26,37,26z"/>
	<path style="fill:#05AF9F;" d="M37.1,17.9c0,0.1,0,0.2-0.1,0.4l0,0c0.3,0,0.6,0.2,1.3,0.1c0.3-3.1-0.7-6.6-2.1-8.7
		c-0.3-0.5,0.2-1.3,0.3-1.4c-0.6-0.8-1.5-1.7-2.3-2.4c0,0.1-1.2,0.7-1.7,0.3c-1.4-1-3-1.6-4.7-1.9c1.2,0.6,2.4,1.5,3.4,2.4
		c1.4,1.4,2.6,3.1,3.3,5c-0.2-0.3-0.5-0.5-0.7-0.7c0.8,1.7,1.2,3.5,1.2,5.5l0,0.3l1,0C36.6,17,37.1,17.3,37.1,17.9z"/>
	<path style="fill:#FFFFFF;" d="M38.9,22.1c0-0.9-0.8-1.7-1.7-1.7c0,0.1,0,0.1,0,0.1v3.4C38.1,23.8,38.9,23.1,38.9,22.1z"/>
	<path style="fill:#D9DBDB;" d="M24.7,15.5c0.9,2.8,3.5,5.1,6.8,5.1l3.7,0l-0.1-1.7C35.1,18.9,25.6,16.8,24.7,15.5z"/>
	<path style="fill:#E86B7B;" d="M36.2,41.7c1.3,1,2.3,2.5,2.9,4c0.7-0.4,1.4-1,2-1.5c-0.9-0.9-2.1-1.6-3.4-2L36.2,41.7z"/>
	<path d="M29.3,23.6c0.6,0,1.1-0.5,1.1-1.1v-0.8c0-0.6-0.5-1.1-1.1-1.1s-1.1,0.5-1.1,1.1v0.8C28.2,23.1,28.7,23.6,29.3,23.6z"/>
</g>
<g>
	<path id="Fill-44" d="M21.7,22.9V22c0-0.6-0.5-1.1-1.1-1.1s-1.1,0.5-1.1,1.1v0.8c0,0.6,0.5,1.1,1.1,1.1
		C21.2,24,21.7,23.5,21.7,22.9"/>
	<path style="fill:#E0F2FE;" d="M10.8,22.5c0,1,0.8,1.8,1.8,1.8v-3.6C11.6,20.8,10.8,21.6,10.8,22.5z"/>
</g>
<path style="fill:#05D1C4;" d="M33.9,11.1c0.3,0.2,0.5,0.4,0.7,0.6c-0.7-1.9-1.8-3.6-3.3-5c-1-1-2.3-1.9-3.6-2.5C26.9,4,26,4,25.1,4
	c0,0-0.1,0-0.1,0v4.6c0.2,0.2-2.3,8.4,1,8.4l9-0.2v-0.2C35,14.6,34.7,12.8,33.9,11.1z"/>
<path style="fill:#E94142;" d="M25,2.8c-5.9,0-10.7,4-11.7,9.3c-0.6,0.2-1,0.6-1,1.2L12.2,16c0,0.8,0.8,1.5,1.6,1.3
	c3-0.5,7.5-0.8,11.2-0.8V2.8z"/>
<path style="fill:#FFFFFF;" d="M28,36.4c-1,0.3-2.4,0.4-3.1,0.4c-0.8,0-3-0.3-3-0.3v2.6c0,0.6-3.6,1-3.6,1s0,0.5,0.6,1.6
	c1.1,2,3.8,3.5,6.2,3.5l0,0c0,0,0,0,0,0c3,0,5.7-2.2,6.3-5L28,36.4z"/>
<path style="fill:#20B69F;" d="M25,47.1c-6,0-8.8-6.2-8.8-6.2s-4.4,1.9-7.1,3.3c4.3,3.4,9.1,5.6,15.9,5.7V47.1z"/>
<path style="fill:#E94142;" d="M36.1,41.7l-2.8-0.9c-0.9,3.6-4.4,6.4-8.3,6.4c0,0,0,2.8,0,2.8c5.2,0,10-1.6,14-4.3
	C38.4,44.1,37.4,42.7,36.1,41.7z"/>
<path d="M42.2,42.3c-0.5-0.4-1.7-1.2-2.3-1.5c-0.4-0.2-7.6-2.5-9.5-3.1v-3c1-0.5,1.9-1.1,2.7-1.8c4-0.2,7.2-3.3,7.2-7.3v-1.1
	c0.6-0.7,0.9-1.5,0.9-2.4c0-0.9-0.3-1.7-0.9-2.4v-3.2c0-2.8-0.8-5.6-2.4-7.9c-0.3-0.4-0.8-0.6-1.3-0.4c-0.2,0.1-0.1,0-0.2,0.1
	c-0.5,0.3-0.7,1-0.3,1.5c1.3,2,2.1,4.4,2.1,6.8v1.8c-0.3-0.1-0.6-0.1-1-0.1c0-0.1,0.1-0.2,0.1-0.4c0-0.6-0.5-1.1-1.1-1.1h-1h-3.7
	c-3.3,0-6.2-1.1-6.5-1.3c-0.7,0-2.1-0.1-3-0.1v-1.6c0-0.6-0.5-1.1-1.1-1.1c-0.6,0-1.1,0.5-1.1,1.1v1.8c-0.7,0.1-1.5,0.1-2.1,0.2
	v-1.4c0-0.6-0.5-1.1-1.1-1.1c-0.6,0-1.1,0.5-1.1,1.1v1.7c-0.5,0.1-0.9,0.1-1.3,0.2c-0.1,0-0.2,0-0.2-0.1c0,0-0.1-0.1-0.1-0.2
	l0.1-2.8c0-0.1,0.1-0.2,0.2-0.2c3.2-0.7,6.7-1,10.8-1.1V9.6c-3.7,0-7,0.2-10,0.8C16.5,6.7,20.5,4,25,4v0c0,0,0.1,0,0.1,0
	c1,0,1.9,0.1,2.8,0.3c1.7,0.4,3.3,1,4.7,2c0.5,0.4,1.2,0.2,1.6-0.2l0.1-0.2c0.2-0.4,0.1-1-0.4-1.3c-2.6-1.8-5.6-2.8-8.8-2.8
	c0,0-0.1,0-0.1,0v0c-3,0-5.9,1-8.2,2.8c-2.2,1.7-3.8,4-4.4,6.5c-0.7,0.4-1.1,1.1-1.2,1.9l-0.1,2.8c0,0.8,0.3,1.5,0.9,1.9
	c0.3,0.2,0.5,0.4,0.8,0.5c0,0.1,0,0.1,0,0.2h-0.1c-2.3,0-4.2,1.8-4.2,4c0,2.2,1.9,4,4.2,4h0.1c0.2,1.1,0.5,2.1,1,3.1
	c0.2,0.4,0.6,0.6,1,0.6c0.2,0,0.3,0,0.5-0.1c0.6-0.3,0.8-0.9,0.5-1.5c-0.6-1.2-0.9-2.5-0.9-3.8V20c0-0.6,0.1-1.2,0.2-1.8
	c2.8-0.4,6.6-0.4,9.9-0.4c0,0,3,0.7,5,0.9c0.1,0,5.2,0.1,5.2,0.1l0.1,1.6v3.9c0,0.2,0,0.4,0,0.6c-0.2,2.4-1.4,4.6-3.2,6.2
	c-0.2,0.2-0.5,0.4-0.8,0.6c-0.4,0.3-0.9,0.6-1.4,0.9c-1.3,0.7-3.6,1.2-4.8,1.2c-1.1,0-3-0.3-4.4-0.9c-0.6-0.3-1.3-0.7-1.9-1.1
	c-0.5-0.4-1.2-0.3-1.6,0.2c-0.4,0.5-0.3,1.2,0.2,1.5c0.7,0.5,1.4,0.9,2.2,1.3v3.1c0,0-7.9,2.9-12,5c0.1,0.1,1,1,1.5,1.3
	c2.7-1.4,7-2.9,7-2.9s2.3,5.9,9,5.9c3.5,0,7.4-2.7,8.3-6.3l2.8,0.9l1.4,0.4c1.3,0.4,2.5,1.2,3.4,2.1c0.2-0.2,1.3-1.2,1.6-1.5
	C42.6,42.7,42.3,42.4,42.2,42.3z M37.2,20.5v-0.1c1,0,1.7,0.8,1.7,1.7c0,0.9-0.8,1.7-1.7,1.7V20.5z M37,26c0.4,0,0.7,0,1-0.1
	c0,1.7-1,3.2-2.4,4.1C36.3,28.8,36.8,27.4,37,26z M12.6,24c-1,0-1.8-0.8-1.8-1.8s0.8-1.8,1.8-1.8V24z M25,45.1
	c-2.4,0.1-4.6-1.2-5.7-3.3c-0.6-1-0.7-1.7-0.7-1.7l1.1-0.3v0.3c0,0.6,0.5,1.1,1.1,1.1c0.6,0,1.1-0.5,1.1-1.1v-2.1v-2.6
	c1,0.2,2.1,0.4,3.1,0.4v0c1,0,2-0.1,3-0.4v0.9v3v0.7c0,0.6,0.5,1.1,1.1,1.1c0.6,0,1.1-0.5,1.1-1.1V40l1,0.3C30.7,43,27.9,45,25,45.1
	z"/>
</svg>
