<?xml version="1.0" encoding="utf-8"?>
<!-- Generator: Adobe Illustrator 21.0.0, SVG Export Plug-In . SVG Version: 6.00 Build 0)  -->
<svg version="1.1" id="Слой_1" xmlns="http://www.w3.org/2000/svg" xmlns:xlink="http://www.w3.org/1999/xlink" x="0px" y="0px"
	 viewBox="0 0 307 327" style="enable-background:new 0 0 307 327;" xml:space="preserve">
<style type="text/css">
	.st0{fill:#05D1C4;}
	.st1{fill:none;}
	.st2{fill:#FDFDFE;}
	.st3{fill:#E84242;}
	.st4{fill:#E84343;}
	.st5{fill:#43E8DE;}
	.st6{fill:#43E5DC;}
	.st7{fill:#43E6DC;}
	.st8{fill:#EFF5F4;}
</style>
<g id="Group-57" transform="translate(4.5 4.5)">
	<path id="Fill-1" class="st0" d="M277.2,236.2c0-11.4,9.2-20.6,20.6-20.6c0,0,0,0,0,0V181h-36.5c0.7,2.1,1.2,4.3,1.2,6.6
		c0,11-8.9,19.9-20,19.9c-11,0-20-8.9-20-19.9c0-2.3,0.5-4.6,1.2-6.6h-36.5v36.4c-2.1-0.7-4.3-1.2-6.7-1.2c-11,0-20,8.9-20,19.9
		c0,11,8.9,19.9,20,19.9c2.3,0,4.6-0.5,6.7-1.2v36.4H224c-0.7,2.1-1.2,4.3-1.2,6.6c0,11,8.9,19.9,20,19.9c11,0,20-8.9,20-19.9
		c0-2.3-0.5-4.6-1.2-6.6h36.5v-34.5c0,0,0,0,0,0C286.5,256.8,277.2,247.6,277.2,236.2"/>
	<path d="M242.7,321.5c-13,0-23.5-10.6-23.5-23.5c0-1,0.1-2,0.2-3h-35.5v-35.4c-1,0.1-2,0.2-3,0.2c-13,0-23.6-10.6-23.6-23.5
		s10.6-23.5,23.6-23.5c1,0,2,0.1,3,0.2v-35.4h45.2l-1.7,4.8c-0.7,1.9-1,3.7-1,5.4c0,9,7.3,16.3,16.4,16.3s16.4-7.3,16.4-16.3
		c0-1.7-0.3-3.5-1-5.4l-1.7-4.8h45.2v41.7h-3.7c-9.4,0-17,7.7-17,17c0,9.4,7.6,17,17,17h3.6l0,3.6v38.1H266c0.1,1,0.2,2,0.2,3
		C266.2,311,255.7,321.5,242.7,321.5z M191.1,287.7h38l-1.7,4.8c-0.7,1.9-1,3.7-1,5.4c0,9,7.3,16.3,16.4,16.3S259,307,259,298
		c0-1.7-0.3-3.5-1-5.4l-1.7-4.8h38v-27.6c-11.7-1.7-20.7-11.8-20.7-24c0-12.1,9-22.2,20.7-24v-27.6H266c0.1,1,0.2,2,0.2,3
		c0,13-10.6,23.5-23.5,23.5s-23.5-10.6-23.5-23.5c0-1,0.1-2,0.2-3h-28.3v37.9l-4.8-1.7c-1.9-0.7-3.7-1-5.4-1
		c-9,0-16.4,7.3-16.4,16.3s7.3,16.3,16.4,16.3c1.7,0,3.5-0.3,5.4-1l4.8-1.7V287.7z"/>
	<path id="Fill-5" class="st0" d="M143.6,61.8c-2.3,0-4.6,0.5-6.7,1.2V26.6h-36.5c0.7-2.1,1.2-4.3,1.2-6.6c0-11-8.9-19.9-20-19.9
		c-11,0-19.9,8.9-19.9,19.9c0,2.3,0.5,4.6,1.2,6.6H26.6v110.3h36.5c-0.7-2.1-1.2-4.3-1.2-6.6c0-11,8.9-19.9,19.9-19.9
		c11,0,20,8.9,20,19.9c0,2.3-0.5,4.6-1.2,6.6H137v-36.4c2.1,0.7,4.3,1.2,6.7,1.2c11,0,19.9-8.9,19.9-19.9
		C163.6,70.7,154.7,61.8,143.6,61.8"/>
	<path d="M140.6,140.5H95.4l1.7-4.8c0.7-1.9,1-3.7,1-5.4c0-9-7.3-16.3-16.4-16.3c-9,0-16.3,7.3-16.3,16.3c0,1.7,0.3,3.5,1,5.4
		l1.7,4.8H23V23h35.5c-0.1-1-0.2-2-0.2-3c0-13,10.6-23.5,23.5-23.5c13,0,23.6,10.6,23.6,23.5c0,1-0.1,2-0.2,3h35.5v35.4
		c1-0.1,2-0.2,3-0.2c13,0,23.6,10.6,23.6,23.5c0,13-10.6,23.5-23.6,23.5c-1,0-2-0.1-3-0.2V140.5z M105.1,133.3h28.3V95.3l4.8,1.7
		c1.9,0.7,3.7,1,5.4,1c9,0,16.4-7.3,16.4-16.3c0-9-7.3-16.3-16.4-16.3c-1.7,0-3.5,0.3-5.4,1l-4.8,1.7V30.2h-38l1.7-4.8
		c0.7-1.9,1-3.7,1-5.4c0-9-7.3-16.3-16.4-16.3c-9,0-16.3,7.3-16.3,16.3c0,1.7,0.3,3.5,1,5.4l1.7,4.8h-38v103.1h28.3
		c-0.1-1-0.2-2-0.2-3c0-13,10.6-23.5,23.5-23.5c13,0,23.6,10.6,23.6,23.5C105.3,131.3,105.3,132.3,105.1,133.3z"/>
	<path class="st0" d="M130.3,216.3c2.3,0,4.6,0.5,6.7,1.2V181h-36.5c0.7-2.1,1.2-4.3,1.2-6.6c0-11-8.9-19.9-20-19.9
		c-11,0-20,8.9-20,19.9c0,2.3,0.5,4.6,1.2,6.6H26.6v36.4c-2.1-0.7-4.3-1.2-6.6-1.2c-11,0-20,8.9-20,19.9c0,11,8.9,19.9,20,19.9
		c2.3,0,4.6-0.5,6.6-1.2v36.4H137v-36.4c-2.1,0.7-4.3,1.2-6.7,1.2c-11,0-20-8.9-20-19.9C110.4,225.2,119.3,216.3,130.3,216.3z"/>
	<path d="M130.3,219.9c1.7,0,3.5,0.3,5.4,1l4.8,1.7v-45.1h-35.5c0.1-1,0.2-2,0.2-3c0-13-10.6-23.5-23.6-23.5s-23.6,10.6-23.6,23.5
		c0,1,0.1,2,0.2,3H23v35.4c-1-0.1-2-0.2-3-0.2c-13,0-23.6,10.6-23.6,23.5S7,259.7,20,259.7c1,0,2-0.1,3-0.2v35.4h117.6v-45.1
		l-4.8,1.7c-1.9,0.7-3.7,1-5.4,1c-9,0-16.3-7.3-16.3-16.3S121.3,219.9,130.3,219.9z M130.3,259.7c1,0,2-0.1,3-0.2v28.2H30.2v-37.9
		l-4.8,1.7c-1.9,0.7-3.7,1-5.4,1c-9,0-16.4-7.3-16.4-16.3s7.3-16.3,16.4-16.3c1.7,0,3.5,0.3,5.4,1l4.8,1.7v-37.9h38l-1.7-4.8
		c-0.7-1.9-1-3.7-1-5.4c0-9,7.3-16.3,16.4-16.3s16.4,7.3,16.4,16.3c0,1.7-0.3,3.5-1,5.4l-1.7,4.8h38v28.2c-1-0.1-2-0.2-3-0.2
		c-13,0-23.5,10.6-23.5,23.5S117.4,259.7,130.3,259.7z"/>
	<path d="M294.8,85.2c0.3-5.5-0.1-11-1.2-16.5c-1.4-6.4-3.7-12.5-7.1-18.1c0.3-2.3,6.2-41.9,6.2-41.9s-18.2,11-21.2,12.7l-2.2-3.8
		l-11,1.8l1.2-1.8l-4.6-5.1l-4,1.6l5.6-11.5c0,0-29.6,17.9-32.7,19.8c-4.8,0.9-9.6,2.5-14.1,4.7c-4.6-2.6-9.2-5.2-13.8-7.8l-4.3-2.4
		c-0.4-0.2-0.8-0.5-1.3-0.7c-0.9-0.5-1.7-1-2.6-1.6l-7.9-4.9c0,0,4.2,37.1,4.7,40.5c-0.3,0.5-0.6,1.1-0.9,1.6
		c-0.8,1.4-1.6,2.9-2.3,4.4c-2.6,5.5-4.4,11.5-5.1,17.9c-0.1,0.6-0.2,1.2-0.3,1.8l-0.1,1l0,9.4l0.1,0.4c0,0.2,0.1,0.4,0.1,0.6
		c0,0.2,0.1,0.3,0.1,0.5c0.7,7.8,3.1,15.5,7,22.9c2.3,4.4,5.5,8.6,9.6,13.1c5.1,5.5,11.5,9.9,19.6,13.5c5.7,2.6,12,4.1,18.7,4.5
		c1.5,0.1,3,0.1,4.5,0.1c8.8,0,16.7-1.7,24.2-5.2c6.2-2.9,11.5-6.5,16.2-10.8c3.7,0.1,6.8-0.5,9.7-1.7c7.5-3.3,12.4-8.6,14.3-15.9
		C302.2,99.6,300.4,91.7,294.8,85.2z"/>
	<g>
		<path class="st1" d="M228.2,82.8c0.6,0,1.4-0.7,1.4-1.4c0-0.7-0.6-1.3-1.3-1.3c-0.8,0-1.3,0.5-1.4,1.3
			C226.9,82,227.6,82.8,228.2,82.8z"/>
		<path class="st1" d="M230.8,62.2c0.6-0.6,1.2-1.2,1.9-1.9c0.9,1,1.8,1.9,2.9,3c0.8-0.9,1.6-1.7,2.4-2.7c0.6,0.7,1.2,1.4,1.8,2
			c0.5,0.5,1.2,0.5,1.6,0c0.5-0.4,0.6-1.2,0.2-1.6c-1.2-1.3-2.5-2.6-3.6-3.7c-0.9,0.7-1.8,1.5-2.7,2.2c-0.8-0.9-1.7-1.8-2.6-2.8
			c-1.3,1.3-2.6,2.6-3.8,3.9c-0.4,0.5-0.3,1.2,0.2,1.6C229.6,62.8,230.2,62.7,230.8,62.2z"/>
		<path class="st1" d="M264.7,81.8c-2.3-0.7-4.6-0.9-7-1c-0.3,0-0.7,0-1.1,0.1c-3.9,0.2-7.6,1.1-11,2.9c-0.8,0.4-1.1,1.2-0.7,1.9
			c0.4,0.7,1.1,0.9,1.9,0.6c0.2-0.1,0.5-0.2,0.7-0.3c5.4-2.2,10.8-2.9,16.5-1.4c0.8,0.2,1.4,0,1.7-0.7
			C266.1,83.1,265.6,82.1,264.7,81.8z"/>
		<path class="st1" d="M239.7,86.7c0,0.8,0.6,1.3,1.3,1.4c0.8,0,1.3-0.5,1.4-1.3c0-0.8-0.5-1.4-1.3-1.4
			C240.4,85.4,239.7,86,239.7,86.7z"/>
		<path class="st1" d="M273.1,74c-1.7-0.7-3.3-1.4-5.1-1.8c-2-0.5-4-0.6-6-0.9c0.8-2.5,0.2-4.6-1.8-5.8c-1.8-1-4.1-0.7-5.5,0.8
			c-1.2,1.4-1.9,4,0.2,6.4c-3.1,1-5.9,2.4-8.5,4.3c-0.5,0.4-1,0.7-1.4,1.1c-0.5,0.5-0.5,1.3-0.1,1.8c0.4,0.5,1.2,0.7,1.8,0.3
			c0.2-0.1,0.4-0.3,0.5-0.4c7.6-5.6,15.7-7.5,24.7-3.3c0.8,0.4,1.7,0.1,2-0.6C274.3,75.2,274,74.4,273.1,74z"/>
		<path class="st2" d="M286.9,87.4c0.7-6.1,0.3-12.2-1.1-18.1c-1.4-5.9-3.8-11.4-7-16.5c-0.1-0.2-0.3-0.6-0.2-0.8
			c0.4-3.2,0.9-6.3,1.4-9.5c0.9-6.1,1.8-12.3,2.7-18.4c0,0-0.1-0.1-0.1-0.1c-0.2,0.1-0.4,0.1-0.5,0.2c-5,2.8-9.9,5.7-14.9,8.5
			c-1.8,1-3.6,2-5.4,3c-0.4,0.2-0.7,0.2-1.1,0c-3.1-1.7-6.3-3.2-9.6-4.4c-0.2-0.1-0.3-0.1-0.6-0.2c0.3-0.2,0.6-0.4,0.8-0.6
			c1.1-0.9,2.3-1.8,3.4-2.7c0,0,0-0.1-0.1-0.1c-2.8,0.4-5.5,0.9-8.3,1.3c-0.3,0-0.6,0.1-0.8,0.1c-1.2,0.2-2.4,0.5-3.7,0
			c1-1.5,2.1-2.9,3.1-4.3c0-0.1-0.1-0.1-0.1-0.2c-3.1,1.2-6.2,2.4-9.5,3.6c1-2,1.9-3.9,2.9-5.8c-0.1,0-0.1-0.1-0.2-0.1
			c-3.6,2.3-7.2,4.5-10.8,6.7c-0.3,0.2-0.7,0.4-1.1,0.4c-3.4,0.7-6.8,1.4-9.9,3c-2,1-4.1,1.9-6.1,2.9c-0.4,0.2-0.7,0.2-1.1,0
			c-2.1-1.2-4.2-2.5-6.3-3.7c-3.8-2.2-7.7-4.3-11.5-6.5c-0.9-0.5-1.9-1.1-2.9-1.6c0.1,0.4,0.1,0.6,0.1,0.9c0.4,2.5,0.7,4.9,1.1,7.4
			c0.9,6.4,1.9,12.7,2.8,19.1c0,0.3,0,0.7-0.2,1c-1.1,2-2.3,3.8-3.3,5.8c-4.4,8.7-6.1,17.9-5.4,27.5c0.6,8.2,3,15.7,7.1,22.8
			c2.6,4.6,6,8.6,9.9,12.2c6.8,6.3,14.9,10.3,23.9,12.4c7.9,1.8,15.8,1.7,23.7-0.5c9.6-2.6,17.9-7.2,24.7-14.6
			C270.3,117.2,286.9,87.4,286.9,87.4z M243.3,81.4c0,0.7-0.7,1.5-1.4,1.4c-0.6,0-1.3-0.8-1.3-1.5c0-0.8,0.6-1.3,1.4-1.3
			C242.7,80,243.3,80.6,243.3,81.4z M242.4,86.8c0,0.8-0.6,1.3-1.4,1.3c-0.8,0-1.3-0.6-1.3-1.4c0-0.7,0.6-1.3,1.4-1.3
			C241.9,85.4,242.4,86,242.4,86.8z M230.5,86.7c0,0.7-0.6,1.3-1.4,1.3c-0.8,0-1.3-0.6-1.3-1.3c0-0.8,0.6-1.3,1.3-1.3
			C229.9,85.4,230.5,86,230.5,86.7z M228.3,80c0.8,0,1.3,0.6,1.3,1.3c0,0.7-0.8,1.5-1.4,1.4c-0.6,0-1.3-0.8-1.3-1.5
			C227,80.5,227.5,80,228.3,80z M199,76.3c-1.2,0.6-1.9,0.4-2.3-0.4c-0.4-0.9,0-1.5,1.2-2.1c3.4-1.6,6.9-2.4,10.7-2.3
			c-0.5-1.5-0.7-3,0.1-4.4c0.5-0.9,1.2-1.5,2.1-1.9c1.8-0.8,3.9-0.2,5.1,1.3c1.4,1.8,1.3,3.8-0.3,6.2c3.5,1.1,6.7,2.8,9.5,5.1
			c0.9,0.7,1,1.5,0.5,2.2c-0.6,0.7-1.3,0.6-2.2,0c-4.4-3.5-9.3-5.6-14.9-5.7C205.2,74.1,202,74.9,199,76.3z M206.4,84.4
			c-1.2,0.2-2.1-0.3-2-1.6c0-0.6,0.5-1,1.2-1.2c4.3-1.2,8.7-1.2,13.1-0.2c0.8,0.2,1.6,0.4,2.4,0.7c1.2,0.5,2.5,1,3.7,1.6
			c0.8,0.4,1,1.2,0.7,1.9c-0.3,0.7-1.1,0.9-1.9,0.6c-3.6-1.7-7.3-2.6-11.2-2.5C210.3,83.6,208.3,84,206.4,84.4z M249.5,95.9
			c-1.3,1.5-3.1,2.2-5,2.4c-0.6,0-1.2,0-1.8-0.1c-0.3,0-0.5-0.1-0.8-0.1c-0.5,1.5-1.2,2.8-2.4,3.9c-3.1,2.8-7.8,1.8-9.9-2.1
			c-0.3-0.6-0.5-1.1-0.8-1.7c-2.9,0.4-5.6-0.1-7.7-2.4c-0.7-0.7-0.7-1.6,0-2.3c-0.1-0.1-0.2-0.3-0.3-0.4c-0.4-0.6-0.2-1.4,0.3-1.8
			c0.5-0.4,1.3-0.3,1.8,0.2c2.7,2.7,6.3,2.4,8.6-0.6c1.6-2.1,2.3-4.6,2.4-7.2c0-0.8,0-1.7,0-2.5c0-0.4,0-0.7,0-1.1
			c-0.6,0,3.3,0,2.7,0c0,0.4,0,0.8,0,1.2v0c0,2,0,4,0.6,6c0.7,2,1.6,3.8,3.3,5c2,1.5,5.2,1.3,6.9-0.5c0.8-0.8,1.5-1,2.1-0.5
			c0.7,0.5,0.7,1.2,0.1,2.2C250.2,94.4,250.2,95.1,249.5,95.9z M265.7,83.9c-0.3,0.6-0.9,0.9-1.7,0.7c-5.7-1.6-11.1-0.9-16.5,1.4
			c-0.2,0.1-0.5,0.2-0.7,0.3c-0.8,0.4-1.6,0.1-1.9-0.6c-0.4-0.7-0.1-1.5,0.7-1.9c3.4-1.8,7.1-2.8,11-2.9c0.4,0,0.8,0,1.1-0.1
			c2.5,0.1,4.8,0.3,7,1C265.6,82.1,266.1,83.1,265.7,83.9z M274,75.9c-0.3,0.7-1.2,1-2,0.6c-8.9-4.2-17.1-2.3-24.7,3.3
			c-0.2,0.1-0.3,0.3-0.5,0.4c-0.6,0.4-1.3,0.2-1.8-0.3c-0.4-0.5-0.4-1.3,0.1-1.8c0.4-0.4,0.9-0.8,1.4-1.1c2.6-1.9,5.4-3.3,8.5-4.3
			c-2-2.4-1.4-5-0.2-6.4c1.4-1.5,3.7-1.8,5.5-0.8c2,1.2,2.6,3.3,1.8,5.8c2,0.3,4,0.4,6,0.9c1.7,0.4,3.4,1.2,5.1,1.8
			C274,74.4,274.3,75.2,274,75.9z"/>
	</g>
	<path id="Fill-21" class="st3" d="M266.1,114.6c2,1.6,4.2,2.6,6.7,3.3c0.6,0,1.2,0.1,1.9,0.2c1.3,0.1,2.7,0.3,4,0.1
		c6.8-0.9,11.6-4.6,14-11.1c1.9-5.4,1.3-10.5-1.8-15.3c-1-1.6-2.5-2.8-3.8-4.2c-0.3-0.2-0.5-0.3-0.8-0.5c-6.9-4.7-16.7-3.5-22,2.8
		c-1.1,1.3-2.2,1.6-3.7,1.4c-1.9-0.3-3.8-0.4-5.8-0.5l0,0c0.1,0.2,0.1,0.4,0.2,0.5c1.4,2.1,2.8,4.2,4.2,6.3c0.6,0.9,1,1.7,0.8,2.8
		c-0.1,0.5-0.1,1.1,0,1.6c0,0.1,0,0.1,0,0.2C260.2,107.2,262.2,111.4,266.1,114.6z M277.8,107c-0.4,0.4-0.8,0.9-1.2,1.3
		c-1.9-1.8-3.7-3.5-5.6-5.2c-0.8-0.7-1.6-1.3-1.9-2.5c-0.3-1.5,0.2-3.1,1.5-4c1.2-0.9,2.9-0.9,4.2,0c0.6,0.4,1.1,0.8,1.7,1.2
		c0.6-0.4,1.1-0.9,1.7-1.2c1.4-1,3.4-0.8,4.6,0.4c1.3,1.2,1.6,3,0.7,4.6c-0.2,0.3-0.4,0.5-0.6,0.8
		C281.2,103.9,279.5,105.4,277.8,107z"/>
	<path id="Fill-23" class="st2" d="M254.7,27.8c0.1,0,0.2,0,0.2-0.1l0,0.1C254.9,27.9,254.9,27.9,254.7,27.8
		C254.8,27.9,254.7,27.9,254.7,27.8"/>
	<path id="Fill-25" class="st2" d="M282.6,24c0,0,0.1-0.1,0.1-0.1C282.7,23.9,282.7,24,282.6,24C282.6,24,282.6,24,282.6,24"/>
	<path id="Fill-37" class="st4" d="M236.6,80.1c-0.9,0-1.8,0-2.7,0c-0.6,0-1.1,0-1.7,0c-1.3-0.1-2.1-1.3-1.4-2.4
		c1-1.8,2-3.6,3.1-5.4c0.7-1.2,2.1-1.1,2.8,0.1c1,1.7,2,3.4,3,5.2c0.7,1.3,0,2.5-1.5,2.5C237.7,80,237.2,80,236.6,80.1"/>
	<path id="Fill-39" class="st5" d="M235.6,63.3c-1.1-1.1-1.9-2-2.9-3c-0.7,0.7-1.3,1.3-1.9,1.9c-0.6,0.6-1.2,0.6-1.8,0.1
		c-0.5-0.4-0.6-1.1-0.2-1.6c1.2-1.3,2.5-2.6,3.8-3.9c0.9,1,1.8,1.9,2.6,2.8c0.9-0.8,1.8-1.5,2.7-2.2c1.1,1.1,2.4,2.4,3.6,3.7
		c0.4,0.5,0.3,1.2-0.2,1.6c-0.5,0.4-1.2,0.4-1.6,0c-0.6-0.6-1.2-1.3-1.8-2C237.2,61.6,236.4,62.4,235.6,63.3"/>
	<path id="Fill-41" class="st6" d="M241.8,98.1c0.1-0.7,0.2-1.3,0.3-1.9c1.2-0.1,2.3-0.2,3.4-0.3c1.7-0.2,2.8-1.4,4-2.4
		c0.6,0.9,0.6,1.6-0.1,2.4c-1.3,1.5-3.1,2.2-5,2.4C243.6,98.4,242.7,98.2,241.8,98.1"/>
	<path id="Fill-43" class="st7" d="M221,93.6c2,2.1,4.4,2.9,7.3,2.5c0.1,0.7,0.3,1.4,0.4,2.1c-2.9,0.4-5.6-0.1-7.7-2.4
		C220.4,95.1,220.4,94.2,221,93.6"/>
	<path id="Fill-55" class="st8" d="M276.5,108.3c-1.9-1.8-3.7-3.5-5.6-5.2c-0.8-0.7-1.6-1.3-1.9-2.5c-0.3-1.5,0.2-3.1,1.5-4
		c1.2-0.9,2.9-0.9,4.2,0c0.6,0.4,1.1,0.8,1.7,1.2c0.6-0.4,1.1-0.9,1.7-1.2c1.4-1,3.4-0.8,4.6,0.4c1.3,1.2,1.6,3,0.7,4.6
		c-0.2,0.3-0.4,0.5-0.6,0.8c-1.7,1.6-3.4,3.1-5.1,4.7C277.3,107.4,277,107.9,276.5,108.3"/>
</g>
</svg>
