<svg xmlns="http://www.w3.org/2000/svg" viewBox="0 0 313 288"><path d="M297.2 9H118.9c-8.7 0-15.8 7.1-15.8 15.9v68.4H15.8C7.1 93.2 0 100.4 0 109.1V251c0 8.7 7.1 15.9 15.8 15.9h41.8l4.9 16.7c.6 1.9 2 3.4 3.9 4.1.6.2 1.3.3 1.9.3 1.3 0 2.6-.4 3.6-1.2l27-19.9 17-.1c3.4 0 6.1-2.8 6.1-6.1h15.5c0 .7.1 1.4.3 2.1.9 2.4 3.2 4.1 5.8 4.1 2.9 0 5.4-2.1 6-4.9.1-.4.1-.8.1-1.2H165c0 3.4 2.7 6.1 6.1 6.1l22.9.1c8.7 0 15.8-7.1 15.8-15.9v-68.4h4.2l26.9 19.9c1.1.8 2.3 1.2 3.6 1.2.7 0 1.3-.1 1.9-.3 1.9-.6 3.4-2.2 3.9-4.1l4.9-16.7H297c8.7 0 15.8-7.1 15.8-15.9V24.9C313 16.1 305.9 9 297.2 9" fill="#e94142" fill-opacity=".338"/><path d="M115.5 252.7l-19 .1L68 274l-6.2-21.2H15.7c-5.3 0-9.7-4.4-9.7-9.8V100.8c0-5.4 4.3-9.8 9.7-9.8h177.7c5.3 0 9.7 4.4 9.7 9.8v142.3c0 5.4-4.3 9.8-9.7 9.8l-22.8-.1" fill="#fff"/><path d="M125.7 165.8L102 151.9c-4.4-2.6-10 .6-10 5.7v27.7c0 5.1 5.6 8.3 10 5.8l23.7-13.8c4.4-2.6 4.4-9 0-11.5" fill="#e94142"/><path d="M143 258c-2.5 0-4.8-1.6-5.7-4-.8-2.3-.1-5 1.8-6.6 2-1.7 4.9-1.9 7.1-.5 2.1 1.3 3.2 3.9 2.7 6.3-.6 2.7-3.1 4.8-5.9 4.8"/><path d="M118.9.4h178.2c8.7 0 15.8 7.1 15.8 15.8v141.7c0 8.7-7.1 15.8-15.8 15.8h-41.8l-4.9 16.7c-.6 1.9-2 3.4-3.9 4.1-.6.2-1.3.3-1.9.3-1.3 0-2.6-.4-3.6-1.2l-26.9-19.9h-4.2V242c0 8.7-7.1 15.8-15.8 15.8l-22.9-.1c-3.4 0-6.1-2.8-6.1-6.1 0-3.4 2.8-6.1 6.1-6.1l22.9.1c2 0 3.6-1.6 3.6-3.6V100.4c0-2-1.6-3.6-3.6-3.6H15.8c-2 0-3.6 1.6-3.6 3.6v141.7c0 2 1.6 3.6 3.6 3.6h46.3c2.7 0 5.1 1.8 5.9 4.4l3.7 12.7 21.5-15.9c1-.8 2.3-1.2 3.6-1.2l19-.1c3.4 0 6.1 2.7 6.1 6.1 0 3.4-2.7 6.1-6.1 6.2l-17 .1-27 19.9c-1.1.8-2.3 1.2-3.6 1.2-.7 0-1.3-.1-1.9-.3-1.9-.6-3.4-2.2-3.9-4.1L57.5 258H15.8C7.1 258 0 250.9 0 242.2V100.4c0-8.7 7.1-15.8 15.8-15.8h87.3V16.2c0-8.7 7.1-15.8 15.8-15.8z"/><path d="M297.2 12.6H118.9c-2 0-3.6 1.6-3.6 3.6v68.3h156.1c3.4 0 6.1 2.7 6.1 6.1 0 3.4-2.7 6.1-6.1 6.1h-62c.3 1.2.4 2.4.4 3.6v10.4h61.6c3.4 0 6.1 2.7 6.1 6.1s-2.7 6.1-6.1 6.1h-61.6v38.5h6.2c1.3 0 2.6.4 3.6 1.2l21.5 15.9 3.7-12.7c.8-2.6 3.2-4.4 5.9-4.4H297c2 0 3.6-1.6 3.6-3.6V16.2c.2-2-1.5-3.6-3.4-3.6zM270.9 71H144.1c-3.4 0-6.1-2.7-6.1-6s2.7-6 6.1-6h126.8c3.4 0 6.1 2.7 6.1 6s-2.7 6-6.1 6zm0-24H144.1c-3.4 0-6.1-2.7-6.1-6s2.7-6 6.1-6h126.8c3.4 0 6.1 2.7 6.1 6s-2.7 6-6.1 6z" fill="#05d1c4"/><path d="M92.4 196.3c2 1.1 4.2 1.7 6.4 1.7s4.4-.6 6.4-1.8l23.5-13.7c4-2.3 6.3-6.4 6.3-11s-2.4-8.7-6.3-11l-23.5-13.7c-4-2.3-8.8-2.4-12.8-.1s-6.4 6.4-6.4 11.1v27.4c0 4.6 2.4 8.8 6.4 11.1zm6.1-38.9c.1-.1.2-.1.2-.1.1 0 .2 0 .2.1l23.5 13.7c.1 0 .2.1.2.4 0 .3-.1.3-.2.4L99 185.6c-.1.1-.2.1-.5 0-.2-.1-.2-.3-.2-.4v-27.4c0-.1 0-.3.2-.4z"/><path d="M46 171.5c0 32.3 26.5 58.5 59 58.5s59-26.2 59-58.5-26.5-58.5-59-58.5-59 26.2-59 58.5zm12.3 0c0-25.5 20.9-46.3 46.7-46.3s46.7 20.8 46.7 46.3-20.9 46.3-46.7 46.3-46.7-20.8-46.7-46.3z"/></svg>