<?xml version="1.0" encoding="utf-8"?>
<!-- Generator: Adobe Illustrator 21.0.0, SVG Export Plug-In . SVG Version: 6.00 Build 0)  -->
<svg version="1.1" id="Слой_1" xmlns="http://www.w3.org/2000/svg" xmlns:xlink="http://www.w3.org/1999/xlink" x="0px" y="0px"
	 viewBox="0 0 597.3 592.1" style="enable-background:new 0 0 597.3 592.1;" xml:space="preserve">
<style type="text/css">
	.st0{fill:#00D2C5;}
	.st1{fill:#FBC84A;fill-opacity:0.898;}
	.st2{fill:#FFFFFF;}
	.st3{fill:#E94142;}

    .dot-1,
    .dot-2,
    .dot-3,
    .dot-4,
    .dot-5 {
        animation-duration: 1s;
        animation-name: bounceIn;
        opacity: 0;
        animation-fill-mode: both;
    }

    .dot-1 {
        transform-origin: 103px 270px;
        animation-delay: 1s;
    }

    .dot-2 {
        transform-origin: 175px 286.1px;
        animation-delay: 1.3s;
    }

    .dot-3 {
        transform-origin: 419px 282.2px;
        animation-delay: 1.6s;
    }

    .dot-4 {
        transform-origin: 437.6px 240.9px;
        animation-delay: 1.9s;
    }

    .dot-5 {
        transform-origin: 457px 227.1px;
        animation-delay: 2.2s;
    }

    @keyframes bounceIn {
        0%,20%,40%,60%,80%,to {
            animation-timing-function: cubic-bezier(.215,.61,.355,1)
        }

        0% {
            opacity: 0;
            transform: scale(.1)
        }

        20% {
            transform: scale(1.3)
        }

        40% {
            transform: scale(.8)
        }

        60% {
            opacity: 1;
            transform: scale(1.03)
        }

        80% {
            transform: scale(.97)
        }

        to {
            opacity: 1;
            transform: scaleX(1)
        }
    }

</style>
<path id="Fill-15_1_" class="st0" d="M465,239.8c-0.2,0.2-0.5,0.5-0.4,0.7c0.1,2-1.3,2.6-2.8,3c-0.1,1.2-0.2,2.3-0.2,3.4
	c1,0.1,1.9,0.3,3.1,0.4c-0.2,0.7-0.3,1.4-0.6,2c-0.2,0.4-0.6,0.9-0.9,0.9c-2.6-0.1-3.8,1.9-5.2,3.6c-1.5,1.8-2.6,3.9-2.5,6.4c0.1,0.8-0.4,1.3-1.3,1.6c-3.7,1.3-6.3,4.3-5.8,8.9c0.2,1.5-0.4,2.5-1.5,3.5c-0.5,0.4-0.7,1-1.1,1.6c-1.1,1.8-2.2,3.6-3.4,5.3c-0.3,0.4-0.8,0.5-1.3,0.8c1.2,1.8-0.5,2.8-1.3,4c-0.3,0.5-1,0.9-0.4,1.6c0.1,0.1,0,0.4-0.1,0.5c-1.2,2.4-0.9,5.1-1.2,7.7c-0.4,3.5,0.9,6.3,2.5,9.1c2,3.5,4.1,7,7.2,9.7c1.4,1.3,2.9,2.4,4.3,3.7c0.7,0.6,1.3,1.2,1.2,2.5c-0.1,1.1,1,2.4,1.8,3.4c1,1.3,2.2,2.4,3.3,3.7c1.2,1.4,2.3,2.9,3.6,4.3c1.5,1.7,1.7,4,2.3,6c0.4,1.4,0.8,2.9,1,4.3c0.1,0.5-0.2,1.1-0.2,1.6c-0.1,1-0.5,2.1-0.1,2.9c0.4,0.9,0.3,1.6-0.2,2.1c-0.7,0.7-1.6,1.2-2.5,1.8c-0.6,0.4-1.3,0.7-1.9,1.1c-1,0.7-1.9,0.5-2-0.7c-0.3-2.1-2-3-3.3-4.3c-0.4-0.4-1.6-0.6-2.2-0.3c-1.4,0.6-2.1-0.1-2.6-1.1c-0.8-1.5-1.6-2.8-3.3-3.5c-0.5-0.2-0.7-1.3-1.1-2c-0.2-0.5-0.4-1.1-0.6-1.7c-0.1,0-0.3,0-0.4,0.1c-0.1,0.7-0.2,1.3-0.4,2.3c-2.2-2-4.1-3.9-6.1-5.7c0.3-1,0.7-2,1-3.1c0.5-1.5,0-2-1.6-1.7c-0.2,0-0.3,0.1-0.2,0.1c0.2,1,0.5,1.9,0.7,2.8c-0.2,0.1-0.3,0.2-0.5,0.2c-0.5-0.7-1.2-1.4-1.5-2.2c-0.4-1.2-0.6-2.6-0.8-3.9c-0.2-1.6-0.3-3.1-0.6-4.7c-0.2-1-2.8-3.2-3.8-3.2c-2.3,0-3.7-1.5-5.3-2.9c-1.2-1-2.8-1.6-4.3-2.2c-1.2-0.5-2.6-0.8-3.8,0.1c-0.3,0.2-0.6,0.3-0.7,0.6c-0.7,1.9-2,3.3-3.6,4.3c-1,0.6-2.2,0.9-3.4,1.4c-0.2-2.2-2.3-1.8-3.6-2.6c-2.2-1.3-4.8-1.5-7.2-1.2c-2,0.2-3.9,1.2-5.8,2s-3.7,1.8-5.6,2.7c-0.1,0.1-0.3,0-0.5,0c0.7-1.4-0.1-3.1-2.1-4.1c-0.2,1.2-0.5,2.3-0.7,3.5l-0.3-0.3c-0.6,0.4-1.2,0.9-1.9,1.2c-0.7,0.3-1.6,0.6-2.3,0.5c-1.1-0.3-1.9,0.1-2.8,0.5c-1.2,0.6-2.4,0.9-3.3,2.3c-0.7,1-1.2,2.4-2.8,3c1,0.4,1.5,0.7,2,0.7c0.3,0,0.7-0.4,1-0.8c0.2-0.3,0.3-0.8,0.4-1.2c0.5,0.3,1.1,0.6,1.5,1c0.2,0.2,0.3,0.9,0.2,1.1c-0.4,0.5-1,0.9-1.8,1.5c-0.4,1.9,0.3,2.5,2.6,2.6c1.3,0,2.5,0.5,3.8,0.8c-0.3,2-1.8,2.6-3.2,1.7c-0.8-0.5-1.7-0.8-2.6-1.1c-0.6-0.2-1.3-0.4-2-0.6v-0.4c-0.5,0.2-0.9,0.3-1.5,0.5c0.1,0.3,0.3,0.5,0.2,0.6c-0.1,0.9-0.3,1.8-0.5,2.6c-0.7-0.3-1.4-0.7-2.2-1.2c-0.6,0.7-1.3,1.7-2.2,2.5c-0.4,0.4-1.2,0.7-1.8,0.6c-1.3-0.2-2.7-0.6-4.1-1c0.2-0.6,0.4-1.1,0.7-1.9c-0.5-0.1-1-0.3-1.5-0.4c-0.8-0.1-1.7,0.1-2.1-1c-0.1-0.3-1-0.5-1.5-0.6c-0.7-0.1-1.4,0-2.1,0.1c-0.4,0.1-0.8,0.4-1.2,0.6c0.3,0.5,0.6,0.9,1.1,1.6c-0.2,0.1-0.6,0.4-1,0.4c-2.2,0-4.5,0.3-6.6-0.2c-2.2-0.5-4.2-0.1-6.2,0.6c-3,1.1-5.7,2.8-8.1,4.9c-1.5,1.3-2.4,3.1-3.8,4.5c-1.7,1.8-3.5,3.4-5.3,5.1c-2.5,2.3-5.1,4.4-7.4,6.8c-1.2,1.3-1.8,3.3-2.4,5c-0.8,2.3-2,4.7-1.4,7.2c0.2,1.2,0.7,2.3,1.2,3.4c0.7,1.8,1.6,3.6,2.4,5.5c-1.2,1.7-1.8,1.9-3.5,0.6c-1.1-0.8-2.1-0.5-3.2-0.5c-1,0.1-2.2,0.4-2.9-0.1c-1.4-0.9-3-0.8-4.4-1.2c-0.8-0.2-1.5-0.4-2.3-0.5c-1-0.2-1.5-0.8-1.9-1.8c-0.5-1.2-0.8-2.6-2.3-3.1c-0.2-0.1-0.4-0.3-0.5-0.5c-0.4-1.4-0.7-2.9-1.2-4.3c-0.2-0.5-0.5-1.4-0.9-1.4c-2.3-0.4-3.3-2.3-4.7-3.7c-0.6-0.6-1.3-1-2-1.5c-0.3-0.2-0.5-0.5-0.7-0.8c-1.1-1.8-2.5-3.5-3.3-5.4c-1.4-3.5-4.9-4.7-7.4-7.1c-0.7-0.6-2.2-0.3-3.4-0.4c-1.6-0.2-3.2,0.5-4.9-0.2c-1-0.4-3.6,2.4-4.1,3.9c-0.5,1.7-1.3,3.4-2,5.1c-0.1,0.3-0.7,0.6-1,0.5c-1.6-0.5-3.2-1.2-4.7-1.8c-0.4-0.2-0.7-0.4-1.1-0.6c-1.9-1-3.9-1.8-5.5-3c-1-0.8-1.8-2.2-2-3.5c-0.5-3-2.1-5.2-4.3-7c-1-0.8-2.4-1.1-3.5-1.9c-1.5-1.1-2.8-2.4-4.1-3.7c0,0,0-0.1-0.1-0.1c-1.9-0.3-2.6-2.1-3.8-3.2c-0.7-0.6-2-0.7-3-0.6c-3.7,0.1-7.4,0.3-11.2,0.5c-0.3,0-0.6,0-1.1-0.1c0.1,1.1,0.1,2.1,0.2,3.1c0,1-0.1,1.7-1.5,1.6c-2.4-0.1-4.8,0.3-7.3,0.4c-4.8,0.1-9.6,0.1-14.4,0.4c-2.6,0.2-4.6-1.2-6.8-1.9c-5.3-1.7-10.5-3.9-15.8-5.8c-3.1-1.2-6.2-2.3-9.3-3.5c-1.4-0.5-0.7-1.4-0.3-2.5c-1,0-2-0.1-3-0.1l-8.4,0.6c-2.4,0.1-4.9,0.1-7.3,0.2c-0.9,0-1.3-0.4-1.4-1.2c-0.1-0.5-0.2-0.9-0.2-1.4c-0.1-3.5-2.3-5.7-4.8-7.9c-1.4-1.2-2.8-1.7-4.5-1.9c0.6-2.2-0.5-3.3-2.6-3.2c-1,0-2.1-0.6-3-1.1c-0.6-0.4-1-1.2-1.5-1.8c-0.8-0.8-1.6-1.5-2.9-1.3c-0.6,0.1-1.3-0.4-2-0.5c-1.1-0.2-2.2-0.4-3.2-0.4c-1.3,0-2.1-0.7-2-2c0.1-1.4,0.4-2.8,0.1-4.1c-0.2-1.2-1-2.3-1.7-3.2c-1.7-2.2-3.6-4.2-4.5-6.9c-0.3-0.9-1.2-1.7-2-2.4c-1-1-7.6-22.6-8.6-23.8c-1-1.3-2.2-2.4-2.9-3.8c-0.6-1.1-0.7-2.5-0.7-3.8c0-1.1,0.3-2.1,0.5-3.2c0.3-1.8-0.4-3.4-1.4-4.8c-0.5-0.7-1-1.4-1.5-2c-1.1-1.4-1-3.1,0.1-4.6c0.8-1.2,1.4-2.7,2-4.1c1.2-2.9,0.6-6,0.5-9c0-0.2,0-0.4-0.1-0.5c-1.8-1.8-0.6-4.1-1.1-6.1c-0.7-3.3,1.7-5.8,2.5-8.7c0.8-2.8,1.7-5.7,2.3-8.5c0.9-4.1,1.7-8.2,2.5-12.3c0.2-0.9,0.3-1.8,0.4-2.7c0-1.3,0.5-2.2,1.9-2.5c0.2-0.1,0.5-0.3,0.7-0.7c-0.4,0-0.8,0.1-1.1,0c-0.6-0.2-1.3-0.3-1.6-0.7c-0.2-0.3,0.3-1,0.5-1.5c0.3-0.7,0.7-1.3,1.1-1.9h-0.5c-0.4-0.5-1-1-1-1.5c0-0.4,0.7-0.9,1.2-1.4c-2-1.9-1.9-4.7-2.3-7.4c-0.1-0.7-0.5-1.3-0.9-1.9c-0.4-0.6-0.8-4.2-0.3-4.7c0.2-0.2,1-0.3,1.2-0.1c2.4,2,5.1,2.9,8.1,3.2c1.2,0.1,2.3,0.3,3.4,0.5c0.3-1.1,0.6-1.9,0.9-2.8c1.2,1.1,1.2,1.1-0.1,2c0.7,0.8,1.4,1.6,2.3,2.7c-0.3-1.7-0.5-3-0.7-4.2c0-0.2-0.2-0.4-0.1-0.5c1.1-1.7-0.2-2.7-1-3.9c-0.3-0.4-0.4-0.9-0.6-1.4c0.5-0.1,1-0.3,1.5-0.2c10.3,0.8,20.6,1.8,30.9,2.6c6.7,0.5,13.4,0.7,20.1,0.9c6.5,0.2,13,0.3,19.5,0.2c4.8,0,9.6-0.3,14.5-0.5c3.8-0.1,7.6-0.2,11.4-0.4c3.4-0.2,6.9-0.4,10.3-0.6c3.7-0.2,7.3-0.3,11-0.6c2.8-0.2,5.5-0.5,8.3-0.8c5.3-0.6,10.5-1.1,15.8-1.7c1.6-0.2,3.2-0.3,4.8-0.6c3.9-0.6,7.8-1.1,11.7-1.8c7-1.1,13.9-2.3,20.9-3.4c0.4-0.1,0.7-0.2,1.3-0.3c-0.2-1.2-0.4-2.4-0.6-3.7c1.6-0.4,2.4,0.2,2.8,1.5c0.3,1,0.6,2,1.1,3c0.2,0.5,0.7,1.1,1.2,1.2c1,0.2,2,0.2,3.1,0.2c0.8,0,1.6-0.6,2.2,0.5c0.1,0.1,1.7,0,1.9-0.4c1-2,2.6-1.3,4.1-1.1c1,0.2,2,0.7,3.1,0.9c0.7,0.1,1.5,0.1,2.2,0.1c0.1,0,0.4-0.1,0.4,0c0.6,0.9,1.5,1,2.5,1.1c0.4,0,0.7,0.6,1.1,0.7c1.3,0.4,2.1-0.3,2.9-1.1c0.5-0.5,1-0.9,1.6-1.5c0.6,1.3,1.5,1,2.6,0.8c1.3-0.2,2.7-1.1,4.1,0.1c0.4,0.3,1.5-0.2,2.3-0.3c0.1,0.1,0.1,0.2,0.2,0.3c-1.7,1.2-3.3,2.3-5,3.5c-1.8,1.3-3.2,2.9-4.3,4.9c-1.3,2.4-3.1,4.7-4.7,7.1c0.8,0.5,1.6,0.3,2.4-0.3c1.6-1.1,3.2-2.3,4.8-3.5c0.3-0.2,0.9-0.3,1.2-0.1c0.2,0.1,0.2,0.8,0.2,1.1c-0.1,0.7-0.4,1.3-0.5,1.8h2.7c1.5-0.1,2.3-1.3,3.3-2c0.9-0.7,1.7-1.5,2.7-2c1.6-0.9,2.7-2,3.7-3.6c1.1-1.7,2.4-3.3,3.8-4.6c0.6-0.6,1.8-0.6,2.9-0.8c-1.7,2-3.3,4-3.2,6.5c1.1-0.3,2-0.7,3-0.9c1.4-0.2,2.5,0.3,3.5,1.4c1.3,1.6,2.3,1.7,3.7,0.5c1.9,0.7,2.5,0.5,3.7-1.1c1.1-1.5,2.5-2.5,4.4-2.8c1-0.1,1.9-0.8,2.8-1.3c0.5-0.2,0.9-0.5,1.5-0.8c0.1,0.5,0.2,0.8,0.3,1.2c0.3,1.5,1.1,1.9,2.5,1.2c0.9-0.4,1.7-0.9,2.5-1.4c0.4-0.2,0.8-0.4,1.4-0.6c0.3,2.1,0.5,4,3,4.6c-0.1,0.1-0.1,0.2-0.2,0.3c-1.1,0.3-2.3,0.6-3.4,0.8c-0.2,0-0.4,0-0.5,0.1c-1.5,1.5-3.3,0.9-5.1,0.9c-0.9,0-1.5,0.2-2.2,1.1c-0.5,0.7-1.6,1-2.5,1.3c-1.1,0.3-2.1,0.5-1.9,2c0,0.1-0.6,0.6-0.7,0.5c-1-0.4-1.5,0.2-2.3,0.6c-0.5,0.3-1.1,0.4-1.8,0.6c-0.5,2-0.9,4.3-1.4,6.4c-0.5,1.9-1.3,3.8-1.9,5.7c-0.1,0.4,0.1,0.9,0.2,1.4h0.4c1.4-3,2.8-5.9,4.1-8.9h0.4c0,0.5,0.2,1,0.1,1.5c-0.4,2-0.9,3.9-1.2,5.8c-0.2,1.2,0.1,2.4,0.2,3.6c0,0.5-0.1,1-0.2,1.5c-0.1,0.7-0.5,1.5-0.3,2c0.9,2.1,0.2,4.3,0.5,6.4c0.1,1.2,0.8,2.4,1.1,3.6c0.5,1.7,1,3.5,1.6,5.1c0.3,0.9,0.9,1.7,1.4,2.5c0.7,1.1,1.4,2.1,2.2,3.1c0.5,0.7,2.2,0.9,2.8,0.4c0.9-0.7,1.9-1.3,2.7-2.1c0.4-0.4,0.6-1.1,0.6-1.6c0.3-2.3,0.5-4.6,0.7-6.8c0.3-2.8-1.2-4.8-2.8-6.8c-0.7-0.8-1.3-1.7-1.8-2.6c-0.2-0.3-0.3-0.6-0.3-0.9c0.2-2.7-0.9-5.4-0.1-8.1c0.2-0.6-0.5-1.4-0.8-2.2c0.6-0.5,1.4-1,0.7-2c0-0.1,0-0.2,0.1-0.3c0.9-1.3,1.7-2.7,2.8-4.3c0,1.6,0.1,2.9,0.1,4.3c1.5-0.9,1.7-1.6,1.2-3.3c-0.7-2-0.7-2,1.3-3c0.2-0.1,0.4-0.3,0.7-0.6c-1.1-0.4-1.9-1-1.4-2.3c0.4-1,2.1-1.9,3-1.6c0.2,0.1,0.4,0.3,0.5,0.2c2.7-0.7,5,1.5,7.7,1.2c0.8-0.1,1.7,1.3,2.6,2.1c-0.6,0.4-0.9,0.6-1.2,0.9c0.1,0.2,0.2,0.4,0.3,0.5c1.8,0.9,1.9,2.7,2.2,4.3c0.1,0.9,0.6,1.8-0.5,2.4c-0.2,0.1-0.2,0.5-0.2,0.8c0.2,1.1,0.1,2.1-1.1,2.8c-0.8,0.4-0.2,2.2,0.7,2.9c1,0.7,1.5,0.1,1.9-0.7c0.3-0.7,0.4-1.5,0.8-2.2c0.6-1,1.2-2.1,2.1-2.8c0.4-0.3,1.9,0.1,2.2,0.6c1.1,1.5,1.8,3.2,2.7,4.8c0.5,0.9,1.2,1.8,1.6,2.7c0.5,1.5,0.8,3.1,1.1,4.7c0,0.2-0.9,0.5-1.5,0.8c-0.4,0.9-0.9,2.1-1.3,3.4c0,0.1-0.2,0.3-0.1,0.4c0.6,1.6-0.2,3-0.7,4.5c-0.1,0.3,0.3,1.1,0.6,1.2c1.1,0.3,2.2,0.3,3.4,0.4c0.8,0.1,1.6,0,2.2,0.3c0.9,0.5,1.5,0.4,2.3-0.2c1-0.7,2.2-1.1,3.2-1.8c0.8-0.6,1.6-1.4,2.1-2.3c1.1-2.1,2.8-3.4,4.6-4.7c1.6-1,2.6-2.5,3.8-3.9c1.5-1.7,2.8-3.5,4.1-5.2c0.3-0.3,0.4-0.7,0.6-1.1c0.3-0.8,0.7-1.6,1.1-2.7c-0.3-0.2-0.7-0.8-1.3-1.1c-1.6-0.9-1.8-2.7-0.4-3.7c2.2-1.6,4.8-2.8,7.4-2.6c2.4,0.2,3.6-1.9,5.7-1.9c0.3,0,0.7-0.6,0.9-1c0.5-0.7,0.7-1.8,1.4-2.2c1.6-1.1,1.5-2.1,0.4-3.4c-0.3-0.3,0.1-1.1,0.1-1.8c-0.3,0-0.6,0-0.9-0.1c-1.2-0.2-1.8-1.4-1-2.3c2.3-2.7,2.7-6.5,4.8-9.3c0.5-0.7,1.2-1.6,2-1.8c6.3-2.1,11.9-5.5,18-7.9c0.4-0.2,0.7-0.4,1.1-0.5c1.2-0.3,1.9-0.9,1.6-2.3c-0.2-1,0.2-1.6,1.4-1.8c0.6-0.1,1.2-0.7,1.4-0.9c0.5-2.3,0.9-4.3,1.3-6.4c0.1-0.7,0-1.1-0.3-1.8c-0.6-1.1-0.5-2.6-0.7-3.9c-0.1-0.4,0.2-0.9,0.1-1.3c-0.7-1.5-0.7-2.9-0.3-4.5l1.2-5.7c0.1-0.4,0.4-0.7,0.5-1c0.3,0.2,0.7,0.3,0.9,0.6c1,1.2,1.4,1.2,2.4,0c0.6-0.8,1.3-1.5,2-2.1c0.3-0.2,0.8-0.3,1.1-0.2c2.1,0.1,3.7,0.7,4.6,3.1c1.3,3.3,3.2,6.4,4.8,9.5c0.3,0.6,0.7,0.8,1.4,0.7c1.9-0.3,1.9-0.3,2.5,1.5c0.2,0.6,0.7,1.2,1.1,1.8c0.1-0.2,0.2-0.3,0.3-0.5c0.7,0,1.6-0.3,2,0c0.9,0.7,2.3,1.3,2,2.9c-0.2,1.1-0.7,2.1-1.6,2.9c-1.2,1.2-2,2.6-3,4c-0.5-0.3-0.8-0.5-1.4-0.9c-0.6,1-1.3,1.9-1.9,2.8c0.1,0.1,0.2,0.2,0.4,0.3c-0.5,0.2-1,0.4-1.6,0.6c-0.3-0.3-0.6-0.7-1.2-1.4c0.1,1.4,0.1,2.5,0.3,3.6c0.4,1.9,0.3,2.1-1.4,2.8c0,1.4-1.5,3.3-2.9,3.3c-1.2,0-1.2,0.8-1.2,1.4c-0.2,2.9-0.3,5.8-0.3,8.6c0,0.5,0.1,1.1,0.4,1.4c1.3,0.9,1,2.1,0.7,3.3c-0.4,1.6-0.1,1.9,1.6,1.7c0.4,0,0.9,0.1,1.2,0.4c0.7,0.5,1.3,1.2,1.9,1.8c1.5,1.6,2.3,1.6,3.7-0.1c0.8-1,0.9-1,1.5,0.2c-1.4,1.1-2.8,2.3-4.3,3.5c-0.1-0.1-0.5-0.4-1.1-1c-0.2,0.8-0.4,1.4-0.6,2c-0.1,0.2-0.2,0.4-0.3,0.5c-1.1,1.1-2.1,2.2-3.2,3.1c-1.4,1.1-2.9,2-4.5,2.9c-1.2,0.7-2.7,1.1-3.7,2c-1.6,1.4-3.1,3-4.5,4.6c-0.3,0.4-0.2,1.2-0.4,2.1c0.5-0.4,0.7-0.5,0.8-0.7c0.7-1,1.4-1.7,2.8-2c1.6-0.3,3.2-1.7,4.2-3c0.9-1.3,1.7-1.5,3.2-0.8c-1.1,1.3-2.2,2.5-3.2,3.7c-2.1,2.6-4.7,4.1-7.8,5.2c-0.7,0.3-1.2,1.1-2,2c0.8,0,1.2,0.1,1.4,0c1-0.7,1.4,0,1.5,0.7c0.5,2.3,0.9,4.6,1.3,6.9c0.1,0.6-0.3,1.3-0.5,2c-0.4,1.6-0.7,3.2-1.1,4.8c-0.2,0.7-0.5,1.4-0.8,2.1c-0.1,0-0.3,0-0.4-0.1c-0.1-0.7-0.1-1.5-0.2-2.2c-1.4-0.1-2.8-0.2-4.5-0.3c1.1,1.4,1.6,3.1,3.2,3.8c1.7,0.7,2.5,2,2.9,3.5c0.6,2.2,0.6,4.4-0.6,6.7c-0.5,1-1.9,0.4-2.8-0.5c-1.4-1.3-2.4-1.8-4.3-1.4c-1.1,0.2-2-2-1.5-3.6c-1-0.3-1.9-0.5-0.7-1.8c0.4-0.4-0.6-2-1.6-2.5c0-0.6,0.1-1.2,0.1-1.9c-1.2,0.3-1.5,1.2-1.1,2.5c0.3,1,0.6,2,0.6,3c0,1.5,0.8,2.4,1.8,3.3c0.6,0.6,1.1,1.4,1.4,2.1c0.1,0.3-0.5,0.9-0.9,1.5c0.6,0.2,1.3,0.7,2,0.8C453.5,218.9,466.1,238.6,465,239.8L465,239.8z"/>
    <path id="Fill-16_1_" class="st0" d="M160.4,395.5c-0.5-0.1-0.8-0.2-1.3-0.3l1.2-4.2c-0.1-0.1-0.3-0.2-0.4-0.4c1.1-0.4,2.1-0.7,3.2-1.1c-0.6-1-1.4-1.4-2.4-0.4c-1.2,1.3-2.2,2.9-3.1,4.5c-0.4,0.8-0.6,1.5-1.6,1.8c-0.8,0.3-1.3,1.1-2.2,1.9c0.9,0.3,1.4,0.5,1.8,0.7c0.8,1.9-0.9,2.7-1.8,3.7c-1.5,1.6-3.4,3-5.2,4.3c-0.8,0.6-1.8,0.8-2.7,1.1c-0.8,0.3-1.7,0.5-1.2,1.8c0.1,0.3-0.3,0.7-0.5,1.1c-0.1-0.1-0.1-0.3-0.2-0.4c-1.5,0.5-2.9,1-4.4,1.5c-1,0.3-2.1,0.5-3.1,0.7c-0.8,0.4-1.7,0.8-2.5,1.2l-0.9,0.6c-0.4,0.2-0.9,0.5-1.3,0.5c-0.9,0-1.8-0.4-2.6,0.5c-0.1,0.1-0.8,0-1-0.2c-0.1-0.2,0-0.8,0.1-0.9c0.9-0.4,1.9-0.7,2.8-1c0.8-0.3,1.8-0.4,2.4-1c1.5-1.1,2.7-2.6,4.9-1.9c0.2,0.1,0.5-0.2,0.6-0.4c1.1-1.6,2.9-1.9,4.3-2.8c0.6-0.6,1.2-1.2,1.7-1.9c0.4-0.4,0.7-0.9,0.9-1.4c0.5-1.3,0.9-2.7,1.3-4.3c-0.6,0.1-1.1,0.3-1.8,0.4c-0.2-0.3-0.6-0.7-1.1-1.5c-0.2,1-0.3,1.5-0.5,2.4c-1.6-2.6-3.5-3.5-5.9-1.8c-0.2-0.9-0.3-1.7-0.4-2.5c0-0.2,0-0.4,0.1-0.5c0.6-1.3,0.6-1.4,0-3c-0.6,0.1-1.3,0.3-1.9,0.4c-1.2,0.3-2.2,0.3-2.5-1.2c-0.1-0.4-0.5-0.7-0.8-1.1c-0.4-0.6-0.8-1-0.2-1.8c0.4-0.4,0.7-1.1-0.3-1.6c-0.9-0.4-1-2.7-0.4-3.5c1.1-1.4,2.1-2.9,3.3-4.2c0.6-0.7,1.3-1.3,2.1,0c0.6,0.9,1.4,0.3,1.8-0.2c0.5-0.6,0.9-0.8,1.6-0.6c1,0.3,1.9-0.4,2-1.5c0.1-1.2,0.2-2.4,0.3-3.8c-0.5,0.1-1.1,0.1-1.6,0.3c-1,0.4-1.9,0.8-3,0.2c-0.4-0.2-0.9-0.2-1.3-0.2c-3,0.3-3.9-0.4-3.8-3.4c0-0.2,0.1-0.4,0.1-0.5c-0.7-0.6-1.4-1.2-2.4-2c1.2-0.5,2-0.8,2.8-1.1c1.3-0.5,2.6-1,3.9-1.4c0.5-0.1,1,0,1.5,0c0,0.8-0.2,1.9,0.1,2c0.9,0.4,1.9,0.7,2.9,0.7c0.7,0.1,1-0.5,0.6-1.2c-0.5-0.9-0.8-2.4-1.5-2.7c-1.8-0.7-1.1-2.4-2-3.4c-1-1.2-2-2.4-3.1-3.6c0.6-1.2,1.5-1.6,2.9-1.4c1.7,0.2,2.7-1,3.4-2.5c0.6-1.3,1.3-2.3,2.9-2.3c0.2,0,0.5-0.2,0.7-0.4c1-0.9,2.1-1.5,3.6-1.5c0.4,0,1-0.2,1.2-0.5c0.7-0.8,1.1-1.8,2.4-0.9c0.8,0.5,1.5,1,2.5,1.6c0.8-0.3,1.8-0.8,2.3,1c0.1,0.4,1.5,0.7,2.2,0.6c1.3-0.2,2.4,0,3.6,0.4c1.6,0.6,3.4,0.6,5,0.9c0.1,0,0.2,0,0.3-0.1c1.7-1.7,3.2-0.1,4.7,0.3c0.4,0.1,0.7,0.9,0.8,1.4c2.1,11.7,4.2,23.3,6.2,35c0.4,2.6,1.3,2.8,3.1,1.5c0.1-0.1,0.3-0.1,0.4-0.1h0.2c1.9,1.5,3.5,2.9,5.3,4.3c0.7-0.4,1.6-0.6,1.6-2c0-0.6,0.9-1.3,1.6-1.7c0.2-0.1,0.9,0.5,1.4,0.8c1.1,0.8,2.3,1.6,3.4,2.4c0.3,0.2,0.6,0.4,0.9,0.7c1.7,1.8,3.4,3.8,5.2,5.5c0.6,0.6,1.7,0.8,2.6,1.1c0.8,0.3,2.2,0.2,2.5,0.7c0.6,1.1,0.9,2.6,1,3.9c0.1,0.6-0.3,1.2-0.7,2.1c-1.1-1.3-2-2.4-3.7-2c0.2,0.8,0.4,1.7,0.6,2.5c-0.7,0.3-1.2,0.5-1.9,0.8c-0.8-0.5-1.6-1.2-1.9-2.5c-0.2-0.9-1.1-1.5-1.8-2.4c-1.4,0.9-2.5,0.4-3.6-0.9c-1.3-1.6-3-3-4.2-4.6c-1.8-2.4-4.5-3.5-7.2-4.5c-0.8-0.3-1.9-0.3-1.5-1.3c-1.3-0.1-2.4-0.1-3.6-0.2c-1.2-0.1-2.5-0.3-3.7-0.1c-1.3,0.2-2.3,0-3.5-0.4c-1.3-0.5-2.6-0.9-3.4-2.3c-0.2-0.3-1.2-0.5-1.4-0.3c-0.6,0.6-2,0.6-1.8,1.9c0.1,0.7,0.3,1.5,0.4,2.3c-1.7,0-3.4-0.3-4.3,1.8c-0.4,0.9-1.5,2-2.9,1.9c-0.4,0-0.7-0.2-1-0.3c0.2-0.3,0.4-0.6,0.6-0.8C159.7,396,160,395.8,160.4,395.5L160.4,395.5z"/>
    <path id="Fill-17_1_" class="st0" d="M257.4,386c-0.4-0.5-0.7-0.6-0.8-0.9c-0.2-0.5-0.3-1-0.4-1.5c0.5,0,1-0.1,1.4,0.1c1.5,0.4,2.9,0.7,4.4,1.2c0.8,0.3,1.5,0.9,2.1,1.4c0.8,0.7,1.6,1.5,2.4,2.3c0.2,0.2,0.5,0.8,0.4,0.9c-0.9,0.9-1.8,2.2-3,2.6c-1.4,0.5-2,1.5-2.7,2.7c-0.3,0.5-0.8,1.3-1.1,1.3c-0.9-0.1-2.1-0.3-2.2-1.6c-0.1-2-0.8-3.7-2.2-5.2c-0.2-0.2-0.2-1,0-1.3C256.3,387.2,256.9,386.6,257.4,386L257.4,386z"/>
    <path id="Fill-18_1_" class="st0" d="M251.4,381.4c-0.5-0.3-1-0.5-1.5-0.9c-0.7-0.6-1.4-1.3-2-2c-0.2-0.3-0.2-0.8-0.2-1.2c0-0.2,0.4-0.5,0.6-0.5c1.5,0.3,3.1,0.6,4.6,1.1c0.4,0.1,1,0.6,1,0.9c0,0.5-0.3,1-0.7,1.3C252.8,380.7,252.1,381,251.4,381.4L251.4,381.4z"/>
    <path id="Fill-1" class="st1" d="M526.4,471.9l4.2,5.6c1.1,1.4,3.3,1,3.8-0.8l1.7-6.8c0.2-0.7,0.7-1.3,1.4-1.5l6.5-2.4c1.7-0.6,1.9-2.9,0.4-3.9l-5.8-3.8c-0.6-0.4-1-1.1-1-1.8l-0.2-7c-0.1-1.8-2.1-2.8-3.5-1.6l-5.3,4.5c-0.5,0.5-1.3,0.6-2,0.4l-6.6-2c-1.7-0.5-3.3,1.2-2.6,2.9l2.5,6.6c0.3,0.7,0.2,1.4-0.2,2l-3.9,5.8c-1,1.5,0.1,3.5,1.9,3.4l6.9-0.4C525.2,471,525.9,471.3,526.4,471.9"/>
    <path id="Fill-1_1_" class="st1" d="M144.4,498.7l3.1,3.9c0.8,1,2.4,0.7,2.8-0.6l1.3-4.8c0.1-0.5,0.5-0.9,1-1.1l4.8-1.7c1.2-0.4,1.4-2.1,0.3-2.8l-4.3-2.7c-0.4-0.3-0.7-0.8-0.7-1.3l-0.2-5c0-1.3-1.6-2-2.6-1.2l-3.9,3.2c-0.4,0.3-0.9,0.4-1.4,0.3l-4.9-1.4c-1.3-0.4-2.4,0.9-1.9,2.1l1.8,4.6c0.2,0.5,0.1,1-0.2,1.4l-2.8,4.1c-0.7,1.1,0.1,2.5,1.4,2.4l5-0.3C143.6,498.1,144.1,498.3,144.4,498.7"/>
    <path id="Fill-1_2_" class="st1" d="M61.4,114.4v7.9c0,2,2.3,3.1,3.9,1.8l6.2-5c0.6-0.5,1.5-0.7,2.2-0.5l7.4,2.2c1.9,0.6,3.7-1.4,3.1-3.3l-2.6-7.3c-0.3-0.8-0.1-1.6,0.3-2.3l4.6-6.5c1.2-1.7,0-4-2-3.8l-7.8,0.5c-0.8,0-1.6-0.3-2-1l-4.6-6.2c-1.2-1.6-3.7-1.1-4.3,0.9l-2.2,7.6c-0.2,0.8-0.8,1.4-1.6,1.7l-7.4,2.7c-1.9,0.7-2.3,3.3-0.6,4.4l6.4,4.3C61,112.8,61.4,113.6,61.4,114.4"/>
    <path id="Fill-15" class="st2" d="M462.2,236.5c-0.2,0.2-0.5,0.5-0.4,0.7c0.1,2-1.3,2.6-2.8,3c-0.1,1.2-0.2,2.3-0.2,3.4c1,0.1,1.9,0.3,3.1,0.4c-0.2,0.7-0.3,1.4-0.6,2c-0.2,0.4-0.6,0.9-0.9,0.9c-2.6-0.1-3.8,1.9-5.2,3.6c-1.5,1.8-2.6,3.9-2.5,6.4c0.1,0.8-0.4,1.3-1.3,1.6c-3.7,1.3-6.3,4.3-5.8,8.9c0.2,1.5-0.4,2.5-1.5,3.5c-0.5,0.4-0.7,1-1.1,1.6c-1.1,1.8-2.2,3.6-3.4,5.3c-0.3,0.4-0.8,0.5-1.3,0.8c1.2,1.8-0.5,2.8-1.3,4c-0.3,0.5-1,0.9-0.4,1.6c0.1,0.1,0,0.4-0.1,0.5c-1.2,2.4-0.9,5.1-1.2,7.7c-0.4,3.5,0.9,6.3,2.5,9.1c2,3.5,4.1,7,7.2,9.7c1.4,1.3,2.9,2.4,4.3,3.7c0.7,0.6,1.3,1.2,1.2,2.5c-0.1,1.1,1,2.4,1.8,3.4c1,1.3,2.2,2.4,3.3,3.7c1.2,1.4,2.3,2.9,3.6,4.3c1.5,1.7,1.7,4,2.3,6c0.4,1.4,0.8,2.9,1,4.3c0.1,0.5-0.2,1.1-0.2,1.6c-0.1,1-0.5,2.1-0.1,2.9c0.4,0.9,0.3,1.6-0.2,2.1c-0.7,0.7-1.6,1.2-2.5,1.8c-0.6,0.4-1.3,0.7-1.9,1.1c-1,0.7-1.9,0.5-2-0.7c-0.3-2.1-2-3-3.3-4.3c-0.4-0.4-1.6-0.6-2.2-0.3c-1.4,0.6-2.1-0.1-2.6-1.1c-0.8-1.5-1.6-2.8-3.3-3.5c-0.5-0.2-0.7-1.3-1.1-2c-0.2-0.5-0.4-1.1-0.6-1.7c-0.1,0-0.3,0-0.4,0.1c-0.1,0.7-0.2,1.3-0.4,2.3c-2.2-2-4.1-3.9-6.1-5.7c0.3-1,0.7-2,1-3.1c0.5-1.5,0-2-1.6-1.7c-0.2,0-0.3,0.1-0.2,0.1c0.2,1,0.5,1.9,0.7,2.8c-0.2,0.1-0.3,0.2-0.5,0.2c-0.5-0.7-1.2-1.4-1.5-2.2c-0.4-1.2-0.6-2.6-0.8-3.9c-0.2-1.6-0.3-3.1-0.6-4.7c-0.2-1-2.8-3.2-3.8-3.2c-2.3,0-3.7-1.5-5.3-2.9c-1.2-1-2.8-1.6-4.3-2.2c-1.2-0.5-2.6-0.8-3.8,0.1c-0.3,0.2-0.6,0.3-0.7,0.6c-0.7,1.9-2,3.3-3.6,4.3c-1,0.6-2.2,0.9-3.4,1.4c-0.2-2.2-2.3-1.8-3.6-2.6c-2.2-1.3-4.8-1.5-7.2-1.2c-2,0.2-3.9,1.2-5.8,2s-3.7,1.8-5.6,2.7c-0.1,0.1-0.3,0-0.5,0c0.7-1.4-0.1-3.1-2.1-4.1c-0.2,1.2-0.5,2.3-0.7,3.5l-0.3-0.3c-0.6,0.4-1.2,0.9-1.9,1.2c-0.7,0.3-1.6,0.6-2.3,0.5c-1.1-0.3-1.9,0.1-2.8,0.5c-1.2,0.6-2.4,0.9-3.3,2.3c-0.7,1-1.2,2.4-2.8,3c1,0.4,1.5,0.7,2,0.7c0.3,0,0.7-0.4,1-0.8c0.2-0.3,0.3-0.8,0.4-1.2c0.5,0.3,1.1,0.6,1.5,1c0.2,0.2,0.3,0.9,0.2,1.1c-0.4,0.5-1,0.9-1.8,1.5c-0.4,1.9,0.3,2.5,2.6,2.6c1.3,0,2.5,0.5,3.8,0.8c-0.3,2-1.8,2.6-3.2,1.7c-0.8-0.5-1.7-0.8-2.6-1.1c-0.6-0.2-1.3-0.4-2-0.6v-0.4c-0.5,0.2-0.9,0.3-1.5,0.5c0.1,0.3,0.3,0.5,0.2,0.6c-0.1,0.9-0.3,1.8-0.5,2.6c-0.7-0.3-1.4-0.7-2.2-1.2c-0.6,0.7-1.3,1.7-2.2,2.5c-0.4,0.4-1.2,0.7-1.8,0.6c-1.3-0.2-2.7-0.6-4.1-1c0.2-0.6,0.4-1.1,0.7-1.9c-0.5-0.1-1-0.3-1.5-0.4c-0.8-0.1-1.7,0.1-2.1-1c-0.1-0.3-1-0.5-1.5-0.6c-0.7-0.1-1.4,0-2.1,0.1c-0.4,0.1-0.8,0.4-1.2,0.6c0.3,0.5,0.6,0.9,1.1,1.6c-0.2,0.1-0.6,0.4-1,0.4c-2.2,0-4.5,0.3-6.6-0.2c-2.2-0.5-4.2-0.1-6.2,0.6c-3,1.1-5.7,2.8-8.1,4.9c-1.5,1.3-2.4,3.1-3.8,4.5c-1.7,1.8-3.5,3.4-5.3,5.1c-2.5,2.3-5.1,4.4-7.4,6.8c-1.2,1.3-1.8,3.3-2.4,5c-0.8,2.3-2,4.7-1.4,7.2c0.2,1.2,0.7,2.3,1.2,3.4c0.7,1.8,1.6,3.6,2.4,5.5c-1.2,1.7-1.8,1.9-3.5,0.6c-1.1-0.8-2.1-0.5-3.2-0.5c-1,0.1-2.2,0.4-2.9-0.1c-1.4-0.9-3-0.8-4.4-1.2c-0.8-0.2-1.5-0.4-2.3-0.5c-1-0.2-1.5-0.8-1.9-1.8c-0.5-1.2-0.8-2.6-2.3-3.1c-0.2-0.1-0.4-0.3-0.5-0.5c-0.4-1.4-0.7-2.9-1.2-4.3c-0.2-0.5-0.5-1.4-0.9-1.4c-2.3-0.4-3.3-2.3-4.7-3.7c-0.6-0.6-1.3-1-2-1.5c-0.3-0.2-0.5-0.5-0.7-0.8c-1.1-1.8-2.5-3.5-3.3-5.4c-1.4-3.5-4.9-4.7-7.4-7.1c-0.7-0.6-2.2-0.3-3.4-0.4c-1.6-0.2-3.2,0.5-4.9-0.2c-1-0.4-3.6,2.4-4.1,3.9c-0.5,1.7-1.3,3.4-2,5.1c-0.1,0.3-0.7,0.6-1,0.5c-1.6-0.5-3.2-1.2-4.7-1.8c-0.4-0.2-0.7-0.4-1.1-0.6c-1.9-1-3.9-1.8-5.5-3c-1-0.8-1.8-2.2-2-3.5c-0.5-3-2.1-5.2-4.3-7c-1-0.8-2.4-1.1-3.5-1.9c-1.5-1.1-2.8-2.4-4.1-3.7c0,0,0-0.1-0.1-0.1c-1.9-0.3-2.6-2.1-3.8-3.2c-0.7-0.6-2-0.7-3-0.6c-3.7,0.1-7.4,0.3-11.2,0.5c-0.3,0-0.6,0-1.1-0.1c0.1,1.1,0.1,2.1,0.2,3.1c0,1-0.1,1.7-1.5,1.6c-2.4-0.1-4.8,0.3-7.3,0.4c-4.8,0.1-9.6,0.1-14.4,0.4c-2.6,0.2-4.6-1.2-6.8-1.9c-5.3-1.7-10.5-3.9-15.8-5.8c-3.1-1.2-6.2-2.3-9.3-3.5c-1.4-0.5-0.7-1.4-0.3-2.5c-1,0-2-0.1-3-0.1l-8.4,0.6c-2.4,0.1-4.9,0.1-7.3,0.2c-0.9,0-1.3-0.4-1.4-1.2c-0.1-0.5-0.2-0.9-0.2-1.4c-0.1-3.5-2.3-5.7-4.8-7.9c-1.4-1.2-2.8-1.7-4.5-1.9c0.6-2.2-0.5-3.3-2.6-3.2c-1,0-2.1-0.6-3-1.1c-0.6-0.4-1-1.2-1.5-1.8c-0.8-0.8-1.6-1.5-2.9-1.3c-0.6,0.1-1.3-0.4-2-0.5c-1.1-0.2-2.2-0.4-3.2-0.4c-1.3,0-2.1-0.7-2-2c0.1-1.4,0.4-2.8,0.1-4.1c-0.2-1.2-1-2.3-1.7-3.2c-1.7-2.2-3.6-4.2-4.5-6.9c-0.3-0.9-1.2-1.7-2-2.4c-1-1-7.6-22.6-8.6-23.8c-1-1.3-2.2-2.4-2.9-3.8c-0.6-1.1-0.7-2.5-0.7-3.8c0-1.1,0.3-2.1,0.5-3.2c0.3-1.8-0.4-3.4-1.4-4.8c-0.5-0.7-1-1.4-1.5-2c-1.1-1.4-1-3.1,0.1-4.6c0.8-1.2,1.4-2.7,2-4.1c1.2-2.9,0.6-6,0.5-9c0-0.2,0-0.4-0.1-0.5c-1.8-1.8-0.6-4.1-1.1-6.1c-0.7-3.3,1.7-5.8,2.5-8.7c0.8-2.8,1.7-5.7,2.3-8.5c0.9-4.1,1.7-8.2,2.5-12.3c0.2-0.9,0.3-1.8,0.4-2.7c0-1.3,0.5-2.2,1.9-2.5c0.2-0.1,0.5-0.3,0.7-0.7c-0.4,0-0.8,0.1-1.1,0c-0.6-0.2-1.3-0.3-1.6-0.7c-0.2-0.3,0.3-1,0.5-1.5c0.3-0.7,0.7-1.3,1.1-1.9h-0.5c-0.4-0.5-1-1-1-1.5c0-0.4,0.7-0.9,1.2-1.4c-2-1.9-1.9-4.7-2.3-7.4c-0.1-0.7-0.5-1.3-0.9-1.9c-0.4-0.6-0.8-4.2-0.3-4.7c0.2-0.2,1-0.3,1.2-0.1c2.4,2,5.1,2.9,8.1,3.2c1.2,0.1,2.3,0.3,3.4,0.5c0.3-1.1,0.6-1.9,0.9-2.8c1.2,1.1,1.2,1.1-0.1,2c0.7,0.8,1.4,1.6,2.3,2.7c-0.3-1.7-0.5-3-0.7-4.2c0-0.2-0.2-0.4-0.1-0.5c1.1-1.7-0.2-2.7-1-3.9c-0.3-0.4-0.4-0.9-0.6-1.4c0.5-0.1,1-0.3,1.5-0.2c10.3,0.8,20.6,1.8,30.9,2.6c6.7,0.5,13.4,0.7,20.1,0.9c6.5,0.2,13,0.3,19.5,0.2c4.8,0,9.6-0.3,14.5-0.5c3.8-0.1,7.6-0.2,11.4-0.4c3.4-0.2,6.9-0.4,10.3-0.6c3.7-0.2,7.3-0.3,11-0.6c2.8-0.2,5.5-0.5,8.3-0.8c5.3-0.6,10.5-1.1,15.8-1.7c1.6-0.2,3.2-0.3,4.8-0.6c3.9-0.6,7.8-1.1,11.7-1.8c7-1.1,13.9-2.3,20.9-3.4c0.4-0.1,0.7-0.2,1.3-0.3c-0.2-1.2-0.4-2.4-0.6-3.7c1.6-0.4,2.4,0.2,2.8,1.5c0.3,1,0.6,2,1.1,3c0.2,0.5,0.7,1.1,1.2,1.2c1,0.2,2,0.2,3.1,0.2c0.8,0,1.6-0.6,2.2,0.5c0.1,0.1,1.7,0,1.9-0.4c1-2,2.6-1.3,4.1-1.1c1,0.2,2,0.7,3.1,0.9c0.7,0.1,1.5,0.1,2.2,0.1c0.1,0,0.4-0.1,0.4,0c0.6,0.9,1.5,1,2.5,1.1c0.4,0,0.7,0.6,1.1,0.7c1.3,0.4,2.1-0.3,2.9-1.1c0.5-0.5,1-0.9,1.6-1.5c0.6,1.3,1.5,1,2.6,0.8c1.3-0.2,2.7-1.1,4.1,0.1c0.4,0.3,1.5-0.2,2.3-0.3c0.1,0.1,0.1,0.2,0.2,0.3c-1.7,1.2-3.3,2.3-5,3.5c-1.8,1.3-3.2,2.9-4.3,4.9c-1.3,2.4-3.1,4.7-4.7,7.1c0.8,0.5,1.6,0.3,2.4-0.3c1.6-1.1,3.2-2.3,4.8-3.5c0.3-0.2,0.9-0.3,1.2-0.1c0.2,0.1,0.2,0.8,0.2,1.1c-0.1,0.7-0.4,1.3-0.5,1.8h2.7c1.5-0.1,2.3-1.3,3.3-2c0.9-0.7,1.7-1.5,2.7-2c1.6-0.9,2.7-2,3.7-3.6c1.1-1.7,2.4-3.3,3.8-4.6c0.6-0.6,1.8-0.6,2.9-0.8c-1.7,2-3.3,4-3.2,6.5c1.1-0.3,2-0.7,3-0.9c1.4-0.2,2.5,0.3,3.5,1.4c1.3,1.6,2.3,1.7,3.7,0.5c1.9,0.7,2.5,0.5,3.7-1.1c1.1-1.5,2.5-2.5,4.4-2.8c1-0.1,1.9-0.8,2.8-1.3c0.5-0.2,0.9-0.5,1.5-0.8c0.1,0.5,0.2,0.8,0.3,1.2c0.3,1.5,1.1,1.9,2.5,1.2c0.9-0.4,1.7-0.9,2.5-1.4c0.4-0.2,0.8-0.4,1.4-0.6c0.3,2.1,0.5,4,3,4.6c-0.1,0.1-0.1,0.2-0.2,0.3c-1.1,0.3-2.3,0.6-3.4,0.8c-0.2,0-0.4,0-0.5,0.1c-1.5,1.5-3.3,0.9-5.1,0.9c-0.9,0-1.5,0.2-2.2,1.1c-0.5,0.7-1.6,1-2.5,1.3c-1.1,0.3-2.1,0.5-1.9,2c0,0.1-0.6,0.6-0.7,0.5c-1-0.4-1.5,0.2-2.3,0.6c-0.5,0.3-1.1,0.4-1.8,0.6c-0.5,2-0.9,4.3-1.4,6.4c-0.5,1.9-1.3,3.8-1.9,5.7c-0.1,0.4,0.1,0.9,0.2,1.4h0.4c1.4-3,2.8-5.9,4.1-8.9h0.4c0,0.5,0.2,1,0.1,1.5c-0.4,2-0.9,3.9-1.2,5.8c-0.2,1.2,0.1,2.4,0.2,3.6c0,0.5-0.1,1-0.2,1.5c-0.1,0.7-0.5,1.5-0.3,2c0.9,2.1,0.2,4.3,0.5,6.4c0.1,1.2,0.8,2.4,1.1,3.6c0.5,1.7,1,3.5,1.6,5.1c0.3,0.9,0.9,1.7,1.4,2.5c0.7,1.1,1.4,2.1,2.2,3.1c0.5,0.7,2.2,0.9,2.8,0.4c0.9-0.7,1.9-1.3,2.7-2.1c0.4-0.4,0.6-1.1,0.6-1.6c0.3-2.3,0.5-4.6,0.7-6.8c0.3-2.8-1.2-4.8-2.8-6.8c-0.7-0.8-1.3-1.7-1.8-2.6c-0.2-0.3-0.3-0.6-0.3-0.9c0.2-2.7-0.9-5.4-0.1-8.1c0.2-0.6-0.5-1.4-0.8-2.2c0.6-0.5,1.4-1,0.7-2c0-0.1,0-0.2,0.1-0.3c0.9-1.3,1.7-2.7,2.8-4.3c0,1.6,0.1,2.9,0.1,4.3c1.5-0.9,1.7-1.6,1.2-3.3c-0.7-2-0.7-2,1.3-3c0.2-0.1,0.4-0.3,0.7-0.6c-1.1-0.4-1.9-1-1.4-2.3c0.4-1,2.1-1.9,3-1.6c0.2,0.1,0.4,0.3,0.5,0.2c2.7-0.7,5,1.5,7.7,1.2c0.8-0.1,1.7,1.3,2.6,2.1c-0.6,0.4-0.9,0.6-1.2,0.9c0.1,0.2,0.2,0.4,0.3,0.5c1.8,0.9,1.9,2.7,2.2,4.3c0.1,0.9,0.6,1.8-0.5,2.4c-0.2,0.1-0.2,0.5-0.2,0.8c0.2,1.1,0.1,2.1-1.1,2.8c-0.8,0.4-0.2,2.2,0.7,2.9c1,0.7,1.5,0.1,1.9-0.7c0.3-0.7,0.4-1.5,0.8-2.2c0.6-1,1.2-2.1,2.1-2.8c0.4-0.3,1.9,0.1,2.2,0.6c1.1,1.5,1.8,3.2,2.7,4.8c0.5,0.9,1.2,1.8,1.6,2.7c0.5,1.5,0.8,3.1,1.1,4.7c0,0.2-0.9,0.5-1.5,0.8c-0.4,0.9-0.9,2.1-1.3,3.4c0,0.1-0.2,0.3-0.1,0.4c0.6,1.6-0.2,3-0.7,4.5c-0.1,0.3,0.3,1.1,0.6,1.2c1.1,0.3,2.2,0.3,3.4,0.4c0.8,0.1,1.6,0,2.2,0.3c0.9,0.5,1.5,0.4,2.3-0.2c1-0.7,2.2-1.1,3.2-1.8c0.8-0.6,1.6-1.4,2.1-2.3c1.1-2.1,2.8-3.4,4.6-4.7c1.6-1,2.6-2.5,3.8-3.9c1.5-1.7,2.8-3.5,4.1-5.2c0.3-0.3,0.4-0.7,0.6-1.1c0.3-0.8,0.7-1.6,1.1-2.7c-0.3-0.2-0.7-0.8-1.3-1.1c-1.6-0.9-1.8-2.7-0.4-3.7c2.2-1.6,4.8-2.8,7.4-2.6c2.4,0.2,3.6-1.9,5.7-1.9c0.3,0,0.7-0.6,0.9-1c0.5-0.7,0.7-1.8,1.4-2.2c1.6-1.1,1.5-2.1,0.4-3.4c-0.3-0.3,0.1-1.1,0.1-1.8c-0.3,0-0.6,0-0.9-0.1c-1.2-0.2-1.8-1.4-1-2.3c2.3-2.7,2.7-6.5,4.8-9.3c0.5-0.7,1.2-1.6,2-1.8c6.3-2.1,11.9-5.5,18-7.9c0.4-0.2,0.7-0.4,1.1-0.5c1.2-0.3,1.9-0.9,1.6-2.3c-0.2-1,0.2-1.6,1.4-1.8c0.6-0.1,1.2-0.7,1.4-0.9c0.5-2.3,0.9-4.3,1.3-6.4c0.1-0.7,0-1.1-0.3-1.8c-0.6-1.1-0.5-2.6-0.7-3.9c-0.1-0.4,0.2-0.9,0.1-1.3c-0.7-1.5-0.7-2.9-0.3-4.5l1.2-5.7c0.1-0.4,0.4-0.7,0.5-1c0.3,0.2,0.7,0.3,0.9,0.6c1,1.2,1.4,1.2,2.4,0c0.6-0.8,1.3-1.5,2-2.1c0.3-0.2,0.8-0.3,1.1-0.2c2.1,0.1,3.7,0.7,4.6,3.1c1.3,3.3,3.2,6.4,4.8,9.5c0.3,0.6,0.7,0.8,1.4,0.7c1.9-0.3,1.9-0.3,2.5,1.5c0.2,0.6,0.7,1.2,1.1,1.8c0.1-0.2,0.2-0.3,0.3-0.5c0.7,0,1.6-0.3,2,0c0.9,0.7,2.3,1.3,2,2.9c-0.2,1.1-0.7,2.1-1.6,2.9c-1.2,1.2-2,2.6-3,4c-0.5-0.3-0.8-0.5-1.4-0.9c-0.6,1-1.3,1.9-1.9,2.8c0.1,0.1,0.2,0.2,0.4,0.3c-0.5,0.2-1,0.4-1.6,0.6c-0.3-0.3-0.6-0.7-1.2-1.4c0.1,1.4,0.1,2.5,0.3,3.6c0.4,1.9,0.3,2.1-1.4,2.8c0,1.4-1.5,3.3-2.9,3.3c-1.2,0-1.2,0.8-1.2,1.4c-0.2,2.9-0.3,5.8-0.3,8.6c0,0.5,0.1,1.1,0.4,1.4c1.3,0.9,1,2.1,0.7,3.3c-0.4,1.6-0.1,1.9,1.6,1.7c0.4,0,0.9,0.1,1.2,0.4c0.7,0.5,1.3,1.2,1.9,1.8c1.5,1.6,2.3,1.6,3.7-0.1c0.8-1,0.9-1,1.5,0.2c-1.4,1.1-2.8,2.3-4.3,3.5c-0.1-0.1-0.5-0.4-1.1-1c-0.2,0.8-0.4,1.4-0.6,2c-0.1,0.2-0.2,0.4-0.3,0.5c-1.1,1.1-2.1,2.2-3.2,3.1c-1.4,1.1-2.9,2-4.5,2.9c-1.2,0.7-2.7,1.1-3.7,2c-1.6,1.4-3.1,3-4.5,4.6c-0.3,0.4-0.2,1.2-0.4,2.1c0.5-0.4,0.7-0.5,0.8-0.7c0.7-1,1.4-1.7,2.8-2c1.6-0.3,3.2-1.7,4.2-3c0.9-1.3,1.7-1.5,3.2-0.8c-1.1,1.3-2.2,2.5-3.2,3.7c-2.1,2.6-4.7,4.1-7.8,5.2c-0.7,0.3-1.2,1.1-2,2c0.8,0,1.2,0.1,1.4,0c1-0.7,1.4,0,1.5,0.7c0.5,2.3,0.9,4.6,1.3,6.9c0.1,0.6-0.3,1.3-0.5,2c-0.4,1.6-0.7,3.2-1.1,4.8c-0.2,0.7-0.5,1.4-0.8,2.1c-0.1,0-0.3,0-0.4-0.1c-0.1-0.7-0.1-1.5-0.2-2.2c-1.4-0.1-2.8-0.2-4.5-0.3c1.1,1.4,1.6,3.1,3.2,3.8c1.7,0.7,2.5,2,2.9,3.5c0.6,2.2,0.6,4.4-0.6,6.7c-0.5,1-1.9,0.4-2.8-0.5c-1.4-1.3-2.4-1.8-4.3-1.4c-1.1,0.2-2-2-1.5-3.6c-1-0.3-1.9-0.5-0.7-1.8c0.4-0.4-0.6-2-1.6-2.5c0-0.6,0.1-1.2,0.1-1.9c-1.2,0.3-1.5,1.2-1.1,2.5c0.3,1,0.6,2,0.6,3c0,1.5,0.8,2.4,1.8,3.3c0.6,0.6,1.1,1.4,1.4,2.1c0.1,0.3-0.5,0.9-0.9,1.5c0.6,0.2,1.3,0.7,2,0.8C450.7,215.6,463.3,235.3,462.2,236.5L462.2,236.5z"/>
    <path id="Fill-16" class="st2" d="M157.6,392.2c-0.5-0.1-0.8-0.2-1.3-0.3l1.2-4.2c-0.1-0.1-0.3-0.2-0.4-0.4c1.1-0.4,2.1-0.7,3.2-1.1c-0.6-1-1.4-1.4-2.4-0.4c-1.2,1.3-2.2,2.9-3.1,4.5c-0.4,0.8-0.6,1.5-1.6,1.8c-0.8,0.3-1.3,1.1-2.2,1.9c0.9,0.3,1.4,0.5,1.8,0.7c0.8,1.9-0.9,2.7-1.8,3.7c-1.5,1.6-3.4,3-5.2,4.3c-0.8,0.6-1.8,0.8-2.7,1.1c-0.8,0.3-1.7,0.5-1.2,1.8c0.1,0.3-0.3,0.7-0.5,1.1c-0.1-0.1-0.1-0.3-0.2-0.4c-1.5,0.5-2.9,1-4.4,1.5c-1,0.3-2.1,0.5-3.1,0.7c-0.8,0.4-1.7,0.8-2.5,1.2l-0.9,0.6c-0.4,0.2-0.9,0.5-1.3,0.5c-0.9,0-1.8-0.4-2.6,0.5c-0.1,0.1-0.8,0-1-0.2c-0.1-0.2,0-0.8,0.1-0.9c0.9-0.4,1.9-0.7,2.8-1c0.8-0.3,1.8-0.4,2.4-1c1.5-1.1,2.7-2.6,4.9-1.9c0.2,0.1,0.5-0.2,0.6-0.4c1.1-1.6,2.9-1.9,4.3-2.8c0.6-0.6,1.2-1.2,1.7-1.9c0.4-0.4,0.7-0.9,0.9-1.4c0.5-1.3,0.9-2.7,1.3-4.3c-0.6,0.1-1.1,0.3-1.8,0.4c-0.2-0.3-0.6-0.7-1.1-1.5c-0.2,1-0.3,1.5-0.5,2.4c-1.6-2.6-3.5-3.5-5.9-1.8c-0.2-0.9-0.3-1.7-0.4-2.5c0-0.2,0-0.4,0.1-0.5c0.6-1.3,0.6-1.4,0-3c-0.6,0.1-1.3,0.3-1.9,0.4c-1.2,0.3-2.2,0.3-2.5-1.2c-0.1-0.4-0.5-0.7-0.8-1.1c-0.4-0.6-0.8-1-0.2-1.8c0.4-0.4,0.7-1.1-0.3-1.6c-0.9-0.4-1-2.7-0.4-3.5c1.1-1.4,2.1-2.9,3.3-4.2c0.6-0.7,1.3-1.3,2.1,0c0.6,0.9,1.4,0.3,1.8-0.2c0.5-0.6,0.9-0.8,1.6-0.6c1,0.3,1.9-0.4,2-1.5c0.1-1.2,0.2-2.4,0.3-3.8c-0.5,0.1-1.1,0.1-1.6,0.3c-1,0.4-1.9,0.8-3,0.2c-0.4-0.2-0.9-0.2-1.3-0.2c-3,0.3-3.9-0.4-3.8-3.4c0-0.2,0.1-0.4,0.1-0.5c-0.7-0.6-1.4-1.2-2.4-2c1.2-0.5,2-0.8,2.8-1.1c1.3-0.5,2.6-1,3.9-1.4c0.5-0.1,1,0,1.5,0c0,0.8-0.2,1.9,0.1,2c0.9,0.4,1.9,0.7,2.9,0.7c0.7,0.1,1-0.5,0.6-1.2c-0.5-0.9-0.8-2.4-1.5-2.7c-1.8-0.7-1.1-2.4-2-3.4c-1-1.2-2-2.4-3.1-3.6c0.6-1.2,1.5-1.6,2.9-1.4c1.7,0.2,2.7-1,3.4-2.5c0.6-1.3,1.3-2.3,2.9-2.3c0.2,0,0.5-0.2,0.7-0.4c1-0.9,2.1-1.5,3.6-1.5c0.4,0,1-0.2,1.2-0.5c0.7-0.8,1.1-1.8,2.4-0.9c0.8,0.5,1.5,1,2.5,1.6c0.8-0.3,1.8-0.8,2.3,1c0.1,0.4,1.5,0.7,2.2,0.6c1.3-0.2,2.4,0,3.6,0.4c1.6,0.6,3.4,0.6,5,0.9c0.1,0,0.2,0,0.3-0.1c1.7-1.7,3.2-0.1,4.7,0.3c0.4,0.1,0.7,0.9,0.8,1.4c2.1,11.7,4.2,23.3,6.2,35c0.4,2.6,1.3,2.8,3.1,1.5c0.1-0.1,0.3-0.1,0.4-0.1h0.2c1.9,1.5,3.5,2.9,5.3,4.3c0.7-0.4,1.6-0.6,1.6-2c0-0.6,0.9-1.3,1.6-1.7c0.2-0.1,0.9,0.5,1.4,0.8c1.1,0.8,2.3,1.6,3.4,2.4c0.3,0.2,0.6,0.4,0.9,0.7c1.7,1.8,3.4,3.8,5.2,5.5c0.6,0.6,1.7,0.8,2.6,1.1c0.8,0.3,2.2,0.2,2.5,0.7c0.6,1.1,0.9,2.6,1,3.9c0.1,0.6-0.3,1.2-0.7,2.1c-1.1-1.3-2-2.4-3.7-2c0.2,0.8,0.4,1.7,0.6,2.5c-0.7,0.3-1.2,0.5-1.9,0.8c-0.8-0.5-1.6-1.2-1.9-2.5c-0.2-0.9-1.1-1.5-1.8-2.4c-1.4,0.9-2.5,0.4-3.6-0.9c-1.3-1.6-3-3-4.2-4.6c-1.8-2.4-4.5-3.5-7.2-4.5c-0.8-0.3-1.9-0.3-1.5-1.3c-1.3-0.1-2.4-0.1-3.6-0.2c-1.2-0.1-2.5-0.3-3.7-0.1c-1.3,0.2-2.3,0-3.5-0.4c-1.3-0.5-2.6-0.9-3.4-2.3c-0.2-0.3-1.2-0.5-1.4-0.3c-0.6,0.6-2,0.6-1.8,1.9c0.1,0.7,0.3,1.5,0.4,2.3c-1.7,0-3.4-0.3-4.3,1.8c-0.4,0.9-1.5,2-2.9,1.9c-0.4,0-0.7-0.2-1-0.3c0.2-0.3,0.4-0.6,0.6-0.8C156.9,392.7,157.2,392.5,157.6,392.2L157.6,392.2z"/>
<path id="Fill-17" class="st2" d="M254.6,382.7c-0.4-0.5-0.7-0.6-0.8-0.9c-0.2-0.5-0.3-1-0.4-1.5c0.5,0,1-0.1,1.4,0.1c1.5,0.4,2.9,0.7,4.4,1.2c0.8,0.3,1.5,0.9,2.1,1.4c0.8,0.7,1.6,1.5,2.4,2.3c0.2,0.2,0.5,0.8,0.4,0.9c-0.9,0.9-1.8,2.2-3,2.6c-1.4,0.5-2,1.5-2.7,2.7c-0.3,0.5-0.8,1.3-1.1,1.3c-0.9-0.1-2.1-0.3-2.2-1.6c-0.1-2-0.8-3.7-2.2-5.2c-0.2-0.2-0.2-1,0-1.3C253.5,383.9,254.1,383.3,254.6,382.7L254.6,382.7z"/>
<path id="Fill-18" class="st2" d="M248.6,378.1c-0.5-0.3-1-0.5-1.5-0.9c-0.7-0.6-1.4-1.3-2-2c-0.2-0.3-0.2-0.8-0.2-1.2c0-0.2,0.4-0.5,0.6-0.5c1.5,0.3,3.1,0.6,4.6,1.1c0.4,0.1,1,0.6,1,0.9c0,0.5-0.3,1-0.7,1.3C250,377.4,249.3,377.7,248.6,378.1L248.6,378.1z"/>
<path id="Fill-19" class="st2" d="M231.5,369.9c1.3,1.1,2.5,2.1,3.9,3.3c-0.7,0.1-1.2,0.3-1.7,0.4c-0.8,0.1-1.7,0.4-2.3,0.1c-0.9-0.3-1.6-1-2.2-1.7c-0.1-0.1,0.5-0.8,0.9-1.1C230.4,370.6,230.9,370.3,231.5,369.9L231.5,369.9z"/>
<path id="Fill-20" class="st2" d="M238.7,374c0.3-1.5,1.1-1.7,4.8-1.5C243.2,374.2,243.2,374.2,238.7,374z"/>
<path id="Fill-21" class="st2" d="M241,375.5c1.4-0.4,2.5-0.9,3.1,0.3c0.1,0.2-0.3,0.9-0.7,1.1C241.9,377.6,242,376.2,241,375.5L241,375.5z"/>
<g class="dot-3">
	<path id="Fill-1_6_" class="st3" d="M419,268.4c-5.6,0-10.2,4.5-10.2,10c0,6.8,9.1,16.9,9.5,17.3s1,0.4,1.4,0s9.5-10.5,9.5-17.3
		C429.2,272.9,424.6,268.4,419,268.4"/>
	<path id="Oval_3_" class="st2" d="M419,285.3c3.6,0,6.6-3,6.6-6.6s-3-6.6-6.6-6.6s-6.6,3-6.6,6.6S415.3,285.3,419,285.3z"/>
</g>
<g class="dot-1">
	<path id="Fill-1_3_" class="st3" d="M103,256.3c-5.6,0-10.2,4.5-10.2,10c0,6.8,9.1,16.9,9.5,17.3s1,0.4,1.4,0s9.5-10.5,9.5-17.3
		C113.2,260.8,108.6,256.3,103,256.3"/>
	<path id="Oval" class="st2" d="M103,273.1c3.6,0,6.6-3,6.6-6.6s-3-6.6-6.6-6.6s-6.6,3-6.6,6.6S99.3,273.1,103,273.1z"/>
</g>
<g class="dot-2">
	<path id="Fill-1_4_" class="st3" d="M175,272.3c-5.6,0-10.2,4.5-10.2,10c0,6.8,9.1,16.9,9.5,17.3s1,0.4,1.4,0s9.5-10.5,9.5-17.3
		C185.2,276.8,180.6,272.3,175,272.3"/>
	<path id="Oval_1_" class="st2" d="M175,289.1c3.6,0,6.6-3,6.6-6.6s-3-6.6-6.6-6.6s-6.6,3-6.6,6.6S171.3,289.1,175,289.1z"/>
</g>
<g class="dot-5">
	<path id="Fill-1_5_" class="st3" d="M457,213.3c-5.6,0-10.2,4.5-10.2,10c0,6.8,9.1,16.9,9.5,17.3c0.4,0.4,1,0.4,1.4,0
		s9.5-10.5,9.5-17.3C467.2,217.8,462.6,213.3,457,213.3"/>
	<path id="Oval_2_" class="st2" d="M457,230.1c3.6,0,6.6-3,6.6-6.6s-3-6.6-6.6-6.6s-6.6,3-6.6,6.6S453.3,230.1,457,230.1z"/>
</g>
<g class="dot-4">
	<path id="Fill-1_10_" class="st3" d="M437.6,227.1c-5.6,0-10.2,4.5-10.2,10c0,6.8,9.1,16.9,9.5,17.3c0.4,0.4,1,0.4,1.4,0
		s9.5-10.5,9.5-17.3C447.8,231.6,443.2,227.1,437.6,227.1"/>
	<path id="Oval_4_" class="st2" d="M437.6,243.9c3.6,0,6.6-3,6.6-6.6s-3-6.6-6.6-6.6s-6.6,3-6.6,6.6S433.9,243.9,437.6,243.9z"/>
</g>
</svg>
