<svg version="1.1" id="Слой_1" xmlns="http://www.w3.org/2000/svg" x="0" y="0" viewBox="0 0 330 330" xml:space="preserve"><style>.st1{fill:none}.st3{fill:#fff}</style><g id="Group-1482"><g id="Group-101" opacity=".246"><g id="Group-9" transform="translate(179.871)"><path id="Clip-8" class="st1" d="M43.9 43.3h6.9V78h-6.9V43.3z"/><path class="st1" d="M43.9 43.3h6.9V78h-6.9z"/></g><g id="Group-12" transform="translate(154.82)"><path id="Clip-11" class="st1" d="M44 43.3h6.9V78H44V43.3z"/><path class="st1" d="M44 43.3h6.9V78H44z"/></g><g id="Group-15" transform="translate(130.27)"><path id="Clip-14" class="st1" d="M43.6 43.3h6.9V78h-6.9V43.3z"/><path class="st1" d="M43.6 43.3h6.9V78h-6.9z"/></g><g id="Group-18" transform="translate(105.215)"><path id="Clip-17" class="st1" d="M43.7 43.3h6.9V78h-6.9V43.3z"/><path class="st1" d="M43.7 43.3h6.9V78h-6.9z"/></g><g id="Group-21" transform="translate(80.164)"><path id="Clip-20" class="st1" d="M43.8 43.3h6.9V78h-6.9V43.3z"/><path class="st1" d="M43.8 43.3h6.9V78h-6.9z"/></g><g id="Group-24" transform="translate(55.113)"><path id="Clip-23" class="st1" d="M43.9 43.3h6.9V78h-6.9V43.3z"/><path class="st1" d="M43.9 43.3h6.9V78h-6.9z"/></g><g id="Group-27" transform="translate(179.871 208.354)"><path id="Clip-26" class="st1" d="M43.9 43.4h6.9v34.7h-6.9V43.4z"/><path class="st1" d="M43.9 43.4h6.9v34.7h-6.9z"/></g><g id="Group-30" transform="translate(154.82 208.354)"><path id="Clip-29" class="st1" d="M44 43.4h6.9v34.7H44V43.4z"/><path class="st1" d="M44 43.4h6.9v34.7H44z"/></g><g id="Group-33" transform="translate(130.27 208.354)"><path id="Clip-32" class="st1" d="M43.6 43.4h6.9v34.7h-6.9V43.4z"/><path class="st1" d="M43.6 43.4h6.9v34.7h-6.9z"/></g><g id="Group-36" transform="translate(105.215 208.354)"><path id="Clip-35" class="st1" d="M43.7 43.4h6.9v34.7h-6.9V43.4z"/><path class="st1" d="M43.7 43.4h6.9v34.7h-6.9z"/></g><g id="Group-39" transform="translate(80.164 208.354)"><path id="Clip-38" class="st1" d="M43.8 43.4h6.9v34.7h-6.9V43.4z"/><path class="st1" d="M43.8 43.4h6.9v34.7h-6.9z"/></g><g id="Group-42" transform="translate(55.113 208.354)"><path id="Clip-41" class="st1" d="M43.9 43.4h6.9v34.7h-6.9V43.4z"/><path class="st1" d="M43.9 43.4h6.9v34.7h-6.9z"/></g><g id="Group-45" transform="translate(207.93 180.74)"><path id="Clip-44" class="st1" d="M43.6 43.2h34.7v6.9H43.6v-6.9z"/><path class="st1" d="M43.6 43.2h34.7v6.9H43.6z"/></g><g id="Group-48" transform="translate(207.93 155.638)"><path id="Clip-47" class="st1" d="M43.6 43.3h34.7v6.9H43.6v-6.9z"/><path class="st1" d="M43.6 43.3h34.7v6.9H43.6z"/></g><g id="Group-51" transform="translate(207.93 130.535)"><path id="Clip-50" class="st1" d="M43.6 43.4h34.7v6.9H43.6v-6.9z"/><path class="st1" d="M43.6 43.4h34.7v6.9H43.6z"/></g><g id="Group-54" transform="translate(207.93 105.934)"><path id="Clip-53" class="st1" d="M43.6 43h34.7v6.9H43.6V43z"/><path class="st1" d="M43.6 43h34.7v6.9H43.6z"/></g><path d="M282.9 130.9c1.8 0 3.3-1.5 3.3-3.3v-.4c0-1.8-1.5-3.3-3.3-3.3h-24.4v-18h24.4c1.8 0 3.3-1.5 3.3-3.3v-.2c0-1.8-1.5-3.3-3.3-3.3h-24.4V85c0-7.7-6.2-13.9-13.9-13.9h-13.9V46.8c0-1.9-1.6-3.5-3.5-3.5s-3.5 1.6-3.5 3.5v24.3h-18V46.8c0-1.9-1.6-3.5-3.5-3.5s-3.5 1.6-3.5 3.5v24.3h-18V46.8c0-1.9-1.6-3.5-3.5-3.5s-3.5 1.6-3.5 3.5v24.3h-18V46.8c0-1.9-1.6-3.5-3.5-3.5s-3.5 1.6-3.5 3.5v24.3h-18V46.8c0-1.9-1.6-3.5-3.5-3.5s-3.5 1.6-3.5 3.5v24.3h-18V46.8c0-1.9-1.6-3.5-3.5-3.5s-3.5 1.6-3.5 3.5v24.3H85.1c-7.7 0-13.9 6.2-13.9 13.9v13.9H47c-1.9 0-3.5 1.6-3.5 3.5s1.6 3.5 3.5 3.5h24.3V124H47c-1.9-.1-3.5 1.5-3.5 3.4s1.6 3.5 3.5 3.5h24.3V149H47c-1.9 0-3.5 1.6-3.5 3.5s1.6 3.5 3.5 3.5h24.3v18.1H47c-1.9 0-3.5 1.6-3.5 3.5s1.6 3.5 3.5 3.5h24.3v18.1H47c-1.9 0-3.5 1.6-3.5 3.5s1.6 3.5 3.5 3.5h24.3v18.1H47c-1.9 0-3.5 1.6-3.5 3.5s1.6 3.5 3.5 3.5h24.3v13.9c0 7.7 6.2 13.9 13.9 13.9h13.9v24.3c0 1.9 1.6 3.5 3.5 3.5s3.5-1.6 3.5-3.5v-24.3h18v24.3c0 1.9 1.6 3.5 3.5 3.5s3.5-1.6 3.5-3.5v-24.3h18v24.3c0 1.9 1.6 3.5 3.5 3.5s3.5-1.6 3.5-3.5v-24.3h18v24.3c0 1.9 1.6 3.5 3.5 3.5s3.5-1.6 3.5-3.5v-24.3h18v24.3c0 1.9 1.6 3.5 3.5 3.5s3.5-1.6 3.5-3.5v-24.3h18v24.3c0 1.9 1.6 3.5 3.5 3.5s3.5-1.6 3.5-3.5v-24.3H245c7.7 0 13.9-6.2 13.9-13.9v-13.9h24.3c1.9 0 3.5-1.6 3.5-3.5s-1.6-3.5-3.5-3.5h-24.3v-18.1h24.3c1.9 0 3.5-1.6 3.5-3.5s-1.6-3.5-3.5-3.5h-24.3v-18.1h24.3c1.9 0 3.5-1.6 3.5-3.5s-1.6-3.5-3.5-3.5h-24.3V156h24.3c1.9 0 3.5-1.6 3.5-3.5s-1.6-3.5-3.5-3.5h-24.3v-18.1h24zm-31.4 113.9c0 3.8-3.1 6.9-6.9 6.9H85.1c-3.8 0-6.9-3.1-6.9-6.9V85c0-3.8 3.1-6.9 6.9-6.9h159.4c3.8 0 6.9 3.1 6.9 6.9v159.8h.1z"/><path d="M237.6 116.5c0-.1 0-.1 0 0V99c0-3.8-3.1-6.9-6.9-6.9H99c-3.8 0-6.9 3.1-6.9 6.9v73.5c0 1.9 1.6 3.5 3.5 3.5s3.5-1.6 3.5-3.5V98.9h131.7V113h-25c-.9 0-1.8.4-2.5 1l-7.9 7.9c-.6.7-1 1.5-1 2.5 0 1.9 1.6 3.5 3.5 3.5.9 0 1.8-.4 2.5-1l6.9-6.9h23.5v111H99v-17.2c0-1.9-1.6-3.5-3.5-3.5s-3.5 1.6-3.5 3.5V231c0 3.8 3.1 6.9 6.9 6.9h131.7c3.8 0 6.9-3.1 6.9-6.9l.1-114.5z"/></g><g id="Group-231" transform="translate(41 43)"><path d="M121.5 43c-43 0-78 34.8-78 77.5s35 77.5 78 77.5 78-34.8 78-77.5-35-77.5-78-77.5z" fill="#e84242"/><path id="Fill-230" class="st3" d="M101.1 146.9c.8-1 2-2.2 3.3-3.4 1.4-1.2 3-2.4 4.8-3.4s3.8-1.9 6.1-2.7c2.3-.7 4.7-1.1 7.4-1.1s5 .2 6.9.5c1.9.3 3.6.6 5.1.9 1.5.3 3 .6 4.4.9 1.4.3 2.9.4 4.6.5 3.2 0 5.7-.7 7.5-2 1.8-1.4 2.7-3.9 2.7-7.6h12.3c0 7.9-.8 14.2-2.3 18.9s-3.6 8.2-6.2 10.6c-2.6 2.4-5.7 4-9.3 4.6-3.6.7-7.4 1-11.5 1-3.3 0-6.4-.3-9.4-1-3-.6-5.9-1.3-8.7-2.1-2.8-.7-5.4-1.4-7.9-2.1s-4.9-1-7.1-1c-1.9 0-3.4.3-4.5.8s-2 1.1-2.7 1.6c-.8.7-1.4 1.5-1.8 2.3l-14.4-.1c0-6.2.7-11.6 2.1-16.1s3.3-8.5 5.6-11.9 5-6.3 8-8.7c3-2.4 6-4.5 9.1-6.4 3.1-1.8 6.1-3.4 9.1-4.9 3-1.4 5.6-2.9 8-4.5 2.3-1.5 4.2-3.2 5.6-5s2.1-3.9 2.1-6.3c0-3.7-1.4-6.4-4.3-8.2-2.9-1.8-6.3-2.7-10.3-2.7-2.8 0-5.4.2-7.6.6-2.3.4-4.4 1.1-6.5 2.2 2.5.8 4.8 2 6.6 3.6 1.9 1.7 2.8 4.1 2.8 7.4 0 1.4-.3 2.8-1 4.2-.7 1.3-1.6 2.6-2.8 3.7-1.2 1.1-2.8 2-4.7 2.6-1.9.6-4 .9-6.4.9-1.8 0-3.6-.3-5.5-.9-1.9-.6-3.6-1.5-5.1-2.8s-2.8-3-3.7-5.1c-1-2.1-1.5-4.6-1.4-7.6 0-4 1.1-7.6 3.2-10.9 2.1-3.3 5.1-6.2 9-8.6 3.9-2.4 8.5-4.3 13.9-5.6s11.3-1.9 17.7-1.9c6.8 0 12.9.8 18.1 2.2 5.2 1.5 9.6 3.5 13.1 6.1 3.5 2.6 6.2 5.5 8 8.9s2.7 7 2.7 10.9c0 4.6-.8 8.5-2.3 11.6s-3.6 5.7-6.1 7.7c-2.6 2-5.5 3.7-8.9 5s-6.9 2.4-10.5 3.4c-3.7 1-7.4 2-11.1 2.9-3.8 1-7.3 2.2-10.7 3.6-3.4 1.5-6.5 3.3-9.3 5.4-2.8 2.2-5 5-6.6 8.3l.8.8z"/><path class="st3" d="M121.5 48.3c-31.2 0-57.8 19.6-68.1 47.1-.4 1-.7 2.1-1 3.2-.7 2.3-1.3 4.7-1.8 7.1-.5 2.4-.9 4.8-1.1 7.2s-.4 4.9-.4 7.3.1 4.9.4 7.3.6 4.8 1.1 7.2 1.1 4.8 1.8 7.1 1.5 4.6 2.5 6.9c.9 2.3 2 4.5 3.1 6.6.3.5.5 1 .8 1.4 12.6 21.5 36 35.9 62.8 35.9 40.1 0 72.7-32.4 72.7-72.2-.1-39.7-32.7-72.1-72.8-72.1zm68.3 85.7c-.4 2.2-1 4.4-1.7 6.6-.7 2.2-1.4 4.3-2.3 6.4-.9 2.1-1.8 4.1-2.9 6.1-1.1 2-2.2 3.9-3.5 5.8-1.3 1.9-2.6 3.7-4.1 5.5-1.4 1.8-3 3.4-4.6 5-1.6 1.6-3.3 3.1-5.1 4.6-1.8 1.4-3.6 2.8-5.5 4-1.9 1.3-3.8 2.4-5.9 3.5-2 1.1-4.1 2-6.2 2.9s-4.3 1.6-6.4 2.3c-2.2.7-4.4 1.2-6.6 1.6-2.2.4-4.5.8-6.8 1s-4.5.3-6.8.3-4.6-.1-6.8-.3c-2.3-.2-4.5-.6-6.8-1-2.2-.4-4.4-1-6.6-1.6-2.2-.7-4.3-1.4-6.4-2.3-2.1-.9-4.2-1.8-6.2-2.9-2-1.1-4-2.2-5.9-3.5-1.9-1.3-3.7-2.6-5.5-4-1.8-1.4-3.4-3-5.1-4.6-1.6-1.6-3.1-3.3-4.6-5-1.4-1.8-2.8-3.6-4.1-5.5-1.3-1.9-2.4-3.8-3.5-5.8s-2-4-2.9-6.1-1.6-4.2-2.3-6.4c-.7-2.2-1.2-4.4-1.7-6.6-.4-2.2-.8-4.5-1-6.7a77.33 77.33 0 010-13.6c.2-2.3.6-4.5 1-6.7s1-4.4 1.7-6.6c.7-2.2 1.4-4.3 2.3-6.4.9-2.1 1.8-4.1 2.9-6.1 1.1-2 2.2-3.9 3.5-5.8 1.3-1.9 2.6-3.7 4.1-5.5 1.4-1.8 3-3.4 4.6-5 1.6-1.6 3.3-3.1 5.1-4.6 1.8-1.4 3.6-2.8 5.5-4 1.9-1.3 3.8-2.4 5.9-3.5 2-1.1 4.1-2 6.2-2.9 2.1-.9 4.3-1.6 6.4-2.3 2.2-.7 4.4-1.2 6.6-1.6 2.2-.4 4.5-.8 6.8-1s4.5-.3 6.8-.3 4.6.1 6.8.3c2.3.2 4.5.6 6.8 1 2.2.4 4.4 1 6.6 1.6 2.2.7 4.3 1.4 6.4 2.3 2.1.9 4.2 1.8 6.2 2.9 2 1.1 4 2.2 5.9 3.5 1.9 1.3 3.7 2.6 5.5 4 1.8 1.4 3.4 3 5.1 4.6 1.7 1.6 3.1 3.3 4.6 5 1.4 1.8 2.8 3.6 4.1 5.5 1.3 1.9 2.4 3.8 3.5 5.8s2 4 2.9 6.1 1.6 4.2 2.3 6.4 1.2 4.4 1.7 6.6c.4 2.2.8 4.5 1 6.7a77.33 77.33 0 010 13.6c-.2 2.2-.6 4.5-1 6.7z"/></g></g></svg>